%TF.GenerationSoftware,KiCad,Pcbnew,4.0.2-4+6225~38~ubuntu14.04.1-stable*%
%TF.CreationDate,2016-04-15T15:47:36+01:00*%
%TF.ProjectId,basic,62617369632E6B696361645F70636200,rev?*%
%TF.FileFunction,Legend,Top*%
%FSLAX46Y46*%
G04 Gerber Fmt 4.6, Leading zero omitted, Abs format (unit mm)*
G04 Created by KiCad (PCBNEW 4.0.2-4+6225~38~ubuntu14.04.1-stable) date Fri 15 Apr 2016 15:47:36 BST*
%MOMM*%
G01*
G04 APERTURE LIST*
%ADD10C,0.100000*%
%ADD11C,0.150000*%
%ADD12C,0.010000*%
%ADD13R,2.400000X2.300000*%
%ADD14C,2.300000*%
%ADD15C,5.900000*%
%ADD16C,1.797000*%
%ADD17R,2.432000X2.127200*%
%ADD18O,2.432000X2.127200*%
%ADD19C,2.398980*%
G04 APERTURE END LIST*
D10*
D11*
X125797905Y-113772381D02*
X125797905Y-112772381D01*
X126036000Y-112772381D01*
X126178858Y-112820000D01*
X126274096Y-112915238D01*
X126321715Y-113010476D01*
X126369334Y-113200952D01*
X126369334Y-113343810D01*
X126321715Y-113534286D01*
X126274096Y-113629524D01*
X126178858Y-113724762D01*
X126036000Y-113772381D01*
X125797905Y-113772381D01*
X126750286Y-112867619D02*
X126797905Y-112820000D01*
X126893143Y-112772381D01*
X127131239Y-112772381D01*
X127226477Y-112820000D01*
X127274096Y-112867619D01*
X127321715Y-112962857D01*
X127321715Y-113058095D01*
X127274096Y-113200952D01*
X126702667Y-113772381D01*
X127321715Y-113772381D01*
X163643905Y-113772381D02*
X163643905Y-112772381D01*
X163882000Y-112772381D01*
X164024858Y-112820000D01*
X164120096Y-112915238D01*
X164167715Y-113010476D01*
X164215334Y-113200952D01*
X164215334Y-113343810D01*
X164167715Y-113534286D01*
X164120096Y-113629524D01*
X164024858Y-113724762D01*
X163882000Y-113772381D01*
X163643905Y-113772381D01*
X165167715Y-113772381D02*
X164596286Y-113772381D01*
X164882000Y-113772381D02*
X164882000Y-112772381D01*
X164786762Y-112915238D01*
X164691524Y-113010476D01*
X164596286Y-113058095D01*
X132577714Y-120792381D02*
X132577714Y-119792381D01*
X133006286Y-120792381D02*
X133006286Y-120268571D01*
X132958667Y-120173333D01*
X132863429Y-120125714D01*
X132720571Y-120125714D01*
X132625333Y-120173333D01*
X132577714Y-120220952D01*
X133339619Y-120125714D02*
X133720571Y-120125714D01*
X133482476Y-119792381D02*
X133482476Y-120649524D01*
X133530095Y-120744762D01*
X133625333Y-120792381D01*
X133720571Y-120792381D01*
X133911048Y-120125714D02*
X134292000Y-120125714D01*
X134053905Y-119792381D02*
X134053905Y-120649524D01*
X134101524Y-120744762D01*
X134196762Y-120792381D01*
X134292000Y-120792381D01*
X134625334Y-120125714D02*
X134625334Y-121125714D01*
X134625334Y-120173333D02*
X134720572Y-120125714D01*
X134911049Y-120125714D01*
X135006287Y-120173333D01*
X135053906Y-120220952D01*
X135101525Y-120316190D01*
X135101525Y-120601905D01*
X135053906Y-120697143D01*
X135006287Y-120744762D01*
X134911049Y-120792381D01*
X134720572Y-120792381D01*
X134625334Y-120744762D01*
X135482477Y-120744762D02*
X135577715Y-120792381D01*
X135768191Y-120792381D01*
X135863430Y-120744762D01*
X135911049Y-120649524D01*
X135911049Y-120601905D01*
X135863430Y-120506667D01*
X135768191Y-120459048D01*
X135625334Y-120459048D01*
X135530096Y-120411429D01*
X135482477Y-120316190D01*
X135482477Y-120268571D01*
X135530096Y-120173333D01*
X135625334Y-120125714D01*
X135768191Y-120125714D01*
X135863430Y-120173333D01*
X136339620Y-120697143D02*
X136387239Y-120744762D01*
X136339620Y-120792381D01*
X136292001Y-120744762D01*
X136339620Y-120697143D01*
X136339620Y-120792381D01*
X136339620Y-120173333D02*
X136387239Y-120220952D01*
X136339620Y-120268571D01*
X136292001Y-120220952D01*
X136339620Y-120173333D01*
X136339620Y-120268571D01*
X137530096Y-119744762D02*
X136672953Y-121030476D01*
X138577715Y-119744762D02*
X137720572Y-121030476D01*
X139339620Y-120125714D02*
X139339620Y-120935238D01*
X139292001Y-121030476D01*
X139244382Y-121078095D01*
X139149143Y-121125714D01*
X139006286Y-121125714D01*
X138911048Y-121078095D01*
X139339620Y-120744762D02*
X139244382Y-120792381D01*
X139053905Y-120792381D01*
X138958667Y-120744762D01*
X138911048Y-120697143D01*
X138863429Y-120601905D01*
X138863429Y-120316190D01*
X138911048Y-120220952D01*
X138958667Y-120173333D01*
X139053905Y-120125714D01*
X139244382Y-120125714D01*
X139339620Y-120173333D01*
X139815810Y-120792381D02*
X139815810Y-120125714D01*
X139815810Y-119792381D02*
X139768191Y-119840000D01*
X139815810Y-119887619D01*
X139863429Y-119840000D01*
X139815810Y-119792381D01*
X139815810Y-119887619D01*
X140149143Y-120125714D02*
X140530095Y-120125714D01*
X140292000Y-119792381D02*
X140292000Y-120649524D01*
X140339619Y-120744762D01*
X140434857Y-120792381D01*
X140530095Y-120792381D01*
X140863429Y-120792381D02*
X140863429Y-119792381D01*
X141292001Y-120792381D02*
X141292001Y-120268571D01*
X141244382Y-120173333D01*
X141149144Y-120125714D01*
X141006286Y-120125714D01*
X140911048Y-120173333D01*
X140863429Y-120220952D01*
X142196763Y-120125714D02*
X142196763Y-120792381D01*
X141768191Y-120125714D02*
X141768191Y-120649524D01*
X141815810Y-120744762D01*
X141911048Y-120792381D01*
X142053906Y-120792381D01*
X142149144Y-120744762D01*
X142196763Y-120697143D01*
X142672953Y-120792381D02*
X142672953Y-119792381D01*
X142672953Y-120173333D02*
X142768191Y-120125714D01*
X142958668Y-120125714D01*
X143053906Y-120173333D01*
X143101525Y-120220952D01*
X143149144Y-120316190D01*
X143149144Y-120601905D01*
X143101525Y-120697143D01*
X143053906Y-120744762D01*
X142958668Y-120792381D01*
X142768191Y-120792381D01*
X142672953Y-120744762D01*
X143577715Y-120697143D02*
X143625334Y-120744762D01*
X143577715Y-120792381D01*
X143530096Y-120744762D01*
X143577715Y-120697143D01*
X143577715Y-120792381D01*
X144482477Y-120744762D02*
X144387239Y-120792381D01*
X144196762Y-120792381D01*
X144101524Y-120744762D01*
X144053905Y-120697143D01*
X144006286Y-120601905D01*
X144006286Y-120316190D01*
X144053905Y-120220952D01*
X144101524Y-120173333D01*
X144196762Y-120125714D01*
X144387239Y-120125714D01*
X144482477Y-120173333D01*
X145053905Y-120792381D02*
X144958667Y-120744762D01*
X144911048Y-120697143D01*
X144863429Y-120601905D01*
X144863429Y-120316190D01*
X144911048Y-120220952D01*
X144958667Y-120173333D01*
X145053905Y-120125714D01*
X145196763Y-120125714D01*
X145292001Y-120173333D01*
X145339620Y-120220952D01*
X145387239Y-120316190D01*
X145387239Y-120601905D01*
X145339620Y-120697143D01*
X145292001Y-120744762D01*
X145196763Y-120792381D01*
X145053905Y-120792381D01*
X145815810Y-120792381D02*
X145815810Y-120125714D01*
X145815810Y-120220952D02*
X145863429Y-120173333D01*
X145958667Y-120125714D01*
X146101525Y-120125714D01*
X146196763Y-120173333D01*
X146244382Y-120268571D01*
X146244382Y-120792381D01*
X146244382Y-120268571D02*
X146292001Y-120173333D01*
X146387239Y-120125714D01*
X146530096Y-120125714D01*
X146625334Y-120173333D01*
X146672953Y-120268571D01*
X146672953Y-120792381D01*
X147863429Y-119744762D02*
X147006286Y-121030476D01*
X148053905Y-120125714D02*
X148434857Y-120125714D01*
X148196762Y-119792381D02*
X148196762Y-120649524D01*
X148244381Y-120744762D01*
X148339619Y-120792381D01*
X148434857Y-120792381D01*
X148768191Y-120792381D02*
X148768191Y-119792381D01*
X149196763Y-120792381D02*
X149196763Y-120268571D01*
X149149144Y-120173333D01*
X149053906Y-120125714D01*
X148911048Y-120125714D01*
X148815810Y-120173333D01*
X148768191Y-120220952D01*
X150053906Y-120744762D02*
X149958668Y-120792381D01*
X149768191Y-120792381D01*
X149672953Y-120744762D01*
X149625334Y-120649524D01*
X149625334Y-120268571D01*
X149672953Y-120173333D01*
X149768191Y-120125714D01*
X149958668Y-120125714D01*
X150053906Y-120173333D01*
X150101525Y-120268571D01*
X150101525Y-120363810D01*
X149625334Y-120459048D01*
X150958668Y-120792381D02*
X150958668Y-120268571D01*
X150911049Y-120173333D01*
X150815811Y-120125714D01*
X150625334Y-120125714D01*
X150530096Y-120173333D01*
X150958668Y-120744762D02*
X150863430Y-120792381D01*
X150625334Y-120792381D01*
X150530096Y-120744762D01*
X150482477Y-120649524D01*
X150482477Y-120554286D01*
X150530096Y-120459048D01*
X150625334Y-120411429D01*
X150863430Y-120411429D01*
X150958668Y-120363810D01*
X151434858Y-120125714D02*
X151434858Y-121125714D01*
X151434858Y-120173333D02*
X151530096Y-120125714D01*
X151720573Y-120125714D01*
X151815811Y-120173333D01*
X151863430Y-120220952D01*
X151911049Y-120316190D01*
X151911049Y-120601905D01*
X151863430Y-120697143D01*
X151815811Y-120744762D01*
X151720573Y-120792381D01*
X151530096Y-120792381D01*
X151434858Y-120744762D01*
X152339620Y-120792381D02*
X152339620Y-120125714D01*
X152339620Y-119792381D02*
X152292001Y-119840000D01*
X152339620Y-119887619D01*
X152387239Y-119840000D01*
X152339620Y-119792381D01*
X152339620Y-119887619D01*
X153530096Y-119744762D02*
X152672953Y-121030476D01*
X154292001Y-120792381D02*
X154292001Y-119792381D01*
X154292001Y-120744762D02*
X154196763Y-120792381D01*
X154006286Y-120792381D01*
X153911048Y-120744762D01*
X153863429Y-120697143D01*
X153815810Y-120601905D01*
X153815810Y-120316190D01*
X153863429Y-120220952D01*
X153911048Y-120173333D01*
X154006286Y-120125714D01*
X154196763Y-120125714D01*
X154292001Y-120173333D01*
X155149144Y-120744762D02*
X155053906Y-120792381D01*
X154863429Y-120792381D01*
X154768191Y-120744762D01*
X154720572Y-120649524D01*
X154720572Y-120268571D01*
X154768191Y-120173333D01*
X154863429Y-120125714D01*
X155053906Y-120125714D01*
X155149144Y-120173333D01*
X155196763Y-120268571D01*
X155196763Y-120363810D01*
X154720572Y-120459048D01*
X155625334Y-120125714D02*
X155625334Y-120792381D01*
X155625334Y-120220952D02*
X155672953Y-120173333D01*
X155768191Y-120125714D01*
X155911049Y-120125714D01*
X156006287Y-120173333D01*
X156053906Y-120268571D01*
X156053906Y-120792381D01*
X156530096Y-120792381D02*
X156530096Y-119792381D01*
X156530096Y-120173333D02*
X156625334Y-120125714D01*
X156815811Y-120125714D01*
X156911049Y-120173333D01*
X156958668Y-120220952D01*
X157006287Y-120316190D01*
X157006287Y-120601905D01*
X156958668Y-120697143D01*
X156911049Y-120744762D01*
X156815811Y-120792381D01*
X156625334Y-120792381D01*
X156530096Y-120744762D01*
X157434858Y-120792381D02*
X157434858Y-120125714D01*
X157434858Y-119792381D02*
X157387239Y-119840000D01*
X157434858Y-119887619D01*
X157482477Y-119840000D01*
X157434858Y-119792381D01*
X157434858Y-119887619D01*
X157768191Y-120125714D02*
X158149143Y-120125714D01*
X157911048Y-119792381D02*
X157911048Y-120649524D01*
X157958667Y-120744762D01*
X158053905Y-120792381D01*
X158149143Y-120792381D01*
X141214023Y-118582381D02*
X141339023Y-117582381D01*
X141577118Y-117582381D01*
X141714024Y-117630000D01*
X141797357Y-117725238D01*
X141833072Y-117820476D01*
X141856881Y-118010952D01*
X141839024Y-118153810D01*
X141767595Y-118344286D01*
X141708072Y-118439524D01*
X141600929Y-118534762D01*
X141452118Y-118582381D01*
X141214023Y-118582381D01*
X142600929Y-118534762D02*
X142499738Y-118582381D01*
X142309261Y-118582381D01*
X142219976Y-118534762D01*
X142184262Y-118439524D01*
X142231881Y-118058571D01*
X142291404Y-117963333D01*
X142392595Y-117915714D01*
X142583072Y-117915714D01*
X142672357Y-117963333D01*
X142708072Y-118058571D01*
X142696167Y-118153810D01*
X142208071Y-118249048D01*
X143154500Y-117915714D02*
X143071166Y-118582381D01*
X143142595Y-118010952D02*
X143196166Y-117963333D01*
X143297357Y-117915714D01*
X143440215Y-117915714D01*
X143529500Y-117963333D01*
X143565215Y-118058571D01*
X143499738Y-118582381D01*
X143975928Y-118582381D02*
X144100928Y-117582381D01*
X144053309Y-117963333D02*
X144154500Y-117915714D01*
X144344977Y-117915714D01*
X144434262Y-117963333D01*
X144475929Y-118010952D01*
X144511643Y-118106190D01*
X144475929Y-118391905D01*
X144416405Y-118487143D01*
X144362834Y-118534762D01*
X144261643Y-118582381D01*
X144071166Y-118582381D01*
X143981881Y-118534762D01*
X144880690Y-118582381D02*
X144964024Y-117915714D01*
X145005690Y-117582381D02*
X144952119Y-117630000D01*
X144993786Y-117677619D01*
X145047357Y-117630000D01*
X145005690Y-117582381D01*
X144993786Y-117677619D01*
X145297357Y-117915714D02*
X145678309Y-117915714D01*
X145481880Y-117582381D02*
X145374738Y-118439524D01*
X145410452Y-118534762D01*
X145499737Y-118582381D01*
X145594975Y-118582381D01*
X146678310Y-117915714D02*
X146833071Y-118582381D01*
X147154501Y-117915714D01*
X147975929Y-118582381D02*
X147404500Y-118582381D01*
X147690214Y-118582381D02*
X147815214Y-117582381D01*
X147702119Y-117725238D01*
X147594977Y-117820476D01*
X147493786Y-117868095D01*
X148416405Y-118487143D02*
X148458072Y-118534762D01*
X148404500Y-118582381D01*
X148362834Y-118534762D01*
X148416405Y-118487143D01*
X148404500Y-118582381D01*
X149196166Y-117582381D02*
X149291405Y-117582381D01*
X149380691Y-117630000D01*
X149422358Y-117677619D01*
X149458072Y-117772857D01*
X149481881Y-117963333D01*
X149452119Y-118201429D01*
X149380691Y-118391905D01*
X149321167Y-118487143D01*
X149267596Y-118534762D01*
X149166405Y-118582381D01*
X149071166Y-118582381D01*
X148981881Y-118534762D01*
X148940214Y-118487143D01*
X148904500Y-118391905D01*
X148880690Y-118201429D01*
X148910452Y-117963333D01*
X148981881Y-117772857D01*
X149041405Y-117677619D01*
X149094976Y-117630000D01*
X149196166Y-117582381D01*
X160495714Y-77084381D02*
X160495714Y-76084381D01*
X160733809Y-76084381D01*
X160876667Y-76132000D01*
X160971905Y-76227238D01*
X161019524Y-76322476D01*
X161067143Y-76512952D01*
X161067143Y-76655810D01*
X161019524Y-76846286D01*
X160971905Y-76941524D01*
X160876667Y-77036762D01*
X160733809Y-77084381D01*
X160495714Y-77084381D01*
X162019524Y-77084381D02*
X161448095Y-77084381D01*
X161733809Y-77084381D02*
X161733809Y-76084381D01*
X161638571Y-76227238D01*
X161543333Y-76322476D01*
X161448095Y-76370095D01*
X162638571Y-76084381D02*
X162733810Y-76084381D01*
X162829048Y-76132000D01*
X162876667Y-76179619D01*
X162924286Y-76274857D01*
X162971905Y-76465333D01*
X162971905Y-76703429D01*
X162924286Y-76893905D01*
X162876667Y-76989143D01*
X162829048Y-77036762D01*
X162733810Y-77084381D01*
X162638571Y-77084381D01*
X162543333Y-77036762D01*
X162495714Y-76989143D01*
X162448095Y-76893905D01*
X162400476Y-76703429D01*
X162400476Y-76465333D01*
X162448095Y-76274857D01*
X162495714Y-76179619D01*
X162543333Y-76132000D01*
X162638571Y-76084381D01*
X149541905Y-77084381D02*
X149541905Y-76084381D01*
X149780000Y-76084381D01*
X149922858Y-76132000D01*
X150018096Y-76227238D01*
X150065715Y-76322476D01*
X150113334Y-76512952D01*
X150113334Y-76655810D01*
X150065715Y-76846286D01*
X150018096Y-76941524D01*
X149922858Y-77036762D01*
X149780000Y-77084381D01*
X149541905Y-77084381D01*
X150589524Y-77084381D02*
X150780000Y-77084381D01*
X150875239Y-77036762D01*
X150922858Y-76989143D01*
X151018096Y-76846286D01*
X151065715Y-76655810D01*
X151065715Y-76274857D01*
X151018096Y-76179619D01*
X150970477Y-76132000D01*
X150875239Y-76084381D01*
X150684762Y-76084381D01*
X150589524Y-76132000D01*
X150541905Y-76179619D01*
X150494286Y-76274857D01*
X150494286Y-76512952D01*
X150541905Y-76608190D01*
X150589524Y-76655810D01*
X150684762Y-76703429D01*
X150875239Y-76703429D01*
X150970477Y-76655810D01*
X151018096Y-76608190D01*
X151065715Y-76512952D01*
X139635905Y-77084381D02*
X139635905Y-76084381D01*
X139874000Y-76084381D01*
X140016858Y-76132000D01*
X140112096Y-76227238D01*
X140159715Y-76322476D01*
X140207334Y-76512952D01*
X140207334Y-76655810D01*
X140159715Y-76846286D01*
X140112096Y-76941524D01*
X140016858Y-77036762D01*
X139874000Y-77084381D01*
X139635905Y-77084381D01*
X140778762Y-76512952D02*
X140683524Y-76465333D01*
X140635905Y-76417714D01*
X140588286Y-76322476D01*
X140588286Y-76274857D01*
X140635905Y-76179619D01*
X140683524Y-76132000D01*
X140778762Y-76084381D01*
X140969239Y-76084381D01*
X141064477Y-76132000D01*
X141112096Y-76179619D01*
X141159715Y-76274857D01*
X141159715Y-76322476D01*
X141112096Y-76417714D01*
X141064477Y-76465333D01*
X140969239Y-76512952D01*
X140778762Y-76512952D01*
X140683524Y-76560571D01*
X140635905Y-76608190D01*
X140588286Y-76703429D01*
X140588286Y-76893905D01*
X140635905Y-76989143D01*
X140683524Y-77036762D01*
X140778762Y-77084381D01*
X140969239Y-77084381D01*
X141064477Y-77036762D01*
X141112096Y-76989143D01*
X141159715Y-76893905D01*
X141159715Y-76703429D01*
X141112096Y-76608190D01*
X141064477Y-76560571D01*
X140969239Y-76512952D01*
X128205905Y-76830381D02*
X128205905Y-75830381D01*
X128444000Y-75830381D01*
X128586858Y-75878000D01*
X128682096Y-75973238D01*
X128729715Y-76068476D01*
X128777334Y-76258952D01*
X128777334Y-76401810D01*
X128729715Y-76592286D01*
X128682096Y-76687524D01*
X128586858Y-76782762D01*
X128444000Y-76830381D01*
X128205905Y-76830381D01*
X129110667Y-75830381D02*
X129777334Y-75830381D01*
X129348762Y-76830381D01*
X164683714Y-86816667D02*
X165159905Y-86816667D01*
X164588476Y-87102381D02*
X164921809Y-86102381D01*
X165255143Y-87102381D01*
X165778952Y-86102381D02*
X165874191Y-86102381D01*
X165969429Y-86150000D01*
X166017048Y-86197619D01*
X166064667Y-86292857D01*
X166112286Y-86483333D01*
X166112286Y-86721429D01*
X166064667Y-86911905D01*
X166017048Y-87007143D01*
X165969429Y-87054762D01*
X165874191Y-87102381D01*
X165778952Y-87102381D01*
X165683714Y-87054762D01*
X165636095Y-87007143D01*
X165588476Y-86911905D01*
X165540857Y-86721429D01*
X165540857Y-86483333D01*
X165588476Y-86292857D01*
X165636095Y-86197619D01*
X165683714Y-86150000D01*
X165778952Y-86102381D01*
X164527905Y-89784381D02*
X164527905Y-88784381D01*
X164766000Y-88784381D01*
X164908858Y-88832000D01*
X165004096Y-88927238D01*
X165051715Y-89022476D01*
X165099334Y-89212952D01*
X165099334Y-89355810D01*
X165051715Y-89546286D01*
X165004096Y-89641524D01*
X164908858Y-89736762D01*
X164766000Y-89784381D01*
X164527905Y-89784381D01*
X166051715Y-89784381D02*
X165480286Y-89784381D01*
X165766000Y-89784381D02*
X165766000Y-88784381D01*
X165670762Y-88927238D01*
X165575524Y-89022476D01*
X165480286Y-89070095D01*
X164405905Y-92182381D02*
X164405905Y-91182381D01*
X164644000Y-91182381D01*
X164786858Y-91230000D01*
X164882096Y-91325238D01*
X164929715Y-91420476D01*
X164977334Y-91610952D01*
X164977334Y-91753810D01*
X164929715Y-91944286D01*
X164882096Y-92039524D01*
X164786858Y-92134762D01*
X164644000Y-92182381D01*
X164405905Y-92182381D01*
X165358286Y-91277619D02*
X165405905Y-91230000D01*
X165501143Y-91182381D01*
X165739239Y-91182381D01*
X165834477Y-91230000D01*
X165882096Y-91277619D01*
X165929715Y-91372857D01*
X165929715Y-91468095D01*
X165882096Y-91610952D01*
X165310667Y-92182381D01*
X165929715Y-92182381D01*
X164405905Y-94722381D02*
X164405905Y-93722381D01*
X164644000Y-93722381D01*
X164786858Y-93770000D01*
X164882096Y-93865238D01*
X164929715Y-93960476D01*
X164977334Y-94150952D01*
X164977334Y-94293810D01*
X164929715Y-94484286D01*
X164882096Y-94579524D01*
X164786858Y-94674762D01*
X164644000Y-94722381D01*
X164405905Y-94722381D01*
X165310667Y-93722381D02*
X165929715Y-93722381D01*
X165596381Y-94103333D01*
X165739239Y-94103333D01*
X165834477Y-94150952D01*
X165882096Y-94198571D01*
X165929715Y-94293810D01*
X165929715Y-94531905D01*
X165882096Y-94627143D01*
X165834477Y-94674762D01*
X165739239Y-94722381D01*
X165453524Y-94722381D01*
X165358286Y-94674762D01*
X165310667Y-94627143D01*
X164405905Y-97262381D02*
X164405905Y-96262381D01*
X164644000Y-96262381D01*
X164786858Y-96310000D01*
X164882096Y-96405238D01*
X164929715Y-96500476D01*
X164977334Y-96690952D01*
X164977334Y-96833810D01*
X164929715Y-97024286D01*
X164882096Y-97119524D01*
X164786858Y-97214762D01*
X164644000Y-97262381D01*
X164405905Y-97262381D01*
X165834477Y-96595714D02*
X165834477Y-97262381D01*
X165596381Y-96214762D02*
X165358286Y-96929048D01*
X165977334Y-96929048D01*
X163874096Y-98850000D02*
X163778858Y-98802381D01*
X163636001Y-98802381D01*
X163493143Y-98850000D01*
X163397905Y-98945238D01*
X163350286Y-99040476D01*
X163302667Y-99230952D01*
X163302667Y-99373810D01*
X163350286Y-99564286D01*
X163397905Y-99659524D01*
X163493143Y-99754762D01*
X163636001Y-99802381D01*
X163731239Y-99802381D01*
X163874096Y-99754762D01*
X163921715Y-99707143D01*
X163921715Y-99373810D01*
X163731239Y-99373810D01*
X164350286Y-99802381D02*
X164350286Y-98802381D01*
X164921715Y-99802381D01*
X164921715Y-98802381D01*
X165397905Y-99802381D02*
X165397905Y-98802381D01*
X165636000Y-98802381D01*
X165778858Y-98850000D01*
X165874096Y-98945238D01*
X165921715Y-99040476D01*
X165969334Y-99230952D01*
X165969334Y-99373810D01*
X165921715Y-99564286D01*
X165874096Y-99659524D01*
X165778858Y-99754762D01*
X165636000Y-99802381D01*
X165397905Y-99802381D01*
X124527905Y-87102381D02*
X124527905Y-86102381D01*
X124766000Y-86102381D01*
X124908858Y-86150000D01*
X125004096Y-86245238D01*
X125051715Y-86340476D01*
X125099334Y-86530952D01*
X125099334Y-86673810D01*
X125051715Y-86864286D01*
X125004096Y-86959524D01*
X124908858Y-87054762D01*
X124766000Y-87102381D01*
X124527905Y-87102381D01*
X125956477Y-86102381D02*
X125766000Y-86102381D01*
X125670762Y-86150000D01*
X125623143Y-86197619D01*
X125527905Y-86340476D01*
X125480286Y-86530952D01*
X125480286Y-86911905D01*
X125527905Y-87007143D01*
X125575524Y-87054762D01*
X125670762Y-87102381D01*
X125861239Y-87102381D01*
X125956477Y-87054762D01*
X126004096Y-87007143D01*
X126051715Y-86911905D01*
X126051715Y-86673810D01*
X126004096Y-86578571D01*
X125956477Y-86530952D01*
X125861239Y-86483333D01*
X125670762Y-86483333D01*
X125575524Y-86530952D01*
X125527905Y-86578571D01*
X125480286Y-86673810D01*
X124527905Y-89642381D02*
X124527905Y-88642381D01*
X124766000Y-88642381D01*
X124908858Y-88690000D01*
X125004096Y-88785238D01*
X125051715Y-88880476D01*
X125099334Y-89070952D01*
X125099334Y-89213810D01*
X125051715Y-89404286D01*
X125004096Y-89499524D01*
X124908858Y-89594762D01*
X124766000Y-89642381D01*
X124527905Y-89642381D01*
X125432667Y-88642381D02*
X126099334Y-88642381D01*
X125670762Y-89642381D01*
X124527905Y-92182381D02*
X124527905Y-91182381D01*
X124766000Y-91182381D01*
X124908858Y-91230000D01*
X125004096Y-91325238D01*
X125051715Y-91420476D01*
X125099334Y-91610952D01*
X125099334Y-91753810D01*
X125051715Y-91944286D01*
X125004096Y-92039524D01*
X124908858Y-92134762D01*
X124766000Y-92182381D01*
X124527905Y-92182381D01*
X125670762Y-91610952D02*
X125575524Y-91563333D01*
X125527905Y-91515714D01*
X125480286Y-91420476D01*
X125480286Y-91372857D01*
X125527905Y-91277619D01*
X125575524Y-91230000D01*
X125670762Y-91182381D01*
X125861239Y-91182381D01*
X125956477Y-91230000D01*
X126004096Y-91277619D01*
X126051715Y-91372857D01*
X126051715Y-91420476D01*
X126004096Y-91515714D01*
X125956477Y-91563333D01*
X125861239Y-91610952D01*
X125670762Y-91610952D01*
X125575524Y-91658571D01*
X125527905Y-91706190D01*
X125480286Y-91801429D01*
X125480286Y-91991905D01*
X125527905Y-92087143D01*
X125575524Y-92134762D01*
X125670762Y-92182381D01*
X125861239Y-92182381D01*
X125956477Y-92134762D01*
X126004096Y-92087143D01*
X126051715Y-91991905D01*
X126051715Y-91801429D01*
X126004096Y-91706190D01*
X125956477Y-91658571D01*
X125861239Y-91610952D01*
X124527905Y-94722381D02*
X124527905Y-93722381D01*
X124766000Y-93722381D01*
X124908858Y-93770000D01*
X125004096Y-93865238D01*
X125051715Y-93960476D01*
X125099334Y-94150952D01*
X125099334Y-94293810D01*
X125051715Y-94484286D01*
X125004096Y-94579524D01*
X124908858Y-94674762D01*
X124766000Y-94722381D01*
X124527905Y-94722381D01*
X125575524Y-94722381D02*
X125766000Y-94722381D01*
X125861239Y-94674762D01*
X125908858Y-94627143D01*
X126004096Y-94484286D01*
X126051715Y-94293810D01*
X126051715Y-93912857D01*
X126004096Y-93817619D01*
X125956477Y-93770000D01*
X125861239Y-93722381D01*
X125670762Y-93722381D01*
X125575524Y-93770000D01*
X125527905Y-93817619D01*
X125480286Y-93912857D01*
X125480286Y-94150952D01*
X125527905Y-94246190D01*
X125575524Y-94293810D01*
X125670762Y-94341429D01*
X125861239Y-94341429D01*
X125956477Y-94293810D01*
X126004096Y-94246190D01*
X126051715Y-94150952D01*
X124559714Y-97262381D02*
X124559714Y-96262381D01*
X124797809Y-96262381D01*
X124940667Y-96310000D01*
X125035905Y-96405238D01*
X125083524Y-96500476D01*
X125131143Y-96690952D01*
X125131143Y-96833810D01*
X125083524Y-97024286D01*
X125035905Y-97119524D01*
X124940667Y-97214762D01*
X124797809Y-97262381D01*
X124559714Y-97262381D01*
X126083524Y-97262381D02*
X125512095Y-97262381D01*
X125797809Y-97262381D02*
X125797809Y-96262381D01*
X125702571Y-96405238D01*
X125607333Y-96500476D01*
X125512095Y-96548095D01*
X126702571Y-96262381D02*
X126797810Y-96262381D01*
X126893048Y-96310000D01*
X126940667Y-96357619D01*
X126988286Y-96452857D01*
X127035905Y-96643333D01*
X127035905Y-96881429D01*
X126988286Y-97071905D01*
X126940667Y-97167143D01*
X126893048Y-97214762D01*
X126797810Y-97262381D01*
X126702571Y-97262381D01*
X126607333Y-97214762D01*
X126559714Y-97167143D01*
X126512095Y-97071905D01*
X126464476Y-96881429D01*
X126464476Y-96643333D01*
X126512095Y-96452857D01*
X126559714Y-96357619D01*
X126607333Y-96310000D01*
X126702571Y-96262381D01*
X125134096Y-98992000D02*
X125038858Y-98944381D01*
X124896001Y-98944381D01*
X124753143Y-98992000D01*
X124657905Y-99087238D01*
X124610286Y-99182476D01*
X124562667Y-99372952D01*
X124562667Y-99515810D01*
X124610286Y-99706286D01*
X124657905Y-99801524D01*
X124753143Y-99896762D01*
X124896001Y-99944381D01*
X124991239Y-99944381D01*
X125134096Y-99896762D01*
X125181715Y-99849143D01*
X125181715Y-99515810D01*
X124991239Y-99515810D01*
X125610286Y-99944381D02*
X125610286Y-98944381D01*
X126181715Y-99944381D01*
X126181715Y-98944381D01*
X126657905Y-99944381D02*
X126657905Y-98944381D01*
X126896000Y-98944381D01*
X127038858Y-98992000D01*
X127134096Y-99087238D01*
X127181715Y-99182476D01*
X127229334Y-99372952D01*
X127229334Y-99515810D01*
X127181715Y-99706286D01*
X127134096Y-99801524D01*
X127038858Y-99896762D01*
X126896000Y-99944381D01*
X126657905Y-99944381D01*
X127292096Y-77830112D02*
G75*
G03X130317000Y-77815000I1524904J-2484888D01*
G01*
X127317000Y-77815000D02*
X130317000Y-77815000D01*
X131334936Y-80315000D02*
G75*
G03X131334936Y-80315000I-2517936J0D01*
G01*
X138722096Y-77830112D02*
G75*
G03X141747000Y-77815000I1524904J-2484888D01*
G01*
X138747000Y-77815000D02*
X141747000Y-77815000D01*
X142764936Y-80315000D02*
G75*
G03X142764936Y-80315000I-2517936J0D01*
G01*
X148882096Y-77830112D02*
G75*
G03X151907000Y-77815000I1524904J-2484888D01*
G01*
X148907000Y-77815000D02*
X151907000Y-77815000D01*
X152924936Y-80315000D02*
G75*
G03X152924936Y-80315000I-2517936J0D01*
G01*
X160312096Y-77830112D02*
G75*
G03X163337000Y-77815000I1524904J-2484888D01*
G01*
X160337000Y-77815000D02*
X163337000Y-77815000D01*
X164354936Y-80315000D02*
G75*
G03X164354936Y-80315000I-2517936J0D01*
G01*
X166917000Y-108255000D02*
G75*
G03X166917000Y-108255000I-2540000J0D01*
G01*
X168187000Y-104445000D02*
X168187000Y-112065000D01*
X168187000Y-112065000D02*
X160567000Y-112065000D01*
X160567000Y-112065000D02*
X160567000Y-104445000D01*
X168187000Y-104445000D02*
X160567000Y-104445000D01*
X128817000Y-108255000D02*
G75*
G03X128817000Y-108255000I-2540000J0D01*
G01*
X122467000Y-112065000D02*
X122467000Y-104445000D01*
X122467000Y-104445000D02*
X130087000Y-104445000D01*
X130087000Y-104445000D02*
X130087000Y-112065000D01*
X122467000Y-112065000D02*
X130087000Y-112065000D01*
X169462000Y-98080000D02*
X169462000Y-85380000D01*
X169462000Y-85380000D02*
X166922000Y-85380000D01*
X166922000Y-85380000D02*
X166922000Y-98080000D01*
X169742000Y-100900000D02*
X169742000Y-99350000D01*
X169462000Y-98080000D02*
X166922000Y-98080000D01*
X166642000Y-99350000D02*
X166642000Y-100900000D01*
X166642000Y-100900000D02*
X169742000Y-100900000D01*
X123742000Y-98080000D02*
X123742000Y-85380000D01*
X123742000Y-85380000D02*
X121202000Y-85380000D01*
X121202000Y-85380000D02*
X121202000Y-98080000D01*
X124022000Y-100900000D02*
X124022000Y-99350000D01*
X123742000Y-98080000D02*
X121202000Y-98080000D01*
X120922000Y-99350000D02*
X120922000Y-100900000D01*
X120922000Y-100900000D02*
X124022000Y-100900000D01*
X154217000Y-100635000D02*
X159297000Y-100635000D01*
X159297000Y-100635000D02*
X159297000Y-103175000D01*
X159297000Y-103175000D02*
X154217000Y-103175000D01*
X154217000Y-103175000D02*
X154217000Y-100635000D01*
X154217000Y-101905000D02*
X152947000Y-101905000D01*
X159297000Y-101905000D02*
X160567000Y-101905000D01*
X136437000Y-103175000D02*
X131357000Y-103175000D01*
X131357000Y-103175000D02*
X131357000Y-100635000D01*
X131357000Y-100635000D02*
X136437000Y-100635000D01*
X136437000Y-100635000D02*
X136437000Y-103175000D01*
X136437000Y-101905000D02*
X137707000Y-101905000D01*
X131357000Y-101905000D02*
X130087000Y-101905000D01*
X130092000Y-89190000D02*
X130092000Y-94270000D01*
X130092000Y-94270000D02*
X127552000Y-94270000D01*
X127552000Y-94270000D02*
X127552000Y-89190000D01*
X127552000Y-89190000D02*
X130092000Y-89190000D01*
X128822000Y-89190000D02*
X128822000Y-87920000D01*
X128822000Y-94270000D02*
X128822000Y-95540000D01*
X163107000Y-89205000D02*
X163107000Y-94285000D01*
X163107000Y-94285000D02*
X160567000Y-94285000D01*
X160567000Y-94285000D02*
X160567000Y-89205000D01*
X160567000Y-89205000D02*
X163107000Y-89205000D01*
X161837000Y-89205000D02*
X161837000Y-87935000D01*
X161837000Y-94285000D02*
X161837000Y-95555000D01*
X141522000Y-89190000D02*
X141522000Y-94270000D01*
X141522000Y-94270000D02*
X138982000Y-94270000D01*
X138982000Y-94270000D02*
X138982000Y-89190000D01*
X138982000Y-89190000D02*
X141522000Y-89190000D01*
X140252000Y-89190000D02*
X140252000Y-87920000D01*
X140252000Y-94270000D02*
X140252000Y-95540000D01*
X151682000Y-89190000D02*
X151682000Y-94270000D01*
X151682000Y-94270000D02*
X149142000Y-94270000D01*
X149142000Y-94270000D02*
X149142000Y-89190000D01*
X149142000Y-89190000D02*
X151682000Y-89190000D01*
X150412000Y-89190000D02*
X150412000Y-87920000D01*
X150412000Y-94270000D02*
X150412000Y-95540000D01*
D12*
G36*
X151231494Y-112022188D02*
X151238451Y-112217292D01*
X151229366Y-112283913D01*
X151206987Y-112592909D01*
X151219289Y-112935879D01*
X151228528Y-113016859D01*
X151282236Y-113408698D01*
X151489464Y-113272917D01*
X151648124Y-113187360D01*
X151733807Y-113174251D01*
X151724476Y-113266076D01*
X151660201Y-113460860D01*
X151599461Y-113611369D01*
X151497750Y-113896156D01*
X151436290Y-114159888D01*
X151428000Y-114253426D01*
X151428000Y-114495481D01*
X152011404Y-114446570D01*
X152470060Y-114425700D01*
X152792320Y-114456780D01*
X153004712Y-114545616D01*
X153130288Y-114691399D01*
X153179172Y-114835312D01*
X153121843Y-114957601D01*
X153010624Y-115063131D01*
X152658372Y-115261859D01*
X152243961Y-115335103D01*
X151818031Y-115283669D01*
X151431222Y-115108367D01*
X151335896Y-115036415D01*
X151078515Y-114819843D01*
X150258424Y-114958658D01*
X149925292Y-115015573D01*
X149464239Y-115095084D01*
X148914115Y-115190453D01*
X148313773Y-115294940D01*
X147702063Y-115401806D01*
X147533334Y-115431361D01*
X146510803Y-115607415D01*
X145634944Y-115750584D01*
X144886739Y-115862924D01*
X144247171Y-115946494D01*
X143697221Y-116003349D01*
X143217874Y-116035548D01*
X142790110Y-116045146D01*
X142394913Y-116034202D01*
X142131020Y-116015727D01*
X141513639Y-115933086D01*
X140980438Y-115803150D01*
X140566009Y-115635281D01*
X140438687Y-115557825D01*
X140277885Y-115365208D01*
X140252981Y-115139886D01*
X140344412Y-114916285D01*
X140532617Y-114728828D01*
X140798034Y-114611941D01*
X140988651Y-114590000D01*
X141273672Y-114621567D01*
X141478016Y-114704144D01*
X141564922Y-114819542D01*
X141558195Y-114871800D01*
X141582108Y-115022329D01*
X141750549Y-115168735D01*
X142039147Y-115294754D01*
X142289886Y-115360153D01*
X142880687Y-115439162D01*
X143626155Y-115466904D01*
X144519708Y-115443806D01*
X145554762Y-115370295D01*
X146724736Y-115246799D01*
X148023048Y-115073744D01*
X148996312Y-114924696D01*
X149641310Y-114821274D01*
X149988127Y-114764942D01*
X151512667Y-114764942D01*
X151588852Y-114889483D01*
X151784521Y-114990594D01*
X152050344Y-115058112D01*
X152336991Y-115081870D01*
X152595135Y-115051703D01*
X152703566Y-115010354D01*
X152845839Y-114874636D01*
X152838958Y-114731508D01*
X152691984Y-114630423D01*
X152519793Y-114608605D01*
X152269561Y-114612908D01*
X151992657Y-114637473D01*
X151740451Y-114676440D01*
X151564311Y-114723950D01*
X151512667Y-114764942D01*
X149988127Y-114764942D01*
X150138442Y-114740527D01*
X150506892Y-114677400D01*
X150765840Y-114626841D01*
X150934470Y-114583793D01*
X151031963Y-114543205D01*
X151077502Y-114500023D01*
X151090268Y-114449191D01*
X151089445Y-114385658D01*
X151089334Y-114373261D01*
X151120299Y-114139426D01*
X151171905Y-113960511D01*
X151222762Y-113809499D01*
X151204378Y-113757816D01*
X151090694Y-113801575D01*
X150887512Y-113918076D01*
X150586768Y-114039830D01*
X150285364Y-114071446D01*
X150031768Y-114015599D01*
X149874447Y-113874969D01*
X149868184Y-113861770D01*
X149817194Y-113764523D01*
X149750982Y-113738247D01*
X149627481Y-113789154D01*
X149404628Y-113923457D01*
X149390341Y-113932337D01*
X149085491Y-114086935D01*
X148834370Y-114148792D01*
X148664476Y-114116520D01*
X148603308Y-113988735D01*
X148604118Y-113971975D01*
X148590250Y-113858932D01*
X148561784Y-113849337D01*
X148115209Y-114070528D01*
X147796225Y-114181741D01*
X147603918Y-114183270D01*
X147575222Y-114166297D01*
X147508296Y-114031612D01*
X147554108Y-113820576D01*
X147717548Y-113519796D01*
X147915919Y-113233173D01*
X148063915Y-113012574D01*
X148148745Y-112847817D01*
X148155784Y-112785339D01*
X148031730Y-112771698D01*
X147838860Y-112886485D01*
X147596228Y-113113377D01*
X147322882Y-113436050D01*
X147194013Y-113609437D01*
X146969937Y-113914550D01*
X146808667Y-114104743D01*
X146679813Y-114206478D01*
X146552987Y-114246216D01*
X146456807Y-114251333D01*
X146252685Y-114233878D01*
X146191044Y-114162077D01*
X146260376Y-114006780D01*
X146323301Y-113913183D01*
X146467935Y-113706689D01*
X146207359Y-113892236D01*
X145865111Y-114098046D01*
X145570998Y-114201674D01*
X145368770Y-114195149D01*
X145277607Y-114081881D01*
X145310365Y-113867657D01*
X145463783Y-113563316D01*
X145634531Y-113311557D01*
X145830089Y-113019318D01*
X145920731Y-112821918D01*
X145901333Y-112731709D01*
X145876767Y-112727333D01*
X145717052Y-112785589D01*
X145502937Y-112966745D01*
X145224434Y-113280377D01*
X144992123Y-113575590D01*
X144744374Y-113891951D01*
X144564543Y-114092973D01*
X144424974Y-114203098D01*
X144298009Y-114246771D01*
X144227529Y-114251333D01*
X144036365Y-114237637D01*
X143988669Y-114168713D01*
X144059108Y-114002805D01*
X144067365Y-113987309D01*
X144115253Y-113887591D01*
X144091483Y-113864164D01*
X143966034Y-113917435D01*
X143821134Y-113990632D01*
X143386549Y-114161806D01*
X142998287Y-114218173D01*
X142679723Y-114162650D01*
X142454232Y-113998154D01*
X142361154Y-113808436D01*
X142343316Y-113662279D01*
X142392830Y-113522796D01*
X142532726Y-113345225D01*
X142677269Y-113194019D01*
X142815558Y-113074749D01*
X143473426Y-113074749D01*
X143504888Y-113131660D01*
X143617500Y-113120756D01*
X143821978Y-113063025D01*
X143956167Y-113024679D01*
X144104556Y-112936576D01*
X144146667Y-112848627D01*
X144104856Y-112745583D01*
X143967418Y-112748580D01*
X143719129Y-112856507D01*
X143549192Y-112971714D01*
X143473426Y-113074749D01*
X142815558Y-113074749D01*
X143107300Y-112823133D01*
X143532791Y-112579415D01*
X143927897Y-112476972D01*
X143995127Y-112474629D01*
X144293293Y-112511764D01*
X144447811Y-112625081D01*
X144471575Y-112813080D01*
X144356638Y-113048646D01*
X144110705Y-113228860D01*
X143768725Y-113332074D01*
X143609544Y-113347081D01*
X143346024Y-113374719D01*
X143207634Y-113442492D01*
X143162931Y-113521070D01*
X143172092Y-113688067D01*
X143227440Y-113752607D01*
X143499521Y-113826342D01*
X143836904Y-113745477D01*
X144237738Y-113510858D01*
X144700172Y-113123334D01*
X144790164Y-113037059D01*
X145349571Y-112491238D01*
X145869952Y-112493665D01*
X146266056Y-112516614D01*
X146504319Y-112588018D01*
X146591929Y-112718392D01*
X146536072Y-112918249D01*
X146348000Y-113193000D01*
X146198834Y-113394713D01*
X146107484Y-113545250D01*
X146094000Y-113585642D01*
X146146043Y-113665545D01*
X146296176Y-113619615D01*
X146535403Y-113453190D01*
X146854729Y-113171611D01*
X146956463Y-113073648D01*
X147554375Y-112488630D01*
X148106224Y-112502148D01*
X148485260Y-112530910D01*
X148707232Y-112604280D01*
X148781709Y-112736742D01*
X148718259Y-112942782D01*
X148560597Y-113189976D01*
X148413082Y-113417549D01*
X148325032Y-113597313D01*
X148312970Y-113669242D01*
X148389103Y-113682719D01*
X148549377Y-113596578D01*
X148763196Y-113435735D01*
X148999964Y-113225109D01*
X149229085Y-112989617D01*
X149395843Y-112787340D01*
X149598862Y-112543082D01*
X149766600Y-112420285D01*
X149926793Y-112388666D01*
X150161567Y-112388666D01*
X149778288Y-112960001D01*
X149612089Y-113225813D01*
X149505018Y-113433511D01*
X149473927Y-113548808D01*
X149483035Y-113560678D01*
X149588512Y-113526290D01*
X149783466Y-113410098D01*
X149880965Y-113342493D01*
X150246814Y-113342493D01*
X150254597Y-113420966D01*
X150297634Y-113462351D01*
X150465913Y-113529227D01*
X150624611Y-113448005D01*
X150776314Y-113240781D01*
X150907096Y-112980819D01*
X150923931Y-112845038D01*
X150831753Y-112837714D01*
X150635494Y-112963122D01*
X150543404Y-113038926D01*
X150336892Y-113225813D01*
X150246814Y-113342493D01*
X149880965Y-113342493D01*
X150028530Y-113240174D01*
X150284335Y-113044591D01*
X150511516Y-112851423D01*
X150607967Y-112758478D01*
X150750262Y-112573467D01*
X150892027Y-112333568D01*
X150904300Y-112309041D01*
X151047795Y-112069348D01*
X151162401Y-111973302D01*
X151231494Y-112022188D01*
X151231494Y-112022188D01*
G37*
X151231494Y-112022188D02*
X151238451Y-112217292D01*
X151229366Y-112283913D01*
X151206987Y-112592909D01*
X151219289Y-112935879D01*
X151228528Y-113016859D01*
X151282236Y-113408698D01*
X151489464Y-113272917D01*
X151648124Y-113187360D01*
X151733807Y-113174251D01*
X151724476Y-113266076D01*
X151660201Y-113460860D01*
X151599461Y-113611369D01*
X151497750Y-113896156D01*
X151436290Y-114159888D01*
X151428000Y-114253426D01*
X151428000Y-114495481D01*
X152011404Y-114446570D01*
X152470060Y-114425700D01*
X152792320Y-114456780D01*
X153004712Y-114545616D01*
X153130288Y-114691399D01*
X153179172Y-114835312D01*
X153121843Y-114957601D01*
X153010624Y-115063131D01*
X152658372Y-115261859D01*
X152243961Y-115335103D01*
X151818031Y-115283669D01*
X151431222Y-115108367D01*
X151335896Y-115036415D01*
X151078515Y-114819843D01*
X150258424Y-114958658D01*
X149925292Y-115015573D01*
X149464239Y-115095084D01*
X148914115Y-115190453D01*
X148313773Y-115294940D01*
X147702063Y-115401806D01*
X147533334Y-115431361D01*
X146510803Y-115607415D01*
X145634944Y-115750584D01*
X144886739Y-115862924D01*
X144247171Y-115946494D01*
X143697221Y-116003349D01*
X143217874Y-116035548D01*
X142790110Y-116045146D01*
X142394913Y-116034202D01*
X142131020Y-116015727D01*
X141513639Y-115933086D01*
X140980438Y-115803150D01*
X140566009Y-115635281D01*
X140438687Y-115557825D01*
X140277885Y-115365208D01*
X140252981Y-115139886D01*
X140344412Y-114916285D01*
X140532617Y-114728828D01*
X140798034Y-114611941D01*
X140988651Y-114590000D01*
X141273672Y-114621567D01*
X141478016Y-114704144D01*
X141564922Y-114819542D01*
X141558195Y-114871800D01*
X141582108Y-115022329D01*
X141750549Y-115168735D01*
X142039147Y-115294754D01*
X142289886Y-115360153D01*
X142880687Y-115439162D01*
X143626155Y-115466904D01*
X144519708Y-115443806D01*
X145554762Y-115370295D01*
X146724736Y-115246799D01*
X148023048Y-115073744D01*
X148996312Y-114924696D01*
X149641310Y-114821274D01*
X149988127Y-114764942D01*
X151512667Y-114764942D01*
X151588852Y-114889483D01*
X151784521Y-114990594D01*
X152050344Y-115058112D01*
X152336991Y-115081870D01*
X152595135Y-115051703D01*
X152703566Y-115010354D01*
X152845839Y-114874636D01*
X152838958Y-114731508D01*
X152691984Y-114630423D01*
X152519793Y-114608605D01*
X152269561Y-114612908D01*
X151992657Y-114637473D01*
X151740451Y-114676440D01*
X151564311Y-114723950D01*
X151512667Y-114764942D01*
X149988127Y-114764942D01*
X150138442Y-114740527D01*
X150506892Y-114677400D01*
X150765840Y-114626841D01*
X150934470Y-114583793D01*
X151031963Y-114543205D01*
X151077502Y-114500023D01*
X151090268Y-114449191D01*
X151089445Y-114385658D01*
X151089334Y-114373261D01*
X151120299Y-114139426D01*
X151171905Y-113960511D01*
X151222762Y-113809499D01*
X151204378Y-113757816D01*
X151090694Y-113801575D01*
X150887512Y-113918076D01*
X150586768Y-114039830D01*
X150285364Y-114071446D01*
X150031768Y-114015599D01*
X149874447Y-113874969D01*
X149868184Y-113861770D01*
X149817194Y-113764523D01*
X149750982Y-113738247D01*
X149627481Y-113789154D01*
X149404628Y-113923457D01*
X149390341Y-113932337D01*
X149085491Y-114086935D01*
X148834370Y-114148792D01*
X148664476Y-114116520D01*
X148603308Y-113988735D01*
X148604118Y-113971975D01*
X148590250Y-113858932D01*
X148561784Y-113849337D01*
X148115209Y-114070528D01*
X147796225Y-114181741D01*
X147603918Y-114183270D01*
X147575222Y-114166297D01*
X147508296Y-114031612D01*
X147554108Y-113820576D01*
X147717548Y-113519796D01*
X147915919Y-113233173D01*
X148063915Y-113012574D01*
X148148745Y-112847817D01*
X148155784Y-112785339D01*
X148031730Y-112771698D01*
X147838860Y-112886485D01*
X147596228Y-113113377D01*
X147322882Y-113436050D01*
X147194013Y-113609437D01*
X146969937Y-113914550D01*
X146808667Y-114104743D01*
X146679813Y-114206478D01*
X146552987Y-114246216D01*
X146456807Y-114251333D01*
X146252685Y-114233878D01*
X146191044Y-114162077D01*
X146260376Y-114006780D01*
X146323301Y-113913183D01*
X146467935Y-113706689D01*
X146207359Y-113892236D01*
X145865111Y-114098046D01*
X145570998Y-114201674D01*
X145368770Y-114195149D01*
X145277607Y-114081881D01*
X145310365Y-113867657D01*
X145463783Y-113563316D01*
X145634531Y-113311557D01*
X145830089Y-113019318D01*
X145920731Y-112821918D01*
X145901333Y-112731709D01*
X145876767Y-112727333D01*
X145717052Y-112785589D01*
X145502937Y-112966745D01*
X145224434Y-113280377D01*
X144992123Y-113575590D01*
X144744374Y-113891951D01*
X144564543Y-114092973D01*
X144424974Y-114203098D01*
X144298009Y-114246771D01*
X144227529Y-114251333D01*
X144036365Y-114237637D01*
X143988669Y-114168713D01*
X144059108Y-114002805D01*
X144067365Y-113987309D01*
X144115253Y-113887591D01*
X144091483Y-113864164D01*
X143966034Y-113917435D01*
X143821134Y-113990632D01*
X143386549Y-114161806D01*
X142998287Y-114218173D01*
X142679723Y-114162650D01*
X142454232Y-113998154D01*
X142361154Y-113808436D01*
X142343316Y-113662279D01*
X142392830Y-113522796D01*
X142532726Y-113345225D01*
X142677269Y-113194019D01*
X142815558Y-113074749D01*
X143473426Y-113074749D01*
X143504888Y-113131660D01*
X143617500Y-113120756D01*
X143821978Y-113063025D01*
X143956167Y-113024679D01*
X144104556Y-112936576D01*
X144146667Y-112848627D01*
X144104856Y-112745583D01*
X143967418Y-112748580D01*
X143719129Y-112856507D01*
X143549192Y-112971714D01*
X143473426Y-113074749D01*
X142815558Y-113074749D01*
X143107300Y-112823133D01*
X143532791Y-112579415D01*
X143927897Y-112476972D01*
X143995127Y-112474629D01*
X144293293Y-112511764D01*
X144447811Y-112625081D01*
X144471575Y-112813080D01*
X144356638Y-113048646D01*
X144110705Y-113228860D01*
X143768725Y-113332074D01*
X143609544Y-113347081D01*
X143346024Y-113374719D01*
X143207634Y-113442492D01*
X143162931Y-113521070D01*
X143172092Y-113688067D01*
X143227440Y-113752607D01*
X143499521Y-113826342D01*
X143836904Y-113745477D01*
X144237738Y-113510858D01*
X144700172Y-113123334D01*
X144790164Y-113037059D01*
X145349571Y-112491238D01*
X145869952Y-112493665D01*
X146266056Y-112516614D01*
X146504319Y-112588018D01*
X146591929Y-112718392D01*
X146536072Y-112918249D01*
X146348000Y-113193000D01*
X146198834Y-113394713D01*
X146107484Y-113545250D01*
X146094000Y-113585642D01*
X146146043Y-113665545D01*
X146296176Y-113619615D01*
X146535403Y-113453190D01*
X146854729Y-113171611D01*
X146956463Y-113073648D01*
X147554375Y-112488630D01*
X148106224Y-112502148D01*
X148485260Y-112530910D01*
X148707232Y-112604280D01*
X148781709Y-112736742D01*
X148718259Y-112942782D01*
X148560597Y-113189976D01*
X148413082Y-113417549D01*
X148325032Y-113597313D01*
X148312970Y-113669242D01*
X148389103Y-113682719D01*
X148549377Y-113596578D01*
X148763196Y-113435735D01*
X148999964Y-113225109D01*
X149229085Y-112989617D01*
X149395843Y-112787340D01*
X149598862Y-112543082D01*
X149766600Y-112420285D01*
X149926793Y-112388666D01*
X150161567Y-112388666D01*
X149778288Y-112960001D01*
X149612089Y-113225813D01*
X149505018Y-113433511D01*
X149473927Y-113548808D01*
X149483035Y-113560678D01*
X149588512Y-113526290D01*
X149783466Y-113410098D01*
X149880965Y-113342493D01*
X150246814Y-113342493D01*
X150254597Y-113420966D01*
X150297634Y-113462351D01*
X150465913Y-113529227D01*
X150624611Y-113448005D01*
X150776314Y-113240781D01*
X150907096Y-112980819D01*
X150923931Y-112845038D01*
X150831753Y-112837714D01*
X150635494Y-112963122D01*
X150543404Y-113038926D01*
X150336892Y-113225813D01*
X150246814Y-113342493D01*
X149880965Y-113342493D01*
X150028530Y-113240174D01*
X150284335Y-113044591D01*
X150511516Y-112851423D01*
X150607967Y-112758478D01*
X150750262Y-112573467D01*
X150892027Y-112333568D01*
X150904300Y-112309041D01*
X151047795Y-112069348D01*
X151162401Y-111973302D01*
X151231494Y-112022188D01*
G36*
X141875302Y-110569246D02*
X142225321Y-110686999D01*
X142464682Y-110779303D01*
X142669215Y-110809630D01*
X142708890Y-110804125D01*
X142847422Y-110816348D01*
X142871031Y-110907567D01*
X142791771Y-110991808D01*
X142752933Y-111104255D01*
X142791771Y-111202905D01*
X142862562Y-111460048D01*
X142874964Y-111809418D01*
X142832940Y-112185804D01*
X142740455Y-112523999D01*
X142706751Y-112601536D01*
X142494524Y-112933937D01*
X142182771Y-113295857D01*
X141821632Y-113637608D01*
X141461246Y-113909502D01*
X141286703Y-114008772D01*
X141082715Y-114094305D01*
X140871568Y-114145947D01*
X140611110Y-114167715D01*
X140259191Y-114163626D01*
X139871000Y-114143687D01*
X139602999Y-114152670D01*
X139400751Y-114187308D01*
X139116748Y-114183541D01*
X138892751Y-114100617D01*
X138698350Y-113981136D01*
X138616614Y-113838018D01*
X138609659Y-113743333D01*
X138982000Y-113743333D01*
X139055685Y-113802335D01*
X139233704Y-113827966D01*
X139240997Y-113828000D01*
X139410254Y-113805069D01*
X139449337Y-113746238D01*
X139447667Y-113743333D01*
X139330960Y-113677794D01*
X139188670Y-113658666D01*
X139031962Y-113688286D01*
X138982000Y-113743333D01*
X138609659Y-113743333D01*
X138601000Y-113625470D01*
X138633242Y-113365125D01*
X138653906Y-113334579D01*
X140822215Y-113334579D01*
X140826070Y-113357847D01*
X140962300Y-113385198D01*
X141192625Y-113326470D01*
X141474211Y-113195205D01*
X141620983Y-113106511D01*
X141943204Y-112840606D01*
X142223690Y-112508150D01*
X142438583Y-112149446D01*
X142564027Y-111804793D01*
X142576167Y-111514492D01*
X142572589Y-111498953D01*
X142513169Y-111340975D01*
X142461338Y-111288000D01*
X142361411Y-111350155D01*
X142189933Y-111518179D01*
X141968760Y-111764402D01*
X141719752Y-112061158D01*
X141464767Y-112380780D01*
X141225662Y-112695600D01*
X141024296Y-112977951D01*
X140882528Y-113200167D01*
X140822215Y-113334579D01*
X138653906Y-113334579D01*
X138753417Y-113187482D01*
X138824161Y-113129327D01*
X139135775Y-112980283D01*
X139514719Y-112914918D01*
X139883741Y-112941005D01*
X140068904Y-113004110D01*
X140201185Y-113062144D01*
X140310293Y-113071731D01*
X140421428Y-113013983D01*
X140559792Y-112870014D01*
X140750585Y-112620934D01*
X140950942Y-112343029D01*
X141176668Y-112058286D01*
X141464446Y-111736292D01*
X141726158Y-111471922D01*
X141937215Y-111256935D01*
X142069333Y-111090990D01*
X142100822Y-111002317D01*
X142091894Y-110995920D01*
X141750596Y-110921378D01*
X141432809Y-110931144D01*
X141176190Y-110985903D01*
X140895649Y-111079887D01*
X140662267Y-111194195D01*
X140589552Y-111246675D01*
X140455814Y-111439205D01*
X140425089Y-111643876D01*
X140497274Y-111804334D01*
X140590667Y-111856134D01*
X140728207Y-111919425D01*
X140738290Y-112023914D01*
X140619361Y-112199018D01*
X140569500Y-112257035D01*
X140293465Y-112469092D01*
X139991739Y-112528936D01*
X139697251Y-112431903D01*
X139636831Y-112389138D01*
X139452942Y-112149924D01*
X139408386Y-111854243D01*
X139496548Y-111531500D01*
X139710815Y-111211100D01*
X139951760Y-110988906D01*
X140376626Y-110746457D01*
X140873008Y-110591161D01*
X141389652Y-110529821D01*
X141875302Y-110569246D01*
X141875302Y-110569246D01*
G37*
X141875302Y-110569246D02*
X142225321Y-110686999D01*
X142464682Y-110779303D01*
X142669215Y-110809630D01*
X142708890Y-110804125D01*
X142847422Y-110816348D01*
X142871031Y-110907567D01*
X142791771Y-110991808D01*
X142752933Y-111104255D01*
X142791771Y-111202905D01*
X142862562Y-111460048D01*
X142874964Y-111809418D01*
X142832940Y-112185804D01*
X142740455Y-112523999D01*
X142706751Y-112601536D01*
X142494524Y-112933937D01*
X142182771Y-113295857D01*
X141821632Y-113637608D01*
X141461246Y-113909502D01*
X141286703Y-114008772D01*
X141082715Y-114094305D01*
X140871568Y-114145947D01*
X140611110Y-114167715D01*
X140259191Y-114163626D01*
X139871000Y-114143687D01*
X139602999Y-114152670D01*
X139400751Y-114187308D01*
X139116748Y-114183541D01*
X138892751Y-114100617D01*
X138698350Y-113981136D01*
X138616614Y-113838018D01*
X138609659Y-113743333D01*
X138982000Y-113743333D01*
X139055685Y-113802335D01*
X139233704Y-113827966D01*
X139240997Y-113828000D01*
X139410254Y-113805069D01*
X139449337Y-113746238D01*
X139447667Y-113743333D01*
X139330960Y-113677794D01*
X139188670Y-113658666D01*
X139031962Y-113688286D01*
X138982000Y-113743333D01*
X138609659Y-113743333D01*
X138601000Y-113625470D01*
X138633242Y-113365125D01*
X138653906Y-113334579D01*
X140822215Y-113334579D01*
X140826070Y-113357847D01*
X140962300Y-113385198D01*
X141192625Y-113326470D01*
X141474211Y-113195205D01*
X141620983Y-113106511D01*
X141943204Y-112840606D01*
X142223690Y-112508150D01*
X142438583Y-112149446D01*
X142564027Y-111804793D01*
X142576167Y-111514492D01*
X142572589Y-111498953D01*
X142513169Y-111340975D01*
X142461338Y-111288000D01*
X142361411Y-111350155D01*
X142189933Y-111518179D01*
X141968760Y-111764402D01*
X141719752Y-112061158D01*
X141464767Y-112380780D01*
X141225662Y-112695600D01*
X141024296Y-112977951D01*
X140882528Y-113200167D01*
X140822215Y-113334579D01*
X138653906Y-113334579D01*
X138753417Y-113187482D01*
X138824161Y-113129327D01*
X139135775Y-112980283D01*
X139514719Y-112914918D01*
X139883741Y-112941005D01*
X140068904Y-113004110D01*
X140201185Y-113062144D01*
X140310293Y-113071731D01*
X140421428Y-113013983D01*
X140559792Y-112870014D01*
X140750585Y-112620934D01*
X140950942Y-112343029D01*
X141176668Y-112058286D01*
X141464446Y-111736292D01*
X141726158Y-111471922D01*
X141937215Y-111256935D01*
X142069333Y-111090990D01*
X142100822Y-111002317D01*
X142091894Y-110995920D01*
X141750596Y-110921378D01*
X141432809Y-110931144D01*
X141176190Y-110985903D01*
X140895649Y-111079887D01*
X140662267Y-111194195D01*
X140589552Y-111246675D01*
X140455814Y-111439205D01*
X140425089Y-111643876D01*
X140497274Y-111804334D01*
X140590667Y-111856134D01*
X140728207Y-111919425D01*
X140738290Y-112023914D01*
X140619361Y-112199018D01*
X140569500Y-112257035D01*
X140293465Y-112469092D01*
X139991739Y-112528936D01*
X139697251Y-112431903D01*
X139636831Y-112389138D01*
X139452942Y-112149924D01*
X139408386Y-111854243D01*
X139496548Y-111531500D01*
X139710815Y-111211100D01*
X139951760Y-110988906D01*
X140376626Y-110746457D01*
X140873008Y-110591161D01*
X141389652Y-110529821D01*
X141875302Y-110569246D01*
G36*
X150476344Y-111573832D02*
X150551130Y-111670078D01*
X150542190Y-111824776D01*
X150451185Y-111979452D01*
X150327659Y-112049999D01*
X150327334Y-112050000D01*
X150226196Y-111992519D01*
X150158000Y-111923000D01*
X150095281Y-111787487D01*
X150158000Y-111669000D01*
X150321568Y-111555381D01*
X150476344Y-111573832D01*
X150476344Y-111573832D01*
G37*
X150476344Y-111573832D02*
X150551130Y-111670078D01*
X150542190Y-111824776D01*
X150451185Y-111979452D01*
X150327659Y-112049999D01*
X150327334Y-112050000D01*
X150226196Y-111992519D01*
X150158000Y-111923000D01*
X150095281Y-111787487D01*
X150158000Y-111669000D01*
X150321568Y-111555381D01*
X150476344Y-111573832D01*
D11*
X163048667Y-108644762D02*
X163191524Y-108692381D01*
X163429620Y-108692381D01*
X163524858Y-108644762D01*
X163572477Y-108597143D01*
X163620096Y-108501905D01*
X163620096Y-108406667D01*
X163572477Y-108311429D01*
X163524858Y-108263810D01*
X163429620Y-108216190D01*
X163239143Y-108168571D01*
X163143905Y-108120952D01*
X163096286Y-108073333D01*
X163048667Y-107978095D01*
X163048667Y-107882857D01*
X163096286Y-107787619D01*
X163143905Y-107740000D01*
X163239143Y-107692381D01*
X163477239Y-107692381D01*
X163620096Y-107740000D01*
X163953429Y-107692381D02*
X164191524Y-108692381D01*
X164382001Y-107978095D01*
X164572477Y-108692381D01*
X164810572Y-107692381D01*
X165715334Y-108692381D02*
X165143905Y-108692381D01*
X165429619Y-108692381D02*
X165429619Y-107692381D01*
X165334381Y-107835238D01*
X165239143Y-107930476D01*
X165143905Y-107978095D01*
X124948667Y-108644762D02*
X125091524Y-108692381D01*
X125329620Y-108692381D01*
X125424858Y-108644762D01*
X125472477Y-108597143D01*
X125520096Y-108501905D01*
X125520096Y-108406667D01*
X125472477Y-108311429D01*
X125424858Y-108263810D01*
X125329620Y-108216190D01*
X125139143Y-108168571D01*
X125043905Y-108120952D01*
X124996286Y-108073333D01*
X124948667Y-107978095D01*
X124948667Y-107882857D01*
X124996286Y-107787619D01*
X125043905Y-107740000D01*
X125139143Y-107692381D01*
X125377239Y-107692381D01*
X125520096Y-107740000D01*
X125853429Y-107692381D02*
X126091524Y-108692381D01*
X126282001Y-107978095D01*
X126472477Y-108692381D01*
X126710572Y-107692381D01*
X127043905Y-107787619D02*
X127091524Y-107740000D01*
X127186762Y-107692381D01*
X127424858Y-107692381D01*
X127520096Y-107740000D01*
X127567715Y-107787619D01*
X127615334Y-107882857D01*
X127615334Y-107978095D01*
X127567715Y-108120952D01*
X126996286Y-108692381D01*
X127615334Y-108692381D01*
X152383524Y-100198381D02*
X151812095Y-100198381D01*
X152097809Y-100198381D02*
X152097809Y-99198381D01*
X152002571Y-99341238D01*
X151907333Y-99436476D01*
X151812095Y-99484095D01*
X153002571Y-99198381D02*
X153097810Y-99198381D01*
X153193048Y-99246000D01*
X153240667Y-99293619D01*
X153288286Y-99388857D01*
X153335905Y-99579333D01*
X153335905Y-99817429D01*
X153288286Y-100007905D01*
X153240667Y-100103143D01*
X153193048Y-100150762D01*
X153097810Y-100198381D01*
X153002571Y-100198381D01*
X152907333Y-100150762D01*
X152859714Y-100103143D01*
X152812095Y-100007905D01*
X152764476Y-99817429D01*
X152764476Y-99579333D01*
X152812095Y-99388857D01*
X152859714Y-99293619D01*
X152907333Y-99246000D01*
X153002571Y-99198381D01*
X153764476Y-100198381D02*
X153764476Y-99198381D01*
X154335905Y-100198381D02*
X153907333Y-99626952D01*
X154335905Y-99198381D02*
X153764476Y-99769810D01*
X136635524Y-100198381D02*
X136064095Y-100198381D01*
X136349809Y-100198381D02*
X136349809Y-99198381D01*
X136254571Y-99341238D01*
X136159333Y-99436476D01*
X136064095Y-99484095D01*
X137254571Y-99198381D02*
X137349810Y-99198381D01*
X137445048Y-99246000D01*
X137492667Y-99293619D01*
X137540286Y-99388857D01*
X137587905Y-99579333D01*
X137587905Y-99817429D01*
X137540286Y-100007905D01*
X137492667Y-100103143D01*
X137445048Y-100150762D01*
X137349810Y-100198381D01*
X137254571Y-100198381D01*
X137159333Y-100150762D01*
X137111714Y-100103143D01*
X137064095Y-100007905D01*
X137016476Y-99817429D01*
X137016476Y-99579333D01*
X137064095Y-99388857D01*
X137111714Y-99293619D01*
X137159333Y-99246000D01*
X137254571Y-99198381D01*
X138016476Y-100198381D02*
X138016476Y-99198381D01*
X138587905Y-100198381D02*
X138159333Y-99626952D01*
X138587905Y-99198381D02*
X138016476Y-99769810D01*
X130782619Y-93095095D02*
X130735000Y-93047476D01*
X130687381Y-92952238D01*
X130687381Y-92714142D01*
X130735000Y-92618904D01*
X130782619Y-92571285D01*
X130877857Y-92523666D01*
X130973095Y-92523666D01*
X131115952Y-92571285D01*
X131687381Y-93142714D01*
X131687381Y-92523666D01*
X130782619Y-92142714D02*
X130735000Y-92095095D01*
X130687381Y-91999857D01*
X130687381Y-91761761D01*
X130735000Y-91666523D01*
X130782619Y-91618904D01*
X130877857Y-91571285D01*
X130973095Y-91571285D01*
X131115952Y-91618904D01*
X131687381Y-92190333D01*
X131687381Y-91571285D01*
X130687381Y-90952238D02*
X130687381Y-90856999D01*
X130735000Y-90761761D01*
X130782619Y-90714142D01*
X130877857Y-90666523D01*
X131068333Y-90618904D01*
X131306429Y-90618904D01*
X131496905Y-90666523D01*
X131592143Y-90714142D01*
X131639762Y-90761761D01*
X131687381Y-90856999D01*
X131687381Y-90952238D01*
X131639762Y-91047476D01*
X131592143Y-91095095D01*
X131496905Y-91142714D01*
X131306429Y-91190333D01*
X131068333Y-91190333D01*
X130877857Y-91142714D01*
X130782619Y-91095095D01*
X130735000Y-91047476D01*
X130687381Y-90952238D01*
X158971619Y-92856095D02*
X158924000Y-92808476D01*
X158876381Y-92713238D01*
X158876381Y-92475142D01*
X158924000Y-92379904D01*
X158971619Y-92332285D01*
X159066857Y-92284666D01*
X159162095Y-92284666D01*
X159304952Y-92332285D01*
X159876381Y-92903714D01*
X159876381Y-92284666D01*
X158971619Y-91903714D02*
X158924000Y-91856095D01*
X158876381Y-91760857D01*
X158876381Y-91522761D01*
X158924000Y-91427523D01*
X158971619Y-91379904D01*
X159066857Y-91332285D01*
X159162095Y-91332285D01*
X159304952Y-91379904D01*
X159876381Y-91951333D01*
X159876381Y-91332285D01*
X158876381Y-90713238D02*
X158876381Y-90617999D01*
X158924000Y-90522761D01*
X158971619Y-90475142D01*
X159066857Y-90427523D01*
X159257333Y-90379904D01*
X159495429Y-90379904D01*
X159685905Y-90427523D01*
X159781143Y-90475142D01*
X159828762Y-90522761D01*
X159876381Y-90617999D01*
X159876381Y-90713238D01*
X159828762Y-90808476D01*
X159781143Y-90856095D01*
X159685905Y-90903714D01*
X159495429Y-90951333D01*
X159257333Y-90951333D01*
X159066857Y-90903714D01*
X158971619Y-90856095D01*
X158924000Y-90808476D01*
X158876381Y-90713238D01*
X142212619Y-93095095D02*
X142165000Y-93047476D01*
X142117381Y-92952238D01*
X142117381Y-92714142D01*
X142165000Y-92618904D01*
X142212619Y-92571285D01*
X142307857Y-92523666D01*
X142403095Y-92523666D01*
X142545952Y-92571285D01*
X143117381Y-93142714D01*
X143117381Y-92523666D01*
X142212619Y-92142714D02*
X142165000Y-92095095D01*
X142117381Y-91999857D01*
X142117381Y-91761761D01*
X142165000Y-91666523D01*
X142212619Y-91618904D01*
X142307857Y-91571285D01*
X142403095Y-91571285D01*
X142545952Y-91618904D01*
X143117381Y-92190333D01*
X143117381Y-91571285D01*
X142117381Y-90952238D02*
X142117381Y-90856999D01*
X142165000Y-90761761D01*
X142212619Y-90714142D01*
X142307857Y-90666523D01*
X142498333Y-90618904D01*
X142736429Y-90618904D01*
X142926905Y-90666523D01*
X143022143Y-90714142D01*
X143069762Y-90761761D01*
X143117381Y-90856999D01*
X143117381Y-90952238D01*
X143069762Y-91047476D01*
X143022143Y-91095095D01*
X142926905Y-91142714D01*
X142736429Y-91190333D01*
X142498333Y-91190333D01*
X142307857Y-91142714D01*
X142212619Y-91095095D01*
X142165000Y-91047476D01*
X142117381Y-90952238D01*
X147546619Y-93095095D02*
X147499000Y-93047476D01*
X147451381Y-92952238D01*
X147451381Y-92714142D01*
X147499000Y-92618904D01*
X147546619Y-92571285D01*
X147641857Y-92523666D01*
X147737095Y-92523666D01*
X147879952Y-92571285D01*
X148451381Y-93142714D01*
X148451381Y-92523666D01*
X147546619Y-92142714D02*
X147499000Y-92095095D01*
X147451381Y-91999857D01*
X147451381Y-91761761D01*
X147499000Y-91666523D01*
X147546619Y-91618904D01*
X147641857Y-91571285D01*
X147737095Y-91571285D01*
X147879952Y-91618904D01*
X148451381Y-92190333D01*
X148451381Y-91571285D01*
X147451381Y-90952238D02*
X147451381Y-90856999D01*
X147499000Y-90761761D01*
X147546619Y-90714142D01*
X147641857Y-90666523D01*
X147832333Y-90618904D01*
X148070429Y-90618904D01*
X148260905Y-90666523D01*
X148356143Y-90714142D01*
X148403762Y-90761761D01*
X148451381Y-90856999D01*
X148451381Y-90952238D01*
X148403762Y-91047476D01*
X148356143Y-91095095D01*
X148260905Y-91142714D01*
X148070429Y-91190333D01*
X147832333Y-91190333D01*
X147641857Y-91142714D01*
X147546619Y-91095095D01*
X147499000Y-91047476D01*
X147451381Y-90952238D01*
%LPC*%
D13*
X128817000Y-79045000D03*
D14*
X128817000Y-81585000D03*
D13*
X140247000Y-79045000D03*
D14*
X140247000Y-81585000D03*
D13*
X150407000Y-79045000D03*
D14*
X150407000Y-81585000D03*
D13*
X161837000Y-79045000D03*
D14*
X161837000Y-81585000D03*
D15*
X123483000Y-74981000D03*
X123483000Y-118669000D03*
X167171000Y-74981000D03*
X167171000Y-118669000D03*
D16*
X166917000Y-112065000D03*
X161837000Y-112065000D03*
X166917000Y-104445000D03*
X161837000Y-104445000D03*
X123737000Y-104445000D03*
X128817000Y-104445000D03*
X123737000Y-112065000D03*
X128817000Y-112065000D03*
D17*
X156762000Y-114590000D03*
D18*
X156762000Y-112050000D03*
X156762000Y-109510000D03*
X156762000Y-106970000D03*
X156762000Y-104430000D03*
X156762000Y-101890000D03*
X156762000Y-99350000D03*
X156762000Y-96810000D03*
X156762000Y-94270000D03*
X156762000Y-91730000D03*
X156762000Y-89190000D03*
X156762000Y-86650000D03*
X156762000Y-84110000D03*
X156762000Y-81570000D03*
X156762000Y-79030000D03*
D17*
X133902000Y-114590000D03*
D18*
X133902000Y-112050000D03*
X133902000Y-109510000D03*
X133902000Y-106970000D03*
X133902000Y-104430000D03*
X133902000Y-101890000D03*
X133902000Y-99350000D03*
X133902000Y-96810000D03*
X133902000Y-94270000D03*
X133902000Y-91730000D03*
X133902000Y-89190000D03*
X133902000Y-86650000D03*
X133902000Y-84110000D03*
X133902000Y-81570000D03*
X133902000Y-79030000D03*
D17*
X168192000Y-99350000D03*
D18*
X168192000Y-96810000D03*
X168192000Y-94270000D03*
X168192000Y-91730000D03*
X168192000Y-89190000D03*
X168192000Y-86650000D03*
D17*
X122472000Y-99350000D03*
D18*
X122472000Y-96810000D03*
X122472000Y-94270000D03*
X122472000Y-91730000D03*
X122472000Y-89190000D03*
X122472000Y-86650000D03*
D19*
X151677000Y-101905000D03*
X161837000Y-101905000D03*
X138977000Y-101905000D03*
X128817000Y-101905000D03*
X128822000Y-86650000D03*
X128822000Y-96810000D03*
X161837000Y-86665000D03*
X161837000Y-96825000D03*
X140252000Y-86650000D03*
X140252000Y-96810000D03*
X150412000Y-86650000D03*
X150412000Y-96810000D03*
M02*
