%TF.GenerationSoftware,KiCad,Pcbnew,4.0.1-stable*%
%TF.CreationDate,2016-04-15T23:13:47+01:00*%
%TF.ProjectId,basic,62617369632E6B696361645F70636200,rev?*%
%TF.FileFunction,Copper,L1,Top,Signal*%
%FSLAX46Y46*%
G04 Gerber Fmt 4.6, Leading zero omitted, Abs format (unit mm)*
G04 Created by KiCad (PCBNEW 4.0.1-stable) date 15/04/2016 23:13:47*
%MOMM*%
G01*
G04 APERTURE LIST*
%ADD10C,0.100000*%
%ADD11R,2.000000X1.900000*%
%ADD12C,1.900000*%
%ADD13C,5.500000*%
%ADD14C,1.397000*%
%ADD15R,2.032000X1.727200*%
%ADD16O,2.032000X1.727200*%
%ADD17C,1.998980*%
%ADD18O,1.000000X1.905000*%
%ADD19R,1.000000X1.905000*%
%ADD20C,0.406000*%
%ADD21C,0.305000*%
%ADD22C,0.813000*%
%ADD23C,0.254000*%
G04 APERTURE END LIST*
D10*
D11*
X128817000Y-79045000D03*
D12*
X128817000Y-81585000D03*
D11*
X161837000Y-79045000D03*
D12*
X161837000Y-81585000D03*
D13*
X123483000Y-74981000D03*
X123483000Y-118669000D03*
X167171000Y-74981000D03*
X167171000Y-118669000D03*
D14*
X166917000Y-112065000D03*
X161837000Y-112065000D03*
X166917000Y-104445000D03*
X161837000Y-104445000D03*
X123737000Y-104445000D03*
X128817000Y-104445000D03*
X123737000Y-112065000D03*
X128817000Y-112065000D03*
D15*
X156762000Y-114590000D03*
D16*
X156762000Y-112050000D03*
X156762000Y-109510000D03*
X156762000Y-106970000D03*
X156762000Y-104430000D03*
X156762000Y-101890000D03*
X156762000Y-99350000D03*
X156762000Y-96810000D03*
X156762000Y-94270000D03*
X156762000Y-91730000D03*
X156762000Y-89190000D03*
X156762000Y-86650000D03*
X156762000Y-84110000D03*
X156762000Y-81570000D03*
X156762000Y-79030000D03*
D15*
X133902000Y-114590000D03*
D16*
X133902000Y-112050000D03*
X133902000Y-109510000D03*
X133902000Y-106970000D03*
X133902000Y-104430000D03*
X133902000Y-101890000D03*
X133902000Y-99350000D03*
X133902000Y-96810000D03*
X133902000Y-94270000D03*
X133902000Y-91730000D03*
X133902000Y-89190000D03*
X133902000Y-86650000D03*
X133902000Y-84110000D03*
X133902000Y-81570000D03*
X133902000Y-79030000D03*
D15*
X168192000Y-99350000D03*
D16*
X168192000Y-96810000D03*
X168192000Y-94270000D03*
X168192000Y-91730000D03*
X168192000Y-89190000D03*
X168192000Y-86650000D03*
D15*
X122472000Y-99350000D03*
D16*
X122472000Y-96810000D03*
X122472000Y-94270000D03*
X122472000Y-91730000D03*
X122472000Y-89190000D03*
X122472000Y-86650000D03*
D17*
X151677000Y-101905000D03*
X161837000Y-101905000D03*
X138977000Y-101905000D03*
X128817000Y-101905000D03*
X128822000Y-86650000D03*
X128822000Y-96810000D03*
X161837000Y-86665000D03*
X161837000Y-96825000D03*
X145332000Y-86650000D03*
X145332000Y-96810000D03*
X139617000Y-86650000D03*
X139617000Y-96810000D03*
D18*
X147237000Y-80300000D03*
D19*
X145967000Y-80300000D03*
D18*
X144697000Y-80300000D03*
X143427000Y-80300000D03*
D17*
X151047000Y-86650000D03*
X151047000Y-96810000D03*
D20*
X133902000Y-94270000D02*
X133749600Y-94270000D01*
X133749600Y-94270000D02*
X130727000Y-91247400D01*
X130727000Y-91247400D02*
X130727000Y-80905000D01*
X130727000Y-80905000D02*
X128867000Y-79045000D01*
X128867000Y-79045000D02*
X128817000Y-79045000D01*
X145967000Y-80300000D02*
X145967000Y-78941500D01*
X145967000Y-78941500D02*
X147529500Y-77379000D01*
X147529500Y-77379000D02*
X158765000Y-77379000D01*
X158765000Y-77379000D02*
X160431000Y-79045000D01*
X160431000Y-79045000D02*
X161837000Y-79045000D01*
X156762000Y-112050000D02*
X159175000Y-112050000D01*
X159175000Y-112050000D02*
X163044001Y-115919001D01*
X163044001Y-115919001D02*
X164421001Y-115919001D01*
X164421001Y-115919001D02*
X167171000Y-118669000D01*
D21*
X128822000Y-86650000D02*
X128822000Y-81590000D01*
X128822000Y-81590000D02*
X128817000Y-81585000D01*
X161837000Y-86665000D02*
X161837000Y-81585000D01*
X156762000Y-79030000D02*
X158083000Y-79030000D01*
X158083000Y-79030000D02*
X159683000Y-80630000D01*
X159683000Y-80630000D02*
X159683000Y-87793000D01*
X166160000Y-86650000D02*
X168192000Y-86650000D01*
X159683000Y-87793000D02*
X161080000Y-89190000D01*
X161080000Y-89190000D02*
X163620000Y-89190000D01*
X163620000Y-89190000D02*
X166160000Y-86650000D01*
D22*
X166917000Y-104445000D02*
X164890000Y-102418000D01*
X164890000Y-102418000D02*
X164890000Y-98283000D01*
X164890000Y-98283000D02*
X166363000Y-96810000D01*
X166363000Y-96810000D02*
X168192000Y-96810000D01*
X133902000Y-114590000D02*
X136061000Y-114590000D01*
X138474000Y-110526000D02*
X144570000Y-104430000D01*
X136061000Y-114590000D02*
X138474000Y-112177000D01*
X138474000Y-112177000D02*
X138474000Y-110526000D01*
X144570000Y-104430000D02*
X156762000Y-104430000D01*
X156762000Y-104430000D02*
X159282000Y-104430000D01*
X159282000Y-104430000D02*
X166917000Y-112065000D01*
X156609600Y-104430000D02*
X156762000Y-104430000D01*
X166917000Y-112065000D02*
X166917000Y-104445000D01*
X123737000Y-112065000D02*
X123737000Y-104445000D01*
X133902000Y-114590000D02*
X126262000Y-114590000D01*
X126262000Y-114590000D02*
X123737000Y-112065000D01*
D21*
X133902000Y-109510000D02*
X136315000Y-109510000D01*
X136315000Y-109510000D02*
X149015000Y-96810000D01*
X149015000Y-96810000D02*
X151047000Y-96810000D01*
X133902000Y-109510000D02*
X131028810Y-109510000D01*
X125901000Y-98842000D02*
X123869000Y-96810000D01*
X131028810Y-109510000D02*
X125901000Y-104382190D01*
X125901000Y-104382190D02*
X125901000Y-98842000D01*
X123869000Y-96810000D02*
X122472000Y-96810000D01*
X137509000Y-104684000D02*
X138871492Y-104684000D01*
X138871492Y-104684000D02*
X145332000Y-98223492D01*
X145332000Y-98223492D02*
X145332000Y-96810000D01*
X133902000Y-106970000D02*
X135223000Y-106970000D01*
X135223000Y-106970000D02*
X137509000Y-104684000D01*
X133902000Y-106970000D02*
X129203000Y-106970000D01*
X129203000Y-106970000D02*
X126663000Y-104430000D01*
X126663000Y-104430000D02*
X126663000Y-98461000D01*
X126663000Y-98461000D02*
X125266000Y-97064000D01*
X125266000Y-97064000D02*
X125266000Y-95159000D01*
X125266000Y-95159000D02*
X124377000Y-94270000D01*
X124377000Y-94270000D02*
X122472000Y-94270000D01*
X137966000Y-96810000D02*
X140252000Y-96810000D01*
X136696000Y-98080000D02*
X137966000Y-96810000D01*
X136696000Y-102906000D02*
X136696000Y-98080000D01*
X135172000Y-104430000D02*
X136696000Y-102906000D01*
X133902000Y-104430000D02*
X133775000Y-104430000D01*
X133775000Y-104430000D02*
X126409000Y-97064000D01*
X126409000Y-97064000D02*
X126409000Y-94016000D01*
X124123000Y-91730000D02*
X122472000Y-91730000D01*
X126409000Y-94016000D02*
X124123000Y-91730000D01*
X133902000Y-104430000D02*
X135172000Y-104430000D01*
X122472000Y-89190000D02*
X124123000Y-89190000D01*
X124123000Y-89190000D02*
X128822000Y-93889000D01*
X128822000Y-93889000D02*
X128822000Y-96810000D01*
X133902000Y-101890000D02*
X132378000Y-101890000D01*
X128822000Y-98334000D02*
X128822000Y-96810000D01*
X132378000Y-101890000D02*
X128822000Y-98334000D01*
X133902000Y-99350000D02*
X134054400Y-99350000D01*
X134054400Y-99350000D02*
X138372400Y-95032000D01*
X138372400Y-95032000D02*
X152190000Y-95032000D01*
X152190000Y-95032000D02*
X155184110Y-98026110D01*
X155184110Y-98026110D02*
X160635890Y-98026110D01*
X160837511Y-97824489D02*
X161837000Y-96825000D01*
X160635890Y-98026110D02*
X160837511Y-97824489D01*
X133902000Y-99350000D02*
X132124000Y-99350000D01*
X132124000Y-99350000D02*
X130854000Y-98080000D01*
X130854000Y-98080000D02*
X130854000Y-93254000D01*
X130854000Y-93254000D02*
X124250000Y-86650000D01*
X124250000Y-86650000D02*
X122472000Y-86650000D01*
X133902000Y-89190000D02*
X135223000Y-89190000D01*
X135223000Y-89190000D02*
X138979110Y-92946110D01*
X138979110Y-92946110D02*
X165654890Y-92946110D01*
X165654890Y-92946110D02*
X166871000Y-91730000D01*
X166871000Y-91730000D02*
X168192000Y-91730000D01*
X133902000Y-86650000D02*
X135223000Y-86650000D01*
X135223000Y-86650000D02*
X138979110Y-90406110D01*
X138979110Y-90406110D02*
X165654890Y-90406110D01*
X165654890Y-90406110D02*
X166871000Y-89190000D01*
X166871000Y-89190000D02*
X168192000Y-89190000D01*
X151047000Y-86650000D02*
X147237000Y-82840000D01*
X147237000Y-82840000D02*
X147237000Y-80300000D01*
X144697000Y-81557500D02*
X144697000Y-80300000D01*
X145332000Y-86650000D02*
X145332000Y-85236508D01*
X145332000Y-85236508D02*
X144697000Y-84601508D01*
X144697000Y-84601508D02*
X144697000Y-81557500D01*
X139617000Y-86650000D02*
X143427000Y-82840000D01*
X143427000Y-82840000D02*
X143427000Y-80300000D01*
X133902000Y-91730000D02*
X135223000Y-91730000D01*
X135223000Y-91730000D02*
X137509000Y-94016000D01*
X137509000Y-94016000D02*
X153079000Y-94016000D01*
X153079000Y-94016000D02*
X154549110Y-95486110D01*
X160953000Y-94270000D02*
X166871000Y-94270000D01*
X154549110Y-95486110D02*
X159736890Y-95486110D01*
X159736890Y-95486110D02*
X160953000Y-94270000D01*
X166871000Y-94270000D02*
X168192000Y-94270000D01*
D23*
G36*
X166947585Y-95329670D02*
X167262366Y-95540000D01*
X166947585Y-95750330D01*
X166935444Y-95768500D01*
X166363005Y-95768500D01*
X166363000Y-95768499D01*
X165964435Y-95847779D01*
X165626548Y-96073548D01*
X165626546Y-96073551D01*
X164153548Y-97546548D01*
X163927779Y-97884435D01*
X163848500Y-98283000D01*
X163848500Y-102418000D01*
X163927779Y-102816565D01*
X164153548Y-103154452D01*
X165583378Y-104584282D01*
X165583269Y-104709086D01*
X165785854Y-105199380D01*
X165875500Y-105289182D01*
X165875500Y-109550597D01*
X162102890Y-105777986D01*
X162591380Y-105576146D01*
X162966827Y-105201353D01*
X163170268Y-104711413D01*
X163170731Y-104180914D01*
X162968146Y-103690620D01*
X162625743Y-103347620D01*
X162761655Y-103291462D01*
X163221846Y-102832073D01*
X163471206Y-102231547D01*
X163471774Y-101581306D01*
X163223462Y-100980345D01*
X162764073Y-100520154D01*
X162163547Y-100270794D01*
X161513306Y-100270226D01*
X160912345Y-100518538D01*
X160452154Y-100977927D01*
X160202794Y-101578453D01*
X160202226Y-102228694D01*
X160450538Y-102829655D01*
X160909927Y-103289846D01*
X161048874Y-103347542D01*
X160707173Y-103688647D01*
X160503732Y-104178587D01*
X160503732Y-104178828D01*
X160018452Y-103693548D01*
X159680565Y-103467779D01*
X159282000Y-103388500D01*
X158018556Y-103388500D01*
X158006415Y-103370330D01*
X157696931Y-103163539D01*
X158112732Y-102792036D01*
X158366709Y-102264791D01*
X158369358Y-102249026D01*
X158248217Y-102017000D01*
X156889000Y-102017000D01*
X156889000Y-102037000D01*
X156635000Y-102037000D01*
X156635000Y-102017000D01*
X155275783Y-102017000D01*
X155154642Y-102249026D01*
X155157291Y-102264791D01*
X155411268Y-102792036D01*
X155827069Y-103163539D01*
X155517585Y-103370330D01*
X155505444Y-103388500D01*
X152395156Y-103388500D01*
X152550958Y-103323965D01*
X152649557Y-103057163D01*
X151677000Y-102084605D01*
X150704443Y-103057163D01*
X150803042Y-103323965D01*
X150976763Y-103388500D01*
X144570000Y-103388500D01*
X144171435Y-103467779D01*
X143833548Y-103693548D01*
X137737548Y-109789548D01*
X137511779Y-110127435D01*
X137432500Y-110526000D01*
X137432500Y-111745597D01*
X135629596Y-113548500D01*
X135531966Y-113548500D01*
X135521162Y-113491083D01*
X135382090Y-113274959D01*
X135169890Y-113129969D01*
X135075073Y-113110768D01*
X135252732Y-112952036D01*
X135506709Y-112424791D01*
X135509358Y-112409026D01*
X135388217Y-112177000D01*
X134029000Y-112177000D01*
X134029000Y-112197000D01*
X133775000Y-112197000D01*
X133775000Y-112177000D01*
X132415783Y-112177000D01*
X132294642Y-112409026D01*
X132297291Y-112424791D01*
X132551268Y-112952036D01*
X132726845Y-113108907D01*
X132650683Y-113123238D01*
X132434559Y-113262310D01*
X132289569Y-113474510D01*
X132274586Y-113548500D01*
X126693404Y-113548500D01*
X125473990Y-112329086D01*
X127483269Y-112329086D01*
X127685854Y-112819380D01*
X128060647Y-113194827D01*
X128550587Y-113398268D01*
X129081086Y-113398731D01*
X129571380Y-113196146D01*
X129946827Y-112821353D01*
X130150268Y-112331413D01*
X130150731Y-111800914D01*
X129948146Y-111310620D01*
X129573353Y-110935173D01*
X129083413Y-110731732D01*
X128552914Y-110731269D01*
X128062620Y-110933854D01*
X127687173Y-111308647D01*
X127483732Y-111798587D01*
X127483269Y-112329086D01*
X125473990Y-112329086D01*
X125070622Y-111925718D01*
X125070731Y-111800914D01*
X124868146Y-111310620D01*
X124778500Y-111220818D01*
X124778500Y-105289526D01*
X124866827Y-105201353D01*
X125070268Y-104711413D01*
X125070731Y-104180914D01*
X124868146Y-103690620D01*
X124493353Y-103315173D01*
X124003413Y-103111732D01*
X123472914Y-103111269D01*
X122982620Y-103313854D01*
X122607173Y-103688647D01*
X122403732Y-104178587D01*
X122403269Y-104709086D01*
X122605854Y-105199380D01*
X122695500Y-105289182D01*
X122695500Y-111220474D01*
X122607173Y-111308647D01*
X122403732Y-111798587D01*
X122403269Y-112329086D01*
X122605854Y-112819380D01*
X122980647Y-113194827D01*
X123470587Y-113398268D01*
X123597475Y-113398379D01*
X125525548Y-115326452D01*
X125863435Y-115552221D01*
X126262000Y-115631500D01*
X132272034Y-115631500D01*
X132282838Y-115688917D01*
X132421910Y-115905041D01*
X132634110Y-116050031D01*
X132886000Y-116101040D01*
X134918000Y-116101040D01*
X135153317Y-116056762D01*
X135369441Y-115917690D01*
X135514431Y-115705490D01*
X135529414Y-115631500D01*
X136061000Y-115631500D01*
X136459565Y-115552221D01*
X136797452Y-115326452D01*
X138397503Y-113726400D01*
X155098560Y-113726400D01*
X155098560Y-115453600D01*
X155142838Y-115688917D01*
X155281910Y-115905041D01*
X155494110Y-116050031D01*
X155746000Y-116101040D01*
X157778000Y-116101040D01*
X158013317Y-116056762D01*
X158229441Y-115917690D01*
X158374431Y-115705490D01*
X158425440Y-115453600D01*
X158425440Y-113726400D01*
X158381162Y-113491083D01*
X158242090Y-113274959D01*
X158029890Y-113129969D01*
X157935073Y-113110768D01*
X158112732Y-112952036D01*
X158366709Y-112424791D01*
X158369358Y-112409026D01*
X158327622Y-112329086D01*
X160503269Y-112329086D01*
X160705854Y-112819380D01*
X161080647Y-113194827D01*
X161570587Y-113398268D01*
X162101086Y-113398731D01*
X162591380Y-113196146D01*
X162966827Y-112821353D01*
X163170268Y-112331413D01*
X163170731Y-111800914D01*
X162968146Y-111310620D01*
X162593353Y-110935173D01*
X162103413Y-110731732D01*
X161572914Y-110731269D01*
X161082620Y-110933854D01*
X160707173Y-111308647D01*
X160503732Y-111798587D01*
X160503269Y-112329086D01*
X158327622Y-112329086D01*
X158248217Y-112177000D01*
X156889000Y-112177000D01*
X156889000Y-112197000D01*
X156635000Y-112197000D01*
X156635000Y-112177000D01*
X155275783Y-112177000D01*
X155154642Y-112409026D01*
X155157291Y-112424791D01*
X155411268Y-112952036D01*
X155586845Y-113108907D01*
X155510683Y-113123238D01*
X155294559Y-113262310D01*
X155149569Y-113474510D01*
X155098560Y-113726400D01*
X138397503Y-113726400D01*
X139210449Y-112913454D01*
X139210452Y-112913452D01*
X139436221Y-112575565D01*
X139515500Y-112177000D01*
X139515500Y-110957404D01*
X145001404Y-105471500D01*
X155505444Y-105471500D01*
X155517585Y-105489670D01*
X155832366Y-105700000D01*
X155517585Y-105910330D01*
X155192729Y-106396511D01*
X155078655Y-106970000D01*
X155192729Y-107543489D01*
X155517585Y-108029670D01*
X155832366Y-108240000D01*
X155517585Y-108450330D01*
X155192729Y-108936511D01*
X155078655Y-109510000D01*
X155192729Y-110083489D01*
X155517585Y-110569670D01*
X155827069Y-110776461D01*
X155411268Y-111147964D01*
X155157291Y-111675209D01*
X155154642Y-111690974D01*
X155275783Y-111923000D01*
X156635000Y-111923000D01*
X156635000Y-111903000D01*
X156889000Y-111903000D01*
X156889000Y-111923000D01*
X158248217Y-111923000D01*
X158369358Y-111690974D01*
X158366709Y-111675209D01*
X158112732Y-111147964D01*
X157696931Y-110776461D01*
X158006415Y-110569670D01*
X158331271Y-110083489D01*
X158445345Y-109510000D01*
X158331271Y-108936511D01*
X158006415Y-108450330D01*
X157691634Y-108240000D01*
X158006415Y-108029670D01*
X158331271Y-107543489D01*
X158445345Y-106970000D01*
X158331271Y-106396511D01*
X158006415Y-105910330D01*
X157691634Y-105700000D01*
X158006415Y-105489670D01*
X158018556Y-105471500D01*
X158850596Y-105471500D01*
X165583378Y-112204281D01*
X165583269Y-112329086D01*
X165785854Y-112819380D01*
X166160647Y-113194827D01*
X166650587Y-113398268D01*
X167181086Y-113398731D01*
X167671380Y-113196146D01*
X168046827Y-112821353D01*
X168250268Y-112331413D01*
X168250731Y-111800914D01*
X168048146Y-111310620D01*
X167958500Y-111220818D01*
X167958500Y-105289526D01*
X168046827Y-105201353D01*
X168250268Y-104711413D01*
X168250731Y-104180914D01*
X168048146Y-103690620D01*
X167673353Y-103315173D01*
X167183413Y-103111732D01*
X167056525Y-103111621D01*
X165931500Y-101986596D01*
X165931500Y-99635750D01*
X166541000Y-99635750D01*
X166541000Y-100339909D01*
X166637673Y-100573298D01*
X166816301Y-100751927D01*
X167049690Y-100848600D01*
X167906250Y-100848600D01*
X168065000Y-100689850D01*
X168065000Y-99477000D01*
X166699750Y-99477000D01*
X166541000Y-99635750D01*
X165931500Y-99635750D01*
X165931500Y-98714404D01*
X166794403Y-97851500D01*
X166935444Y-97851500D01*
X166947585Y-97869670D01*
X166969780Y-97884500D01*
X166816301Y-97948073D01*
X166637673Y-98126702D01*
X166541000Y-98360091D01*
X166541000Y-99064250D01*
X166699750Y-99223000D01*
X168065000Y-99223000D01*
X168065000Y-99203000D01*
X168319000Y-99203000D01*
X168319000Y-99223000D01*
X168339000Y-99223000D01*
X168339000Y-99477000D01*
X168319000Y-99477000D01*
X168319000Y-100689850D01*
X168477750Y-100848600D01*
X169334310Y-100848600D01*
X169567699Y-100751927D01*
X169617000Y-100702626D01*
X169617000Y-116453026D01*
X169587266Y-116432339D01*
X167350605Y-118669000D01*
X167364748Y-118683143D01*
X167185143Y-118862748D01*
X167171000Y-118848605D01*
X167156858Y-118862748D01*
X166977253Y-118683143D01*
X166991395Y-118669000D01*
X164754734Y-116432339D01*
X164306068Y-116744487D01*
X163787669Y-117987343D01*
X163784352Y-119333976D01*
X164296620Y-120579371D01*
X164306068Y-120593513D01*
X164754732Y-120905660D01*
X164642506Y-121017886D01*
X164727620Y-121103000D01*
X125926380Y-121103000D01*
X126011494Y-121017886D01*
X125899268Y-120905660D01*
X126347932Y-120593513D01*
X126866331Y-119350657D01*
X126869648Y-118004024D01*
X126357380Y-116758629D01*
X126347932Y-116744487D01*
X125899266Y-116432339D01*
X123662605Y-118669000D01*
X123676748Y-118683143D01*
X123497143Y-118862748D01*
X123483000Y-118848605D01*
X123468858Y-118862748D01*
X123289253Y-118683143D01*
X123303395Y-118669000D01*
X121066734Y-116432339D01*
X121037000Y-116453026D01*
X121037000Y-116252734D01*
X121246339Y-116252734D01*
X123483000Y-118489395D01*
X125719661Y-116252734D01*
X164934339Y-116252734D01*
X167171000Y-118489395D01*
X169407661Y-116252734D01*
X169095513Y-115804068D01*
X167852657Y-115285669D01*
X166506024Y-115282352D01*
X165260629Y-115794620D01*
X165246487Y-115804068D01*
X164934339Y-116252734D01*
X125719661Y-116252734D01*
X125407513Y-115804068D01*
X124164657Y-115285669D01*
X122818024Y-115282352D01*
X121572629Y-115794620D01*
X121558487Y-115804068D01*
X121246339Y-116252734D01*
X121037000Y-116252734D01*
X121037000Y-100692626D01*
X121096301Y-100751927D01*
X121329690Y-100848600D01*
X122186250Y-100848600D01*
X122345000Y-100689850D01*
X122345000Y-99477000D01*
X122599000Y-99477000D01*
X122599000Y-100689850D01*
X122757750Y-100848600D01*
X123614310Y-100848600D01*
X123847699Y-100751927D01*
X124026327Y-100573298D01*
X124123000Y-100339909D01*
X124123000Y-99635750D01*
X123964250Y-99477000D01*
X122599000Y-99477000D01*
X122345000Y-99477000D01*
X122325000Y-99477000D01*
X122325000Y-99223000D01*
X122345000Y-99223000D01*
X122345000Y-99203000D01*
X122599000Y-99203000D01*
X122599000Y-99223000D01*
X123964250Y-99223000D01*
X124123000Y-99064250D01*
X124123000Y-98360091D01*
X124026327Y-98126702D01*
X123847699Y-97948073D01*
X123694220Y-97884500D01*
X123716415Y-97869670D01*
X123755893Y-97810587D01*
X125113500Y-99168194D01*
X125113500Y-104382185D01*
X125113499Y-104382190D01*
X125173445Y-104683553D01*
X125344153Y-104939037D01*
X130471961Y-110066844D01*
X130471963Y-110066847D01*
X130562640Y-110127435D01*
X130727446Y-110237555D01*
X131028810Y-110297500D01*
X132475727Y-110297500D01*
X132657585Y-110569670D01*
X132967069Y-110776461D01*
X132551268Y-111147964D01*
X132297291Y-111675209D01*
X132294642Y-111690974D01*
X132415783Y-111923000D01*
X133775000Y-111923000D01*
X133775000Y-111903000D01*
X134029000Y-111903000D01*
X134029000Y-111923000D01*
X135388217Y-111923000D01*
X135509358Y-111690974D01*
X135506709Y-111675209D01*
X135252732Y-111147964D01*
X134836931Y-110776461D01*
X135146415Y-110569670D01*
X135328273Y-110297500D01*
X136314995Y-110297500D01*
X136315000Y-110297501D01*
X136616363Y-110237555D01*
X136871847Y-110066847D01*
X145298111Y-101640582D01*
X150031599Y-101640582D01*
X150055659Y-102290377D01*
X150258035Y-102778958D01*
X150524837Y-102877557D01*
X151497395Y-101905000D01*
X151856605Y-101905000D01*
X152829163Y-102877557D01*
X153095965Y-102778958D01*
X153322401Y-102169418D01*
X153298341Y-101519623D01*
X153095965Y-101031042D01*
X152829163Y-100932443D01*
X151856605Y-101905000D01*
X151497395Y-101905000D01*
X150524837Y-100932443D01*
X150258035Y-101031042D01*
X150031599Y-101640582D01*
X145298111Y-101640582D01*
X146185856Y-100752837D01*
X150704443Y-100752837D01*
X151677000Y-101725395D01*
X152649557Y-100752837D01*
X152550958Y-100486035D01*
X151941418Y-100259599D01*
X151291623Y-100283659D01*
X150803042Y-100486035D01*
X150704443Y-100752837D01*
X146185856Y-100752837D01*
X149341193Y-97597500D01*
X149603867Y-97597500D01*
X149660538Y-97734655D01*
X150119927Y-98194846D01*
X150720453Y-98444206D01*
X151370694Y-98444774D01*
X151971655Y-98196462D01*
X152431846Y-97737073D01*
X152681206Y-97136547D01*
X152681642Y-96637336D01*
X154627263Y-98582957D01*
X154882747Y-98753665D01*
X155184110Y-98813611D01*
X155184115Y-98813610D01*
X155185350Y-98813610D01*
X155078655Y-99350000D01*
X155192729Y-99923489D01*
X155517585Y-100409670D01*
X155827069Y-100616461D01*
X155411268Y-100987964D01*
X155157291Y-101515209D01*
X155154642Y-101530974D01*
X155275783Y-101763000D01*
X156635000Y-101763000D01*
X156635000Y-101743000D01*
X156889000Y-101743000D01*
X156889000Y-101763000D01*
X158248217Y-101763000D01*
X158369358Y-101530974D01*
X158366709Y-101515209D01*
X158112732Y-100987964D01*
X157696931Y-100616461D01*
X158006415Y-100409670D01*
X158331271Y-99923489D01*
X158445345Y-99350000D01*
X158338650Y-98813610D01*
X160635885Y-98813610D01*
X160635890Y-98813611D01*
X160937253Y-98753665D01*
X161192737Y-98582957D01*
X161373397Y-98402296D01*
X161510453Y-98459206D01*
X162160694Y-98459774D01*
X162761655Y-98211462D01*
X163221846Y-97752073D01*
X163471206Y-97151547D01*
X163471774Y-96501306D01*
X163223462Y-95900345D01*
X162764073Y-95440154D01*
X162163547Y-95190794D01*
X161513306Y-95190226D01*
X160912345Y-95438538D01*
X160452154Y-95897927D01*
X160202794Y-96498453D01*
X160202226Y-97148694D01*
X160239379Y-97238610D01*
X158360089Y-97238610D01*
X158445345Y-96810000D01*
X158338650Y-96273610D01*
X159736885Y-96273610D01*
X159736890Y-96273611D01*
X160038253Y-96213665D01*
X160293737Y-96042957D01*
X161279193Y-95057500D01*
X166765727Y-95057500D01*
X166947585Y-95329670D01*
X166947585Y-95329670D01*
G37*
X166947585Y-95329670D02*
X167262366Y-95540000D01*
X166947585Y-95750330D01*
X166935444Y-95768500D01*
X166363005Y-95768500D01*
X166363000Y-95768499D01*
X165964435Y-95847779D01*
X165626548Y-96073548D01*
X165626546Y-96073551D01*
X164153548Y-97546548D01*
X163927779Y-97884435D01*
X163848500Y-98283000D01*
X163848500Y-102418000D01*
X163927779Y-102816565D01*
X164153548Y-103154452D01*
X165583378Y-104584282D01*
X165583269Y-104709086D01*
X165785854Y-105199380D01*
X165875500Y-105289182D01*
X165875500Y-109550597D01*
X162102890Y-105777986D01*
X162591380Y-105576146D01*
X162966827Y-105201353D01*
X163170268Y-104711413D01*
X163170731Y-104180914D01*
X162968146Y-103690620D01*
X162625743Y-103347620D01*
X162761655Y-103291462D01*
X163221846Y-102832073D01*
X163471206Y-102231547D01*
X163471774Y-101581306D01*
X163223462Y-100980345D01*
X162764073Y-100520154D01*
X162163547Y-100270794D01*
X161513306Y-100270226D01*
X160912345Y-100518538D01*
X160452154Y-100977927D01*
X160202794Y-101578453D01*
X160202226Y-102228694D01*
X160450538Y-102829655D01*
X160909927Y-103289846D01*
X161048874Y-103347542D01*
X160707173Y-103688647D01*
X160503732Y-104178587D01*
X160503732Y-104178828D01*
X160018452Y-103693548D01*
X159680565Y-103467779D01*
X159282000Y-103388500D01*
X158018556Y-103388500D01*
X158006415Y-103370330D01*
X157696931Y-103163539D01*
X158112732Y-102792036D01*
X158366709Y-102264791D01*
X158369358Y-102249026D01*
X158248217Y-102017000D01*
X156889000Y-102017000D01*
X156889000Y-102037000D01*
X156635000Y-102037000D01*
X156635000Y-102017000D01*
X155275783Y-102017000D01*
X155154642Y-102249026D01*
X155157291Y-102264791D01*
X155411268Y-102792036D01*
X155827069Y-103163539D01*
X155517585Y-103370330D01*
X155505444Y-103388500D01*
X152395156Y-103388500D01*
X152550958Y-103323965D01*
X152649557Y-103057163D01*
X151677000Y-102084605D01*
X150704443Y-103057163D01*
X150803042Y-103323965D01*
X150976763Y-103388500D01*
X144570000Y-103388500D01*
X144171435Y-103467779D01*
X143833548Y-103693548D01*
X137737548Y-109789548D01*
X137511779Y-110127435D01*
X137432500Y-110526000D01*
X137432500Y-111745597D01*
X135629596Y-113548500D01*
X135531966Y-113548500D01*
X135521162Y-113491083D01*
X135382090Y-113274959D01*
X135169890Y-113129969D01*
X135075073Y-113110768D01*
X135252732Y-112952036D01*
X135506709Y-112424791D01*
X135509358Y-112409026D01*
X135388217Y-112177000D01*
X134029000Y-112177000D01*
X134029000Y-112197000D01*
X133775000Y-112197000D01*
X133775000Y-112177000D01*
X132415783Y-112177000D01*
X132294642Y-112409026D01*
X132297291Y-112424791D01*
X132551268Y-112952036D01*
X132726845Y-113108907D01*
X132650683Y-113123238D01*
X132434559Y-113262310D01*
X132289569Y-113474510D01*
X132274586Y-113548500D01*
X126693404Y-113548500D01*
X125473990Y-112329086D01*
X127483269Y-112329086D01*
X127685854Y-112819380D01*
X128060647Y-113194827D01*
X128550587Y-113398268D01*
X129081086Y-113398731D01*
X129571380Y-113196146D01*
X129946827Y-112821353D01*
X130150268Y-112331413D01*
X130150731Y-111800914D01*
X129948146Y-111310620D01*
X129573353Y-110935173D01*
X129083413Y-110731732D01*
X128552914Y-110731269D01*
X128062620Y-110933854D01*
X127687173Y-111308647D01*
X127483732Y-111798587D01*
X127483269Y-112329086D01*
X125473990Y-112329086D01*
X125070622Y-111925718D01*
X125070731Y-111800914D01*
X124868146Y-111310620D01*
X124778500Y-111220818D01*
X124778500Y-105289526D01*
X124866827Y-105201353D01*
X125070268Y-104711413D01*
X125070731Y-104180914D01*
X124868146Y-103690620D01*
X124493353Y-103315173D01*
X124003413Y-103111732D01*
X123472914Y-103111269D01*
X122982620Y-103313854D01*
X122607173Y-103688647D01*
X122403732Y-104178587D01*
X122403269Y-104709086D01*
X122605854Y-105199380D01*
X122695500Y-105289182D01*
X122695500Y-111220474D01*
X122607173Y-111308647D01*
X122403732Y-111798587D01*
X122403269Y-112329086D01*
X122605854Y-112819380D01*
X122980647Y-113194827D01*
X123470587Y-113398268D01*
X123597475Y-113398379D01*
X125525548Y-115326452D01*
X125863435Y-115552221D01*
X126262000Y-115631500D01*
X132272034Y-115631500D01*
X132282838Y-115688917D01*
X132421910Y-115905041D01*
X132634110Y-116050031D01*
X132886000Y-116101040D01*
X134918000Y-116101040D01*
X135153317Y-116056762D01*
X135369441Y-115917690D01*
X135514431Y-115705490D01*
X135529414Y-115631500D01*
X136061000Y-115631500D01*
X136459565Y-115552221D01*
X136797452Y-115326452D01*
X138397503Y-113726400D01*
X155098560Y-113726400D01*
X155098560Y-115453600D01*
X155142838Y-115688917D01*
X155281910Y-115905041D01*
X155494110Y-116050031D01*
X155746000Y-116101040D01*
X157778000Y-116101040D01*
X158013317Y-116056762D01*
X158229441Y-115917690D01*
X158374431Y-115705490D01*
X158425440Y-115453600D01*
X158425440Y-113726400D01*
X158381162Y-113491083D01*
X158242090Y-113274959D01*
X158029890Y-113129969D01*
X157935073Y-113110768D01*
X158112732Y-112952036D01*
X158366709Y-112424791D01*
X158369358Y-112409026D01*
X158327622Y-112329086D01*
X160503269Y-112329086D01*
X160705854Y-112819380D01*
X161080647Y-113194827D01*
X161570587Y-113398268D01*
X162101086Y-113398731D01*
X162591380Y-113196146D01*
X162966827Y-112821353D01*
X163170268Y-112331413D01*
X163170731Y-111800914D01*
X162968146Y-111310620D01*
X162593353Y-110935173D01*
X162103413Y-110731732D01*
X161572914Y-110731269D01*
X161082620Y-110933854D01*
X160707173Y-111308647D01*
X160503732Y-111798587D01*
X160503269Y-112329086D01*
X158327622Y-112329086D01*
X158248217Y-112177000D01*
X156889000Y-112177000D01*
X156889000Y-112197000D01*
X156635000Y-112197000D01*
X156635000Y-112177000D01*
X155275783Y-112177000D01*
X155154642Y-112409026D01*
X155157291Y-112424791D01*
X155411268Y-112952036D01*
X155586845Y-113108907D01*
X155510683Y-113123238D01*
X155294559Y-113262310D01*
X155149569Y-113474510D01*
X155098560Y-113726400D01*
X138397503Y-113726400D01*
X139210449Y-112913454D01*
X139210452Y-112913452D01*
X139436221Y-112575565D01*
X139515500Y-112177000D01*
X139515500Y-110957404D01*
X145001404Y-105471500D01*
X155505444Y-105471500D01*
X155517585Y-105489670D01*
X155832366Y-105700000D01*
X155517585Y-105910330D01*
X155192729Y-106396511D01*
X155078655Y-106970000D01*
X155192729Y-107543489D01*
X155517585Y-108029670D01*
X155832366Y-108240000D01*
X155517585Y-108450330D01*
X155192729Y-108936511D01*
X155078655Y-109510000D01*
X155192729Y-110083489D01*
X155517585Y-110569670D01*
X155827069Y-110776461D01*
X155411268Y-111147964D01*
X155157291Y-111675209D01*
X155154642Y-111690974D01*
X155275783Y-111923000D01*
X156635000Y-111923000D01*
X156635000Y-111903000D01*
X156889000Y-111903000D01*
X156889000Y-111923000D01*
X158248217Y-111923000D01*
X158369358Y-111690974D01*
X158366709Y-111675209D01*
X158112732Y-111147964D01*
X157696931Y-110776461D01*
X158006415Y-110569670D01*
X158331271Y-110083489D01*
X158445345Y-109510000D01*
X158331271Y-108936511D01*
X158006415Y-108450330D01*
X157691634Y-108240000D01*
X158006415Y-108029670D01*
X158331271Y-107543489D01*
X158445345Y-106970000D01*
X158331271Y-106396511D01*
X158006415Y-105910330D01*
X157691634Y-105700000D01*
X158006415Y-105489670D01*
X158018556Y-105471500D01*
X158850596Y-105471500D01*
X165583378Y-112204281D01*
X165583269Y-112329086D01*
X165785854Y-112819380D01*
X166160647Y-113194827D01*
X166650587Y-113398268D01*
X167181086Y-113398731D01*
X167671380Y-113196146D01*
X168046827Y-112821353D01*
X168250268Y-112331413D01*
X168250731Y-111800914D01*
X168048146Y-111310620D01*
X167958500Y-111220818D01*
X167958500Y-105289526D01*
X168046827Y-105201353D01*
X168250268Y-104711413D01*
X168250731Y-104180914D01*
X168048146Y-103690620D01*
X167673353Y-103315173D01*
X167183413Y-103111732D01*
X167056525Y-103111621D01*
X165931500Y-101986596D01*
X165931500Y-99635750D01*
X166541000Y-99635750D01*
X166541000Y-100339909D01*
X166637673Y-100573298D01*
X166816301Y-100751927D01*
X167049690Y-100848600D01*
X167906250Y-100848600D01*
X168065000Y-100689850D01*
X168065000Y-99477000D01*
X166699750Y-99477000D01*
X166541000Y-99635750D01*
X165931500Y-99635750D01*
X165931500Y-98714404D01*
X166794403Y-97851500D01*
X166935444Y-97851500D01*
X166947585Y-97869670D01*
X166969780Y-97884500D01*
X166816301Y-97948073D01*
X166637673Y-98126702D01*
X166541000Y-98360091D01*
X166541000Y-99064250D01*
X166699750Y-99223000D01*
X168065000Y-99223000D01*
X168065000Y-99203000D01*
X168319000Y-99203000D01*
X168319000Y-99223000D01*
X168339000Y-99223000D01*
X168339000Y-99477000D01*
X168319000Y-99477000D01*
X168319000Y-100689850D01*
X168477750Y-100848600D01*
X169334310Y-100848600D01*
X169567699Y-100751927D01*
X169617000Y-100702626D01*
X169617000Y-116453026D01*
X169587266Y-116432339D01*
X167350605Y-118669000D01*
X167364748Y-118683143D01*
X167185143Y-118862748D01*
X167171000Y-118848605D01*
X167156858Y-118862748D01*
X166977253Y-118683143D01*
X166991395Y-118669000D01*
X164754734Y-116432339D01*
X164306068Y-116744487D01*
X163787669Y-117987343D01*
X163784352Y-119333976D01*
X164296620Y-120579371D01*
X164306068Y-120593513D01*
X164754732Y-120905660D01*
X164642506Y-121017886D01*
X164727620Y-121103000D01*
X125926380Y-121103000D01*
X126011494Y-121017886D01*
X125899268Y-120905660D01*
X126347932Y-120593513D01*
X126866331Y-119350657D01*
X126869648Y-118004024D01*
X126357380Y-116758629D01*
X126347932Y-116744487D01*
X125899266Y-116432339D01*
X123662605Y-118669000D01*
X123676748Y-118683143D01*
X123497143Y-118862748D01*
X123483000Y-118848605D01*
X123468858Y-118862748D01*
X123289253Y-118683143D01*
X123303395Y-118669000D01*
X121066734Y-116432339D01*
X121037000Y-116453026D01*
X121037000Y-116252734D01*
X121246339Y-116252734D01*
X123483000Y-118489395D01*
X125719661Y-116252734D01*
X164934339Y-116252734D01*
X167171000Y-118489395D01*
X169407661Y-116252734D01*
X169095513Y-115804068D01*
X167852657Y-115285669D01*
X166506024Y-115282352D01*
X165260629Y-115794620D01*
X165246487Y-115804068D01*
X164934339Y-116252734D01*
X125719661Y-116252734D01*
X125407513Y-115804068D01*
X124164657Y-115285669D01*
X122818024Y-115282352D01*
X121572629Y-115794620D01*
X121558487Y-115804068D01*
X121246339Y-116252734D01*
X121037000Y-116252734D01*
X121037000Y-100692626D01*
X121096301Y-100751927D01*
X121329690Y-100848600D01*
X122186250Y-100848600D01*
X122345000Y-100689850D01*
X122345000Y-99477000D01*
X122599000Y-99477000D01*
X122599000Y-100689850D01*
X122757750Y-100848600D01*
X123614310Y-100848600D01*
X123847699Y-100751927D01*
X124026327Y-100573298D01*
X124123000Y-100339909D01*
X124123000Y-99635750D01*
X123964250Y-99477000D01*
X122599000Y-99477000D01*
X122345000Y-99477000D01*
X122325000Y-99477000D01*
X122325000Y-99223000D01*
X122345000Y-99223000D01*
X122345000Y-99203000D01*
X122599000Y-99203000D01*
X122599000Y-99223000D01*
X123964250Y-99223000D01*
X124123000Y-99064250D01*
X124123000Y-98360091D01*
X124026327Y-98126702D01*
X123847699Y-97948073D01*
X123694220Y-97884500D01*
X123716415Y-97869670D01*
X123755893Y-97810587D01*
X125113500Y-99168194D01*
X125113500Y-104382185D01*
X125113499Y-104382190D01*
X125173445Y-104683553D01*
X125344153Y-104939037D01*
X130471961Y-110066844D01*
X130471963Y-110066847D01*
X130562640Y-110127435D01*
X130727446Y-110237555D01*
X131028810Y-110297500D01*
X132475727Y-110297500D01*
X132657585Y-110569670D01*
X132967069Y-110776461D01*
X132551268Y-111147964D01*
X132297291Y-111675209D01*
X132294642Y-111690974D01*
X132415783Y-111923000D01*
X133775000Y-111923000D01*
X133775000Y-111903000D01*
X134029000Y-111903000D01*
X134029000Y-111923000D01*
X135388217Y-111923000D01*
X135509358Y-111690974D01*
X135506709Y-111675209D01*
X135252732Y-111147964D01*
X134836931Y-110776461D01*
X135146415Y-110569670D01*
X135328273Y-110297500D01*
X136314995Y-110297500D01*
X136315000Y-110297501D01*
X136616363Y-110237555D01*
X136871847Y-110066847D01*
X145298111Y-101640582D01*
X150031599Y-101640582D01*
X150055659Y-102290377D01*
X150258035Y-102778958D01*
X150524837Y-102877557D01*
X151497395Y-101905000D01*
X151856605Y-101905000D01*
X152829163Y-102877557D01*
X153095965Y-102778958D01*
X153322401Y-102169418D01*
X153298341Y-101519623D01*
X153095965Y-101031042D01*
X152829163Y-100932443D01*
X151856605Y-101905000D01*
X151497395Y-101905000D01*
X150524837Y-100932443D01*
X150258035Y-101031042D01*
X150031599Y-101640582D01*
X145298111Y-101640582D01*
X146185856Y-100752837D01*
X150704443Y-100752837D01*
X151677000Y-101725395D01*
X152649557Y-100752837D01*
X152550958Y-100486035D01*
X151941418Y-100259599D01*
X151291623Y-100283659D01*
X150803042Y-100486035D01*
X150704443Y-100752837D01*
X146185856Y-100752837D01*
X149341193Y-97597500D01*
X149603867Y-97597500D01*
X149660538Y-97734655D01*
X150119927Y-98194846D01*
X150720453Y-98444206D01*
X151370694Y-98444774D01*
X151971655Y-98196462D01*
X152431846Y-97737073D01*
X152681206Y-97136547D01*
X152681642Y-96637336D01*
X154627263Y-98582957D01*
X154882747Y-98753665D01*
X155184110Y-98813611D01*
X155184115Y-98813610D01*
X155185350Y-98813610D01*
X155078655Y-99350000D01*
X155192729Y-99923489D01*
X155517585Y-100409670D01*
X155827069Y-100616461D01*
X155411268Y-100987964D01*
X155157291Y-101515209D01*
X155154642Y-101530974D01*
X155275783Y-101763000D01*
X156635000Y-101763000D01*
X156635000Y-101743000D01*
X156889000Y-101743000D01*
X156889000Y-101763000D01*
X158248217Y-101763000D01*
X158369358Y-101530974D01*
X158366709Y-101515209D01*
X158112732Y-100987964D01*
X157696931Y-100616461D01*
X158006415Y-100409670D01*
X158331271Y-99923489D01*
X158445345Y-99350000D01*
X158338650Y-98813610D01*
X160635885Y-98813610D01*
X160635890Y-98813611D01*
X160937253Y-98753665D01*
X161192737Y-98582957D01*
X161373397Y-98402296D01*
X161510453Y-98459206D01*
X162160694Y-98459774D01*
X162761655Y-98211462D01*
X163221846Y-97752073D01*
X163471206Y-97151547D01*
X163471774Y-96501306D01*
X163223462Y-95900345D01*
X162764073Y-95440154D01*
X162163547Y-95190794D01*
X161513306Y-95190226D01*
X160912345Y-95438538D01*
X160452154Y-95897927D01*
X160202794Y-96498453D01*
X160202226Y-97148694D01*
X160239379Y-97238610D01*
X158360089Y-97238610D01*
X158445345Y-96810000D01*
X158338650Y-96273610D01*
X159736885Y-96273610D01*
X159736890Y-96273611D01*
X160038253Y-96213665D01*
X160293737Y-96042957D01*
X161279193Y-95057500D01*
X166765727Y-95057500D01*
X166947585Y-95329670D01*
G36*
X143947154Y-95882927D02*
X143697794Y-96483453D01*
X143697226Y-97133694D01*
X143945538Y-97734655D01*
X144326008Y-98115790D01*
X140609903Y-101831895D01*
X140598341Y-101519623D01*
X140395965Y-101031042D01*
X140129163Y-100932443D01*
X139156605Y-101905000D01*
X139170748Y-101919142D01*
X138991142Y-102098748D01*
X138977000Y-102084605D01*
X138004443Y-103057163D01*
X138103042Y-103323965D01*
X138712582Y-103550401D01*
X138898273Y-103543525D01*
X138545298Y-103896500D01*
X137509000Y-103896500D01*
X137207637Y-103956445D01*
X136952153Y-104127153D01*
X136952151Y-104127156D01*
X135155452Y-105923854D01*
X135146415Y-105910330D01*
X134831634Y-105700000D01*
X135146415Y-105489670D01*
X135352227Y-105181651D01*
X135473363Y-105157555D01*
X135728847Y-104986847D01*
X137252844Y-103462849D01*
X137252847Y-103462847D01*
X137368442Y-103289846D01*
X137423555Y-103207364D01*
X137483500Y-102906000D01*
X137483500Y-102599014D01*
X137558035Y-102778958D01*
X137824837Y-102877557D01*
X138797395Y-101905000D01*
X137824837Y-100932443D01*
X137558035Y-101031042D01*
X137483500Y-101231682D01*
X137483500Y-100752837D01*
X138004443Y-100752837D01*
X138977000Y-101725395D01*
X139949557Y-100752837D01*
X139850958Y-100486035D01*
X139241418Y-100259599D01*
X138591623Y-100283659D01*
X138103042Y-100486035D01*
X138004443Y-100752837D01*
X137483500Y-100752837D01*
X137483500Y-98406194D01*
X138208463Y-97681230D01*
X138230538Y-97734655D01*
X138689927Y-98194846D01*
X139290453Y-98444206D01*
X139940694Y-98444774D01*
X140541655Y-98196462D01*
X141001846Y-97737073D01*
X141251206Y-97136547D01*
X141251774Y-96486306D01*
X141003462Y-95885345D01*
X140937732Y-95819500D01*
X144010692Y-95819500D01*
X143947154Y-95882927D01*
X143947154Y-95882927D01*
G37*
X143947154Y-95882927D02*
X143697794Y-96483453D01*
X143697226Y-97133694D01*
X143945538Y-97734655D01*
X144326008Y-98115790D01*
X140609903Y-101831895D01*
X140598341Y-101519623D01*
X140395965Y-101031042D01*
X140129163Y-100932443D01*
X139156605Y-101905000D01*
X139170748Y-101919142D01*
X138991142Y-102098748D01*
X138977000Y-102084605D01*
X138004443Y-103057163D01*
X138103042Y-103323965D01*
X138712582Y-103550401D01*
X138898273Y-103543525D01*
X138545298Y-103896500D01*
X137509000Y-103896500D01*
X137207637Y-103956445D01*
X136952153Y-104127153D01*
X136952151Y-104127156D01*
X135155452Y-105923854D01*
X135146415Y-105910330D01*
X134831634Y-105700000D01*
X135146415Y-105489670D01*
X135352227Y-105181651D01*
X135473363Y-105157555D01*
X135728847Y-104986847D01*
X137252844Y-103462849D01*
X137252847Y-103462847D01*
X137368442Y-103289846D01*
X137423555Y-103207364D01*
X137483500Y-102906000D01*
X137483500Y-102599014D01*
X137558035Y-102778958D01*
X137824837Y-102877557D01*
X138797395Y-101905000D01*
X137824837Y-100932443D01*
X137558035Y-101031042D01*
X137483500Y-101231682D01*
X137483500Y-100752837D01*
X138004443Y-100752837D01*
X138977000Y-101725395D01*
X139949557Y-100752837D01*
X139850958Y-100486035D01*
X139241418Y-100259599D01*
X138591623Y-100283659D01*
X138103042Y-100486035D01*
X138004443Y-100752837D01*
X137483500Y-100752837D01*
X137483500Y-98406194D01*
X138208463Y-97681230D01*
X138230538Y-97734655D01*
X138689927Y-98194846D01*
X139290453Y-98444206D01*
X139940694Y-98444774D01*
X140541655Y-98196462D01*
X141001846Y-97737073D01*
X141251206Y-97136547D01*
X141251774Y-96486306D01*
X141003462Y-95885345D01*
X140937732Y-95819500D01*
X144010692Y-95819500D01*
X143947154Y-95882927D01*
G36*
X121246339Y-72564734D02*
X123483000Y-74801395D01*
X125719661Y-72564734D01*
X125690626Y-72523000D01*
X136281928Y-72523000D01*
X136315004Y-76491059D01*
X136323685Y-76536159D01*
X136350965Y-76578553D01*
X136392590Y-76606994D01*
X136442000Y-76617000D01*
X154222000Y-76617000D01*
X154269144Y-76607926D01*
X154311309Y-76580293D01*
X154339402Y-76538433D01*
X154348996Y-76488941D01*
X154341970Y-75645976D01*
X163784352Y-75645976D01*
X164296620Y-76891371D01*
X164306068Y-76905513D01*
X164754734Y-77217661D01*
X166991395Y-74981000D01*
X164754734Y-72744339D01*
X164306068Y-73056487D01*
X163787669Y-74299343D01*
X163784352Y-75645976D01*
X154341970Y-75645976D01*
X154315938Y-72523000D01*
X164963374Y-72523000D01*
X164934339Y-72564734D01*
X167171000Y-74801395D01*
X169407661Y-72564734D01*
X169378626Y-72523000D01*
X169617000Y-72523000D01*
X169617000Y-72765026D01*
X169587266Y-72744339D01*
X167350605Y-74981000D01*
X169587266Y-77217661D01*
X169617000Y-77196974D01*
X169617000Y-85860594D01*
X169436415Y-85590330D01*
X168950234Y-85265474D01*
X168376745Y-85151400D01*
X168007255Y-85151400D01*
X167433766Y-85265474D01*
X166947585Y-85590330D01*
X166765727Y-85862500D01*
X166160000Y-85862500D01*
X165858636Y-85922445D01*
X165796351Y-85964063D01*
X165603153Y-86093153D01*
X165603151Y-86093156D01*
X163293806Y-88402500D01*
X161406193Y-88402500D01*
X161155517Y-88151824D01*
X161510453Y-88299206D01*
X162160694Y-88299774D01*
X162761655Y-88051462D01*
X163221846Y-87592073D01*
X163471206Y-86991547D01*
X163471774Y-86341306D01*
X163223462Y-85740345D01*
X162764073Y-85280154D01*
X162624500Y-85222198D01*
X162624500Y-82974584D01*
X162733657Y-82929481D01*
X163179914Y-82484003D01*
X163421724Y-81901659D01*
X163422275Y-81271107D01*
X163181481Y-80688343D01*
X163076455Y-80583133D01*
X163196698Y-80533327D01*
X163375327Y-80354699D01*
X163472000Y-80121310D01*
X163472000Y-79330750D01*
X163313250Y-79172000D01*
X161964000Y-79172000D01*
X161964000Y-79192000D01*
X161710000Y-79192000D01*
X161710000Y-79172000D01*
X160360750Y-79172000D01*
X160202000Y-79330750D01*
X160202000Y-80035307D01*
X158639847Y-78473153D01*
X158384363Y-78302445D01*
X158204409Y-78266649D01*
X158006415Y-77970330D01*
X158003961Y-77968690D01*
X160202000Y-77968690D01*
X160202000Y-78759250D01*
X160360750Y-78918000D01*
X161710000Y-78918000D01*
X161710000Y-77618750D01*
X161964000Y-77618750D01*
X161964000Y-78918000D01*
X163313250Y-78918000D01*
X163472000Y-78759250D01*
X163472000Y-77968690D01*
X163375327Y-77735301D01*
X163196698Y-77556673D01*
X162963309Y-77460000D01*
X162122750Y-77460000D01*
X161964000Y-77618750D01*
X161710000Y-77618750D01*
X161551250Y-77460000D01*
X160710691Y-77460000D01*
X160477302Y-77556673D01*
X160298673Y-77735301D01*
X160202000Y-77968690D01*
X158003961Y-77968690D01*
X157520234Y-77645474D01*
X156946745Y-77531400D01*
X156577255Y-77531400D01*
X156003766Y-77645474D01*
X155517585Y-77970330D01*
X155192729Y-78456511D01*
X155078655Y-79030000D01*
X155192729Y-79603489D01*
X155517585Y-80089670D01*
X155832366Y-80300000D01*
X155517585Y-80510330D01*
X155192729Y-80996511D01*
X155078655Y-81570000D01*
X155192729Y-82143489D01*
X155517585Y-82629670D01*
X155832366Y-82840000D01*
X155517585Y-83050330D01*
X155192729Y-83536511D01*
X155078655Y-84110000D01*
X155192729Y-84683489D01*
X155517585Y-85169670D01*
X155832366Y-85380000D01*
X155517585Y-85590330D01*
X155192729Y-86076511D01*
X155078655Y-86650000D01*
X155192729Y-87223489D01*
X155517585Y-87709670D01*
X155832366Y-87920000D01*
X155517585Y-88130330D01*
X155192729Y-88616511D01*
X155078655Y-89190000D01*
X155163911Y-89618610D01*
X139305303Y-89618610D01*
X136660388Y-86973694D01*
X137982226Y-86973694D01*
X138230538Y-87574655D01*
X138689927Y-88034846D01*
X139290453Y-88284206D01*
X139940694Y-88284774D01*
X140541655Y-88036462D01*
X141001846Y-87577073D01*
X141251206Y-86976547D01*
X141251774Y-86326306D01*
X141194062Y-86186632D01*
X143909500Y-83471193D01*
X143909500Y-84601503D01*
X143909499Y-84601508D01*
X143969445Y-84902871D01*
X144140153Y-85158355D01*
X144326270Y-85344472D01*
X143947154Y-85722927D01*
X143697794Y-86323453D01*
X143697226Y-86973694D01*
X143945538Y-87574655D01*
X144404927Y-88034846D01*
X145005453Y-88284206D01*
X145655694Y-88284774D01*
X146256655Y-88036462D01*
X146716846Y-87577073D01*
X146966206Y-86976547D01*
X146966774Y-86326306D01*
X146718462Y-85725345D01*
X146259073Y-85265154D01*
X146113146Y-85204560D01*
X146059555Y-84935145D01*
X146037990Y-84902871D01*
X145888847Y-84679661D01*
X145888844Y-84679659D01*
X145484500Y-84275314D01*
X145484500Y-81887500D01*
X145681250Y-81887500D01*
X145840000Y-81728750D01*
X145840000Y-80427000D01*
X145832000Y-80427000D01*
X145832000Y-80173000D01*
X145840000Y-80173000D01*
X145840000Y-78871250D01*
X146094000Y-78871250D01*
X146094000Y-80173000D01*
X146102000Y-80173000D01*
X146102000Y-80427000D01*
X146094000Y-80427000D01*
X146094000Y-81728750D01*
X146252750Y-81887500D01*
X146449500Y-81887500D01*
X146449500Y-82839995D01*
X146449499Y-82840000D01*
X146509445Y-83141363D01*
X146680153Y-83396847D01*
X149469704Y-86186398D01*
X149412794Y-86323453D01*
X149412226Y-86973694D01*
X149660538Y-87574655D01*
X150119927Y-88034846D01*
X150720453Y-88284206D01*
X151370694Y-88284774D01*
X151971655Y-88036462D01*
X152431846Y-87577073D01*
X152681206Y-86976547D01*
X152681774Y-86326306D01*
X152433462Y-85725345D01*
X151974073Y-85265154D01*
X151373547Y-85015794D01*
X150723306Y-85015226D01*
X150583632Y-85072938D01*
X148024500Y-82513806D01*
X148024500Y-81596234D01*
X148039566Y-81586167D01*
X148285603Y-81217947D01*
X148372000Y-80783601D01*
X148372000Y-79816399D01*
X148285603Y-79382053D01*
X148039566Y-79013833D01*
X147671346Y-78767796D01*
X147237000Y-78681399D01*
X146802654Y-78767796D01*
X146773628Y-78787190D01*
X146593310Y-78712500D01*
X146252750Y-78712500D01*
X146094000Y-78871250D01*
X145840000Y-78871250D01*
X145681250Y-78712500D01*
X145340690Y-78712500D01*
X145160372Y-78787190D01*
X145131346Y-78767796D01*
X144697000Y-78681399D01*
X144262654Y-78767796D01*
X144062000Y-78901869D01*
X143861346Y-78767796D01*
X143427000Y-78681399D01*
X142992654Y-78767796D01*
X142624434Y-79013833D01*
X142378397Y-79382053D01*
X142292000Y-79816399D01*
X142292000Y-80783601D01*
X142378397Y-81217947D01*
X142624434Y-81586167D01*
X142639500Y-81596234D01*
X142639500Y-82513807D01*
X140080602Y-85072704D01*
X139943547Y-85015794D01*
X139293306Y-85015226D01*
X138692345Y-85263538D01*
X138232154Y-85722927D01*
X137982794Y-86323453D01*
X137982226Y-86973694D01*
X136660388Y-86973694D01*
X135779847Y-86093153D01*
X135524363Y-85922445D01*
X135344409Y-85886649D01*
X135146415Y-85590330D01*
X134831634Y-85380000D01*
X135146415Y-85169670D01*
X135471271Y-84683489D01*
X135585345Y-84110000D01*
X135471271Y-83536511D01*
X135146415Y-83050330D01*
X134831634Y-82840000D01*
X135146415Y-82629670D01*
X135471271Y-82143489D01*
X135585345Y-81570000D01*
X135471271Y-80996511D01*
X135146415Y-80510330D01*
X134831634Y-80300000D01*
X135146415Y-80089670D01*
X135471271Y-79603489D01*
X135585345Y-79030000D01*
X135471271Y-78456511D01*
X135146415Y-77970330D01*
X134660234Y-77645474D01*
X134086745Y-77531400D01*
X133717255Y-77531400D01*
X133143766Y-77645474D01*
X132657585Y-77970330D01*
X132332729Y-78456511D01*
X132218655Y-79030000D01*
X132332729Y-79603489D01*
X132657585Y-80089670D01*
X132972366Y-80300000D01*
X132657585Y-80510330D01*
X132332729Y-80996511D01*
X132218655Y-81570000D01*
X132332729Y-82143489D01*
X132657585Y-82629670D01*
X132972366Y-82840000D01*
X132657585Y-83050330D01*
X132332729Y-83536511D01*
X132218655Y-84110000D01*
X132332729Y-84683489D01*
X132657585Y-85169670D01*
X132972366Y-85380000D01*
X132657585Y-85590330D01*
X132332729Y-86076511D01*
X132218655Y-86650000D01*
X132332729Y-87223489D01*
X132657585Y-87709670D01*
X132972366Y-87920000D01*
X132657585Y-88130330D01*
X132332729Y-88616511D01*
X132218655Y-89190000D01*
X132332729Y-89763489D01*
X132657585Y-90249670D01*
X132972366Y-90460000D01*
X132657585Y-90670330D01*
X132332729Y-91156511D01*
X132218655Y-91730000D01*
X132332729Y-92303489D01*
X132657585Y-92789670D01*
X132967069Y-92996461D01*
X132551268Y-93367964D01*
X132297291Y-93895209D01*
X132294642Y-93910974D01*
X132415783Y-94143000D01*
X133775000Y-94143000D01*
X133775000Y-94123000D01*
X134029000Y-94123000D01*
X134029000Y-94143000D01*
X135388217Y-94143000D01*
X135509358Y-93910974D01*
X135506709Y-93895209D01*
X135252732Y-93367964D01*
X134836931Y-92996461D01*
X135146415Y-92789670D01*
X135155452Y-92776146D01*
X136952151Y-94572844D01*
X136952153Y-94572847D01*
X137207637Y-94743555D01*
X137490823Y-94799884D01*
X135567984Y-96722722D01*
X135471271Y-96236511D01*
X135146415Y-95750330D01*
X134836931Y-95543539D01*
X135252732Y-95172036D01*
X135506709Y-94644791D01*
X135509358Y-94629026D01*
X135388217Y-94397000D01*
X134029000Y-94397000D01*
X134029000Y-94417000D01*
X133775000Y-94417000D01*
X133775000Y-94397000D01*
X132415783Y-94397000D01*
X132294642Y-94629026D01*
X132297291Y-94644791D01*
X132551268Y-95172036D01*
X132967069Y-95543539D01*
X132657585Y-95750330D01*
X132332729Y-96236511D01*
X132218655Y-96810000D01*
X132332729Y-97383489D01*
X132657585Y-97869670D01*
X132972366Y-98080000D01*
X132657585Y-98290330D01*
X132475727Y-98562500D01*
X132450193Y-98562500D01*
X131641500Y-97753806D01*
X131641500Y-93254000D01*
X131636428Y-93228499D01*
X131581555Y-92952636D01*
X131513179Y-92850304D01*
X131410847Y-92697153D01*
X131410844Y-92697151D01*
X124806847Y-86093153D01*
X124551363Y-85922445D01*
X124250000Y-85862499D01*
X124249995Y-85862500D01*
X123898273Y-85862500D01*
X123716415Y-85590330D01*
X123230234Y-85265474D01*
X122656745Y-85151400D01*
X122287255Y-85151400D01*
X121713766Y-85265474D01*
X121227585Y-85590330D01*
X121037000Y-85875560D01*
X121037000Y-79330750D01*
X127182000Y-79330750D01*
X127182000Y-80121310D01*
X127278673Y-80354699D01*
X127457302Y-80533327D01*
X127577251Y-80583012D01*
X127474086Y-80685997D01*
X127232276Y-81268341D01*
X127231725Y-81898893D01*
X127472519Y-82481657D01*
X127917997Y-82927914D01*
X128034500Y-82976290D01*
X128034500Y-85206867D01*
X127897345Y-85263538D01*
X127437154Y-85722927D01*
X127187794Y-86323453D01*
X127187226Y-86973694D01*
X127435538Y-87574655D01*
X127894927Y-88034846D01*
X128495453Y-88284206D01*
X129145694Y-88284774D01*
X129746655Y-88036462D01*
X130206846Y-87577073D01*
X130456206Y-86976547D01*
X130456774Y-86326306D01*
X130208462Y-85725345D01*
X129749073Y-85265154D01*
X129609500Y-85207198D01*
X129609500Y-82972518D01*
X129713657Y-82929481D01*
X130159914Y-82484003D01*
X130401724Y-81901659D01*
X130402275Y-81271107D01*
X130161481Y-80688343D01*
X130056455Y-80583133D01*
X130176698Y-80533327D01*
X130355327Y-80354699D01*
X130452000Y-80121310D01*
X130452000Y-79330750D01*
X130293250Y-79172000D01*
X128944000Y-79172000D01*
X128944000Y-79192000D01*
X128690000Y-79192000D01*
X128690000Y-79172000D01*
X127340750Y-79172000D01*
X127182000Y-79330750D01*
X121037000Y-79330750D01*
X121037000Y-77397266D01*
X121246339Y-77397266D01*
X121558487Y-77845932D01*
X122801343Y-78364331D01*
X124147976Y-78367648D01*
X125117898Y-77968690D01*
X127182000Y-77968690D01*
X127182000Y-78759250D01*
X127340750Y-78918000D01*
X128690000Y-78918000D01*
X128690000Y-77618750D01*
X128944000Y-77618750D01*
X128944000Y-78918000D01*
X130293250Y-78918000D01*
X130452000Y-78759250D01*
X130452000Y-77968690D01*
X130355327Y-77735301D01*
X130176698Y-77556673D01*
X129943309Y-77460000D01*
X129102750Y-77460000D01*
X128944000Y-77618750D01*
X128690000Y-77618750D01*
X128531250Y-77460000D01*
X127690691Y-77460000D01*
X127457302Y-77556673D01*
X127278673Y-77735301D01*
X127182000Y-77968690D01*
X125117898Y-77968690D01*
X125393371Y-77855380D01*
X125407513Y-77845932D01*
X125719661Y-77397266D01*
X164934339Y-77397266D01*
X165246487Y-77845932D01*
X166489343Y-78364331D01*
X167835976Y-78367648D01*
X169081371Y-77855380D01*
X169095513Y-77845932D01*
X169407661Y-77397266D01*
X167171000Y-75160605D01*
X164934339Y-77397266D01*
X125719661Y-77397266D01*
X123483000Y-75160605D01*
X121246339Y-77397266D01*
X121037000Y-77397266D01*
X121037000Y-77196974D01*
X121066734Y-77217661D01*
X123303395Y-74981000D01*
X123662605Y-74981000D01*
X125899266Y-77217661D01*
X126347932Y-76905513D01*
X126866331Y-75662657D01*
X126869648Y-74316024D01*
X126357380Y-73070629D01*
X126347932Y-73056487D01*
X125899266Y-72744339D01*
X123662605Y-74981000D01*
X123303395Y-74981000D01*
X121066734Y-72744339D01*
X121037000Y-72765026D01*
X121037000Y-72523000D01*
X121275374Y-72523000D01*
X121246339Y-72564734D01*
X121246339Y-72564734D01*
G37*
X121246339Y-72564734D02*
X123483000Y-74801395D01*
X125719661Y-72564734D01*
X125690626Y-72523000D01*
X136281928Y-72523000D01*
X136315004Y-76491059D01*
X136323685Y-76536159D01*
X136350965Y-76578553D01*
X136392590Y-76606994D01*
X136442000Y-76617000D01*
X154222000Y-76617000D01*
X154269144Y-76607926D01*
X154311309Y-76580293D01*
X154339402Y-76538433D01*
X154348996Y-76488941D01*
X154341970Y-75645976D01*
X163784352Y-75645976D01*
X164296620Y-76891371D01*
X164306068Y-76905513D01*
X164754734Y-77217661D01*
X166991395Y-74981000D01*
X164754734Y-72744339D01*
X164306068Y-73056487D01*
X163787669Y-74299343D01*
X163784352Y-75645976D01*
X154341970Y-75645976D01*
X154315938Y-72523000D01*
X164963374Y-72523000D01*
X164934339Y-72564734D01*
X167171000Y-74801395D01*
X169407661Y-72564734D01*
X169378626Y-72523000D01*
X169617000Y-72523000D01*
X169617000Y-72765026D01*
X169587266Y-72744339D01*
X167350605Y-74981000D01*
X169587266Y-77217661D01*
X169617000Y-77196974D01*
X169617000Y-85860594D01*
X169436415Y-85590330D01*
X168950234Y-85265474D01*
X168376745Y-85151400D01*
X168007255Y-85151400D01*
X167433766Y-85265474D01*
X166947585Y-85590330D01*
X166765727Y-85862500D01*
X166160000Y-85862500D01*
X165858636Y-85922445D01*
X165796351Y-85964063D01*
X165603153Y-86093153D01*
X165603151Y-86093156D01*
X163293806Y-88402500D01*
X161406193Y-88402500D01*
X161155517Y-88151824D01*
X161510453Y-88299206D01*
X162160694Y-88299774D01*
X162761655Y-88051462D01*
X163221846Y-87592073D01*
X163471206Y-86991547D01*
X163471774Y-86341306D01*
X163223462Y-85740345D01*
X162764073Y-85280154D01*
X162624500Y-85222198D01*
X162624500Y-82974584D01*
X162733657Y-82929481D01*
X163179914Y-82484003D01*
X163421724Y-81901659D01*
X163422275Y-81271107D01*
X163181481Y-80688343D01*
X163076455Y-80583133D01*
X163196698Y-80533327D01*
X163375327Y-80354699D01*
X163472000Y-80121310D01*
X163472000Y-79330750D01*
X163313250Y-79172000D01*
X161964000Y-79172000D01*
X161964000Y-79192000D01*
X161710000Y-79192000D01*
X161710000Y-79172000D01*
X160360750Y-79172000D01*
X160202000Y-79330750D01*
X160202000Y-80035307D01*
X158639847Y-78473153D01*
X158384363Y-78302445D01*
X158204409Y-78266649D01*
X158006415Y-77970330D01*
X158003961Y-77968690D01*
X160202000Y-77968690D01*
X160202000Y-78759250D01*
X160360750Y-78918000D01*
X161710000Y-78918000D01*
X161710000Y-77618750D01*
X161964000Y-77618750D01*
X161964000Y-78918000D01*
X163313250Y-78918000D01*
X163472000Y-78759250D01*
X163472000Y-77968690D01*
X163375327Y-77735301D01*
X163196698Y-77556673D01*
X162963309Y-77460000D01*
X162122750Y-77460000D01*
X161964000Y-77618750D01*
X161710000Y-77618750D01*
X161551250Y-77460000D01*
X160710691Y-77460000D01*
X160477302Y-77556673D01*
X160298673Y-77735301D01*
X160202000Y-77968690D01*
X158003961Y-77968690D01*
X157520234Y-77645474D01*
X156946745Y-77531400D01*
X156577255Y-77531400D01*
X156003766Y-77645474D01*
X155517585Y-77970330D01*
X155192729Y-78456511D01*
X155078655Y-79030000D01*
X155192729Y-79603489D01*
X155517585Y-80089670D01*
X155832366Y-80300000D01*
X155517585Y-80510330D01*
X155192729Y-80996511D01*
X155078655Y-81570000D01*
X155192729Y-82143489D01*
X155517585Y-82629670D01*
X155832366Y-82840000D01*
X155517585Y-83050330D01*
X155192729Y-83536511D01*
X155078655Y-84110000D01*
X155192729Y-84683489D01*
X155517585Y-85169670D01*
X155832366Y-85380000D01*
X155517585Y-85590330D01*
X155192729Y-86076511D01*
X155078655Y-86650000D01*
X155192729Y-87223489D01*
X155517585Y-87709670D01*
X155832366Y-87920000D01*
X155517585Y-88130330D01*
X155192729Y-88616511D01*
X155078655Y-89190000D01*
X155163911Y-89618610D01*
X139305303Y-89618610D01*
X136660388Y-86973694D01*
X137982226Y-86973694D01*
X138230538Y-87574655D01*
X138689927Y-88034846D01*
X139290453Y-88284206D01*
X139940694Y-88284774D01*
X140541655Y-88036462D01*
X141001846Y-87577073D01*
X141251206Y-86976547D01*
X141251774Y-86326306D01*
X141194062Y-86186632D01*
X143909500Y-83471193D01*
X143909500Y-84601503D01*
X143909499Y-84601508D01*
X143969445Y-84902871D01*
X144140153Y-85158355D01*
X144326270Y-85344472D01*
X143947154Y-85722927D01*
X143697794Y-86323453D01*
X143697226Y-86973694D01*
X143945538Y-87574655D01*
X144404927Y-88034846D01*
X145005453Y-88284206D01*
X145655694Y-88284774D01*
X146256655Y-88036462D01*
X146716846Y-87577073D01*
X146966206Y-86976547D01*
X146966774Y-86326306D01*
X146718462Y-85725345D01*
X146259073Y-85265154D01*
X146113146Y-85204560D01*
X146059555Y-84935145D01*
X146037990Y-84902871D01*
X145888847Y-84679661D01*
X145888844Y-84679659D01*
X145484500Y-84275314D01*
X145484500Y-81887500D01*
X145681250Y-81887500D01*
X145840000Y-81728750D01*
X145840000Y-80427000D01*
X145832000Y-80427000D01*
X145832000Y-80173000D01*
X145840000Y-80173000D01*
X145840000Y-78871250D01*
X146094000Y-78871250D01*
X146094000Y-80173000D01*
X146102000Y-80173000D01*
X146102000Y-80427000D01*
X146094000Y-80427000D01*
X146094000Y-81728750D01*
X146252750Y-81887500D01*
X146449500Y-81887500D01*
X146449500Y-82839995D01*
X146449499Y-82840000D01*
X146509445Y-83141363D01*
X146680153Y-83396847D01*
X149469704Y-86186398D01*
X149412794Y-86323453D01*
X149412226Y-86973694D01*
X149660538Y-87574655D01*
X150119927Y-88034846D01*
X150720453Y-88284206D01*
X151370694Y-88284774D01*
X151971655Y-88036462D01*
X152431846Y-87577073D01*
X152681206Y-86976547D01*
X152681774Y-86326306D01*
X152433462Y-85725345D01*
X151974073Y-85265154D01*
X151373547Y-85015794D01*
X150723306Y-85015226D01*
X150583632Y-85072938D01*
X148024500Y-82513806D01*
X148024500Y-81596234D01*
X148039566Y-81586167D01*
X148285603Y-81217947D01*
X148372000Y-80783601D01*
X148372000Y-79816399D01*
X148285603Y-79382053D01*
X148039566Y-79013833D01*
X147671346Y-78767796D01*
X147237000Y-78681399D01*
X146802654Y-78767796D01*
X146773628Y-78787190D01*
X146593310Y-78712500D01*
X146252750Y-78712500D01*
X146094000Y-78871250D01*
X145840000Y-78871250D01*
X145681250Y-78712500D01*
X145340690Y-78712500D01*
X145160372Y-78787190D01*
X145131346Y-78767796D01*
X144697000Y-78681399D01*
X144262654Y-78767796D01*
X144062000Y-78901869D01*
X143861346Y-78767796D01*
X143427000Y-78681399D01*
X142992654Y-78767796D01*
X142624434Y-79013833D01*
X142378397Y-79382053D01*
X142292000Y-79816399D01*
X142292000Y-80783601D01*
X142378397Y-81217947D01*
X142624434Y-81586167D01*
X142639500Y-81596234D01*
X142639500Y-82513807D01*
X140080602Y-85072704D01*
X139943547Y-85015794D01*
X139293306Y-85015226D01*
X138692345Y-85263538D01*
X138232154Y-85722927D01*
X137982794Y-86323453D01*
X137982226Y-86973694D01*
X136660388Y-86973694D01*
X135779847Y-86093153D01*
X135524363Y-85922445D01*
X135344409Y-85886649D01*
X135146415Y-85590330D01*
X134831634Y-85380000D01*
X135146415Y-85169670D01*
X135471271Y-84683489D01*
X135585345Y-84110000D01*
X135471271Y-83536511D01*
X135146415Y-83050330D01*
X134831634Y-82840000D01*
X135146415Y-82629670D01*
X135471271Y-82143489D01*
X135585345Y-81570000D01*
X135471271Y-80996511D01*
X135146415Y-80510330D01*
X134831634Y-80300000D01*
X135146415Y-80089670D01*
X135471271Y-79603489D01*
X135585345Y-79030000D01*
X135471271Y-78456511D01*
X135146415Y-77970330D01*
X134660234Y-77645474D01*
X134086745Y-77531400D01*
X133717255Y-77531400D01*
X133143766Y-77645474D01*
X132657585Y-77970330D01*
X132332729Y-78456511D01*
X132218655Y-79030000D01*
X132332729Y-79603489D01*
X132657585Y-80089670D01*
X132972366Y-80300000D01*
X132657585Y-80510330D01*
X132332729Y-80996511D01*
X132218655Y-81570000D01*
X132332729Y-82143489D01*
X132657585Y-82629670D01*
X132972366Y-82840000D01*
X132657585Y-83050330D01*
X132332729Y-83536511D01*
X132218655Y-84110000D01*
X132332729Y-84683489D01*
X132657585Y-85169670D01*
X132972366Y-85380000D01*
X132657585Y-85590330D01*
X132332729Y-86076511D01*
X132218655Y-86650000D01*
X132332729Y-87223489D01*
X132657585Y-87709670D01*
X132972366Y-87920000D01*
X132657585Y-88130330D01*
X132332729Y-88616511D01*
X132218655Y-89190000D01*
X132332729Y-89763489D01*
X132657585Y-90249670D01*
X132972366Y-90460000D01*
X132657585Y-90670330D01*
X132332729Y-91156511D01*
X132218655Y-91730000D01*
X132332729Y-92303489D01*
X132657585Y-92789670D01*
X132967069Y-92996461D01*
X132551268Y-93367964D01*
X132297291Y-93895209D01*
X132294642Y-93910974D01*
X132415783Y-94143000D01*
X133775000Y-94143000D01*
X133775000Y-94123000D01*
X134029000Y-94123000D01*
X134029000Y-94143000D01*
X135388217Y-94143000D01*
X135509358Y-93910974D01*
X135506709Y-93895209D01*
X135252732Y-93367964D01*
X134836931Y-92996461D01*
X135146415Y-92789670D01*
X135155452Y-92776146D01*
X136952151Y-94572844D01*
X136952153Y-94572847D01*
X137207637Y-94743555D01*
X137490823Y-94799884D01*
X135567984Y-96722722D01*
X135471271Y-96236511D01*
X135146415Y-95750330D01*
X134836931Y-95543539D01*
X135252732Y-95172036D01*
X135506709Y-94644791D01*
X135509358Y-94629026D01*
X135388217Y-94397000D01*
X134029000Y-94397000D01*
X134029000Y-94417000D01*
X133775000Y-94417000D01*
X133775000Y-94397000D01*
X132415783Y-94397000D01*
X132294642Y-94629026D01*
X132297291Y-94644791D01*
X132551268Y-95172036D01*
X132967069Y-95543539D01*
X132657585Y-95750330D01*
X132332729Y-96236511D01*
X132218655Y-96810000D01*
X132332729Y-97383489D01*
X132657585Y-97869670D01*
X132972366Y-98080000D01*
X132657585Y-98290330D01*
X132475727Y-98562500D01*
X132450193Y-98562500D01*
X131641500Y-97753806D01*
X131641500Y-93254000D01*
X131636428Y-93228499D01*
X131581555Y-92952636D01*
X131513179Y-92850304D01*
X131410847Y-92697153D01*
X131410844Y-92697151D01*
X124806847Y-86093153D01*
X124551363Y-85922445D01*
X124250000Y-85862499D01*
X124249995Y-85862500D01*
X123898273Y-85862500D01*
X123716415Y-85590330D01*
X123230234Y-85265474D01*
X122656745Y-85151400D01*
X122287255Y-85151400D01*
X121713766Y-85265474D01*
X121227585Y-85590330D01*
X121037000Y-85875560D01*
X121037000Y-79330750D01*
X127182000Y-79330750D01*
X127182000Y-80121310D01*
X127278673Y-80354699D01*
X127457302Y-80533327D01*
X127577251Y-80583012D01*
X127474086Y-80685997D01*
X127232276Y-81268341D01*
X127231725Y-81898893D01*
X127472519Y-82481657D01*
X127917997Y-82927914D01*
X128034500Y-82976290D01*
X128034500Y-85206867D01*
X127897345Y-85263538D01*
X127437154Y-85722927D01*
X127187794Y-86323453D01*
X127187226Y-86973694D01*
X127435538Y-87574655D01*
X127894927Y-88034846D01*
X128495453Y-88284206D01*
X129145694Y-88284774D01*
X129746655Y-88036462D01*
X130206846Y-87577073D01*
X130456206Y-86976547D01*
X130456774Y-86326306D01*
X130208462Y-85725345D01*
X129749073Y-85265154D01*
X129609500Y-85207198D01*
X129609500Y-82972518D01*
X129713657Y-82929481D01*
X130159914Y-82484003D01*
X130401724Y-81901659D01*
X130402275Y-81271107D01*
X130161481Y-80688343D01*
X130056455Y-80583133D01*
X130176698Y-80533327D01*
X130355327Y-80354699D01*
X130452000Y-80121310D01*
X130452000Y-79330750D01*
X130293250Y-79172000D01*
X128944000Y-79172000D01*
X128944000Y-79192000D01*
X128690000Y-79192000D01*
X128690000Y-79172000D01*
X127340750Y-79172000D01*
X127182000Y-79330750D01*
X121037000Y-79330750D01*
X121037000Y-77397266D01*
X121246339Y-77397266D01*
X121558487Y-77845932D01*
X122801343Y-78364331D01*
X124147976Y-78367648D01*
X125117898Y-77968690D01*
X127182000Y-77968690D01*
X127182000Y-78759250D01*
X127340750Y-78918000D01*
X128690000Y-78918000D01*
X128690000Y-77618750D01*
X128944000Y-77618750D01*
X128944000Y-78918000D01*
X130293250Y-78918000D01*
X130452000Y-78759250D01*
X130452000Y-77968690D01*
X130355327Y-77735301D01*
X130176698Y-77556673D01*
X129943309Y-77460000D01*
X129102750Y-77460000D01*
X128944000Y-77618750D01*
X128690000Y-77618750D01*
X128531250Y-77460000D01*
X127690691Y-77460000D01*
X127457302Y-77556673D01*
X127278673Y-77735301D01*
X127182000Y-77968690D01*
X125117898Y-77968690D01*
X125393371Y-77855380D01*
X125407513Y-77845932D01*
X125719661Y-77397266D01*
X164934339Y-77397266D01*
X165246487Y-77845932D01*
X166489343Y-78364331D01*
X167835976Y-78367648D01*
X169081371Y-77855380D01*
X169095513Y-77845932D01*
X169407661Y-77397266D01*
X167171000Y-75160605D01*
X164934339Y-77397266D01*
X125719661Y-77397266D01*
X123483000Y-75160605D01*
X121246339Y-77397266D01*
X121037000Y-77397266D01*
X121037000Y-77196974D01*
X121066734Y-77217661D01*
X123303395Y-74981000D01*
X123662605Y-74981000D01*
X125899266Y-77217661D01*
X126347932Y-76905513D01*
X126866331Y-75662657D01*
X126869648Y-74316024D01*
X126357380Y-73070629D01*
X126347932Y-73056487D01*
X125899266Y-72744339D01*
X123662605Y-74981000D01*
X123303395Y-74981000D01*
X121066734Y-72744339D01*
X121037000Y-72765026D01*
X121037000Y-72523000D01*
X121275374Y-72523000D01*
X121246339Y-72564734D01*
M02*
