M48
;DRILL file {KiCad 4.0.2-4+6225~38~ubuntu14.04.1-stable} date Mon 25 Apr 2016 17:13:38 BST
;FORMAT={-:-/ absolute / inch / decimal}
FMAT,2
INCH,TZ
T1C0.016
T2C0.030
T3C0.032
T4C0.039
T5C0.040
T6C0.126
%
G90
G05
M72
T1
X6.3717Y-3.6114
T2
X5.6517Y-3.1314
X5.7017Y-3.1914
X5.7517Y-3.1314
X5.8017Y-3.1914
T3
X4.8717Y-4.1114
X4.8717Y-4.4114
X5.0717Y-4.1114
X5.0717Y-4.4114
X6.3717Y-4.1114
X6.3717Y-4.4114
X6.5717Y-4.1114
X6.5717Y-4.4114
T4
X5.0717Y-3.1114
X5.0717Y-3.2114
X5.0717Y-3.4114
X5.0717Y-3.8114
X5.4967Y-3.4114
X5.4967Y-3.8114
X5.7217Y-3.4114
X5.7217Y-3.8114
X5.9467Y-3.4114
X5.9467Y-3.8114
X6.3717Y-3.1114
X6.3717Y-3.2114
X6.3717Y-3.4114
X6.3717Y-3.8114
T5
X4.8217Y-3.4114
X4.8217Y-3.5114
X4.8217Y-3.6114
X4.8217Y-3.7114
X4.8217Y-3.8114
X4.8217Y-3.9114
X5.2717Y-3.1114
X5.2717Y-3.2114
X5.2717Y-3.3114
X5.2717Y-3.4114
X5.2717Y-3.5114
X5.2717Y-3.6114
X5.2717Y-3.7114
X5.2717Y-3.8114
X5.2717Y-3.9114
X5.2717Y-4.0114
X5.2717Y-4.1114
X5.2717Y-4.2114
X5.2717Y-4.3114
X5.2717Y-4.4114
X5.2717Y-4.5114
X5.6717Y-4.6114
X5.7717Y-4.6114
X6.1717Y-3.1114
X6.1717Y-3.2114
X6.1717Y-3.3114
X6.1717Y-3.4114
X6.1717Y-3.5114
X6.1717Y-3.6114
X6.1717Y-3.7114
X6.1717Y-3.8114
X6.1717Y-3.9114
X6.1717Y-4.0114
X6.1717Y-4.1114
X6.1717Y-4.2114
X6.1717Y-4.3114
X6.1717Y-4.4114
X6.1717Y-4.5114
X6.6217Y-3.4114
X6.6217Y-3.5114
X6.6217Y-3.6114
X6.6217Y-3.7114
X6.6217Y-3.8114
X6.6217Y-3.9114
T6
X4.8615Y-2.952
X4.8615Y-4.672
X6.5815Y-2.952
X6.5815Y-4.672
T0
M30
