%TF.GenerationSoftware,KiCad,Pcbnew,4.0.1-stable*%
%TF.CreationDate,2016-04-17T11:04:22+01:00*%
%TF.ProjectId,basic,62617369632E6B696361645F70636200,rev?*%
%TF.FileFunction,Copper,L1,Top,Signal*%
%FSLAX46Y46*%
G04 Gerber Fmt 4.6, Leading zero omitted, Abs format (unit mm)*
G04 Created by KiCad (PCBNEW 4.0.1-stable) date 17/04/2016 11:04:22*
%MOMM*%
G01*
G04 APERTURE LIST*
%ADD10C,0.100000*%
%ADD11C,1.998980*%
%ADD12R,2.000000X1.900000*%
%ADD13C,1.900000*%
%ADD14C,5.500000*%
%ADD15C,1.397000*%
%ADD16R,2.032000X1.727200*%
%ADD17O,2.032000X1.727200*%
%ADD18O,1.000000X1.905000*%
%ADD19R,1.000000X1.905000*%
%ADD20C,0.406000*%
%ADD21C,0.813000*%
%ADD22C,0.305000*%
%ADD23C,0.254000*%
G04 APERTURE END LIST*
D10*
D11*
X151047000Y-86650000D03*
X151047000Y-96810000D03*
D12*
X127552000Y-79030000D03*
D13*
X127552000Y-81570000D03*
D12*
X163112000Y-79030000D03*
D13*
X163112000Y-81570000D03*
D14*
X123483000Y-74981000D03*
X123483000Y-118669000D03*
X167171000Y-74981000D03*
X167171000Y-118669000D03*
D15*
X166922000Y-112050000D03*
X161842000Y-112050000D03*
X166922000Y-104430000D03*
X161842000Y-104430000D03*
X123742000Y-104430000D03*
X128822000Y-104430000D03*
X123742000Y-112050000D03*
X128822000Y-112050000D03*
D16*
X156762000Y-114590000D03*
D17*
X156762000Y-112050000D03*
X156762000Y-109510000D03*
X156762000Y-106970000D03*
X156762000Y-104430000D03*
X156762000Y-101890000D03*
X156762000Y-99350000D03*
X156762000Y-96810000D03*
X156762000Y-94270000D03*
X156762000Y-91730000D03*
X156762000Y-89190000D03*
X156762000Y-86650000D03*
X156762000Y-84110000D03*
X156762000Y-81570000D03*
X156762000Y-79030000D03*
D16*
X133902000Y-114590000D03*
D17*
X133902000Y-112050000D03*
X133902000Y-109510000D03*
X133902000Y-106970000D03*
X133902000Y-104430000D03*
X133902000Y-101890000D03*
X133902000Y-99350000D03*
X133902000Y-96810000D03*
X133902000Y-94270000D03*
X133902000Y-91730000D03*
X133902000Y-89190000D03*
X133902000Y-86650000D03*
X133902000Y-84110000D03*
X133902000Y-81570000D03*
X133902000Y-79030000D03*
D16*
X168192000Y-99350000D03*
D17*
X168192000Y-96810000D03*
X168192000Y-94270000D03*
X168192000Y-91730000D03*
X168192000Y-89190000D03*
X168192000Y-86650000D03*
D16*
X122472000Y-99350000D03*
D17*
X122472000Y-96810000D03*
X122472000Y-94270000D03*
X122472000Y-91730000D03*
X122472000Y-89190000D03*
X122472000Y-86650000D03*
D11*
X151682000Y-101890000D03*
X161842000Y-101890000D03*
X138982000Y-101890000D03*
X128822000Y-101890000D03*
X128822000Y-86650000D03*
X128822000Y-96810000D03*
X161842000Y-86650000D03*
X161842000Y-96810000D03*
X145332000Y-86650000D03*
X145332000Y-96810000D03*
X139617000Y-86650000D03*
X139617000Y-96810000D03*
D18*
X143300000Y-80300000D03*
D19*
X144570000Y-80300000D03*
D18*
X145840000Y-80300000D03*
X147110000Y-80300000D03*
D20*
X147529500Y-77379000D02*
X145713000Y-77379000D01*
X147529500Y-77379000D02*
X158765000Y-77379000D01*
X158765000Y-77379000D02*
X160416000Y-79030000D01*
X163112000Y-79030000D02*
X160416000Y-79030000D01*
X144570000Y-78522000D02*
X144570000Y-80300000D01*
X145713000Y-77379000D02*
X144570000Y-78522000D01*
X163112000Y-79030000D02*
X163122000Y-79030000D01*
X163122000Y-79030000D02*
X167171000Y-74981000D01*
X127552000Y-79030000D02*
X127532000Y-79030000D01*
X127532000Y-79030000D02*
X123483000Y-74981000D01*
X133902000Y-94270000D02*
X133749600Y-94270000D01*
X156762000Y-112050000D02*
X159175000Y-112050000D01*
X159175000Y-112050000D02*
X163044001Y-115919001D01*
X163044001Y-115919001D02*
X164421001Y-115919001D01*
X164421001Y-115919001D02*
X167171000Y-118669000D01*
D21*
X133902000Y-114590000D02*
X144570000Y-114590000D01*
X144570000Y-114590000D02*
X154730000Y-104430000D01*
X154730000Y-104430000D02*
X156762000Y-104430000D01*
X125520000Y-98029000D02*
X125520000Y-102652000D01*
X125520000Y-102652000D02*
X123742000Y-104430000D01*
X122472000Y-96810000D02*
X124301000Y-96810000D01*
X124301000Y-96810000D02*
X125520000Y-98029000D01*
X166917000Y-104445000D02*
X164890000Y-102418000D01*
X164890000Y-102418000D02*
X164890000Y-98283000D01*
X164890000Y-98283000D02*
X166363000Y-96810000D01*
X166363000Y-96810000D02*
X168192000Y-96810000D01*
X156762000Y-104430000D02*
X159282000Y-104430000D01*
X159282000Y-104430000D02*
X166917000Y-112065000D01*
X156609600Y-104430000D02*
X156762000Y-104430000D01*
X166917000Y-112065000D02*
X166917000Y-104445000D01*
X123737000Y-112065000D02*
X123737000Y-104445000D01*
X133902000Y-114590000D02*
X126262000Y-114590000D01*
X126262000Y-114590000D02*
X123737000Y-112065000D01*
D22*
X128822000Y-86650000D02*
X128822000Y-82840000D01*
X128822000Y-82840000D02*
X127552000Y-81570000D01*
X143427000Y-82840000D02*
X143427000Y-80300000D01*
X139617000Y-86650000D02*
X143427000Y-82840000D01*
X145332000Y-86650000D02*
X145332000Y-83856000D01*
X145840000Y-83348000D02*
X145840000Y-80300000D01*
X145332000Y-83856000D02*
X145840000Y-83348000D01*
X151047000Y-86650000D02*
X147237000Y-82840000D01*
X147237000Y-82840000D02*
X147237000Y-80300000D01*
X161842000Y-86650000D02*
X161842000Y-82840000D01*
X161842000Y-82840000D02*
X163112000Y-81570000D01*
X156609600Y-86650000D02*
X156762000Y-86650000D01*
X156762000Y-79030000D02*
X158083000Y-79030000D01*
X158083000Y-79030000D02*
X159683000Y-80630000D01*
X159683000Y-80630000D02*
X159683000Y-87793000D01*
X166160000Y-86650000D02*
X168192000Y-86650000D01*
X159683000Y-87793000D02*
X161080000Y-89190000D01*
X161080000Y-89190000D02*
X163620000Y-89190000D01*
X163620000Y-89190000D02*
X166160000Y-86650000D01*
X122472000Y-94270000D02*
X125520000Y-94270000D01*
X125520000Y-94270000D02*
X126790000Y-95540000D01*
X126790000Y-95540000D02*
X126790000Y-97470400D01*
X126790000Y-97470400D02*
X133749600Y-104430000D01*
X133749600Y-104430000D02*
X133902000Y-104430000D01*
X137966000Y-96810000D02*
X140252000Y-96810000D01*
X136696000Y-98080000D02*
X137966000Y-96810000D01*
X136696000Y-102906000D02*
X136696000Y-98080000D01*
X135172000Y-104430000D02*
X136696000Y-102906000D01*
X133902000Y-104430000D02*
X133775000Y-104430000D01*
X133902000Y-104430000D02*
X135172000Y-104430000D01*
X128822000Y-96810000D02*
X128822000Y-95032000D01*
X128822000Y-95032000D02*
X125520000Y-91730000D01*
X125520000Y-91730000D02*
X122472000Y-91730000D01*
X133902000Y-101890000D02*
X132378000Y-101890000D01*
X128822000Y-98334000D02*
X128822000Y-96810000D01*
X132378000Y-101890000D02*
X128822000Y-98334000D01*
X131108000Y-95286000D02*
X125012000Y-89190000D01*
X125012000Y-89190000D02*
X122472000Y-89190000D01*
X131108000Y-97877000D02*
X131108000Y-95286000D01*
X133902000Y-99350000D02*
X132581000Y-99350000D01*
X132581000Y-99350000D02*
X131108000Y-97877000D01*
X133902000Y-99350000D02*
X134054400Y-99350000D01*
X138880400Y-94524000D02*
X140252000Y-94524000D01*
X140252000Y-94524000D02*
X144570000Y-98842000D01*
X154529890Y-98026110D02*
X160625890Y-98026110D01*
X134054400Y-99350000D02*
X138880400Y-94524000D01*
X144570000Y-98842000D02*
X153714000Y-98842000D01*
X153714000Y-98842000D02*
X154529890Y-98026110D01*
X160625890Y-98026110D02*
X160842511Y-97809489D01*
X160842511Y-97809489D02*
X161842000Y-96810000D01*
X133902000Y-91730000D02*
X138728000Y-91730000D01*
X138728000Y-91730000D02*
X141522000Y-94524000D01*
X141522000Y-94524000D02*
X148761000Y-94524000D01*
X150047511Y-95810511D02*
X151047000Y-96810000D01*
X148761000Y-94524000D02*
X150047511Y-95810511D01*
X128060000Y-89698000D02*
X125012000Y-86650000D01*
X125012000Y-86650000D02*
X122472000Y-86650000D01*
X130549000Y-89698000D02*
X128060000Y-89698000D01*
X133902000Y-91730000D02*
X132581000Y-91730000D01*
X132581000Y-91730000D02*
X130549000Y-89698000D01*
X133902000Y-84110000D02*
X134054400Y-84110000D01*
X134054400Y-84110000D02*
X136696000Y-86751600D01*
X136696000Y-88174000D02*
X141468110Y-92946110D01*
X136696000Y-86751600D02*
X136696000Y-88174000D01*
X141468110Y-92946110D02*
X165090110Y-92946110D01*
X165090110Y-92946110D02*
X166414000Y-94270000D01*
X166414000Y-94270000D02*
X168192000Y-94270000D01*
X133902000Y-81570000D02*
X135223000Y-81570000D01*
X135223000Y-81570000D02*
X137204000Y-83551000D01*
X137204000Y-83551000D02*
X137204000Y-87412000D01*
X137204000Y-87412000D02*
X140305890Y-90513890D01*
X140305890Y-90513890D02*
X165197890Y-90513890D01*
X165197890Y-90513890D02*
X166414000Y-91730000D01*
X166414000Y-91730000D02*
X168192000Y-91730000D01*
D23*
G36*
X124478500Y-98460403D02*
X124478500Y-102220596D01*
X123602718Y-103096378D01*
X123477914Y-103096269D01*
X122987620Y-103298854D01*
X122612173Y-103673647D01*
X122408732Y-104163587D01*
X122408269Y-104694086D01*
X122610854Y-105184380D01*
X122695500Y-105269174D01*
X122695500Y-111210465D01*
X122612173Y-111293647D01*
X122408732Y-111783587D01*
X122408269Y-112314086D01*
X122610854Y-112804380D01*
X122985647Y-113179827D01*
X123475587Y-113383268D01*
X123582457Y-113383361D01*
X125525548Y-115326452D01*
X125863435Y-115552221D01*
X126262000Y-115631500D01*
X132272034Y-115631500D01*
X132282838Y-115688917D01*
X132421910Y-115905041D01*
X132634110Y-116050031D01*
X132886000Y-116101040D01*
X134918000Y-116101040D01*
X135153317Y-116056762D01*
X135369441Y-115917690D01*
X135514431Y-115705490D01*
X135529414Y-115631500D01*
X144570000Y-115631500D01*
X144968565Y-115552221D01*
X145306452Y-115326452D01*
X146906504Y-113726400D01*
X155098560Y-113726400D01*
X155098560Y-115453600D01*
X155142838Y-115688917D01*
X155281910Y-115905041D01*
X155494110Y-116050031D01*
X155746000Y-116101040D01*
X157778000Y-116101040D01*
X158013317Y-116056762D01*
X158229441Y-115917690D01*
X158374431Y-115705490D01*
X158425440Y-115453600D01*
X158425440Y-113726400D01*
X158381162Y-113491083D01*
X158242090Y-113274959D01*
X158029890Y-113129969D01*
X157935073Y-113110768D01*
X158112732Y-112952036D01*
X158366709Y-112424791D01*
X158369358Y-112409026D01*
X158319790Y-112314086D01*
X160508269Y-112314086D01*
X160710854Y-112804380D01*
X161085647Y-113179827D01*
X161575587Y-113383268D01*
X162106086Y-113383731D01*
X162596380Y-113181146D01*
X162971827Y-112806353D01*
X163175268Y-112316413D01*
X163175731Y-111785914D01*
X162973146Y-111295620D01*
X162598353Y-110920173D01*
X162108413Y-110716732D01*
X161577914Y-110716269D01*
X161087620Y-110918854D01*
X160712173Y-111293647D01*
X160508732Y-111783587D01*
X160508269Y-112314086D01*
X158319790Y-112314086D01*
X158248217Y-112177000D01*
X156889000Y-112177000D01*
X156889000Y-112197000D01*
X156635000Y-112197000D01*
X156635000Y-112177000D01*
X155275783Y-112177000D01*
X155154642Y-112409026D01*
X155157291Y-112424791D01*
X155411268Y-112952036D01*
X155586845Y-113108907D01*
X155510683Y-113123238D01*
X155294559Y-113262310D01*
X155149569Y-113474510D01*
X155098560Y-113726400D01*
X146906504Y-113726400D01*
X155161404Y-105471500D01*
X155505444Y-105471500D01*
X155517585Y-105489670D01*
X155832366Y-105700000D01*
X155517585Y-105910330D01*
X155192729Y-106396511D01*
X155078655Y-106970000D01*
X155192729Y-107543489D01*
X155517585Y-108029670D01*
X155832366Y-108240000D01*
X155517585Y-108450330D01*
X155192729Y-108936511D01*
X155078655Y-109510000D01*
X155192729Y-110083489D01*
X155517585Y-110569670D01*
X155827069Y-110776461D01*
X155411268Y-111147964D01*
X155157291Y-111675209D01*
X155154642Y-111690974D01*
X155275783Y-111923000D01*
X156635000Y-111923000D01*
X156635000Y-111903000D01*
X156889000Y-111903000D01*
X156889000Y-111923000D01*
X158248217Y-111923000D01*
X158369358Y-111690974D01*
X158366709Y-111675209D01*
X158112732Y-111147964D01*
X157696931Y-110776461D01*
X158006415Y-110569670D01*
X158331271Y-110083489D01*
X158445345Y-109510000D01*
X158331271Y-108936511D01*
X158006415Y-108450330D01*
X157691634Y-108240000D01*
X158006415Y-108029670D01*
X158331271Y-107543489D01*
X158445345Y-106970000D01*
X158331271Y-106396511D01*
X158006415Y-105910330D01*
X157691634Y-105700000D01*
X158006415Y-105489670D01*
X158018556Y-105471500D01*
X158850596Y-105471500D01*
X165588360Y-112209264D01*
X165588269Y-112314086D01*
X165790854Y-112804380D01*
X166165647Y-113179827D01*
X166655587Y-113383268D01*
X167186086Y-113383731D01*
X167676380Y-113181146D01*
X168051827Y-112806353D01*
X168255268Y-112316413D01*
X168255731Y-111785914D01*
X168053146Y-111295620D01*
X167958500Y-111200809D01*
X167958500Y-105279517D01*
X168051827Y-105186353D01*
X168255268Y-104696413D01*
X168255731Y-104165914D01*
X168053146Y-103675620D01*
X167678353Y-103300173D01*
X167188413Y-103096732D01*
X167041508Y-103096604D01*
X165931500Y-101986596D01*
X165931500Y-99635750D01*
X166541000Y-99635750D01*
X166541000Y-100339909D01*
X166637673Y-100573298D01*
X166816301Y-100751927D01*
X167049690Y-100848600D01*
X167906250Y-100848600D01*
X168065000Y-100689850D01*
X168065000Y-99477000D01*
X166699750Y-99477000D01*
X166541000Y-99635750D01*
X165931500Y-99635750D01*
X165931500Y-98714404D01*
X166794403Y-97851500D01*
X166935444Y-97851500D01*
X166947585Y-97869670D01*
X166969780Y-97884500D01*
X166816301Y-97948073D01*
X166637673Y-98126702D01*
X166541000Y-98360091D01*
X166541000Y-99064250D01*
X166699750Y-99223000D01*
X168065000Y-99223000D01*
X168065000Y-99203000D01*
X168319000Y-99203000D01*
X168319000Y-99223000D01*
X168339000Y-99223000D01*
X168339000Y-99477000D01*
X168319000Y-99477000D01*
X168319000Y-100689850D01*
X168477750Y-100848600D01*
X169334310Y-100848600D01*
X169567699Y-100751927D01*
X169617000Y-100702626D01*
X169617000Y-116453026D01*
X169587266Y-116432339D01*
X167350605Y-118669000D01*
X167364748Y-118683143D01*
X167185143Y-118862748D01*
X167171000Y-118848605D01*
X167156858Y-118862748D01*
X166977253Y-118683143D01*
X166991395Y-118669000D01*
X164754734Y-116432339D01*
X164306068Y-116744487D01*
X163787669Y-117987343D01*
X163784352Y-119333976D01*
X164296620Y-120579371D01*
X164306068Y-120593513D01*
X164754732Y-120905660D01*
X164642506Y-121017886D01*
X164727620Y-121103000D01*
X125926380Y-121103000D01*
X126011494Y-121017886D01*
X125899268Y-120905660D01*
X126347932Y-120593513D01*
X126866331Y-119350657D01*
X126869648Y-118004024D01*
X126357380Y-116758629D01*
X126347932Y-116744487D01*
X125899266Y-116432339D01*
X123662605Y-118669000D01*
X123676748Y-118683143D01*
X123497143Y-118862748D01*
X123483000Y-118848605D01*
X123468858Y-118862748D01*
X123289253Y-118683143D01*
X123303395Y-118669000D01*
X121066734Y-116432339D01*
X121037000Y-116453026D01*
X121037000Y-116252734D01*
X121246339Y-116252734D01*
X123483000Y-118489395D01*
X125719661Y-116252734D01*
X164934339Y-116252734D01*
X167171000Y-118489395D01*
X169407661Y-116252734D01*
X169095513Y-115804068D01*
X167852657Y-115285669D01*
X166506024Y-115282352D01*
X165260629Y-115794620D01*
X165246487Y-115804068D01*
X164934339Y-116252734D01*
X125719661Y-116252734D01*
X125407513Y-115804068D01*
X124164657Y-115285669D01*
X122818024Y-115282352D01*
X121572629Y-115794620D01*
X121558487Y-115804068D01*
X121246339Y-116252734D01*
X121037000Y-116252734D01*
X121037000Y-100692626D01*
X121096301Y-100751927D01*
X121329690Y-100848600D01*
X122186250Y-100848600D01*
X122345000Y-100689850D01*
X122345000Y-99477000D01*
X122599000Y-99477000D01*
X122599000Y-100689850D01*
X122757750Y-100848600D01*
X123614310Y-100848600D01*
X123847699Y-100751927D01*
X124026327Y-100573298D01*
X124123000Y-100339909D01*
X124123000Y-99635750D01*
X123964250Y-99477000D01*
X122599000Y-99477000D01*
X122345000Y-99477000D01*
X122325000Y-99477000D01*
X122325000Y-99223000D01*
X122345000Y-99223000D01*
X122345000Y-99203000D01*
X122599000Y-99203000D01*
X122599000Y-99223000D01*
X123964250Y-99223000D01*
X124123000Y-99064250D01*
X124123000Y-98360091D01*
X124026327Y-98126702D01*
X123847699Y-97948073D01*
X123694220Y-97884500D01*
X123716415Y-97869670D01*
X123728556Y-97851500D01*
X123869596Y-97851500D01*
X124478500Y-98460403D01*
X124478500Y-98460403D01*
G37*
X124478500Y-98460403D02*
X124478500Y-102220596D01*
X123602718Y-103096378D01*
X123477914Y-103096269D01*
X122987620Y-103298854D01*
X122612173Y-103673647D01*
X122408732Y-104163587D01*
X122408269Y-104694086D01*
X122610854Y-105184380D01*
X122695500Y-105269174D01*
X122695500Y-111210465D01*
X122612173Y-111293647D01*
X122408732Y-111783587D01*
X122408269Y-112314086D01*
X122610854Y-112804380D01*
X122985647Y-113179827D01*
X123475587Y-113383268D01*
X123582457Y-113383361D01*
X125525548Y-115326452D01*
X125863435Y-115552221D01*
X126262000Y-115631500D01*
X132272034Y-115631500D01*
X132282838Y-115688917D01*
X132421910Y-115905041D01*
X132634110Y-116050031D01*
X132886000Y-116101040D01*
X134918000Y-116101040D01*
X135153317Y-116056762D01*
X135369441Y-115917690D01*
X135514431Y-115705490D01*
X135529414Y-115631500D01*
X144570000Y-115631500D01*
X144968565Y-115552221D01*
X145306452Y-115326452D01*
X146906504Y-113726400D01*
X155098560Y-113726400D01*
X155098560Y-115453600D01*
X155142838Y-115688917D01*
X155281910Y-115905041D01*
X155494110Y-116050031D01*
X155746000Y-116101040D01*
X157778000Y-116101040D01*
X158013317Y-116056762D01*
X158229441Y-115917690D01*
X158374431Y-115705490D01*
X158425440Y-115453600D01*
X158425440Y-113726400D01*
X158381162Y-113491083D01*
X158242090Y-113274959D01*
X158029890Y-113129969D01*
X157935073Y-113110768D01*
X158112732Y-112952036D01*
X158366709Y-112424791D01*
X158369358Y-112409026D01*
X158319790Y-112314086D01*
X160508269Y-112314086D01*
X160710854Y-112804380D01*
X161085647Y-113179827D01*
X161575587Y-113383268D01*
X162106086Y-113383731D01*
X162596380Y-113181146D01*
X162971827Y-112806353D01*
X163175268Y-112316413D01*
X163175731Y-111785914D01*
X162973146Y-111295620D01*
X162598353Y-110920173D01*
X162108413Y-110716732D01*
X161577914Y-110716269D01*
X161087620Y-110918854D01*
X160712173Y-111293647D01*
X160508732Y-111783587D01*
X160508269Y-112314086D01*
X158319790Y-112314086D01*
X158248217Y-112177000D01*
X156889000Y-112177000D01*
X156889000Y-112197000D01*
X156635000Y-112197000D01*
X156635000Y-112177000D01*
X155275783Y-112177000D01*
X155154642Y-112409026D01*
X155157291Y-112424791D01*
X155411268Y-112952036D01*
X155586845Y-113108907D01*
X155510683Y-113123238D01*
X155294559Y-113262310D01*
X155149569Y-113474510D01*
X155098560Y-113726400D01*
X146906504Y-113726400D01*
X155161404Y-105471500D01*
X155505444Y-105471500D01*
X155517585Y-105489670D01*
X155832366Y-105700000D01*
X155517585Y-105910330D01*
X155192729Y-106396511D01*
X155078655Y-106970000D01*
X155192729Y-107543489D01*
X155517585Y-108029670D01*
X155832366Y-108240000D01*
X155517585Y-108450330D01*
X155192729Y-108936511D01*
X155078655Y-109510000D01*
X155192729Y-110083489D01*
X155517585Y-110569670D01*
X155827069Y-110776461D01*
X155411268Y-111147964D01*
X155157291Y-111675209D01*
X155154642Y-111690974D01*
X155275783Y-111923000D01*
X156635000Y-111923000D01*
X156635000Y-111903000D01*
X156889000Y-111903000D01*
X156889000Y-111923000D01*
X158248217Y-111923000D01*
X158369358Y-111690974D01*
X158366709Y-111675209D01*
X158112732Y-111147964D01*
X157696931Y-110776461D01*
X158006415Y-110569670D01*
X158331271Y-110083489D01*
X158445345Y-109510000D01*
X158331271Y-108936511D01*
X158006415Y-108450330D01*
X157691634Y-108240000D01*
X158006415Y-108029670D01*
X158331271Y-107543489D01*
X158445345Y-106970000D01*
X158331271Y-106396511D01*
X158006415Y-105910330D01*
X157691634Y-105700000D01*
X158006415Y-105489670D01*
X158018556Y-105471500D01*
X158850596Y-105471500D01*
X165588360Y-112209264D01*
X165588269Y-112314086D01*
X165790854Y-112804380D01*
X166165647Y-113179827D01*
X166655587Y-113383268D01*
X167186086Y-113383731D01*
X167676380Y-113181146D01*
X168051827Y-112806353D01*
X168255268Y-112316413D01*
X168255731Y-111785914D01*
X168053146Y-111295620D01*
X167958500Y-111200809D01*
X167958500Y-105279517D01*
X168051827Y-105186353D01*
X168255268Y-104696413D01*
X168255731Y-104165914D01*
X168053146Y-103675620D01*
X167678353Y-103300173D01*
X167188413Y-103096732D01*
X167041508Y-103096604D01*
X165931500Y-101986596D01*
X165931500Y-99635750D01*
X166541000Y-99635750D01*
X166541000Y-100339909D01*
X166637673Y-100573298D01*
X166816301Y-100751927D01*
X167049690Y-100848600D01*
X167906250Y-100848600D01*
X168065000Y-100689850D01*
X168065000Y-99477000D01*
X166699750Y-99477000D01*
X166541000Y-99635750D01*
X165931500Y-99635750D01*
X165931500Y-98714404D01*
X166794403Y-97851500D01*
X166935444Y-97851500D01*
X166947585Y-97869670D01*
X166969780Y-97884500D01*
X166816301Y-97948073D01*
X166637673Y-98126702D01*
X166541000Y-98360091D01*
X166541000Y-99064250D01*
X166699750Y-99223000D01*
X168065000Y-99223000D01*
X168065000Y-99203000D01*
X168319000Y-99203000D01*
X168319000Y-99223000D01*
X168339000Y-99223000D01*
X168339000Y-99477000D01*
X168319000Y-99477000D01*
X168319000Y-100689850D01*
X168477750Y-100848600D01*
X169334310Y-100848600D01*
X169567699Y-100751927D01*
X169617000Y-100702626D01*
X169617000Y-116453026D01*
X169587266Y-116432339D01*
X167350605Y-118669000D01*
X167364748Y-118683143D01*
X167185143Y-118862748D01*
X167171000Y-118848605D01*
X167156858Y-118862748D01*
X166977253Y-118683143D01*
X166991395Y-118669000D01*
X164754734Y-116432339D01*
X164306068Y-116744487D01*
X163787669Y-117987343D01*
X163784352Y-119333976D01*
X164296620Y-120579371D01*
X164306068Y-120593513D01*
X164754732Y-120905660D01*
X164642506Y-121017886D01*
X164727620Y-121103000D01*
X125926380Y-121103000D01*
X126011494Y-121017886D01*
X125899268Y-120905660D01*
X126347932Y-120593513D01*
X126866331Y-119350657D01*
X126869648Y-118004024D01*
X126357380Y-116758629D01*
X126347932Y-116744487D01*
X125899266Y-116432339D01*
X123662605Y-118669000D01*
X123676748Y-118683143D01*
X123497143Y-118862748D01*
X123483000Y-118848605D01*
X123468858Y-118862748D01*
X123289253Y-118683143D01*
X123303395Y-118669000D01*
X121066734Y-116432339D01*
X121037000Y-116453026D01*
X121037000Y-116252734D01*
X121246339Y-116252734D01*
X123483000Y-118489395D01*
X125719661Y-116252734D01*
X164934339Y-116252734D01*
X167171000Y-118489395D01*
X169407661Y-116252734D01*
X169095513Y-115804068D01*
X167852657Y-115285669D01*
X166506024Y-115282352D01*
X165260629Y-115794620D01*
X165246487Y-115804068D01*
X164934339Y-116252734D01*
X125719661Y-116252734D01*
X125407513Y-115804068D01*
X124164657Y-115285669D01*
X122818024Y-115282352D01*
X121572629Y-115794620D01*
X121558487Y-115804068D01*
X121246339Y-116252734D01*
X121037000Y-116252734D01*
X121037000Y-100692626D01*
X121096301Y-100751927D01*
X121329690Y-100848600D01*
X122186250Y-100848600D01*
X122345000Y-100689850D01*
X122345000Y-99477000D01*
X122599000Y-99477000D01*
X122599000Y-100689850D01*
X122757750Y-100848600D01*
X123614310Y-100848600D01*
X123847699Y-100751927D01*
X124026327Y-100573298D01*
X124123000Y-100339909D01*
X124123000Y-99635750D01*
X123964250Y-99477000D01*
X122599000Y-99477000D01*
X122345000Y-99477000D01*
X122325000Y-99477000D01*
X122325000Y-99223000D01*
X122345000Y-99223000D01*
X122345000Y-99203000D01*
X122599000Y-99203000D01*
X122599000Y-99223000D01*
X123964250Y-99223000D01*
X124123000Y-99064250D01*
X124123000Y-98360091D01*
X124026327Y-98126702D01*
X123847699Y-97948073D01*
X123694220Y-97884500D01*
X123716415Y-97869670D01*
X123728556Y-97851500D01*
X123869596Y-97851500D01*
X124478500Y-98460403D01*
G36*
X165857151Y-94826844D02*
X165857153Y-94826847D01*
X166112637Y-94997555D01*
X166414000Y-95057500D01*
X166765727Y-95057500D01*
X166947585Y-95329670D01*
X167262366Y-95540000D01*
X166947585Y-95750330D01*
X166935444Y-95768500D01*
X166363005Y-95768500D01*
X166363000Y-95768499D01*
X165989230Y-95842847D01*
X165964435Y-95847779D01*
X165626548Y-96073548D01*
X165626546Y-96073551D01*
X164153548Y-97546548D01*
X163927779Y-97884435D01*
X163848500Y-98283000D01*
X163848500Y-102418000D01*
X163927779Y-102816565D01*
X164153548Y-103154452D01*
X165588360Y-104589264D01*
X165588269Y-104694086D01*
X165790854Y-105184380D01*
X165875500Y-105269174D01*
X165875500Y-109550597D01*
X162088619Y-105763716D01*
X162106086Y-105763731D01*
X162596380Y-105561146D01*
X162971827Y-105186353D01*
X163175268Y-104696413D01*
X163175731Y-104165914D01*
X162973146Y-103675620D01*
X162630743Y-103332620D01*
X162766655Y-103276462D01*
X163226846Y-102817073D01*
X163476206Y-102216547D01*
X163476774Y-101566306D01*
X163228462Y-100965345D01*
X162769073Y-100505154D01*
X162168547Y-100255794D01*
X161518306Y-100255226D01*
X160917345Y-100503538D01*
X160457154Y-100962927D01*
X160207794Y-101563453D01*
X160207226Y-102213694D01*
X160455538Y-102814655D01*
X160914927Y-103274846D01*
X161053874Y-103332542D01*
X160712173Y-103673647D01*
X160508732Y-104163587D01*
X160508714Y-104183810D01*
X160018452Y-103693548D01*
X159680565Y-103467779D01*
X159282000Y-103388500D01*
X158018556Y-103388500D01*
X158006415Y-103370330D01*
X157696931Y-103163539D01*
X158112732Y-102792036D01*
X158366709Y-102264791D01*
X158369358Y-102249026D01*
X158248217Y-102017000D01*
X156889000Y-102017000D01*
X156889000Y-102037000D01*
X156635000Y-102037000D01*
X156635000Y-102017000D01*
X155275783Y-102017000D01*
X155154642Y-102249026D01*
X155157291Y-102264791D01*
X155411268Y-102792036D01*
X155827069Y-103163539D01*
X155517585Y-103370330D01*
X155505444Y-103388500D01*
X154730005Y-103388500D01*
X154730000Y-103388499D01*
X154331435Y-103467779D01*
X153993548Y-103693548D01*
X144138596Y-113548500D01*
X135531966Y-113548500D01*
X135521162Y-113491083D01*
X135382090Y-113274959D01*
X135169890Y-113129969D01*
X135075073Y-113110768D01*
X135252732Y-112952036D01*
X135506709Y-112424791D01*
X135509358Y-112409026D01*
X135388217Y-112177000D01*
X134029000Y-112177000D01*
X134029000Y-112197000D01*
X133775000Y-112197000D01*
X133775000Y-112177000D01*
X132415783Y-112177000D01*
X132294642Y-112409026D01*
X132297291Y-112424791D01*
X132551268Y-112952036D01*
X132726845Y-113108907D01*
X132650683Y-113123238D01*
X132434559Y-113262310D01*
X132289569Y-113474510D01*
X132274586Y-113548500D01*
X126693404Y-113548500D01*
X125458990Y-112314086D01*
X127488269Y-112314086D01*
X127690854Y-112804380D01*
X128065647Y-113179827D01*
X128555587Y-113383268D01*
X129086086Y-113383731D01*
X129576380Y-113181146D01*
X129951827Y-112806353D01*
X130155268Y-112316413D01*
X130155731Y-111785914D01*
X129953146Y-111295620D01*
X129578353Y-110920173D01*
X129088413Y-110716732D01*
X128557914Y-110716269D01*
X128067620Y-110918854D01*
X127692173Y-111293647D01*
X127488732Y-111783587D01*
X127488269Y-112314086D01*
X125458990Y-112314086D01*
X125075605Y-111930701D01*
X125075731Y-111785914D01*
X124873146Y-111295620D01*
X124778500Y-111200809D01*
X124778500Y-105279517D01*
X124871827Y-105186353D01*
X125075268Y-104696413D01*
X125075379Y-104569525D01*
X126256452Y-103388452D01*
X126482221Y-103050565D01*
X126561501Y-102652000D01*
X126561500Y-102651995D01*
X126561500Y-98355594D01*
X128472001Y-100266095D01*
X127897345Y-100503538D01*
X127437154Y-100962927D01*
X127187794Y-101563453D01*
X127187226Y-102213694D01*
X127435538Y-102814655D01*
X127894927Y-103274846D01*
X128033874Y-103332542D01*
X127692173Y-103673647D01*
X127488732Y-104163587D01*
X127488269Y-104694086D01*
X127690854Y-105184380D01*
X128065647Y-105559827D01*
X128555587Y-105763268D01*
X129086086Y-105763731D01*
X129576380Y-105561146D01*
X129951827Y-105186353D01*
X130155268Y-104696413D01*
X130155731Y-104165914D01*
X129953146Y-103675620D01*
X129610743Y-103332620D01*
X129746655Y-103276462D01*
X130206846Y-102817073D01*
X130446303Y-102240396D01*
X132287882Y-104081975D01*
X132218655Y-104430000D01*
X132332729Y-105003489D01*
X132657585Y-105489670D01*
X132972366Y-105700000D01*
X132657585Y-105910330D01*
X132332729Y-106396511D01*
X132218655Y-106970000D01*
X132332729Y-107543489D01*
X132657585Y-108029670D01*
X132972366Y-108240000D01*
X132657585Y-108450330D01*
X132332729Y-108936511D01*
X132218655Y-109510000D01*
X132332729Y-110083489D01*
X132657585Y-110569670D01*
X132967069Y-110776461D01*
X132551268Y-111147964D01*
X132297291Y-111675209D01*
X132294642Y-111690974D01*
X132415783Y-111923000D01*
X133775000Y-111923000D01*
X133775000Y-111903000D01*
X134029000Y-111903000D01*
X134029000Y-111923000D01*
X135388217Y-111923000D01*
X135509358Y-111690974D01*
X135506709Y-111675209D01*
X135252732Y-111147964D01*
X134836931Y-110776461D01*
X135146415Y-110569670D01*
X135471271Y-110083489D01*
X135585345Y-109510000D01*
X135471271Y-108936511D01*
X135146415Y-108450330D01*
X134831634Y-108240000D01*
X135146415Y-108029670D01*
X135471271Y-107543489D01*
X135585345Y-106970000D01*
X135471271Y-106396511D01*
X135146415Y-105910330D01*
X134831634Y-105700000D01*
X135146415Y-105489670D01*
X135352227Y-105181651D01*
X135473363Y-105157555D01*
X135728847Y-104986847D01*
X137252844Y-103462849D01*
X137252847Y-103462847D01*
X137378465Y-103274846D01*
X137423555Y-103207364D01*
X137456415Y-103042163D01*
X138009443Y-103042163D01*
X138108042Y-103308965D01*
X138717582Y-103535401D01*
X139367377Y-103511341D01*
X139855958Y-103308965D01*
X139954557Y-103042163D01*
X150709443Y-103042163D01*
X150808042Y-103308965D01*
X151417582Y-103535401D01*
X152067377Y-103511341D01*
X152555958Y-103308965D01*
X152654557Y-103042163D01*
X151682000Y-102069605D01*
X150709443Y-103042163D01*
X139954557Y-103042163D01*
X138982000Y-102069605D01*
X138009443Y-103042163D01*
X137456415Y-103042163D01*
X137483500Y-102906000D01*
X137483500Y-102571943D01*
X137563035Y-102763958D01*
X137829837Y-102862557D01*
X138802395Y-101890000D01*
X139161605Y-101890000D01*
X140134163Y-102862557D01*
X140400965Y-102763958D01*
X140627401Y-102154418D01*
X140607820Y-101625582D01*
X150036599Y-101625582D01*
X150060659Y-102275377D01*
X150263035Y-102763958D01*
X150529837Y-102862557D01*
X151502395Y-101890000D01*
X151861605Y-101890000D01*
X152834163Y-102862557D01*
X153100965Y-102763958D01*
X153327401Y-102154418D01*
X153303341Y-101504623D01*
X153100965Y-101016042D01*
X152834163Y-100917443D01*
X151861605Y-101890000D01*
X151502395Y-101890000D01*
X150529837Y-100917443D01*
X150263035Y-101016042D01*
X150036599Y-101625582D01*
X140607820Y-101625582D01*
X140603341Y-101504623D01*
X140400965Y-101016042D01*
X140134163Y-100917443D01*
X139161605Y-101890000D01*
X138802395Y-101890000D01*
X137829837Y-100917443D01*
X137563035Y-101016042D01*
X137483500Y-101230141D01*
X137483500Y-100737837D01*
X138009443Y-100737837D01*
X138982000Y-101710395D01*
X139954557Y-100737837D01*
X150709443Y-100737837D01*
X151682000Y-101710395D01*
X152654557Y-100737837D01*
X152555958Y-100471035D01*
X151946418Y-100244599D01*
X151296623Y-100268659D01*
X150808042Y-100471035D01*
X150709443Y-100737837D01*
X139954557Y-100737837D01*
X139855958Y-100471035D01*
X139246418Y-100244599D01*
X138596623Y-100268659D01*
X138108042Y-100471035D01*
X138009443Y-100737837D01*
X137483500Y-100737837D01*
X137483500Y-98406194D01*
X138208463Y-97681230D01*
X138230538Y-97734655D01*
X138689927Y-98194846D01*
X139290453Y-98444206D01*
X139940694Y-98444774D01*
X140541655Y-98196462D01*
X141001846Y-97737073D01*
X141251206Y-97136547D01*
X141251642Y-96637336D01*
X144013151Y-99398844D01*
X144013153Y-99398847D01*
X144268637Y-99569555D01*
X144570000Y-99629500D01*
X153713995Y-99629500D01*
X153714000Y-99629501D01*
X154015363Y-99569555D01*
X154270847Y-99398847D01*
X154856083Y-98813610D01*
X155185350Y-98813610D01*
X155078655Y-99350000D01*
X155192729Y-99923489D01*
X155517585Y-100409670D01*
X155827069Y-100616461D01*
X155411268Y-100987964D01*
X155157291Y-101515209D01*
X155154642Y-101530974D01*
X155275783Y-101763000D01*
X156635000Y-101763000D01*
X156635000Y-101743000D01*
X156889000Y-101743000D01*
X156889000Y-101763000D01*
X158248217Y-101763000D01*
X158369358Y-101530974D01*
X158366709Y-101515209D01*
X158112732Y-100987964D01*
X157696931Y-100616461D01*
X158006415Y-100409670D01*
X158331271Y-99923489D01*
X158445345Y-99350000D01*
X158338650Y-98813610D01*
X160625885Y-98813610D01*
X160625890Y-98813611D01*
X160927253Y-98753665D01*
X161182737Y-98582957D01*
X161378397Y-98387296D01*
X161515453Y-98444206D01*
X162165694Y-98444774D01*
X162766655Y-98196462D01*
X163226846Y-97737073D01*
X163476206Y-97136547D01*
X163476774Y-96486306D01*
X163228462Y-95885345D01*
X162769073Y-95425154D01*
X162168547Y-95175794D01*
X161518306Y-95175226D01*
X160917345Y-95423538D01*
X160457154Y-95882927D01*
X160207794Y-96483453D01*
X160207226Y-97133694D01*
X160250576Y-97238610D01*
X158360089Y-97238610D01*
X158445345Y-96810000D01*
X158331271Y-96236511D01*
X158006415Y-95750330D01*
X157691634Y-95540000D01*
X158006415Y-95329670D01*
X158331271Y-94843489D01*
X158445345Y-94270000D01*
X158338650Y-93733610D01*
X164763916Y-93733610D01*
X165857151Y-94826844D01*
X165857151Y-94826844D01*
G37*
X165857151Y-94826844D02*
X165857153Y-94826847D01*
X166112637Y-94997555D01*
X166414000Y-95057500D01*
X166765727Y-95057500D01*
X166947585Y-95329670D01*
X167262366Y-95540000D01*
X166947585Y-95750330D01*
X166935444Y-95768500D01*
X166363005Y-95768500D01*
X166363000Y-95768499D01*
X165989230Y-95842847D01*
X165964435Y-95847779D01*
X165626548Y-96073548D01*
X165626546Y-96073551D01*
X164153548Y-97546548D01*
X163927779Y-97884435D01*
X163848500Y-98283000D01*
X163848500Y-102418000D01*
X163927779Y-102816565D01*
X164153548Y-103154452D01*
X165588360Y-104589264D01*
X165588269Y-104694086D01*
X165790854Y-105184380D01*
X165875500Y-105269174D01*
X165875500Y-109550597D01*
X162088619Y-105763716D01*
X162106086Y-105763731D01*
X162596380Y-105561146D01*
X162971827Y-105186353D01*
X163175268Y-104696413D01*
X163175731Y-104165914D01*
X162973146Y-103675620D01*
X162630743Y-103332620D01*
X162766655Y-103276462D01*
X163226846Y-102817073D01*
X163476206Y-102216547D01*
X163476774Y-101566306D01*
X163228462Y-100965345D01*
X162769073Y-100505154D01*
X162168547Y-100255794D01*
X161518306Y-100255226D01*
X160917345Y-100503538D01*
X160457154Y-100962927D01*
X160207794Y-101563453D01*
X160207226Y-102213694D01*
X160455538Y-102814655D01*
X160914927Y-103274846D01*
X161053874Y-103332542D01*
X160712173Y-103673647D01*
X160508732Y-104163587D01*
X160508714Y-104183810D01*
X160018452Y-103693548D01*
X159680565Y-103467779D01*
X159282000Y-103388500D01*
X158018556Y-103388500D01*
X158006415Y-103370330D01*
X157696931Y-103163539D01*
X158112732Y-102792036D01*
X158366709Y-102264791D01*
X158369358Y-102249026D01*
X158248217Y-102017000D01*
X156889000Y-102017000D01*
X156889000Y-102037000D01*
X156635000Y-102037000D01*
X156635000Y-102017000D01*
X155275783Y-102017000D01*
X155154642Y-102249026D01*
X155157291Y-102264791D01*
X155411268Y-102792036D01*
X155827069Y-103163539D01*
X155517585Y-103370330D01*
X155505444Y-103388500D01*
X154730005Y-103388500D01*
X154730000Y-103388499D01*
X154331435Y-103467779D01*
X153993548Y-103693548D01*
X144138596Y-113548500D01*
X135531966Y-113548500D01*
X135521162Y-113491083D01*
X135382090Y-113274959D01*
X135169890Y-113129969D01*
X135075073Y-113110768D01*
X135252732Y-112952036D01*
X135506709Y-112424791D01*
X135509358Y-112409026D01*
X135388217Y-112177000D01*
X134029000Y-112177000D01*
X134029000Y-112197000D01*
X133775000Y-112197000D01*
X133775000Y-112177000D01*
X132415783Y-112177000D01*
X132294642Y-112409026D01*
X132297291Y-112424791D01*
X132551268Y-112952036D01*
X132726845Y-113108907D01*
X132650683Y-113123238D01*
X132434559Y-113262310D01*
X132289569Y-113474510D01*
X132274586Y-113548500D01*
X126693404Y-113548500D01*
X125458990Y-112314086D01*
X127488269Y-112314086D01*
X127690854Y-112804380D01*
X128065647Y-113179827D01*
X128555587Y-113383268D01*
X129086086Y-113383731D01*
X129576380Y-113181146D01*
X129951827Y-112806353D01*
X130155268Y-112316413D01*
X130155731Y-111785914D01*
X129953146Y-111295620D01*
X129578353Y-110920173D01*
X129088413Y-110716732D01*
X128557914Y-110716269D01*
X128067620Y-110918854D01*
X127692173Y-111293647D01*
X127488732Y-111783587D01*
X127488269Y-112314086D01*
X125458990Y-112314086D01*
X125075605Y-111930701D01*
X125075731Y-111785914D01*
X124873146Y-111295620D01*
X124778500Y-111200809D01*
X124778500Y-105279517D01*
X124871827Y-105186353D01*
X125075268Y-104696413D01*
X125075379Y-104569525D01*
X126256452Y-103388452D01*
X126482221Y-103050565D01*
X126561501Y-102652000D01*
X126561500Y-102651995D01*
X126561500Y-98355594D01*
X128472001Y-100266095D01*
X127897345Y-100503538D01*
X127437154Y-100962927D01*
X127187794Y-101563453D01*
X127187226Y-102213694D01*
X127435538Y-102814655D01*
X127894927Y-103274846D01*
X128033874Y-103332542D01*
X127692173Y-103673647D01*
X127488732Y-104163587D01*
X127488269Y-104694086D01*
X127690854Y-105184380D01*
X128065647Y-105559827D01*
X128555587Y-105763268D01*
X129086086Y-105763731D01*
X129576380Y-105561146D01*
X129951827Y-105186353D01*
X130155268Y-104696413D01*
X130155731Y-104165914D01*
X129953146Y-103675620D01*
X129610743Y-103332620D01*
X129746655Y-103276462D01*
X130206846Y-102817073D01*
X130446303Y-102240396D01*
X132287882Y-104081975D01*
X132218655Y-104430000D01*
X132332729Y-105003489D01*
X132657585Y-105489670D01*
X132972366Y-105700000D01*
X132657585Y-105910330D01*
X132332729Y-106396511D01*
X132218655Y-106970000D01*
X132332729Y-107543489D01*
X132657585Y-108029670D01*
X132972366Y-108240000D01*
X132657585Y-108450330D01*
X132332729Y-108936511D01*
X132218655Y-109510000D01*
X132332729Y-110083489D01*
X132657585Y-110569670D01*
X132967069Y-110776461D01*
X132551268Y-111147964D01*
X132297291Y-111675209D01*
X132294642Y-111690974D01*
X132415783Y-111923000D01*
X133775000Y-111923000D01*
X133775000Y-111903000D01*
X134029000Y-111903000D01*
X134029000Y-111923000D01*
X135388217Y-111923000D01*
X135509358Y-111690974D01*
X135506709Y-111675209D01*
X135252732Y-111147964D01*
X134836931Y-110776461D01*
X135146415Y-110569670D01*
X135471271Y-110083489D01*
X135585345Y-109510000D01*
X135471271Y-108936511D01*
X135146415Y-108450330D01*
X134831634Y-108240000D01*
X135146415Y-108029670D01*
X135471271Y-107543489D01*
X135585345Y-106970000D01*
X135471271Y-106396511D01*
X135146415Y-105910330D01*
X134831634Y-105700000D01*
X135146415Y-105489670D01*
X135352227Y-105181651D01*
X135473363Y-105157555D01*
X135728847Y-104986847D01*
X137252844Y-103462849D01*
X137252847Y-103462847D01*
X137378465Y-103274846D01*
X137423555Y-103207364D01*
X137456415Y-103042163D01*
X138009443Y-103042163D01*
X138108042Y-103308965D01*
X138717582Y-103535401D01*
X139367377Y-103511341D01*
X139855958Y-103308965D01*
X139954557Y-103042163D01*
X150709443Y-103042163D01*
X150808042Y-103308965D01*
X151417582Y-103535401D01*
X152067377Y-103511341D01*
X152555958Y-103308965D01*
X152654557Y-103042163D01*
X151682000Y-102069605D01*
X150709443Y-103042163D01*
X139954557Y-103042163D01*
X138982000Y-102069605D01*
X138009443Y-103042163D01*
X137456415Y-103042163D01*
X137483500Y-102906000D01*
X137483500Y-102571943D01*
X137563035Y-102763958D01*
X137829837Y-102862557D01*
X138802395Y-101890000D01*
X139161605Y-101890000D01*
X140134163Y-102862557D01*
X140400965Y-102763958D01*
X140627401Y-102154418D01*
X140607820Y-101625582D01*
X150036599Y-101625582D01*
X150060659Y-102275377D01*
X150263035Y-102763958D01*
X150529837Y-102862557D01*
X151502395Y-101890000D01*
X151861605Y-101890000D01*
X152834163Y-102862557D01*
X153100965Y-102763958D01*
X153327401Y-102154418D01*
X153303341Y-101504623D01*
X153100965Y-101016042D01*
X152834163Y-100917443D01*
X151861605Y-101890000D01*
X151502395Y-101890000D01*
X150529837Y-100917443D01*
X150263035Y-101016042D01*
X150036599Y-101625582D01*
X140607820Y-101625582D01*
X140603341Y-101504623D01*
X140400965Y-101016042D01*
X140134163Y-100917443D01*
X139161605Y-101890000D01*
X138802395Y-101890000D01*
X137829837Y-100917443D01*
X137563035Y-101016042D01*
X137483500Y-101230141D01*
X137483500Y-100737837D01*
X138009443Y-100737837D01*
X138982000Y-101710395D01*
X139954557Y-100737837D01*
X150709443Y-100737837D01*
X151682000Y-101710395D01*
X152654557Y-100737837D01*
X152555958Y-100471035D01*
X151946418Y-100244599D01*
X151296623Y-100268659D01*
X150808042Y-100471035D01*
X150709443Y-100737837D01*
X139954557Y-100737837D01*
X139855958Y-100471035D01*
X139246418Y-100244599D01*
X138596623Y-100268659D01*
X138108042Y-100471035D01*
X138009443Y-100737837D01*
X137483500Y-100737837D01*
X137483500Y-98406194D01*
X138208463Y-97681230D01*
X138230538Y-97734655D01*
X138689927Y-98194846D01*
X139290453Y-98444206D01*
X139940694Y-98444774D01*
X140541655Y-98196462D01*
X141001846Y-97737073D01*
X141251206Y-97136547D01*
X141251642Y-96637336D01*
X144013151Y-99398844D01*
X144013153Y-99398847D01*
X144268637Y-99569555D01*
X144570000Y-99629500D01*
X153713995Y-99629500D01*
X153714000Y-99629501D01*
X154015363Y-99569555D01*
X154270847Y-99398847D01*
X154856083Y-98813610D01*
X155185350Y-98813610D01*
X155078655Y-99350000D01*
X155192729Y-99923489D01*
X155517585Y-100409670D01*
X155827069Y-100616461D01*
X155411268Y-100987964D01*
X155157291Y-101515209D01*
X155154642Y-101530974D01*
X155275783Y-101763000D01*
X156635000Y-101763000D01*
X156635000Y-101743000D01*
X156889000Y-101743000D01*
X156889000Y-101763000D01*
X158248217Y-101763000D01*
X158369358Y-101530974D01*
X158366709Y-101515209D01*
X158112732Y-100987964D01*
X157696931Y-100616461D01*
X158006415Y-100409670D01*
X158331271Y-99923489D01*
X158445345Y-99350000D01*
X158338650Y-98813610D01*
X160625885Y-98813610D01*
X160625890Y-98813611D01*
X160927253Y-98753665D01*
X161182737Y-98582957D01*
X161378397Y-98387296D01*
X161515453Y-98444206D01*
X162165694Y-98444774D01*
X162766655Y-98196462D01*
X163226846Y-97737073D01*
X163476206Y-97136547D01*
X163476774Y-96486306D01*
X163228462Y-95885345D01*
X162769073Y-95425154D01*
X162168547Y-95175794D01*
X161518306Y-95175226D01*
X160917345Y-95423538D01*
X160457154Y-95882927D01*
X160207794Y-96483453D01*
X160207226Y-97133694D01*
X160250576Y-97238610D01*
X158360089Y-97238610D01*
X158445345Y-96810000D01*
X158331271Y-96236511D01*
X158006415Y-95750330D01*
X157691634Y-95540000D01*
X158006415Y-95329670D01*
X158331271Y-94843489D01*
X158445345Y-94270000D01*
X158338650Y-93733610D01*
X164763916Y-93733610D01*
X165857151Y-94826844D01*
G36*
X127503153Y-90254847D02*
X127758637Y-90425555D01*
X128060000Y-90485501D01*
X128060005Y-90485500D01*
X130222806Y-90485500D01*
X132024153Y-92286847D01*
X132279637Y-92457555D01*
X132459591Y-92493351D01*
X132657585Y-92789670D01*
X132967069Y-92996461D01*
X132551268Y-93367964D01*
X132297291Y-93895209D01*
X132294642Y-93910974D01*
X132415783Y-94143000D01*
X133775000Y-94143000D01*
X133775000Y-94123000D01*
X134029000Y-94123000D01*
X134029000Y-94143000D01*
X135388217Y-94143000D01*
X135509358Y-93910974D01*
X135506709Y-93895209D01*
X135252732Y-93367964D01*
X134836931Y-92996461D01*
X135146415Y-92789670D01*
X135328273Y-92517500D01*
X138401806Y-92517500D01*
X139620807Y-93736500D01*
X138880405Y-93736500D01*
X138880400Y-93736499D01*
X138579037Y-93796445D01*
X138323553Y-93967153D01*
X138323551Y-93967156D01*
X135567984Y-96722722D01*
X135471271Y-96236511D01*
X135146415Y-95750330D01*
X134836931Y-95543539D01*
X135252732Y-95172036D01*
X135506709Y-94644791D01*
X135509358Y-94629026D01*
X135388217Y-94397000D01*
X134029000Y-94397000D01*
X134029000Y-94417000D01*
X133775000Y-94417000D01*
X133775000Y-94397000D01*
X132415783Y-94397000D01*
X132294642Y-94629026D01*
X132297291Y-94644791D01*
X132551268Y-95172036D01*
X132967069Y-95543539D01*
X132657585Y-95750330D01*
X132332729Y-96236511D01*
X132218655Y-96810000D01*
X132332729Y-97383489D01*
X132657585Y-97869670D01*
X132972366Y-98080000D01*
X132657585Y-98290330D01*
X132648548Y-98303855D01*
X131895500Y-97550806D01*
X131895500Y-95286005D01*
X131895501Y-95286000D01*
X131835555Y-94984637D01*
X131664847Y-94729153D01*
X125568847Y-88633153D01*
X125313363Y-88462445D01*
X125012000Y-88402499D01*
X125011995Y-88402500D01*
X123898273Y-88402500D01*
X123716415Y-88130330D01*
X123401634Y-87920000D01*
X123716415Y-87709670D01*
X123898273Y-87437500D01*
X124685806Y-87437500D01*
X127503153Y-90254847D01*
X127503153Y-90254847D01*
G37*
X127503153Y-90254847D02*
X127758637Y-90425555D01*
X128060000Y-90485501D01*
X128060005Y-90485500D01*
X130222806Y-90485500D01*
X132024153Y-92286847D01*
X132279637Y-92457555D01*
X132459591Y-92493351D01*
X132657585Y-92789670D01*
X132967069Y-92996461D01*
X132551268Y-93367964D01*
X132297291Y-93895209D01*
X132294642Y-93910974D01*
X132415783Y-94143000D01*
X133775000Y-94143000D01*
X133775000Y-94123000D01*
X134029000Y-94123000D01*
X134029000Y-94143000D01*
X135388217Y-94143000D01*
X135509358Y-93910974D01*
X135506709Y-93895209D01*
X135252732Y-93367964D01*
X134836931Y-92996461D01*
X135146415Y-92789670D01*
X135328273Y-92517500D01*
X138401806Y-92517500D01*
X139620807Y-93736500D01*
X138880405Y-93736500D01*
X138880400Y-93736499D01*
X138579037Y-93796445D01*
X138323553Y-93967153D01*
X138323551Y-93967156D01*
X135567984Y-96722722D01*
X135471271Y-96236511D01*
X135146415Y-95750330D01*
X134836931Y-95543539D01*
X135252732Y-95172036D01*
X135506709Y-94644791D01*
X135509358Y-94629026D01*
X135388217Y-94397000D01*
X134029000Y-94397000D01*
X134029000Y-94417000D01*
X133775000Y-94417000D01*
X133775000Y-94397000D01*
X132415783Y-94397000D01*
X132294642Y-94629026D01*
X132297291Y-94644791D01*
X132551268Y-95172036D01*
X132967069Y-95543539D01*
X132657585Y-95750330D01*
X132332729Y-96236511D01*
X132218655Y-96810000D01*
X132332729Y-97383489D01*
X132657585Y-97869670D01*
X132972366Y-98080000D01*
X132657585Y-98290330D01*
X132648548Y-98303855D01*
X131895500Y-97550806D01*
X131895500Y-95286005D01*
X131895501Y-95286000D01*
X131835555Y-94984637D01*
X131664847Y-94729153D01*
X125568847Y-88633153D01*
X125313363Y-88462445D01*
X125012000Y-88402499D01*
X125011995Y-88402500D01*
X123898273Y-88402500D01*
X123716415Y-88130330D01*
X123401634Y-87920000D01*
X123716415Y-87709670D01*
X123898273Y-87437500D01*
X124685806Y-87437500D01*
X127503153Y-90254847D01*
G36*
X121246339Y-72564734D02*
X123483000Y-74801395D01*
X125719661Y-72564734D01*
X125690626Y-72523000D01*
X136281928Y-72523000D01*
X136315004Y-76491059D01*
X136323685Y-76536159D01*
X136350965Y-76578553D01*
X136392590Y-76606994D01*
X136442000Y-76617000D01*
X154222000Y-76617000D01*
X154269144Y-76607926D01*
X154311309Y-76580293D01*
X154339402Y-76538433D01*
X154348996Y-76488941D01*
X154341970Y-75645976D01*
X163784352Y-75645976D01*
X164296620Y-76891371D01*
X164306068Y-76905513D01*
X164754734Y-77217661D01*
X166991395Y-74981000D01*
X164754734Y-72744339D01*
X164306068Y-73056487D01*
X163787669Y-74299343D01*
X163784352Y-75645976D01*
X154341970Y-75645976D01*
X154315938Y-72523000D01*
X164963374Y-72523000D01*
X164934339Y-72564734D01*
X167171000Y-74801395D01*
X169407661Y-72564734D01*
X169378626Y-72523000D01*
X169617000Y-72523000D01*
X169617000Y-72765026D01*
X169587266Y-72744339D01*
X167350605Y-74981000D01*
X169587266Y-77217661D01*
X169617000Y-77196974D01*
X169617000Y-85860594D01*
X169436415Y-85590330D01*
X168950234Y-85265474D01*
X168376745Y-85151400D01*
X168007255Y-85151400D01*
X167433766Y-85265474D01*
X166947585Y-85590330D01*
X166765727Y-85862500D01*
X166160000Y-85862500D01*
X165858636Y-85922445D01*
X165756304Y-85990821D01*
X165603153Y-86093153D01*
X165603151Y-86093156D01*
X163293806Y-88402500D01*
X161406193Y-88402500D01*
X161126315Y-88122622D01*
X161515453Y-88284206D01*
X162165694Y-88284774D01*
X162766655Y-88036462D01*
X163226846Y-87577073D01*
X163476206Y-86976547D01*
X163476774Y-86326306D01*
X163228462Y-85725345D01*
X162769073Y-85265154D01*
X162629500Y-85207198D01*
X162629500Y-83166194D01*
X162686263Y-83109431D01*
X162795341Y-83154724D01*
X163425893Y-83155275D01*
X164008657Y-82914481D01*
X164454914Y-82469003D01*
X164696724Y-81886659D01*
X164697275Y-81256107D01*
X164456481Y-80673343D01*
X164351455Y-80568133D01*
X164471698Y-80518327D01*
X164650327Y-80339699D01*
X164747000Y-80106310D01*
X164747000Y-79315750D01*
X164588250Y-79157000D01*
X163239000Y-79157000D01*
X163239000Y-79177000D01*
X162985000Y-79177000D01*
X162985000Y-79157000D01*
X161635750Y-79157000D01*
X161477000Y-79315750D01*
X161477000Y-80106310D01*
X161573673Y-80339699D01*
X161752302Y-80518327D01*
X161872251Y-80568012D01*
X161769086Y-80670997D01*
X161527276Y-81253341D01*
X161526725Y-81883893D01*
X161572830Y-81995476D01*
X161285153Y-82283153D01*
X161114445Y-82538637D01*
X161054499Y-82840000D01*
X161054500Y-82840005D01*
X161054500Y-85206867D01*
X160917345Y-85263538D01*
X160470500Y-85709604D01*
X160470500Y-80630005D01*
X160470501Y-80630000D01*
X160410555Y-80328637D01*
X160306562Y-80173000D01*
X160239847Y-80073153D01*
X160239844Y-80073151D01*
X158639847Y-78473153D01*
X158384363Y-78302445D01*
X158204409Y-78266649D01*
X158006415Y-77970330D01*
X157981512Y-77953690D01*
X161477000Y-77953690D01*
X161477000Y-78744250D01*
X161635750Y-78903000D01*
X162985000Y-78903000D01*
X162985000Y-77603750D01*
X163239000Y-77603750D01*
X163239000Y-78903000D01*
X164588250Y-78903000D01*
X164747000Y-78744250D01*
X164747000Y-77953690D01*
X164650327Y-77720301D01*
X164471698Y-77541673D01*
X164238309Y-77445000D01*
X163397750Y-77445000D01*
X163239000Y-77603750D01*
X162985000Y-77603750D01*
X162826250Y-77445000D01*
X161985691Y-77445000D01*
X161752302Y-77541673D01*
X161573673Y-77720301D01*
X161477000Y-77953690D01*
X157981512Y-77953690D01*
X157520234Y-77645474D01*
X156946745Y-77531400D01*
X156577255Y-77531400D01*
X156003766Y-77645474D01*
X155517585Y-77970330D01*
X155192729Y-78456511D01*
X155078655Y-79030000D01*
X155192729Y-79603489D01*
X155517585Y-80089670D01*
X155832366Y-80300000D01*
X155517585Y-80510330D01*
X155192729Y-80996511D01*
X155078655Y-81570000D01*
X155192729Y-82143489D01*
X155517585Y-82629670D01*
X155832366Y-82840000D01*
X155517585Y-83050330D01*
X155192729Y-83536511D01*
X155078655Y-84110000D01*
X155192729Y-84683489D01*
X155517585Y-85169670D01*
X155832366Y-85380000D01*
X155517585Y-85590330D01*
X155192729Y-86076511D01*
X155078655Y-86650000D01*
X155192729Y-87223489D01*
X155517585Y-87709670D01*
X155832366Y-87920000D01*
X155517585Y-88130330D01*
X155192729Y-88616511D01*
X155078655Y-89190000D01*
X155185350Y-89726390D01*
X140632084Y-89726390D01*
X139118498Y-88212804D01*
X139290453Y-88284206D01*
X139940694Y-88284774D01*
X140541655Y-88036462D01*
X141001846Y-87577073D01*
X141251206Y-86976547D01*
X141251208Y-86973694D01*
X143697226Y-86973694D01*
X143945538Y-87574655D01*
X144404927Y-88034846D01*
X145005453Y-88284206D01*
X145655694Y-88284774D01*
X146256655Y-88036462D01*
X146716846Y-87577073D01*
X146966206Y-86976547D01*
X146966774Y-86326306D01*
X146718462Y-85725345D01*
X146259073Y-85265154D01*
X146119500Y-85207198D01*
X146119500Y-84182194D01*
X146396844Y-83904849D01*
X146396847Y-83904847D01*
X146499179Y-83751696D01*
X146567555Y-83649364D01*
X146627500Y-83348000D01*
X146627500Y-83318046D01*
X146680153Y-83396847D01*
X149469704Y-86186398D01*
X149412794Y-86323453D01*
X149412226Y-86973694D01*
X149660538Y-87574655D01*
X150119927Y-88034846D01*
X150720453Y-88284206D01*
X151370694Y-88284774D01*
X151971655Y-88036462D01*
X152431846Y-87577073D01*
X152681206Y-86976547D01*
X152681774Y-86326306D01*
X152433462Y-85725345D01*
X151974073Y-85265154D01*
X151373547Y-85015794D01*
X150723306Y-85015226D01*
X150583632Y-85072938D01*
X148024500Y-82513806D01*
X148024500Y-81418646D01*
X148158603Y-81217947D01*
X148245000Y-80783601D01*
X148245000Y-79816399D01*
X148158603Y-79382053D01*
X147912566Y-79013833D01*
X147544346Y-78767796D01*
X147110000Y-78681399D01*
X146675654Y-78767796D01*
X146475000Y-78901869D01*
X146274346Y-78767796D01*
X145840000Y-78681399D01*
X145405654Y-78767796D01*
X145376628Y-78787190D01*
X145196310Y-78712500D01*
X144855750Y-78712500D01*
X144697000Y-78871250D01*
X144697000Y-80173000D01*
X144705000Y-80173000D01*
X144705000Y-80427000D01*
X144697000Y-80427000D01*
X144697000Y-81728750D01*
X144855750Y-81887500D01*
X145052500Y-81887500D01*
X145052500Y-83021807D01*
X144775153Y-83299153D01*
X144604445Y-83554637D01*
X144544499Y-83856000D01*
X144544500Y-83856005D01*
X144544500Y-85206867D01*
X144407345Y-85263538D01*
X143947154Y-85722927D01*
X143697794Y-86323453D01*
X143697226Y-86973694D01*
X141251208Y-86973694D01*
X141251774Y-86326306D01*
X141194062Y-86186632D01*
X143983844Y-83396849D01*
X143983847Y-83396847D01*
X144154555Y-83141363D01*
X144169029Y-83068600D01*
X144214501Y-82840000D01*
X144214500Y-82839995D01*
X144214500Y-81887500D01*
X144284250Y-81887500D01*
X144443000Y-81728750D01*
X144443000Y-80427000D01*
X144435000Y-80427000D01*
X144435000Y-80173000D01*
X144443000Y-80173000D01*
X144443000Y-78871250D01*
X144284250Y-78712500D01*
X143943690Y-78712500D01*
X143763372Y-78787190D01*
X143734346Y-78767796D01*
X143300000Y-78681399D01*
X142865654Y-78767796D01*
X142497434Y-79013833D01*
X142251397Y-79382053D01*
X142165000Y-79816399D01*
X142165000Y-80783601D01*
X142251397Y-81217947D01*
X142497434Y-81586167D01*
X142639500Y-81681093D01*
X142639500Y-82513807D01*
X140080602Y-85072704D01*
X139943547Y-85015794D01*
X139293306Y-85015226D01*
X138692345Y-85263538D01*
X138232154Y-85722927D01*
X137991500Y-86302487D01*
X137991500Y-83551005D01*
X137991501Y-83551000D01*
X137931555Y-83249637D01*
X137760847Y-82994153D01*
X135779847Y-81013153D01*
X135524363Y-80842445D01*
X135344409Y-80806649D01*
X135146415Y-80510330D01*
X134831634Y-80300000D01*
X135146415Y-80089670D01*
X135471271Y-79603489D01*
X135585345Y-79030000D01*
X135471271Y-78456511D01*
X135146415Y-77970330D01*
X134660234Y-77645474D01*
X134086745Y-77531400D01*
X133717255Y-77531400D01*
X133143766Y-77645474D01*
X132657585Y-77970330D01*
X132332729Y-78456511D01*
X132218655Y-79030000D01*
X132332729Y-79603489D01*
X132657585Y-80089670D01*
X132972366Y-80300000D01*
X132657585Y-80510330D01*
X132332729Y-80996511D01*
X132218655Y-81570000D01*
X132332729Y-82143489D01*
X132657585Y-82629670D01*
X132972366Y-82840000D01*
X132657585Y-83050330D01*
X132332729Y-83536511D01*
X132218655Y-84110000D01*
X132332729Y-84683489D01*
X132657585Y-85169670D01*
X132972366Y-85380000D01*
X132657585Y-85590330D01*
X132332729Y-86076511D01*
X132218655Y-86650000D01*
X132332729Y-87223489D01*
X132657585Y-87709670D01*
X132972366Y-87920000D01*
X132657585Y-88130330D01*
X132332729Y-88616511D01*
X132218655Y-89190000D01*
X132332729Y-89763489D01*
X132657585Y-90249670D01*
X132972366Y-90460000D01*
X132657585Y-90670330D01*
X132648548Y-90683854D01*
X131105847Y-89141153D01*
X130850363Y-88970445D01*
X130549000Y-88910499D01*
X130548995Y-88910500D01*
X128386194Y-88910500D01*
X125568847Y-86093153D01*
X125313363Y-85922445D01*
X125012000Y-85862499D01*
X125011995Y-85862500D01*
X123898273Y-85862500D01*
X123716415Y-85590330D01*
X123230234Y-85265474D01*
X122656745Y-85151400D01*
X122287255Y-85151400D01*
X121713766Y-85265474D01*
X121227585Y-85590330D01*
X121037000Y-85875560D01*
X121037000Y-79315750D01*
X125917000Y-79315750D01*
X125917000Y-80106310D01*
X126013673Y-80339699D01*
X126192302Y-80518327D01*
X126312251Y-80568012D01*
X126209086Y-80670997D01*
X125967276Y-81253341D01*
X125966725Y-81883893D01*
X126207519Y-82466657D01*
X126652997Y-82912914D01*
X127235341Y-83154724D01*
X127865893Y-83155275D01*
X127977476Y-83109170D01*
X128034500Y-83166193D01*
X128034500Y-85206867D01*
X127897345Y-85263538D01*
X127437154Y-85722927D01*
X127187794Y-86323453D01*
X127187226Y-86973694D01*
X127435538Y-87574655D01*
X127894927Y-88034846D01*
X128495453Y-88284206D01*
X129145694Y-88284774D01*
X129746655Y-88036462D01*
X130206846Y-87577073D01*
X130456206Y-86976547D01*
X130456774Y-86326306D01*
X130208462Y-85725345D01*
X129749073Y-85265154D01*
X129609500Y-85207198D01*
X129609500Y-82840000D01*
X129549555Y-82538637D01*
X129378847Y-82283153D01*
X129378844Y-82283151D01*
X129091431Y-81995737D01*
X129136724Y-81886659D01*
X129137275Y-81256107D01*
X128896481Y-80673343D01*
X128791455Y-80568133D01*
X128911698Y-80518327D01*
X129090327Y-80339699D01*
X129187000Y-80106310D01*
X129187000Y-79315750D01*
X129028250Y-79157000D01*
X127679000Y-79157000D01*
X127679000Y-79177000D01*
X127425000Y-79177000D01*
X127425000Y-79157000D01*
X126075750Y-79157000D01*
X125917000Y-79315750D01*
X121037000Y-79315750D01*
X121037000Y-77397266D01*
X121246339Y-77397266D01*
X121558487Y-77845932D01*
X122801343Y-78364331D01*
X124147976Y-78367648D01*
X125154365Y-77953690D01*
X125917000Y-77953690D01*
X125917000Y-78744250D01*
X126075750Y-78903000D01*
X127425000Y-78903000D01*
X127425000Y-77603750D01*
X127679000Y-77603750D01*
X127679000Y-78903000D01*
X129028250Y-78903000D01*
X129187000Y-78744250D01*
X129187000Y-77953690D01*
X129090327Y-77720301D01*
X128911698Y-77541673D01*
X128678309Y-77445000D01*
X127837750Y-77445000D01*
X127679000Y-77603750D01*
X127425000Y-77603750D01*
X127266250Y-77445000D01*
X126425691Y-77445000D01*
X126192302Y-77541673D01*
X126013673Y-77720301D01*
X125917000Y-77953690D01*
X125154365Y-77953690D01*
X125393371Y-77855380D01*
X125407513Y-77845932D01*
X125719661Y-77397266D01*
X164934339Y-77397266D01*
X165246487Y-77845932D01*
X166489343Y-78364331D01*
X167835976Y-78367648D01*
X169081371Y-77855380D01*
X169095513Y-77845932D01*
X169407661Y-77397266D01*
X167171000Y-75160605D01*
X164934339Y-77397266D01*
X125719661Y-77397266D01*
X123483000Y-75160605D01*
X121246339Y-77397266D01*
X121037000Y-77397266D01*
X121037000Y-77196974D01*
X121066734Y-77217661D01*
X123303395Y-74981000D01*
X123662605Y-74981000D01*
X125899266Y-77217661D01*
X126347932Y-76905513D01*
X126866331Y-75662657D01*
X126869648Y-74316024D01*
X126357380Y-73070629D01*
X126347932Y-73056487D01*
X125899266Y-72744339D01*
X123662605Y-74981000D01*
X123303395Y-74981000D01*
X121066734Y-72744339D01*
X121037000Y-72765026D01*
X121037000Y-72523000D01*
X121275374Y-72523000D01*
X121246339Y-72564734D01*
X121246339Y-72564734D01*
G37*
X121246339Y-72564734D02*
X123483000Y-74801395D01*
X125719661Y-72564734D01*
X125690626Y-72523000D01*
X136281928Y-72523000D01*
X136315004Y-76491059D01*
X136323685Y-76536159D01*
X136350965Y-76578553D01*
X136392590Y-76606994D01*
X136442000Y-76617000D01*
X154222000Y-76617000D01*
X154269144Y-76607926D01*
X154311309Y-76580293D01*
X154339402Y-76538433D01*
X154348996Y-76488941D01*
X154341970Y-75645976D01*
X163784352Y-75645976D01*
X164296620Y-76891371D01*
X164306068Y-76905513D01*
X164754734Y-77217661D01*
X166991395Y-74981000D01*
X164754734Y-72744339D01*
X164306068Y-73056487D01*
X163787669Y-74299343D01*
X163784352Y-75645976D01*
X154341970Y-75645976D01*
X154315938Y-72523000D01*
X164963374Y-72523000D01*
X164934339Y-72564734D01*
X167171000Y-74801395D01*
X169407661Y-72564734D01*
X169378626Y-72523000D01*
X169617000Y-72523000D01*
X169617000Y-72765026D01*
X169587266Y-72744339D01*
X167350605Y-74981000D01*
X169587266Y-77217661D01*
X169617000Y-77196974D01*
X169617000Y-85860594D01*
X169436415Y-85590330D01*
X168950234Y-85265474D01*
X168376745Y-85151400D01*
X168007255Y-85151400D01*
X167433766Y-85265474D01*
X166947585Y-85590330D01*
X166765727Y-85862500D01*
X166160000Y-85862500D01*
X165858636Y-85922445D01*
X165756304Y-85990821D01*
X165603153Y-86093153D01*
X165603151Y-86093156D01*
X163293806Y-88402500D01*
X161406193Y-88402500D01*
X161126315Y-88122622D01*
X161515453Y-88284206D01*
X162165694Y-88284774D01*
X162766655Y-88036462D01*
X163226846Y-87577073D01*
X163476206Y-86976547D01*
X163476774Y-86326306D01*
X163228462Y-85725345D01*
X162769073Y-85265154D01*
X162629500Y-85207198D01*
X162629500Y-83166194D01*
X162686263Y-83109431D01*
X162795341Y-83154724D01*
X163425893Y-83155275D01*
X164008657Y-82914481D01*
X164454914Y-82469003D01*
X164696724Y-81886659D01*
X164697275Y-81256107D01*
X164456481Y-80673343D01*
X164351455Y-80568133D01*
X164471698Y-80518327D01*
X164650327Y-80339699D01*
X164747000Y-80106310D01*
X164747000Y-79315750D01*
X164588250Y-79157000D01*
X163239000Y-79157000D01*
X163239000Y-79177000D01*
X162985000Y-79177000D01*
X162985000Y-79157000D01*
X161635750Y-79157000D01*
X161477000Y-79315750D01*
X161477000Y-80106310D01*
X161573673Y-80339699D01*
X161752302Y-80518327D01*
X161872251Y-80568012D01*
X161769086Y-80670997D01*
X161527276Y-81253341D01*
X161526725Y-81883893D01*
X161572830Y-81995476D01*
X161285153Y-82283153D01*
X161114445Y-82538637D01*
X161054499Y-82840000D01*
X161054500Y-82840005D01*
X161054500Y-85206867D01*
X160917345Y-85263538D01*
X160470500Y-85709604D01*
X160470500Y-80630005D01*
X160470501Y-80630000D01*
X160410555Y-80328637D01*
X160306562Y-80173000D01*
X160239847Y-80073153D01*
X160239844Y-80073151D01*
X158639847Y-78473153D01*
X158384363Y-78302445D01*
X158204409Y-78266649D01*
X158006415Y-77970330D01*
X157981512Y-77953690D01*
X161477000Y-77953690D01*
X161477000Y-78744250D01*
X161635750Y-78903000D01*
X162985000Y-78903000D01*
X162985000Y-77603750D01*
X163239000Y-77603750D01*
X163239000Y-78903000D01*
X164588250Y-78903000D01*
X164747000Y-78744250D01*
X164747000Y-77953690D01*
X164650327Y-77720301D01*
X164471698Y-77541673D01*
X164238309Y-77445000D01*
X163397750Y-77445000D01*
X163239000Y-77603750D01*
X162985000Y-77603750D01*
X162826250Y-77445000D01*
X161985691Y-77445000D01*
X161752302Y-77541673D01*
X161573673Y-77720301D01*
X161477000Y-77953690D01*
X157981512Y-77953690D01*
X157520234Y-77645474D01*
X156946745Y-77531400D01*
X156577255Y-77531400D01*
X156003766Y-77645474D01*
X155517585Y-77970330D01*
X155192729Y-78456511D01*
X155078655Y-79030000D01*
X155192729Y-79603489D01*
X155517585Y-80089670D01*
X155832366Y-80300000D01*
X155517585Y-80510330D01*
X155192729Y-80996511D01*
X155078655Y-81570000D01*
X155192729Y-82143489D01*
X155517585Y-82629670D01*
X155832366Y-82840000D01*
X155517585Y-83050330D01*
X155192729Y-83536511D01*
X155078655Y-84110000D01*
X155192729Y-84683489D01*
X155517585Y-85169670D01*
X155832366Y-85380000D01*
X155517585Y-85590330D01*
X155192729Y-86076511D01*
X155078655Y-86650000D01*
X155192729Y-87223489D01*
X155517585Y-87709670D01*
X155832366Y-87920000D01*
X155517585Y-88130330D01*
X155192729Y-88616511D01*
X155078655Y-89190000D01*
X155185350Y-89726390D01*
X140632084Y-89726390D01*
X139118498Y-88212804D01*
X139290453Y-88284206D01*
X139940694Y-88284774D01*
X140541655Y-88036462D01*
X141001846Y-87577073D01*
X141251206Y-86976547D01*
X141251208Y-86973694D01*
X143697226Y-86973694D01*
X143945538Y-87574655D01*
X144404927Y-88034846D01*
X145005453Y-88284206D01*
X145655694Y-88284774D01*
X146256655Y-88036462D01*
X146716846Y-87577073D01*
X146966206Y-86976547D01*
X146966774Y-86326306D01*
X146718462Y-85725345D01*
X146259073Y-85265154D01*
X146119500Y-85207198D01*
X146119500Y-84182194D01*
X146396844Y-83904849D01*
X146396847Y-83904847D01*
X146499179Y-83751696D01*
X146567555Y-83649364D01*
X146627500Y-83348000D01*
X146627500Y-83318046D01*
X146680153Y-83396847D01*
X149469704Y-86186398D01*
X149412794Y-86323453D01*
X149412226Y-86973694D01*
X149660538Y-87574655D01*
X150119927Y-88034846D01*
X150720453Y-88284206D01*
X151370694Y-88284774D01*
X151971655Y-88036462D01*
X152431846Y-87577073D01*
X152681206Y-86976547D01*
X152681774Y-86326306D01*
X152433462Y-85725345D01*
X151974073Y-85265154D01*
X151373547Y-85015794D01*
X150723306Y-85015226D01*
X150583632Y-85072938D01*
X148024500Y-82513806D01*
X148024500Y-81418646D01*
X148158603Y-81217947D01*
X148245000Y-80783601D01*
X148245000Y-79816399D01*
X148158603Y-79382053D01*
X147912566Y-79013833D01*
X147544346Y-78767796D01*
X147110000Y-78681399D01*
X146675654Y-78767796D01*
X146475000Y-78901869D01*
X146274346Y-78767796D01*
X145840000Y-78681399D01*
X145405654Y-78767796D01*
X145376628Y-78787190D01*
X145196310Y-78712500D01*
X144855750Y-78712500D01*
X144697000Y-78871250D01*
X144697000Y-80173000D01*
X144705000Y-80173000D01*
X144705000Y-80427000D01*
X144697000Y-80427000D01*
X144697000Y-81728750D01*
X144855750Y-81887500D01*
X145052500Y-81887500D01*
X145052500Y-83021807D01*
X144775153Y-83299153D01*
X144604445Y-83554637D01*
X144544499Y-83856000D01*
X144544500Y-83856005D01*
X144544500Y-85206867D01*
X144407345Y-85263538D01*
X143947154Y-85722927D01*
X143697794Y-86323453D01*
X143697226Y-86973694D01*
X141251208Y-86973694D01*
X141251774Y-86326306D01*
X141194062Y-86186632D01*
X143983844Y-83396849D01*
X143983847Y-83396847D01*
X144154555Y-83141363D01*
X144169029Y-83068600D01*
X144214501Y-82840000D01*
X144214500Y-82839995D01*
X144214500Y-81887500D01*
X144284250Y-81887500D01*
X144443000Y-81728750D01*
X144443000Y-80427000D01*
X144435000Y-80427000D01*
X144435000Y-80173000D01*
X144443000Y-80173000D01*
X144443000Y-78871250D01*
X144284250Y-78712500D01*
X143943690Y-78712500D01*
X143763372Y-78787190D01*
X143734346Y-78767796D01*
X143300000Y-78681399D01*
X142865654Y-78767796D01*
X142497434Y-79013833D01*
X142251397Y-79382053D01*
X142165000Y-79816399D01*
X142165000Y-80783601D01*
X142251397Y-81217947D01*
X142497434Y-81586167D01*
X142639500Y-81681093D01*
X142639500Y-82513807D01*
X140080602Y-85072704D01*
X139943547Y-85015794D01*
X139293306Y-85015226D01*
X138692345Y-85263538D01*
X138232154Y-85722927D01*
X137991500Y-86302487D01*
X137991500Y-83551005D01*
X137991501Y-83551000D01*
X137931555Y-83249637D01*
X137760847Y-82994153D01*
X135779847Y-81013153D01*
X135524363Y-80842445D01*
X135344409Y-80806649D01*
X135146415Y-80510330D01*
X134831634Y-80300000D01*
X135146415Y-80089670D01*
X135471271Y-79603489D01*
X135585345Y-79030000D01*
X135471271Y-78456511D01*
X135146415Y-77970330D01*
X134660234Y-77645474D01*
X134086745Y-77531400D01*
X133717255Y-77531400D01*
X133143766Y-77645474D01*
X132657585Y-77970330D01*
X132332729Y-78456511D01*
X132218655Y-79030000D01*
X132332729Y-79603489D01*
X132657585Y-80089670D01*
X132972366Y-80300000D01*
X132657585Y-80510330D01*
X132332729Y-80996511D01*
X132218655Y-81570000D01*
X132332729Y-82143489D01*
X132657585Y-82629670D01*
X132972366Y-82840000D01*
X132657585Y-83050330D01*
X132332729Y-83536511D01*
X132218655Y-84110000D01*
X132332729Y-84683489D01*
X132657585Y-85169670D01*
X132972366Y-85380000D01*
X132657585Y-85590330D01*
X132332729Y-86076511D01*
X132218655Y-86650000D01*
X132332729Y-87223489D01*
X132657585Y-87709670D01*
X132972366Y-87920000D01*
X132657585Y-88130330D01*
X132332729Y-88616511D01*
X132218655Y-89190000D01*
X132332729Y-89763489D01*
X132657585Y-90249670D01*
X132972366Y-90460000D01*
X132657585Y-90670330D01*
X132648548Y-90683854D01*
X131105847Y-89141153D01*
X130850363Y-88970445D01*
X130549000Y-88910499D01*
X130548995Y-88910500D01*
X128386194Y-88910500D01*
X125568847Y-86093153D01*
X125313363Y-85922445D01*
X125012000Y-85862499D01*
X125011995Y-85862500D01*
X123898273Y-85862500D01*
X123716415Y-85590330D01*
X123230234Y-85265474D01*
X122656745Y-85151400D01*
X122287255Y-85151400D01*
X121713766Y-85265474D01*
X121227585Y-85590330D01*
X121037000Y-85875560D01*
X121037000Y-79315750D01*
X125917000Y-79315750D01*
X125917000Y-80106310D01*
X126013673Y-80339699D01*
X126192302Y-80518327D01*
X126312251Y-80568012D01*
X126209086Y-80670997D01*
X125967276Y-81253341D01*
X125966725Y-81883893D01*
X126207519Y-82466657D01*
X126652997Y-82912914D01*
X127235341Y-83154724D01*
X127865893Y-83155275D01*
X127977476Y-83109170D01*
X128034500Y-83166193D01*
X128034500Y-85206867D01*
X127897345Y-85263538D01*
X127437154Y-85722927D01*
X127187794Y-86323453D01*
X127187226Y-86973694D01*
X127435538Y-87574655D01*
X127894927Y-88034846D01*
X128495453Y-88284206D01*
X129145694Y-88284774D01*
X129746655Y-88036462D01*
X130206846Y-87577073D01*
X130456206Y-86976547D01*
X130456774Y-86326306D01*
X130208462Y-85725345D01*
X129749073Y-85265154D01*
X129609500Y-85207198D01*
X129609500Y-82840000D01*
X129549555Y-82538637D01*
X129378847Y-82283153D01*
X129378844Y-82283151D01*
X129091431Y-81995737D01*
X129136724Y-81886659D01*
X129137275Y-81256107D01*
X128896481Y-80673343D01*
X128791455Y-80568133D01*
X128911698Y-80518327D01*
X129090327Y-80339699D01*
X129187000Y-80106310D01*
X129187000Y-79315750D01*
X129028250Y-79157000D01*
X127679000Y-79157000D01*
X127679000Y-79177000D01*
X127425000Y-79177000D01*
X127425000Y-79157000D01*
X126075750Y-79157000D01*
X125917000Y-79315750D01*
X121037000Y-79315750D01*
X121037000Y-77397266D01*
X121246339Y-77397266D01*
X121558487Y-77845932D01*
X122801343Y-78364331D01*
X124147976Y-78367648D01*
X125154365Y-77953690D01*
X125917000Y-77953690D01*
X125917000Y-78744250D01*
X126075750Y-78903000D01*
X127425000Y-78903000D01*
X127425000Y-77603750D01*
X127679000Y-77603750D01*
X127679000Y-78903000D01*
X129028250Y-78903000D01*
X129187000Y-78744250D01*
X129187000Y-77953690D01*
X129090327Y-77720301D01*
X128911698Y-77541673D01*
X128678309Y-77445000D01*
X127837750Y-77445000D01*
X127679000Y-77603750D01*
X127425000Y-77603750D01*
X127266250Y-77445000D01*
X126425691Y-77445000D01*
X126192302Y-77541673D01*
X126013673Y-77720301D01*
X125917000Y-77953690D01*
X125154365Y-77953690D01*
X125393371Y-77855380D01*
X125407513Y-77845932D01*
X125719661Y-77397266D01*
X164934339Y-77397266D01*
X165246487Y-77845932D01*
X166489343Y-78364331D01*
X167835976Y-78367648D01*
X169081371Y-77855380D01*
X169095513Y-77845932D01*
X169407661Y-77397266D01*
X167171000Y-75160605D01*
X164934339Y-77397266D01*
X125719661Y-77397266D01*
X123483000Y-75160605D01*
X121246339Y-77397266D01*
X121037000Y-77397266D01*
X121037000Y-77196974D01*
X121066734Y-77217661D01*
X123303395Y-74981000D01*
X123662605Y-74981000D01*
X125899266Y-77217661D01*
X126347932Y-76905513D01*
X126866331Y-75662657D01*
X126869648Y-74316024D01*
X126357380Y-73070629D01*
X126347932Y-73056487D01*
X125899266Y-72744339D01*
X123662605Y-74981000D01*
X123303395Y-74981000D01*
X121066734Y-72744339D01*
X121037000Y-72765026D01*
X121037000Y-72523000D01*
X121275374Y-72523000D01*
X121246339Y-72564734D01*
M02*
