%TF.GenerationSoftware,KiCad,Pcbnew,4.0.1-stable*%
%TF.CreationDate,2016-04-15T23:13:47+01:00*%
%TF.ProjectId,basic,62617369632E6B696361645F70636200,rev?*%
%TF.FileFunction,Legend,Bot*%
%FSLAX46Y46*%
G04 Gerber Fmt 4.6, Leading zero omitted, Abs format (unit mm)*
G04 Created by KiCad (PCBNEW 4.0.1-stable) date 15/04/2016 23:13:47*
%MOMM*%
G01*
G04 APERTURE LIST*
%ADD10C,0.100000*%
%ADD11C,0.150000*%
%ADD12C,0.300000*%
%ADD13C,0.200000*%
%ADD14C,0.010000*%
%ADD15R,2.400000X2.300000*%
%ADD16C,2.300000*%
%ADD17C,5.900000*%
%ADD18C,1.797000*%
%ADD19R,2.432000X2.127200*%
%ADD20O,2.432000X2.127200*%
%ADD21C,2.398980*%
%ADD22O,1.400000X2.305000*%
%ADD23R,1.400000X2.305000*%
G04 APERTURE END LIST*
D10*
D11*
X149713977Y-112756381D02*
X149588977Y-111756381D01*
X149350882Y-111756381D01*
X149213976Y-111804000D01*
X149130643Y-111899238D01*
X149094928Y-111994476D01*
X149071119Y-112184952D01*
X149088976Y-112327810D01*
X149160405Y-112518286D01*
X149219928Y-112613524D01*
X149327071Y-112708762D01*
X149475882Y-112756381D01*
X149713977Y-112756381D01*
X148327071Y-112708762D02*
X148428262Y-112756381D01*
X148618739Y-112756381D01*
X148708024Y-112708762D01*
X148743738Y-112613524D01*
X148696119Y-112232571D01*
X148636596Y-112137333D01*
X148535405Y-112089714D01*
X148344928Y-112089714D01*
X148255643Y-112137333D01*
X148219928Y-112232571D01*
X148231833Y-112327810D01*
X148719929Y-112423048D01*
X147773500Y-112089714D02*
X147856834Y-112756381D01*
X147785405Y-112184952D02*
X147731834Y-112137333D01*
X147630643Y-112089714D01*
X147487785Y-112089714D01*
X147398500Y-112137333D01*
X147362785Y-112232571D01*
X147428262Y-112756381D01*
X146952072Y-112756381D02*
X146827072Y-111756381D01*
X146874691Y-112137333D02*
X146773500Y-112089714D01*
X146583023Y-112089714D01*
X146493738Y-112137333D01*
X146452071Y-112184952D01*
X146416357Y-112280190D01*
X146452071Y-112565905D01*
X146511595Y-112661143D01*
X146565166Y-112708762D01*
X146666357Y-112756381D01*
X146856834Y-112756381D01*
X146946119Y-112708762D01*
X146047310Y-112756381D02*
X145963976Y-112089714D01*
X145922310Y-111756381D02*
X145975881Y-111804000D01*
X145934214Y-111851619D01*
X145880643Y-111804000D01*
X145922310Y-111756381D01*
X145934214Y-111851619D01*
X145630643Y-112089714D02*
X145249691Y-112089714D01*
X145446120Y-111756381D02*
X145553262Y-112613524D01*
X145517548Y-112708762D01*
X145428263Y-112756381D01*
X145333025Y-112756381D01*
X144249690Y-112089714D02*
X144094929Y-112756381D01*
X143773499Y-112089714D01*
X142952071Y-112756381D02*
X143523500Y-112756381D01*
X143237786Y-112756381D02*
X143112786Y-111756381D01*
X143225881Y-111899238D01*
X143333023Y-111994476D01*
X143434214Y-112042095D01*
X142511595Y-112661143D02*
X142469928Y-112708762D01*
X142523500Y-112756381D01*
X142565166Y-112708762D01*
X142511595Y-112661143D01*
X142523500Y-112756381D01*
X141731834Y-111756381D02*
X141636595Y-111756381D01*
X141547309Y-111804000D01*
X141505642Y-111851619D01*
X141469928Y-111946857D01*
X141446119Y-112137333D01*
X141475881Y-112375429D01*
X141547309Y-112565905D01*
X141606833Y-112661143D01*
X141660404Y-112708762D01*
X141761595Y-112756381D01*
X141856834Y-112756381D01*
X141946119Y-112708762D01*
X141987786Y-112661143D01*
X142023500Y-112565905D01*
X142047310Y-112375429D01*
X142017548Y-112137333D01*
X141946119Y-111946857D01*
X141886595Y-111851619D01*
X141833024Y-111804000D01*
X141731834Y-111756381D01*
D12*
X149899429Y-91462571D02*
X149899429Y-89962571D01*
X149042286Y-91462571D01*
X149042286Y-89962571D01*
X148113714Y-91462571D02*
X148256572Y-91391143D01*
X148328000Y-91319714D01*
X148399429Y-91176857D01*
X148399429Y-90748286D01*
X148328000Y-90605429D01*
X148256572Y-90534000D01*
X148113714Y-90462571D01*
X147899429Y-90462571D01*
X147756572Y-90534000D01*
X147685143Y-90605429D01*
X147613714Y-90748286D01*
X147613714Y-91176857D01*
X147685143Y-91319714D01*
X147756572Y-91391143D01*
X147899429Y-91462571D01*
X148113714Y-91462571D01*
X146328000Y-91462571D02*
X146328000Y-89962571D01*
X146328000Y-91391143D02*
X146470857Y-91462571D01*
X146756571Y-91462571D01*
X146899429Y-91391143D01*
X146970857Y-91319714D01*
X147042286Y-91176857D01*
X147042286Y-90748286D01*
X146970857Y-90605429D01*
X146899429Y-90534000D01*
X146756571Y-90462571D01*
X146470857Y-90462571D01*
X146328000Y-90534000D01*
X145042286Y-91391143D02*
X145185143Y-91462571D01*
X145470857Y-91462571D01*
X145613714Y-91391143D01*
X145685143Y-91248286D01*
X145685143Y-90676857D01*
X145613714Y-90534000D01*
X145470857Y-90462571D01*
X145185143Y-90462571D01*
X145042286Y-90534000D01*
X144970857Y-90676857D01*
X144970857Y-90819714D01*
X145685143Y-90962571D01*
X144328000Y-91462571D02*
X144328000Y-89962571D01*
X143828000Y-91034000D01*
X143328000Y-89962571D01*
X143328000Y-91462571D01*
X141756571Y-91319714D02*
X141828000Y-91391143D01*
X142042286Y-91462571D01*
X142185143Y-91462571D01*
X142399428Y-91391143D01*
X142542286Y-91248286D01*
X142613714Y-91105429D01*
X142685143Y-90819714D01*
X142685143Y-90605429D01*
X142613714Y-90319714D01*
X142542286Y-90176857D01*
X142399428Y-90034000D01*
X142185143Y-89962571D01*
X142042286Y-89962571D01*
X141828000Y-90034000D01*
X141756571Y-90105429D01*
X141113714Y-89962571D02*
X141113714Y-91176857D01*
X141042286Y-91319714D01*
X140970857Y-91391143D01*
X140828000Y-91462571D01*
X140542286Y-91462571D01*
X140399428Y-91391143D01*
X140328000Y-91319714D01*
X140256571Y-91176857D01*
X140256571Y-89962571D01*
X149685142Y-92862571D02*
X149685142Y-94076857D01*
X149756571Y-94219714D01*
X149827999Y-94291143D01*
X149970856Y-94362571D01*
X150185142Y-94362571D01*
X150327999Y-94291143D01*
X149685142Y-93791143D02*
X149827999Y-93862571D01*
X150113713Y-93862571D01*
X150256571Y-93791143D01*
X150327999Y-93719714D01*
X150399428Y-93576857D01*
X150399428Y-93148286D01*
X150327999Y-93005429D01*
X150256571Y-92934000D01*
X150113713Y-92862571D01*
X149827999Y-92862571D01*
X149685142Y-92934000D01*
X148756570Y-93862571D02*
X148899428Y-93791143D01*
X148970856Y-93719714D01*
X149042285Y-93576857D01*
X149042285Y-93148286D01*
X148970856Y-93005429D01*
X148899428Y-92934000D01*
X148756570Y-92862571D01*
X148542285Y-92862571D01*
X148399428Y-92934000D01*
X148327999Y-93005429D01*
X148256570Y-93148286D01*
X148256570Y-93576857D01*
X148327999Y-93719714D01*
X148399428Y-93791143D01*
X148542285Y-93862571D01*
X148756570Y-93862571D01*
X147042285Y-93791143D02*
X147185142Y-93862571D01*
X147470856Y-93862571D01*
X147613713Y-93791143D01*
X147685142Y-93648286D01*
X147685142Y-93076857D01*
X147613713Y-92934000D01*
X147470856Y-92862571D01*
X147185142Y-92862571D01*
X147042285Y-92934000D01*
X146970856Y-93076857D01*
X146970856Y-93219714D01*
X147685142Y-93362571D01*
X146399428Y-93791143D02*
X146256571Y-93862571D01*
X145970856Y-93862571D01*
X145827999Y-93791143D01*
X145756571Y-93648286D01*
X145756571Y-93576857D01*
X145827999Y-93434000D01*
X145970856Y-93362571D01*
X146185142Y-93362571D01*
X146327999Y-93291143D01*
X146399428Y-93148286D01*
X146399428Y-93076857D01*
X146327999Y-92934000D01*
X146185142Y-92862571D01*
X145970856Y-92862571D01*
X145827999Y-92934000D01*
X143970856Y-93862571D02*
X143970856Y-92362571D01*
X143327999Y-93862571D02*
X143327999Y-93076857D01*
X143399428Y-92934000D01*
X143542285Y-92862571D01*
X143756570Y-92862571D01*
X143899428Y-92934000D01*
X143970856Y-93005429D01*
X142042285Y-93791143D02*
X142185142Y-93862571D01*
X142470856Y-93862571D01*
X142613713Y-93791143D01*
X142685142Y-93648286D01*
X142685142Y-93076857D01*
X142613713Y-92934000D01*
X142470856Y-92862571D01*
X142185142Y-92862571D01*
X142042285Y-92934000D01*
X141970856Y-93076857D01*
X141970856Y-93219714D01*
X142685142Y-93362571D01*
X141327999Y-93862571D02*
X141327999Y-92862571D01*
X141327999Y-93148286D02*
X141256571Y-93005429D01*
X141185142Y-92934000D01*
X141042285Y-92862571D01*
X140899428Y-92862571D01*
X139828000Y-93791143D02*
X139970857Y-93862571D01*
X140256571Y-93862571D01*
X140399428Y-93791143D01*
X140470857Y-93648286D01*
X140470857Y-93076857D01*
X140399428Y-92934000D01*
X140256571Y-92862571D01*
X139970857Y-92862571D01*
X139828000Y-92934000D01*
X139756571Y-93076857D01*
X139756571Y-93219714D01*
X140470857Y-93362571D01*
D13*
X153775631Y-119670000D02*
G75*
G03X153775631Y-119670000I-1077631J0D01*
G01*
X138789631Y-119670000D02*
G75*
G03X138789631Y-119670000I-1077631J0D01*
G01*
X142792000Y-72426000D02*
X140252000Y-72426000D01*
X142792000Y-72680000D02*
X142792000Y-72426000D01*
X142792000Y-74712000D02*
X142792000Y-72680000D01*
X143808000Y-74712000D02*
X142792000Y-74712000D01*
X143808000Y-72426000D02*
X143808000Y-74712000D01*
X144824000Y-72426000D02*
X143808000Y-72426000D01*
X144824000Y-72680000D02*
X144824000Y-72426000D01*
X144824000Y-74712000D02*
X144824000Y-72680000D01*
X145840000Y-74712000D02*
X144824000Y-74712000D01*
X145840000Y-72426000D02*
X145840000Y-74712000D01*
X146856000Y-72426000D02*
X145840000Y-72426000D01*
X146856000Y-72680000D02*
X146856000Y-72426000D01*
X146856000Y-74712000D02*
X146856000Y-72680000D01*
X147872000Y-74712000D02*
X146856000Y-74712000D01*
X147872000Y-72426000D02*
X147872000Y-74712000D01*
X148888000Y-72426000D02*
X147872000Y-72426000D01*
X148888000Y-76998000D02*
X148888000Y-72426000D01*
D11*
X146593905Y-118868381D02*
X146593905Y-119677905D01*
X146546286Y-119773143D01*
X146498667Y-119820762D01*
X146403429Y-119868381D01*
X146212952Y-119868381D01*
X146117714Y-119820762D01*
X146070095Y-119773143D01*
X146022476Y-119677905D01*
X146022476Y-118868381D01*
X145593905Y-119820762D02*
X145451048Y-119868381D01*
X145212952Y-119868381D01*
X145117714Y-119820762D01*
X145070095Y-119773143D01*
X145022476Y-119677905D01*
X145022476Y-119582667D01*
X145070095Y-119487429D01*
X145117714Y-119439810D01*
X145212952Y-119392190D01*
X145403429Y-119344571D01*
X145498667Y-119296952D01*
X145546286Y-119249333D01*
X145593905Y-119154095D01*
X145593905Y-119058857D01*
X145546286Y-118963619D01*
X145498667Y-118916000D01*
X145403429Y-118868381D01*
X145165333Y-118868381D01*
X145022476Y-118916000D01*
X144260571Y-119344571D02*
X144117714Y-119392190D01*
X144070095Y-119439810D01*
X144022476Y-119535048D01*
X144022476Y-119677905D01*
X144070095Y-119773143D01*
X144117714Y-119820762D01*
X144212952Y-119868381D01*
X144593905Y-119868381D01*
X144593905Y-118868381D01*
X144260571Y-118868381D01*
X144165333Y-118916000D01*
X144117714Y-118963619D01*
X144070095Y-119058857D01*
X144070095Y-119154095D01*
X144117714Y-119249333D01*
X144165333Y-119296952D01*
X144260571Y-119344571D01*
X144593905Y-119344571D01*
D13*
X150158000Y-117892000D02*
X150158000Y-121956000D01*
X149142000Y-116876000D02*
X150158000Y-117892000D01*
X141522000Y-116876000D02*
X149142000Y-116876000D01*
X140506000Y-117892000D02*
X141522000Y-116876000D01*
X140506000Y-121702000D02*
X140506000Y-117892000D01*
D14*
G36*
X139940506Y-106942188D02*
X139933549Y-107137292D01*
X139942634Y-107203913D01*
X139965013Y-107512909D01*
X139952711Y-107855879D01*
X139943472Y-107936859D01*
X139889764Y-108328698D01*
X139682536Y-108192917D01*
X139523876Y-108107360D01*
X139438193Y-108094251D01*
X139447524Y-108186076D01*
X139511799Y-108380860D01*
X139572539Y-108531369D01*
X139674250Y-108816156D01*
X139735710Y-109079888D01*
X139744000Y-109173426D01*
X139744000Y-109415481D01*
X139160596Y-109366570D01*
X138701940Y-109345700D01*
X138379680Y-109376780D01*
X138167288Y-109465616D01*
X138041712Y-109611399D01*
X137992828Y-109755312D01*
X138050157Y-109877601D01*
X138161376Y-109983131D01*
X138513628Y-110181859D01*
X138928039Y-110255103D01*
X139353969Y-110203669D01*
X139740778Y-110028367D01*
X139836104Y-109956415D01*
X140093485Y-109739843D01*
X140913576Y-109878658D01*
X141246708Y-109935573D01*
X141707761Y-110015084D01*
X142257885Y-110110453D01*
X142858227Y-110214940D01*
X143469937Y-110321806D01*
X143638666Y-110351361D01*
X144661197Y-110527415D01*
X145537056Y-110670584D01*
X146285261Y-110782924D01*
X146924829Y-110866494D01*
X147474779Y-110923349D01*
X147954126Y-110955548D01*
X148381890Y-110965146D01*
X148777087Y-110954202D01*
X149040980Y-110935727D01*
X149658361Y-110853086D01*
X150191562Y-110723150D01*
X150605991Y-110555281D01*
X150733313Y-110477825D01*
X150894115Y-110285208D01*
X150919019Y-110059886D01*
X150827588Y-109836285D01*
X150639383Y-109648828D01*
X150373966Y-109531941D01*
X150183349Y-109510000D01*
X149898328Y-109541567D01*
X149693984Y-109624144D01*
X149607078Y-109739542D01*
X149613805Y-109791800D01*
X149589892Y-109942329D01*
X149421451Y-110088735D01*
X149132853Y-110214754D01*
X148882114Y-110280153D01*
X148291313Y-110359162D01*
X147545845Y-110386904D01*
X146652292Y-110363806D01*
X145617238Y-110290295D01*
X144447264Y-110166799D01*
X143148952Y-109993744D01*
X142175688Y-109844696D01*
X141530690Y-109741274D01*
X141183873Y-109684942D01*
X139659333Y-109684942D01*
X139583148Y-109809483D01*
X139387479Y-109910594D01*
X139121656Y-109978112D01*
X138835009Y-110001870D01*
X138576865Y-109971703D01*
X138468434Y-109930354D01*
X138326161Y-109794636D01*
X138333042Y-109651508D01*
X138480016Y-109550423D01*
X138652207Y-109528605D01*
X138902439Y-109532908D01*
X139179343Y-109557473D01*
X139431549Y-109596440D01*
X139607689Y-109643950D01*
X139659333Y-109684942D01*
X141183873Y-109684942D01*
X141033558Y-109660527D01*
X140665108Y-109597400D01*
X140406160Y-109546841D01*
X140237530Y-109503793D01*
X140140037Y-109463205D01*
X140094498Y-109420023D01*
X140081732Y-109369191D01*
X140082555Y-109305658D01*
X140082666Y-109293261D01*
X140051701Y-109059426D01*
X140000095Y-108880511D01*
X139949238Y-108729499D01*
X139967622Y-108677816D01*
X140081306Y-108721575D01*
X140284488Y-108838076D01*
X140585232Y-108959830D01*
X140886636Y-108991446D01*
X141140232Y-108935599D01*
X141297553Y-108794969D01*
X141303816Y-108781770D01*
X141354806Y-108684523D01*
X141421018Y-108658247D01*
X141544519Y-108709154D01*
X141767372Y-108843457D01*
X141781659Y-108852337D01*
X142086509Y-109006935D01*
X142337630Y-109068792D01*
X142507524Y-109036520D01*
X142568692Y-108908735D01*
X142567882Y-108891975D01*
X142581750Y-108778932D01*
X142610216Y-108769337D01*
X143056791Y-108990528D01*
X143375775Y-109101741D01*
X143568082Y-109103270D01*
X143596778Y-109086297D01*
X143663704Y-108951612D01*
X143617892Y-108740576D01*
X143454452Y-108439796D01*
X143256081Y-108153173D01*
X143108085Y-107932574D01*
X143023255Y-107767817D01*
X143016216Y-107705339D01*
X143140270Y-107691698D01*
X143333140Y-107806485D01*
X143575772Y-108033377D01*
X143849118Y-108356050D01*
X143977987Y-108529437D01*
X144202063Y-108834550D01*
X144363333Y-109024743D01*
X144492187Y-109126478D01*
X144619013Y-109166216D01*
X144715193Y-109171333D01*
X144919315Y-109153878D01*
X144980956Y-109082077D01*
X144911624Y-108926780D01*
X144848699Y-108833183D01*
X144704065Y-108626689D01*
X144964641Y-108812236D01*
X145306889Y-109018046D01*
X145601002Y-109121674D01*
X145803230Y-109115149D01*
X145894393Y-109001881D01*
X145861635Y-108787657D01*
X145708217Y-108483316D01*
X145537469Y-108231557D01*
X145341911Y-107939318D01*
X145251269Y-107741918D01*
X145270667Y-107651709D01*
X145295233Y-107647333D01*
X145454948Y-107705589D01*
X145669063Y-107886745D01*
X145947566Y-108200377D01*
X146179877Y-108495590D01*
X146427626Y-108811951D01*
X146607457Y-109012973D01*
X146747026Y-109123098D01*
X146873991Y-109166771D01*
X146944471Y-109171333D01*
X147135635Y-109157637D01*
X147183331Y-109088713D01*
X147112892Y-108922805D01*
X147104635Y-108907309D01*
X147056747Y-108807591D01*
X147080517Y-108784164D01*
X147205966Y-108837435D01*
X147350866Y-108910632D01*
X147785451Y-109081806D01*
X148173713Y-109138173D01*
X148492277Y-109082650D01*
X148717768Y-108918154D01*
X148810846Y-108728436D01*
X148828684Y-108582279D01*
X148779170Y-108442796D01*
X148639274Y-108265225D01*
X148494731Y-108114019D01*
X148356442Y-107994749D01*
X147698574Y-107994749D01*
X147667112Y-108051660D01*
X147554500Y-108040756D01*
X147350022Y-107983025D01*
X147215833Y-107944679D01*
X147067444Y-107856576D01*
X147025333Y-107768627D01*
X147067144Y-107665583D01*
X147204582Y-107668580D01*
X147452871Y-107776507D01*
X147622808Y-107891714D01*
X147698574Y-107994749D01*
X148356442Y-107994749D01*
X148064700Y-107743133D01*
X147639209Y-107499415D01*
X147244103Y-107396972D01*
X147176873Y-107394629D01*
X146878707Y-107431764D01*
X146724189Y-107545081D01*
X146700425Y-107733080D01*
X146815362Y-107968646D01*
X147061295Y-108148860D01*
X147403275Y-108252074D01*
X147562456Y-108267081D01*
X147825976Y-108294719D01*
X147964366Y-108362492D01*
X148009069Y-108441070D01*
X147999908Y-108608067D01*
X147944560Y-108672607D01*
X147672479Y-108746342D01*
X147335096Y-108665477D01*
X146934262Y-108430858D01*
X146471828Y-108043334D01*
X146381836Y-107957059D01*
X145822429Y-107411238D01*
X145302048Y-107413665D01*
X144905944Y-107436614D01*
X144667681Y-107508018D01*
X144580071Y-107638392D01*
X144635928Y-107838249D01*
X144824000Y-108113000D01*
X144973166Y-108314713D01*
X145064516Y-108465250D01*
X145078000Y-108505642D01*
X145025957Y-108585545D01*
X144875824Y-108539615D01*
X144636597Y-108373190D01*
X144317271Y-108091611D01*
X144215537Y-107993648D01*
X143617625Y-107408630D01*
X143065776Y-107422148D01*
X142686740Y-107450910D01*
X142464768Y-107524280D01*
X142390291Y-107656742D01*
X142453741Y-107862782D01*
X142611403Y-108109976D01*
X142758918Y-108337549D01*
X142846968Y-108517313D01*
X142859030Y-108589242D01*
X142782897Y-108602719D01*
X142622623Y-108516578D01*
X142408804Y-108355735D01*
X142172036Y-108145109D01*
X141942915Y-107909617D01*
X141776157Y-107707340D01*
X141573138Y-107463082D01*
X141405400Y-107340285D01*
X141245207Y-107308666D01*
X141010433Y-107308666D01*
X141393712Y-107880001D01*
X141559911Y-108145813D01*
X141666982Y-108353511D01*
X141698073Y-108468808D01*
X141688965Y-108480678D01*
X141583488Y-108446290D01*
X141388534Y-108330098D01*
X141291035Y-108262493D01*
X140925186Y-108262493D01*
X140917403Y-108340966D01*
X140874366Y-108382351D01*
X140706087Y-108449227D01*
X140547389Y-108368005D01*
X140395686Y-108160781D01*
X140264904Y-107900819D01*
X140248069Y-107765038D01*
X140340247Y-107757714D01*
X140536506Y-107883122D01*
X140628596Y-107958926D01*
X140835108Y-108145813D01*
X140925186Y-108262493D01*
X141291035Y-108262493D01*
X141143470Y-108160174D01*
X140887665Y-107964591D01*
X140660484Y-107771423D01*
X140564033Y-107678478D01*
X140421738Y-107493467D01*
X140279973Y-107253568D01*
X140267700Y-107229041D01*
X140124205Y-106989348D01*
X140009599Y-106893302D01*
X139940506Y-106942188D01*
X139940506Y-106942188D01*
G37*
X139940506Y-106942188D02*
X139933549Y-107137292D01*
X139942634Y-107203913D01*
X139965013Y-107512909D01*
X139952711Y-107855879D01*
X139943472Y-107936859D01*
X139889764Y-108328698D01*
X139682536Y-108192917D01*
X139523876Y-108107360D01*
X139438193Y-108094251D01*
X139447524Y-108186076D01*
X139511799Y-108380860D01*
X139572539Y-108531369D01*
X139674250Y-108816156D01*
X139735710Y-109079888D01*
X139744000Y-109173426D01*
X139744000Y-109415481D01*
X139160596Y-109366570D01*
X138701940Y-109345700D01*
X138379680Y-109376780D01*
X138167288Y-109465616D01*
X138041712Y-109611399D01*
X137992828Y-109755312D01*
X138050157Y-109877601D01*
X138161376Y-109983131D01*
X138513628Y-110181859D01*
X138928039Y-110255103D01*
X139353969Y-110203669D01*
X139740778Y-110028367D01*
X139836104Y-109956415D01*
X140093485Y-109739843D01*
X140913576Y-109878658D01*
X141246708Y-109935573D01*
X141707761Y-110015084D01*
X142257885Y-110110453D01*
X142858227Y-110214940D01*
X143469937Y-110321806D01*
X143638666Y-110351361D01*
X144661197Y-110527415D01*
X145537056Y-110670584D01*
X146285261Y-110782924D01*
X146924829Y-110866494D01*
X147474779Y-110923349D01*
X147954126Y-110955548D01*
X148381890Y-110965146D01*
X148777087Y-110954202D01*
X149040980Y-110935727D01*
X149658361Y-110853086D01*
X150191562Y-110723150D01*
X150605991Y-110555281D01*
X150733313Y-110477825D01*
X150894115Y-110285208D01*
X150919019Y-110059886D01*
X150827588Y-109836285D01*
X150639383Y-109648828D01*
X150373966Y-109531941D01*
X150183349Y-109510000D01*
X149898328Y-109541567D01*
X149693984Y-109624144D01*
X149607078Y-109739542D01*
X149613805Y-109791800D01*
X149589892Y-109942329D01*
X149421451Y-110088735D01*
X149132853Y-110214754D01*
X148882114Y-110280153D01*
X148291313Y-110359162D01*
X147545845Y-110386904D01*
X146652292Y-110363806D01*
X145617238Y-110290295D01*
X144447264Y-110166799D01*
X143148952Y-109993744D01*
X142175688Y-109844696D01*
X141530690Y-109741274D01*
X141183873Y-109684942D01*
X139659333Y-109684942D01*
X139583148Y-109809483D01*
X139387479Y-109910594D01*
X139121656Y-109978112D01*
X138835009Y-110001870D01*
X138576865Y-109971703D01*
X138468434Y-109930354D01*
X138326161Y-109794636D01*
X138333042Y-109651508D01*
X138480016Y-109550423D01*
X138652207Y-109528605D01*
X138902439Y-109532908D01*
X139179343Y-109557473D01*
X139431549Y-109596440D01*
X139607689Y-109643950D01*
X139659333Y-109684942D01*
X141183873Y-109684942D01*
X141033558Y-109660527D01*
X140665108Y-109597400D01*
X140406160Y-109546841D01*
X140237530Y-109503793D01*
X140140037Y-109463205D01*
X140094498Y-109420023D01*
X140081732Y-109369191D01*
X140082555Y-109305658D01*
X140082666Y-109293261D01*
X140051701Y-109059426D01*
X140000095Y-108880511D01*
X139949238Y-108729499D01*
X139967622Y-108677816D01*
X140081306Y-108721575D01*
X140284488Y-108838076D01*
X140585232Y-108959830D01*
X140886636Y-108991446D01*
X141140232Y-108935599D01*
X141297553Y-108794969D01*
X141303816Y-108781770D01*
X141354806Y-108684523D01*
X141421018Y-108658247D01*
X141544519Y-108709154D01*
X141767372Y-108843457D01*
X141781659Y-108852337D01*
X142086509Y-109006935D01*
X142337630Y-109068792D01*
X142507524Y-109036520D01*
X142568692Y-108908735D01*
X142567882Y-108891975D01*
X142581750Y-108778932D01*
X142610216Y-108769337D01*
X143056791Y-108990528D01*
X143375775Y-109101741D01*
X143568082Y-109103270D01*
X143596778Y-109086297D01*
X143663704Y-108951612D01*
X143617892Y-108740576D01*
X143454452Y-108439796D01*
X143256081Y-108153173D01*
X143108085Y-107932574D01*
X143023255Y-107767817D01*
X143016216Y-107705339D01*
X143140270Y-107691698D01*
X143333140Y-107806485D01*
X143575772Y-108033377D01*
X143849118Y-108356050D01*
X143977987Y-108529437D01*
X144202063Y-108834550D01*
X144363333Y-109024743D01*
X144492187Y-109126478D01*
X144619013Y-109166216D01*
X144715193Y-109171333D01*
X144919315Y-109153878D01*
X144980956Y-109082077D01*
X144911624Y-108926780D01*
X144848699Y-108833183D01*
X144704065Y-108626689D01*
X144964641Y-108812236D01*
X145306889Y-109018046D01*
X145601002Y-109121674D01*
X145803230Y-109115149D01*
X145894393Y-109001881D01*
X145861635Y-108787657D01*
X145708217Y-108483316D01*
X145537469Y-108231557D01*
X145341911Y-107939318D01*
X145251269Y-107741918D01*
X145270667Y-107651709D01*
X145295233Y-107647333D01*
X145454948Y-107705589D01*
X145669063Y-107886745D01*
X145947566Y-108200377D01*
X146179877Y-108495590D01*
X146427626Y-108811951D01*
X146607457Y-109012973D01*
X146747026Y-109123098D01*
X146873991Y-109166771D01*
X146944471Y-109171333D01*
X147135635Y-109157637D01*
X147183331Y-109088713D01*
X147112892Y-108922805D01*
X147104635Y-108907309D01*
X147056747Y-108807591D01*
X147080517Y-108784164D01*
X147205966Y-108837435D01*
X147350866Y-108910632D01*
X147785451Y-109081806D01*
X148173713Y-109138173D01*
X148492277Y-109082650D01*
X148717768Y-108918154D01*
X148810846Y-108728436D01*
X148828684Y-108582279D01*
X148779170Y-108442796D01*
X148639274Y-108265225D01*
X148494731Y-108114019D01*
X148356442Y-107994749D01*
X147698574Y-107994749D01*
X147667112Y-108051660D01*
X147554500Y-108040756D01*
X147350022Y-107983025D01*
X147215833Y-107944679D01*
X147067444Y-107856576D01*
X147025333Y-107768627D01*
X147067144Y-107665583D01*
X147204582Y-107668580D01*
X147452871Y-107776507D01*
X147622808Y-107891714D01*
X147698574Y-107994749D01*
X148356442Y-107994749D01*
X148064700Y-107743133D01*
X147639209Y-107499415D01*
X147244103Y-107396972D01*
X147176873Y-107394629D01*
X146878707Y-107431764D01*
X146724189Y-107545081D01*
X146700425Y-107733080D01*
X146815362Y-107968646D01*
X147061295Y-108148860D01*
X147403275Y-108252074D01*
X147562456Y-108267081D01*
X147825976Y-108294719D01*
X147964366Y-108362492D01*
X148009069Y-108441070D01*
X147999908Y-108608067D01*
X147944560Y-108672607D01*
X147672479Y-108746342D01*
X147335096Y-108665477D01*
X146934262Y-108430858D01*
X146471828Y-108043334D01*
X146381836Y-107957059D01*
X145822429Y-107411238D01*
X145302048Y-107413665D01*
X144905944Y-107436614D01*
X144667681Y-107508018D01*
X144580071Y-107638392D01*
X144635928Y-107838249D01*
X144824000Y-108113000D01*
X144973166Y-108314713D01*
X145064516Y-108465250D01*
X145078000Y-108505642D01*
X145025957Y-108585545D01*
X144875824Y-108539615D01*
X144636597Y-108373190D01*
X144317271Y-108091611D01*
X144215537Y-107993648D01*
X143617625Y-107408630D01*
X143065776Y-107422148D01*
X142686740Y-107450910D01*
X142464768Y-107524280D01*
X142390291Y-107656742D01*
X142453741Y-107862782D01*
X142611403Y-108109976D01*
X142758918Y-108337549D01*
X142846968Y-108517313D01*
X142859030Y-108589242D01*
X142782897Y-108602719D01*
X142622623Y-108516578D01*
X142408804Y-108355735D01*
X142172036Y-108145109D01*
X141942915Y-107909617D01*
X141776157Y-107707340D01*
X141573138Y-107463082D01*
X141405400Y-107340285D01*
X141245207Y-107308666D01*
X141010433Y-107308666D01*
X141393712Y-107880001D01*
X141559911Y-108145813D01*
X141666982Y-108353511D01*
X141698073Y-108468808D01*
X141688965Y-108480678D01*
X141583488Y-108446290D01*
X141388534Y-108330098D01*
X141291035Y-108262493D01*
X140925186Y-108262493D01*
X140917403Y-108340966D01*
X140874366Y-108382351D01*
X140706087Y-108449227D01*
X140547389Y-108368005D01*
X140395686Y-108160781D01*
X140264904Y-107900819D01*
X140248069Y-107765038D01*
X140340247Y-107757714D01*
X140536506Y-107883122D01*
X140628596Y-107958926D01*
X140835108Y-108145813D01*
X140925186Y-108262493D01*
X141291035Y-108262493D01*
X141143470Y-108160174D01*
X140887665Y-107964591D01*
X140660484Y-107771423D01*
X140564033Y-107678478D01*
X140421738Y-107493467D01*
X140279973Y-107253568D01*
X140267700Y-107229041D01*
X140124205Y-106989348D01*
X140009599Y-106893302D01*
X139940506Y-106942188D01*
G36*
X149296698Y-105489246D02*
X148946679Y-105606999D01*
X148707318Y-105699303D01*
X148502785Y-105729630D01*
X148463110Y-105724125D01*
X148324578Y-105736348D01*
X148300969Y-105827567D01*
X148380229Y-105911808D01*
X148419067Y-106024255D01*
X148380229Y-106122905D01*
X148309438Y-106380048D01*
X148297036Y-106729418D01*
X148339060Y-107105804D01*
X148431545Y-107443999D01*
X148465249Y-107521536D01*
X148677476Y-107853937D01*
X148989229Y-108215857D01*
X149350368Y-108557608D01*
X149710754Y-108829502D01*
X149885297Y-108928772D01*
X150089285Y-109014305D01*
X150300432Y-109065947D01*
X150560890Y-109087715D01*
X150912809Y-109083626D01*
X151301000Y-109063687D01*
X151569001Y-109072670D01*
X151771249Y-109107308D01*
X152055252Y-109103541D01*
X152279249Y-109020617D01*
X152473650Y-108901136D01*
X152555386Y-108758018D01*
X152562341Y-108663333D01*
X152190000Y-108663333D01*
X152116315Y-108722335D01*
X151938296Y-108747966D01*
X151931003Y-108748000D01*
X151761746Y-108725069D01*
X151722663Y-108666238D01*
X151724333Y-108663333D01*
X151841040Y-108597794D01*
X151983330Y-108578666D01*
X152140038Y-108608286D01*
X152190000Y-108663333D01*
X152562341Y-108663333D01*
X152571000Y-108545470D01*
X152538758Y-108285125D01*
X152518094Y-108254579D01*
X150349785Y-108254579D01*
X150345930Y-108277847D01*
X150209700Y-108305198D01*
X149979375Y-108246470D01*
X149697789Y-108115205D01*
X149551017Y-108026511D01*
X149228796Y-107760606D01*
X148948310Y-107428150D01*
X148733417Y-107069446D01*
X148607973Y-106724793D01*
X148595833Y-106434492D01*
X148599411Y-106418953D01*
X148658831Y-106260975D01*
X148710662Y-106208000D01*
X148810589Y-106270155D01*
X148982067Y-106438179D01*
X149203240Y-106684402D01*
X149452248Y-106981158D01*
X149707233Y-107300780D01*
X149946338Y-107615600D01*
X150147704Y-107897951D01*
X150289472Y-108120167D01*
X150349785Y-108254579D01*
X152518094Y-108254579D01*
X152418583Y-108107482D01*
X152347839Y-108049327D01*
X152036225Y-107900283D01*
X151657281Y-107834918D01*
X151288259Y-107861005D01*
X151103096Y-107924110D01*
X150970815Y-107982144D01*
X150861707Y-107991731D01*
X150750572Y-107933983D01*
X150612208Y-107790014D01*
X150421415Y-107540934D01*
X150221058Y-107263029D01*
X149995332Y-106978286D01*
X149707554Y-106656292D01*
X149445842Y-106391922D01*
X149234785Y-106176935D01*
X149102667Y-106010990D01*
X149071178Y-105922317D01*
X149080106Y-105915920D01*
X149421404Y-105841378D01*
X149739191Y-105851144D01*
X149995810Y-105905903D01*
X150276351Y-105999887D01*
X150509733Y-106114195D01*
X150582448Y-106166675D01*
X150716186Y-106359205D01*
X150746911Y-106563876D01*
X150674726Y-106724334D01*
X150581333Y-106776134D01*
X150443793Y-106839425D01*
X150433710Y-106943914D01*
X150552639Y-107119018D01*
X150602500Y-107177035D01*
X150878535Y-107389092D01*
X151180261Y-107448936D01*
X151474749Y-107351903D01*
X151535169Y-107309138D01*
X151719058Y-107069924D01*
X151763614Y-106774243D01*
X151675452Y-106451500D01*
X151461185Y-106131100D01*
X151220240Y-105908906D01*
X150795374Y-105666457D01*
X150298992Y-105511161D01*
X149782348Y-105449821D01*
X149296698Y-105489246D01*
X149296698Y-105489246D01*
G37*
X149296698Y-105489246D02*
X148946679Y-105606999D01*
X148707318Y-105699303D01*
X148502785Y-105729630D01*
X148463110Y-105724125D01*
X148324578Y-105736348D01*
X148300969Y-105827567D01*
X148380229Y-105911808D01*
X148419067Y-106024255D01*
X148380229Y-106122905D01*
X148309438Y-106380048D01*
X148297036Y-106729418D01*
X148339060Y-107105804D01*
X148431545Y-107443999D01*
X148465249Y-107521536D01*
X148677476Y-107853937D01*
X148989229Y-108215857D01*
X149350368Y-108557608D01*
X149710754Y-108829502D01*
X149885297Y-108928772D01*
X150089285Y-109014305D01*
X150300432Y-109065947D01*
X150560890Y-109087715D01*
X150912809Y-109083626D01*
X151301000Y-109063687D01*
X151569001Y-109072670D01*
X151771249Y-109107308D01*
X152055252Y-109103541D01*
X152279249Y-109020617D01*
X152473650Y-108901136D01*
X152555386Y-108758018D01*
X152562341Y-108663333D01*
X152190000Y-108663333D01*
X152116315Y-108722335D01*
X151938296Y-108747966D01*
X151931003Y-108748000D01*
X151761746Y-108725069D01*
X151722663Y-108666238D01*
X151724333Y-108663333D01*
X151841040Y-108597794D01*
X151983330Y-108578666D01*
X152140038Y-108608286D01*
X152190000Y-108663333D01*
X152562341Y-108663333D01*
X152571000Y-108545470D01*
X152538758Y-108285125D01*
X152518094Y-108254579D01*
X150349785Y-108254579D01*
X150345930Y-108277847D01*
X150209700Y-108305198D01*
X149979375Y-108246470D01*
X149697789Y-108115205D01*
X149551017Y-108026511D01*
X149228796Y-107760606D01*
X148948310Y-107428150D01*
X148733417Y-107069446D01*
X148607973Y-106724793D01*
X148595833Y-106434492D01*
X148599411Y-106418953D01*
X148658831Y-106260975D01*
X148710662Y-106208000D01*
X148810589Y-106270155D01*
X148982067Y-106438179D01*
X149203240Y-106684402D01*
X149452248Y-106981158D01*
X149707233Y-107300780D01*
X149946338Y-107615600D01*
X150147704Y-107897951D01*
X150289472Y-108120167D01*
X150349785Y-108254579D01*
X152518094Y-108254579D01*
X152418583Y-108107482D01*
X152347839Y-108049327D01*
X152036225Y-107900283D01*
X151657281Y-107834918D01*
X151288259Y-107861005D01*
X151103096Y-107924110D01*
X150970815Y-107982144D01*
X150861707Y-107991731D01*
X150750572Y-107933983D01*
X150612208Y-107790014D01*
X150421415Y-107540934D01*
X150221058Y-107263029D01*
X149995332Y-106978286D01*
X149707554Y-106656292D01*
X149445842Y-106391922D01*
X149234785Y-106176935D01*
X149102667Y-106010990D01*
X149071178Y-105922317D01*
X149080106Y-105915920D01*
X149421404Y-105841378D01*
X149739191Y-105851144D01*
X149995810Y-105905903D01*
X150276351Y-105999887D01*
X150509733Y-106114195D01*
X150582448Y-106166675D01*
X150716186Y-106359205D01*
X150746911Y-106563876D01*
X150674726Y-106724334D01*
X150581333Y-106776134D01*
X150443793Y-106839425D01*
X150433710Y-106943914D01*
X150552639Y-107119018D01*
X150602500Y-107177035D01*
X150878535Y-107389092D01*
X151180261Y-107448936D01*
X151474749Y-107351903D01*
X151535169Y-107309138D01*
X151719058Y-107069924D01*
X151763614Y-106774243D01*
X151675452Y-106451500D01*
X151461185Y-106131100D01*
X151220240Y-105908906D01*
X150795374Y-105666457D01*
X150298992Y-105511161D01*
X149782348Y-105449821D01*
X149296698Y-105489246D01*
G36*
X140695656Y-106493832D02*
X140620870Y-106590078D01*
X140629810Y-106744776D01*
X140720815Y-106899452D01*
X140844341Y-106969999D01*
X140844666Y-106970000D01*
X140945804Y-106912519D01*
X141014000Y-106843000D01*
X141076719Y-106707487D01*
X141014000Y-106589000D01*
X140850432Y-106475381D01*
X140695656Y-106493832D01*
X140695656Y-106493832D01*
G37*
X140695656Y-106493832D02*
X140620870Y-106590078D01*
X140629810Y-106744776D01*
X140720815Y-106899452D01*
X140844341Y-106969999D01*
X140844666Y-106970000D01*
X140945804Y-106912519D01*
X141014000Y-106843000D01*
X141076719Y-106707487D01*
X141014000Y-106589000D01*
X140850432Y-106475381D01*
X140695656Y-106493832D01*
D11*
X158032000Y-113320000D02*
X158032000Y-77760000D01*
X158032000Y-77760000D02*
X155492000Y-77760000D01*
X155492000Y-77760000D02*
X155492000Y-113320000D01*
X155212000Y-116140000D02*
X155212000Y-114590000D01*
X155492000Y-113320000D02*
X158032000Y-113320000D01*
X158312000Y-114590000D02*
X158312000Y-116140000D01*
X158312000Y-116140000D02*
X155212000Y-116140000D01*
X135172000Y-113320000D02*
X135172000Y-77760000D01*
X135172000Y-77760000D02*
X132632000Y-77760000D01*
X132632000Y-77760000D02*
X132632000Y-113320000D01*
X132352000Y-116140000D02*
X132352000Y-114590000D01*
X132632000Y-113320000D02*
X135172000Y-113320000D01*
X135452000Y-114590000D02*
X135452000Y-116140000D01*
X135452000Y-116140000D02*
X132352000Y-116140000D01*
%LPC*%
D15*
X128817000Y-79045000D03*
D16*
X128817000Y-81585000D03*
D15*
X161837000Y-79045000D03*
D16*
X161837000Y-81585000D03*
D17*
X123483000Y-74981000D03*
X123483000Y-118669000D03*
X167171000Y-74981000D03*
X167171000Y-118669000D03*
D18*
X166917000Y-112065000D03*
X161837000Y-112065000D03*
X166917000Y-104445000D03*
X161837000Y-104445000D03*
X123737000Y-104445000D03*
X128817000Y-104445000D03*
X123737000Y-112065000D03*
X128817000Y-112065000D03*
D19*
X156762000Y-114590000D03*
D20*
X156762000Y-112050000D03*
X156762000Y-109510000D03*
X156762000Y-106970000D03*
X156762000Y-104430000D03*
X156762000Y-101890000D03*
X156762000Y-99350000D03*
X156762000Y-96810000D03*
X156762000Y-94270000D03*
X156762000Y-91730000D03*
X156762000Y-89190000D03*
X156762000Y-86650000D03*
X156762000Y-84110000D03*
X156762000Y-81570000D03*
X156762000Y-79030000D03*
D19*
X133902000Y-114590000D03*
D20*
X133902000Y-112050000D03*
X133902000Y-109510000D03*
X133902000Y-106970000D03*
X133902000Y-104430000D03*
X133902000Y-101890000D03*
X133902000Y-99350000D03*
X133902000Y-96810000D03*
X133902000Y-94270000D03*
X133902000Y-91730000D03*
X133902000Y-89190000D03*
X133902000Y-86650000D03*
X133902000Y-84110000D03*
X133902000Y-81570000D03*
X133902000Y-79030000D03*
D19*
X168192000Y-99350000D03*
D20*
X168192000Y-96810000D03*
X168192000Y-94270000D03*
X168192000Y-91730000D03*
X168192000Y-89190000D03*
X168192000Y-86650000D03*
D19*
X122472000Y-99350000D03*
D20*
X122472000Y-96810000D03*
X122472000Y-94270000D03*
X122472000Y-91730000D03*
X122472000Y-89190000D03*
X122472000Y-86650000D03*
D21*
X151677000Y-101905000D03*
X161837000Y-101905000D03*
X138977000Y-101905000D03*
X128817000Y-101905000D03*
X128822000Y-86650000D03*
X128822000Y-96810000D03*
X161837000Y-86665000D03*
X161837000Y-96825000D03*
X145332000Y-86650000D03*
X145332000Y-96810000D03*
X139617000Y-86650000D03*
X139617000Y-96810000D03*
D22*
X147237000Y-80300000D03*
D23*
X145967000Y-80300000D03*
D22*
X144697000Y-80300000D03*
X143427000Y-80300000D03*
D21*
X151047000Y-86650000D03*
X151047000Y-96810000D03*
M02*
