%TF.GenerationSoftware,KiCad,Pcbnew,4.0.2-4+6225~38~ubuntu14.04.1-stable*%
%TF.CreationDate,2016-04-19T13:08:00+01:00*%
%TF.ProjectId,basic,62617369632E6B696361645F70636200,rev?*%
%TF.FileFunction,Copper,L2,Bot,Signal*%
%FSLAX46Y46*%
G04 Gerber Fmt 4.6, Leading zero omitted, Abs format (unit mm)*
G04 Created by KiCad (PCBNEW 4.0.2-4+6225~38~ubuntu14.04.1-stable) date Tue 19 Apr 2016 13:08:00 BST*
%MOMM*%
G01*
G04 APERTURE LIST*
%ADD10C,0.100000*%
%ADD11C,1.998980*%
%ADD12R,2.000000X1.900000*%
%ADD13C,1.900000*%
%ADD14C,5.500000*%
%ADD15C,1.397000*%
%ADD16R,2.032000X1.727200*%
%ADD17O,2.032000X1.727200*%
%ADD18O,1.000000X1.905000*%
%ADD19R,1.000000X1.905000*%
%ADD20C,0.406000*%
%ADD21C,0.305000*%
%ADD22C,0.254000*%
G04 APERTURE END LIST*
D10*
D11*
X151047000Y-86650000D03*
X151047000Y-96810000D03*
D12*
X127552000Y-79030000D03*
D13*
X127552000Y-81570000D03*
D12*
X163112000Y-79030000D03*
D13*
X163112000Y-81570000D03*
D14*
X123483000Y-74981000D03*
X123483000Y-118669000D03*
X167171000Y-74981000D03*
X167171000Y-118669000D03*
D15*
X166922000Y-112050000D03*
X161842000Y-112050000D03*
X166922000Y-104430000D03*
X161842000Y-104430000D03*
X123742000Y-104430000D03*
X128822000Y-104430000D03*
X123742000Y-112050000D03*
X128822000Y-112050000D03*
D16*
X156762000Y-114590000D03*
D17*
X156762000Y-112050000D03*
X156762000Y-109510000D03*
X156762000Y-106970000D03*
X156762000Y-104430000D03*
X156762000Y-101890000D03*
X156762000Y-99350000D03*
X156762000Y-96810000D03*
X156762000Y-94270000D03*
X156762000Y-91730000D03*
X156762000Y-89190000D03*
X156762000Y-86650000D03*
X156762000Y-84110000D03*
X156762000Y-81570000D03*
X156762000Y-79030000D03*
D16*
X133902000Y-114590000D03*
D17*
X133902000Y-112050000D03*
X133902000Y-109510000D03*
X133902000Y-106970000D03*
X133902000Y-104430000D03*
X133902000Y-101890000D03*
X133902000Y-99350000D03*
X133902000Y-96810000D03*
X133902000Y-94270000D03*
X133902000Y-91730000D03*
X133902000Y-89190000D03*
X133902000Y-86650000D03*
X133902000Y-84110000D03*
X133902000Y-81570000D03*
X133902000Y-79030000D03*
D16*
X168192000Y-99350000D03*
D17*
X168192000Y-96810000D03*
X168192000Y-94270000D03*
X168192000Y-91730000D03*
X168192000Y-89190000D03*
X168192000Y-86650000D03*
D16*
X122472000Y-99350000D03*
D17*
X122472000Y-96810000D03*
X122472000Y-94270000D03*
X122472000Y-91730000D03*
X122472000Y-89190000D03*
X122472000Y-86650000D03*
D11*
X128822000Y-86650000D03*
X128822000Y-96810000D03*
X161842000Y-86650000D03*
X161842000Y-96810000D03*
X145332000Y-86650000D03*
X145332000Y-96810000D03*
X139617000Y-86650000D03*
X139617000Y-96810000D03*
D18*
X143300000Y-80300000D03*
D19*
X144570000Y-80300000D03*
D18*
X145840000Y-80300000D03*
X147110000Y-80300000D03*
D20*
X166922000Y-104430000D02*
X168192000Y-103160000D01*
X168192000Y-103160000D02*
X168192000Y-99350000D01*
X166922000Y-112050000D02*
X166922000Y-104430000D01*
X167171000Y-118669000D02*
X167171000Y-112299000D01*
X167171000Y-112299000D02*
X166922000Y-112050000D01*
X156762000Y-112050000D02*
X158794000Y-112050000D01*
X158794000Y-112050000D02*
X161588000Y-114844000D01*
X161588000Y-114844000D02*
X161588000Y-117638000D01*
X161588000Y-117638000D02*
X162619000Y-118669000D01*
X162619000Y-118669000D02*
X167171000Y-118669000D01*
X123742000Y-103160000D02*
X122472000Y-101890000D01*
X122472000Y-101890000D02*
X122472000Y-99350000D01*
X123742000Y-104430000D02*
X123742000Y-103160000D01*
X123742000Y-112050000D02*
X123742000Y-104430000D01*
X123742000Y-112050000D02*
X123742000Y-118410000D01*
X123742000Y-118410000D02*
X123483000Y-118669000D01*
X132480000Y-112050000D02*
X128610999Y-115919001D01*
X128610999Y-115919001D02*
X126232999Y-115919001D01*
X126232999Y-115919001D02*
X123483000Y-118669000D01*
X133902000Y-112050000D02*
X132480000Y-112050000D01*
X123483000Y-118669000D02*
X135157000Y-118669000D01*
X135157000Y-118669000D02*
X138982000Y-114844000D01*
X138982000Y-114844000D02*
X138982000Y-101910000D01*
X138982000Y-101910000D02*
X138977000Y-101905000D01*
X122472000Y-117658000D02*
X123483000Y-118669000D01*
X151677000Y-101905000D02*
X156747000Y-101905000D01*
X156747000Y-101905000D02*
X156762000Y-101890000D01*
X133902000Y-94270000D02*
X134054400Y-94270000D01*
X134054400Y-94270000D02*
X138977000Y-99192600D01*
X138977000Y-99192600D02*
X138977000Y-100491508D01*
X138977000Y-100491508D02*
X138977000Y-101905000D01*
X138977000Y-101905000D02*
X140390492Y-101905000D01*
X140390492Y-101905000D02*
X151677000Y-101905000D01*
X133902000Y-112050000D02*
X133749600Y-112050000D01*
D21*
X151047000Y-96810000D02*
X152460492Y-96810000D01*
X152460492Y-96810000D02*
X153714000Y-95556492D01*
X153714000Y-95556492D02*
X153714000Y-87666000D01*
X154730000Y-86650000D02*
X156762000Y-86650000D01*
X153714000Y-87666000D02*
X154730000Y-86650000D01*
X168039600Y-86650000D02*
X168192000Y-86650000D01*
X130854000Y-90917000D02*
X130854000Y-99858000D01*
X130854000Y-99858000D02*
X128822000Y-101890000D01*
X133902000Y-89190000D02*
X132581000Y-89190000D01*
X132581000Y-89190000D02*
X130854000Y-90917000D01*
X128817000Y-104445000D02*
X128817000Y-112065000D01*
X128817000Y-101905000D02*
X128817000Y-104445000D01*
X133902000Y-81570000D02*
X134054400Y-81570000D01*
X133902000Y-79030000D02*
X136188000Y-79030000D01*
X158032000Y-77252000D02*
X159810000Y-79030000D01*
X136188000Y-79030000D02*
X137966000Y-77252000D01*
X137966000Y-77252000D02*
X158032000Y-77252000D01*
X159810000Y-79030000D02*
X159810000Y-80960400D01*
X159810000Y-80960400D02*
X168039600Y-89190000D01*
X168039600Y-89190000D02*
X168192000Y-89190000D01*
X161842000Y-104430000D02*
X161842000Y-102398000D01*
X161842000Y-102398000D02*
X164636000Y-99604000D01*
X164636000Y-90714000D02*
X166160000Y-89190000D01*
X164636000Y-99604000D02*
X164636000Y-90714000D01*
X166160000Y-89190000D02*
X168192000Y-89190000D01*
X161837000Y-104445000D02*
X161837000Y-112065000D01*
D22*
G36*
X121246339Y-72564734D02*
X123483000Y-74801395D01*
X125719661Y-72564734D01*
X125690626Y-72523000D01*
X136260646Y-72523000D01*
X136315012Y-76491740D01*
X136323685Y-76536159D01*
X136350965Y-76578553D01*
X136392590Y-76606994D01*
X136442000Y-76617000D01*
X137526118Y-76617000D01*
X137409153Y-76695153D01*
X137409151Y-76695156D01*
X135861806Y-78242500D01*
X135328273Y-78242500D01*
X135146415Y-77970330D01*
X134660234Y-77645474D01*
X134086745Y-77531400D01*
X133717255Y-77531400D01*
X133143766Y-77645474D01*
X132657585Y-77970330D01*
X132332729Y-78456511D01*
X132218655Y-79030000D01*
X132332729Y-79603489D01*
X132657585Y-80089670D01*
X132972366Y-80300000D01*
X132657585Y-80510330D01*
X132332729Y-80996511D01*
X132218655Y-81570000D01*
X132332729Y-82143489D01*
X132657585Y-82629670D01*
X132972366Y-82840000D01*
X132657585Y-83050330D01*
X132332729Y-83536511D01*
X132218655Y-84110000D01*
X132332729Y-84683489D01*
X132657585Y-85169670D01*
X132972366Y-85380000D01*
X132657585Y-85590330D01*
X132332729Y-86076511D01*
X132218655Y-86650000D01*
X132332729Y-87223489D01*
X132657585Y-87709670D01*
X132972366Y-87920000D01*
X132657585Y-88130330D01*
X132459591Y-88426649D01*
X132324601Y-88453501D01*
X132279637Y-88462445D01*
X132024153Y-88633153D01*
X132024151Y-88633156D01*
X130297153Y-90360153D01*
X130126445Y-90615637D01*
X130066499Y-90917000D01*
X130066500Y-90917005D01*
X130066500Y-95743135D01*
X129749073Y-95425154D01*
X129148547Y-95175794D01*
X128498306Y-95175226D01*
X127897345Y-95423538D01*
X127437154Y-95882927D01*
X127187794Y-96483453D01*
X127187226Y-97133694D01*
X127435538Y-97734655D01*
X127894927Y-98194846D01*
X128495453Y-98444206D01*
X129145694Y-98444774D01*
X129746655Y-98196462D01*
X130066500Y-97877174D01*
X130066500Y-99531806D01*
X128265153Y-101333153D01*
X128094445Y-101588637D01*
X128092316Y-101599340D01*
X128089445Y-101603637D01*
X128029500Y-101905000D01*
X128029500Y-103336908D01*
X127692173Y-103673647D01*
X127488732Y-104163587D01*
X127488269Y-104694086D01*
X127690854Y-105184380D01*
X128029500Y-105523617D01*
X128029500Y-110956908D01*
X127692173Y-111293647D01*
X127488732Y-111783587D01*
X127488269Y-112314086D01*
X127690854Y-112804380D01*
X128065647Y-113179827D01*
X128555587Y-113383268D01*
X129086086Y-113383731D01*
X129576380Y-113181146D01*
X129951827Y-112806353D01*
X130155268Y-112316413D01*
X130155731Y-111785914D01*
X129953146Y-111295620D01*
X129604500Y-110946366D01*
X129604500Y-105533075D01*
X129951827Y-105186353D01*
X130155268Y-104696413D01*
X130155731Y-104165914D01*
X129953146Y-103675620D01*
X129604500Y-103326366D01*
X129604500Y-102221194D01*
X131410847Y-100414847D01*
X131581555Y-100159363D01*
X131641501Y-99858000D01*
X131641500Y-99857995D01*
X131641500Y-96810000D01*
X132218655Y-96810000D01*
X132332729Y-97383489D01*
X132657585Y-97869670D01*
X132972366Y-98080000D01*
X132657585Y-98290330D01*
X132332729Y-98776511D01*
X132218655Y-99350000D01*
X132332729Y-99923489D01*
X132657585Y-100409670D01*
X132972366Y-100620000D01*
X132657585Y-100830330D01*
X132332729Y-101316511D01*
X132218655Y-101890000D01*
X132332729Y-102463489D01*
X132657585Y-102949670D01*
X132972366Y-103160000D01*
X132657585Y-103370330D01*
X132332729Y-103856511D01*
X132218655Y-104430000D01*
X132332729Y-105003489D01*
X132657585Y-105489670D01*
X132972366Y-105700000D01*
X132657585Y-105910330D01*
X132332729Y-106396511D01*
X132218655Y-106970000D01*
X132332729Y-107543489D01*
X132657585Y-108029670D01*
X132972366Y-108240000D01*
X132657585Y-108450330D01*
X132332729Y-108936511D01*
X132218655Y-109510000D01*
X132332729Y-110083489D01*
X132657585Y-110569670D01*
X132967069Y-110776461D01*
X132551268Y-111147964D01*
X132297291Y-111675209D01*
X132294642Y-111690974D01*
X132415783Y-111923000D01*
X133775000Y-111923000D01*
X133775000Y-111903000D01*
X134029000Y-111903000D01*
X134029000Y-111923000D01*
X135388217Y-111923000D01*
X135509358Y-111690974D01*
X135506709Y-111675209D01*
X135252732Y-111147964D01*
X134836931Y-110776461D01*
X135146415Y-110569670D01*
X135471271Y-110083489D01*
X135585345Y-109510000D01*
X135471271Y-108936511D01*
X135146415Y-108450330D01*
X134831634Y-108240000D01*
X135146415Y-108029670D01*
X135471271Y-107543489D01*
X135585345Y-106970000D01*
X135471271Y-106396511D01*
X135146415Y-105910330D01*
X134831634Y-105700000D01*
X135146415Y-105489670D01*
X135471271Y-105003489D01*
X135585345Y-104430000D01*
X155078655Y-104430000D01*
X155192729Y-105003489D01*
X155517585Y-105489670D01*
X155832366Y-105700000D01*
X155517585Y-105910330D01*
X155192729Y-106396511D01*
X155078655Y-106970000D01*
X155192729Y-107543489D01*
X155517585Y-108029670D01*
X155832366Y-108240000D01*
X155517585Y-108450330D01*
X155192729Y-108936511D01*
X155078655Y-109510000D01*
X155192729Y-110083489D01*
X155517585Y-110569670D01*
X155827069Y-110776461D01*
X155411268Y-111147964D01*
X155157291Y-111675209D01*
X155154642Y-111690974D01*
X155275783Y-111923000D01*
X156635000Y-111923000D01*
X156635000Y-111903000D01*
X156889000Y-111903000D01*
X156889000Y-111923000D01*
X158248217Y-111923000D01*
X158369358Y-111690974D01*
X158366709Y-111675209D01*
X158112732Y-111147964D01*
X157696931Y-110776461D01*
X158006415Y-110569670D01*
X158331271Y-110083489D01*
X158445345Y-109510000D01*
X158331271Y-108936511D01*
X158006415Y-108450330D01*
X157691634Y-108240000D01*
X158006415Y-108029670D01*
X158331271Y-107543489D01*
X158445345Y-106970000D01*
X158331271Y-106396511D01*
X158006415Y-105910330D01*
X157691634Y-105700000D01*
X158006415Y-105489670D01*
X158331271Y-105003489D01*
X158445345Y-104430000D01*
X158331271Y-103856511D01*
X158006415Y-103370330D01*
X157696931Y-103163539D01*
X158112732Y-102792036D01*
X158366709Y-102264791D01*
X158369358Y-102249026D01*
X158248217Y-102017000D01*
X156889000Y-102017000D01*
X156889000Y-102037000D01*
X156635000Y-102037000D01*
X156635000Y-102017000D01*
X155275783Y-102017000D01*
X155154642Y-102249026D01*
X155157291Y-102264791D01*
X155411268Y-102792036D01*
X155827069Y-103163539D01*
X155517585Y-103370330D01*
X155192729Y-103856511D01*
X155078655Y-104430000D01*
X135585345Y-104430000D01*
X135471271Y-103856511D01*
X135146415Y-103370330D01*
X134831634Y-103160000D01*
X135146415Y-102949670D01*
X135471271Y-102463489D01*
X135585345Y-101890000D01*
X135471271Y-101316511D01*
X135146415Y-100830330D01*
X134831634Y-100620000D01*
X135146415Y-100409670D01*
X135471271Y-99923489D01*
X135585345Y-99350000D01*
X135471271Y-98776511D01*
X135146415Y-98290330D01*
X134831634Y-98080000D01*
X135146415Y-97869670D01*
X135471271Y-97383489D01*
X135520958Y-97133694D01*
X137982226Y-97133694D01*
X138230538Y-97734655D01*
X138689927Y-98194846D01*
X139290453Y-98444206D01*
X139940694Y-98444774D01*
X140541655Y-98196462D01*
X141001846Y-97737073D01*
X141251206Y-97136547D01*
X141251208Y-97133694D01*
X143697226Y-97133694D01*
X143945538Y-97734655D01*
X144404927Y-98194846D01*
X145005453Y-98444206D01*
X145655694Y-98444774D01*
X146256655Y-98196462D01*
X146716846Y-97737073D01*
X146966206Y-97136547D01*
X146966774Y-96486306D01*
X146718462Y-95885345D01*
X146259073Y-95425154D01*
X145658547Y-95175794D01*
X145008306Y-95175226D01*
X144407345Y-95423538D01*
X143947154Y-95882927D01*
X143697794Y-96483453D01*
X143697226Y-97133694D01*
X141251208Y-97133694D01*
X141251774Y-96486306D01*
X141003462Y-95885345D01*
X140544073Y-95425154D01*
X139943547Y-95175794D01*
X139293306Y-95175226D01*
X138692345Y-95423538D01*
X138232154Y-95882927D01*
X137982794Y-96483453D01*
X137982226Y-97133694D01*
X135520958Y-97133694D01*
X135585345Y-96810000D01*
X135471271Y-96236511D01*
X135146415Y-95750330D01*
X134836931Y-95543539D01*
X135252732Y-95172036D01*
X135506709Y-94644791D01*
X135509358Y-94629026D01*
X135388217Y-94397000D01*
X134029000Y-94397000D01*
X134029000Y-94417000D01*
X133775000Y-94417000D01*
X133775000Y-94397000D01*
X132415783Y-94397000D01*
X132294642Y-94629026D01*
X132297291Y-94644791D01*
X132551268Y-95172036D01*
X132967069Y-95543539D01*
X132657585Y-95750330D01*
X132332729Y-96236511D01*
X132218655Y-96810000D01*
X131641500Y-96810000D01*
X131641500Y-91243194D01*
X132648548Y-90236145D01*
X132657585Y-90249670D01*
X132972366Y-90460000D01*
X132657585Y-90670330D01*
X132332729Y-91156511D01*
X132218655Y-91730000D01*
X132332729Y-92303489D01*
X132657585Y-92789670D01*
X132967069Y-92996461D01*
X132551268Y-93367964D01*
X132297291Y-93895209D01*
X132294642Y-93910974D01*
X132415783Y-94143000D01*
X133775000Y-94143000D01*
X133775000Y-94123000D01*
X134029000Y-94123000D01*
X134029000Y-94143000D01*
X135388217Y-94143000D01*
X135509358Y-93910974D01*
X135506709Y-93895209D01*
X135252732Y-93367964D01*
X134836931Y-92996461D01*
X135146415Y-92789670D01*
X135471271Y-92303489D01*
X135585345Y-91730000D01*
X135471271Y-91156511D01*
X135146415Y-90670330D01*
X134831634Y-90460000D01*
X135146415Y-90249670D01*
X135471271Y-89763489D01*
X135585345Y-89190000D01*
X135471271Y-88616511D01*
X135146415Y-88130330D01*
X134831634Y-87920000D01*
X135146415Y-87709670D01*
X135471271Y-87223489D01*
X135520958Y-86973694D01*
X137982226Y-86973694D01*
X138230538Y-87574655D01*
X138689927Y-88034846D01*
X139290453Y-88284206D01*
X139940694Y-88284774D01*
X140541655Y-88036462D01*
X141001846Y-87577073D01*
X141251206Y-86976547D01*
X141251208Y-86973694D01*
X143697226Y-86973694D01*
X143945538Y-87574655D01*
X144404927Y-88034846D01*
X145005453Y-88284206D01*
X145655694Y-88284774D01*
X146256655Y-88036462D01*
X146716846Y-87577073D01*
X146966206Y-86976547D01*
X146966208Y-86973694D01*
X149412226Y-86973694D01*
X149660538Y-87574655D01*
X150119927Y-88034846D01*
X150720453Y-88284206D01*
X151370694Y-88284774D01*
X151971655Y-88036462D01*
X152431846Y-87577073D01*
X152681206Y-86976547D01*
X152681774Y-86326306D01*
X152433462Y-85725345D01*
X151974073Y-85265154D01*
X151373547Y-85015794D01*
X150723306Y-85015226D01*
X150122345Y-85263538D01*
X149662154Y-85722927D01*
X149412794Y-86323453D01*
X149412226Y-86973694D01*
X146966208Y-86973694D01*
X146966774Y-86326306D01*
X146718462Y-85725345D01*
X146259073Y-85265154D01*
X145658547Y-85015794D01*
X145008306Y-85015226D01*
X144407345Y-85263538D01*
X143947154Y-85722927D01*
X143697794Y-86323453D01*
X143697226Y-86973694D01*
X141251208Y-86973694D01*
X141251774Y-86326306D01*
X141003462Y-85725345D01*
X140544073Y-85265154D01*
X139943547Y-85015794D01*
X139293306Y-85015226D01*
X138692345Y-85263538D01*
X138232154Y-85722927D01*
X137982794Y-86323453D01*
X137982226Y-86973694D01*
X135520958Y-86973694D01*
X135585345Y-86650000D01*
X135471271Y-86076511D01*
X135146415Y-85590330D01*
X134831634Y-85380000D01*
X135146415Y-85169670D01*
X135471271Y-84683489D01*
X135585345Y-84110000D01*
X135471271Y-83536511D01*
X135146415Y-83050330D01*
X134831634Y-82840000D01*
X135146415Y-82629670D01*
X135471271Y-82143489D01*
X135585345Y-81570000D01*
X135471271Y-80996511D01*
X135146415Y-80510330D01*
X134831634Y-80300000D01*
X135146415Y-80089670D01*
X135328273Y-79817500D01*
X136187995Y-79817500D01*
X136188000Y-79817501D01*
X136193540Y-79816399D01*
X142165000Y-79816399D01*
X142165000Y-80783601D01*
X142251397Y-81217947D01*
X142497434Y-81586167D01*
X142865654Y-81832204D01*
X143300000Y-81918601D01*
X143734346Y-81832204D01*
X143763372Y-81812810D01*
X143943690Y-81887500D01*
X144284250Y-81887500D01*
X144443000Y-81728750D01*
X144443000Y-80427000D01*
X144435000Y-80427000D01*
X144435000Y-80173000D01*
X144443000Y-80173000D01*
X144443000Y-78871250D01*
X144697000Y-78871250D01*
X144697000Y-80173000D01*
X144705000Y-80173000D01*
X144705000Y-80427000D01*
X144697000Y-80427000D01*
X144697000Y-81728750D01*
X144855750Y-81887500D01*
X145196310Y-81887500D01*
X145376628Y-81812810D01*
X145405654Y-81832204D01*
X145840000Y-81918601D01*
X146274346Y-81832204D01*
X146475000Y-81698131D01*
X146675654Y-81832204D01*
X147110000Y-81918601D01*
X147544346Y-81832204D01*
X147912566Y-81586167D01*
X148158603Y-81217947D01*
X148245000Y-80783601D01*
X148245000Y-79816399D01*
X148158603Y-79382053D01*
X147912566Y-79013833D01*
X147544346Y-78767796D01*
X147110000Y-78681399D01*
X146675654Y-78767796D01*
X146475000Y-78901869D01*
X146274346Y-78767796D01*
X145840000Y-78681399D01*
X145405654Y-78767796D01*
X145376628Y-78787190D01*
X145196310Y-78712500D01*
X144855750Y-78712500D01*
X144697000Y-78871250D01*
X144443000Y-78871250D01*
X144284250Y-78712500D01*
X143943690Y-78712500D01*
X143763372Y-78787190D01*
X143734346Y-78767796D01*
X143300000Y-78681399D01*
X142865654Y-78767796D01*
X142497434Y-79013833D01*
X142251397Y-79382053D01*
X142165000Y-79816399D01*
X136193540Y-79816399D01*
X136489363Y-79757555D01*
X136744847Y-79586847D01*
X138292193Y-78039500D01*
X155471367Y-78039500D01*
X155192729Y-78456511D01*
X155078655Y-79030000D01*
X155192729Y-79603489D01*
X155517585Y-80089670D01*
X155832366Y-80300000D01*
X155517585Y-80510330D01*
X155192729Y-80996511D01*
X155078655Y-81570000D01*
X155192729Y-82143489D01*
X155517585Y-82629670D01*
X155832366Y-82840000D01*
X155517585Y-83050330D01*
X155192729Y-83536511D01*
X155078655Y-84110000D01*
X155192729Y-84683489D01*
X155517585Y-85169670D01*
X155832366Y-85380000D01*
X155517585Y-85590330D01*
X155335727Y-85862500D01*
X154730005Y-85862500D01*
X154730000Y-85862499D01*
X154428637Y-85922445D01*
X154173153Y-86093153D01*
X153157153Y-87109153D01*
X152986445Y-87364637D01*
X152926499Y-87666000D01*
X152926500Y-87666005D01*
X152926500Y-95230298D01*
X152352528Y-95804270D01*
X151974073Y-95425154D01*
X151373547Y-95175794D01*
X150723306Y-95175226D01*
X150122345Y-95423538D01*
X149662154Y-95882927D01*
X149412794Y-96483453D01*
X149412226Y-97133694D01*
X149660538Y-97734655D01*
X150119927Y-98194846D01*
X150720453Y-98444206D01*
X151370694Y-98444774D01*
X151971655Y-98196462D01*
X152431846Y-97737073D01*
X152492440Y-97591146D01*
X152761855Y-97537555D01*
X153017339Y-97366847D01*
X154270847Y-96113339D01*
X154441555Y-95857855D01*
X154501501Y-95556492D01*
X154501500Y-95556487D01*
X154501500Y-87992194D01*
X155056194Y-87437500D01*
X155335727Y-87437500D01*
X155517585Y-87709670D01*
X155832366Y-87920000D01*
X155517585Y-88130330D01*
X155192729Y-88616511D01*
X155078655Y-89190000D01*
X155192729Y-89763489D01*
X155517585Y-90249670D01*
X155832366Y-90460000D01*
X155517585Y-90670330D01*
X155192729Y-91156511D01*
X155078655Y-91730000D01*
X155192729Y-92303489D01*
X155517585Y-92789670D01*
X155832366Y-93000000D01*
X155517585Y-93210330D01*
X155192729Y-93696511D01*
X155078655Y-94270000D01*
X155192729Y-94843489D01*
X155517585Y-95329670D01*
X155832366Y-95540000D01*
X155517585Y-95750330D01*
X155192729Y-96236511D01*
X155078655Y-96810000D01*
X155192729Y-97383489D01*
X155517585Y-97869670D01*
X155832366Y-98080000D01*
X155517585Y-98290330D01*
X155192729Y-98776511D01*
X155078655Y-99350000D01*
X155192729Y-99923489D01*
X155517585Y-100409670D01*
X155827069Y-100616461D01*
X155411268Y-100987964D01*
X155157291Y-101515209D01*
X155154642Y-101530974D01*
X155275783Y-101763000D01*
X156635000Y-101763000D01*
X156635000Y-101743000D01*
X156889000Y-101743000D01*
X156889000Y-101763000D01*
X158248217Y-101763000D01*
X158369358Y-101530974D01*
X158366709Y-101515209D01*
X158112732Y-100987964D01*
X157696931Y-100616461D01*
X158006415Y-100409670D01*
X158331271Y-99923489D01*
X158445345Y-99350000D01*
X158331271Y-98776511D01*
X158006415Y-98290330D01*
X157691634Y-98080000D01*
X158006415Y-97869670D01*
X158331271Y-97383489D01*
X158380958Y-97133694D01*
X160207226Y-97133694D01*
X160455538Y-97734655D01*
X160914927Y-98194846D01*
X161515453Y-98444206D01*
X162165694Y-98444774D01*
X162766655Y-98196462D01*
X163226846Y-97737073D01*
X163476206Y-97136547D01*
X163476774Y-96486306D01*
X163228462Y-95885345D01*
X162769073Y-95425154D01*
X162168547Y-95175794D01*
X161518306Y-95175226D01*
X160917345Y-95423538D01*
X160457154Y-95882927D01*
X160207794Y-96483453D01*
X160207226Y-97133694D01*
X158380958Y-97133694D01*
X158445345Y-96810000D01*
X158331271Y-96236511D01*
X158006415Y-95750330D01*
X157691634Y-95540000D01*
X158006415Y-95329670D01*
X158331271Y-94843489D01*
X158445345Y-94270000D01*
X158331271Y-93696511D01*
X158006415Y-93210330D01*
X157691634Y-93000000D01*
X158006415Y-92789670D01*
X158331271Y-92303489D01*
X158445345Y-91730000D01*
X158331271Y-91156511D01*
X158006415Y-90670330D01*
X157691634Y-90460000D01*
X158006415Y-90249670D01*
X158331271Y-89763489D01*
X158445345Y-89190000D01*
X158331271Y-88616511D01*
X158006415Y-88130330D01*
X157691634Y-87920000D01*
X158006415Y-87709670D01*
X158331271Y-87223489D01*
X158380958Y-86973694D01*
X160207226Y-86973694D01*
X160455538Y-87574655D01*
X160914927Y-88034846D01*
X161515453Y-88284206D01*
X162165694Y-88284774D01*
X162766655Y-88036462D01*
X163226846Y-87577073D01*
X163476206Y-86976547D01*
X163476774Y-86326306D01*
X163228462Y-85725345D01*
X162769073Y-85265154D01*
X162168547Y-85015794D01*
X161518306Y-85015226D01*
X160917345Y-85263538D01*
X160457154Y-85722927D01*
X160207794Y-86323453D01*
X160207226Y-86973694D01*
X158380958Y-86973694D01*
X158445345Y-86650000D01*
X158331271Y-86076511D01*
X158006415Y-85590330D01*
X157691634Y-85380000D01*
X158006415Y-85169670D01*
X158331271Y-84683489D01*
X158445345Y-84110000D01*
X158331271Y-83536511D01*
X158006415Y-83050330D01*
X157691634Y-82840000D01*
X158006415Y-82629670D01*
X158331271Y-82143489D01*
X158445345Y-81570000D01*
X158331271Y-80996511D01*
X158006415Y-80510330D01*
X157691634Y-80300000D01*
X158006415Y-80089670D01*
X158331271Y-79603489D01*
X158445345Y-79030000D01*
X158383031Y-78716724D01*
X159022500Y-79356193D01*
X159022500Y-80960395D01*
X159022499Y-80960400D01*
X159082445Y-81261763D01*
X159253153Y-81517247D01*
X166141989Y-88406083D01*
X165858636Y-88462445D01*
X165756304Y-88530821D01*
X165603153Y-88633153D01*
X165603151Y-88633156D01*
X164079153Y-90157153D01*
X163908445Y-90412637D01*
X163848499Y-90714000D01*
X163848500Y-90714005D01*
X163848500Y-99277807D01*
X161285153Y-101841153D01*
X161114445Y-102096637D01*
X161054499Y-102398000D01*
X161054500Y-102398005D01*
X161054500Y-103331916D01*
X160712173Y-103673647D01*
X160508732Y-104163587D01*
X160508269Y-104694086D01*
X160710854Y-105184380D01*
X161049500Y-105523617D01*
X161049500Y-110956908D01*
X160712173Y-111293647D01*
X160508732Y-111783587D01*
X160508269Y-112314086D01*
X160710854Y-112804380D01*
X161085647Y-113179827D01*
X161575587Y-113383268D01*
X162106086Y-113383731D01*
X162596380Y-113181146D01*
X162793681Y-112984188D01*
X166167417Y-112984188D01*
X166229071Y-113219800D01*
X166729480Y-113395927D01*
X167259199Y-113367148D01*
X167614929Y-113219800D01*
X167676583Y-112984188D01*
X166922000Y-112229605D01*
X166167417Y-112984188D01*
X162793681Y-112984188D01*
X162971827Y-112806353D01*
X163175268Y-112316413D01*
X163175668Y-111857480D01*
X165576073Y-111857480D01*
X165604852Y-112387199D01*
X165752200Y-112742929D01*
X165987812Y-112804583D01*
X166742395Y-112050000D01*
X167101605Y-112050000D01*
X167856188Y-112804583D01*
X168091800Y-112742929D01*
X168267927Y-112242520D01*
X168239148Y-111712801D01*
X168091800Y-111357071D01*
X167856188Y-111295417D01*
X167101605Y-112050000D01*
X166742395Y-112050000D01*
X165987812Y-111295417D01*
X165752200Y-111357071D01*
X165576073Y-111857480D01*
X163175668Y-111857480D01*
X163175731Y-111785914D01*
X162973146Y-111295620D01*
X162793652Y-111115812D01*
X166167417Y-111115812D01*
X166922000Y-111870395D01*
X167676583Y-111115812D01*
X167614929Y-110880200D01*
X167114520Y-110704073D01*
X166584801Y-110732852D01*
X166229071Y-110880200D01*
X166167417Y-111115812D01*
X162793652Y-111115812D01*
X162624500Y-110946366D01*
X162624500Y-105533075D01*
X162793681Y-105364188D01*
X166167417Y-105364188D01*
X166229071Y-105599800D01*
X166729480Y-105775927D01*
X167259199Y-105747148D01*
X167614929Y-105599800D01*
X167676583Y-105364188D01*
X166922000Y-104609605D01*
X166167417Y-105364188D01*
X162793681Y-105364188D01*
X162971827Y-105186353D01*
X163175268Y-104696413D01*
X163175668Y-104237480D01*
X165576073Y-104237480D01*
X165604852Y-104767199D01*
X165752200Y-105122929D01*
X165987812Y-105184583D01*
X166742395Y-104430000D01*
X167101605Y-104430000D01*
X167856188Y-105184583D01*
X168091800Y-105122929D01*
X168267927Y-104622520D01*
X168239148Y-104092801D01*
X168091800Y-103737071D01*
X167856188Y-103675417D01*
X167101605Y-104430000D01*
X166742395Y-104430000D01*
X165987812Y-103675417D01*
X165752200Y-103737071D01*
X165576073Y-104237480D01*
X163175668Y-104237480D01*
X163175731Y-104165914D01*
X162973146Y-103675620D01*
X162793652Y-103495812D01*
X166167417Y-103495812D01*
X166922000Y-104250395D01*
X167676583Y-103495812D01*
X167614929Y-103260200D01*
X167114520Y-103084073D01*
X166584801Y-103112852D01*
X166229071Y-103260200D01*
X166167417Y-103495812D01*
X162793652Y-103495812D01*
X162629500Y-103331374D01*
X162629500Y-102724194D01*
X165192844Y-100160849D01*
X165192847Y-100160847D01*
X165363555Y-99905363D01*
X165417185Y-99635750D01*
X166541000Y-99635750D01*
X166541000Y-100339909D01*
X166637673Y-100573298D01*
X166816301Y-100751927D01*
X167049690Y-100848600D01*
X167906250Y-100848600D01*
X168065000Y-100689850D01*
X168065000Y-99477000D01*
X166699750Y-99477000D01*
X166541000Y-99635750D01*
X165417185Y-99635750D01*
X165423501Y-99604000D01*
X165423500Y-99603995D01*
X165423500Y-91040194D01*
X166486193Y-89977500D01*
X166765727Y-89977500D01*
X166947585Y-90249670D01*
X167262366Y-90460000D01*
X166947585Y-90670330D01*
X166622729Y-91156511D01*
X166508655Y-91730000D01*
X166622729Y-92303489D01*
X166947585Y-92789670D01*
X167262366Y-93000000D01*
X166947585Y-93210330D01*
X166622729Y-93696511D01*
X166508655Y-94270000D01*
X166622729Y-94843489D01*
X166947585Y-95329670D01*
X167262366Y-95540000D01*
X166947585Y-95750330D01*
X166622729Y-96236511D01*
X166508655Y-96810000D01*
X166622729Y-97383489D01*
X166947585Y-97869670D01*
X166969780Y-97884500D01*
X166816301Y-97948073D01*
X166637673Y-98126702D01*
X166541000Y-98360091D01*
X166541000Y-99064250D01*
X166699750Y-99223000D01*
X168065000Y-99223000D01*
X168065000Y-99203000D01*
X168319000Y-99203000D01*
X168319000Y-99223000D01*
X168339000Y-99223000D01*
X168339000Y-99477000D01*
X168319000Y-99477000D01*
X168319000Y-100689850D01*
X168477750Y-100848600D01*
X169334310Y-100848600D01*
X169567699Y-100751927D01*
X169617000Y-100702626D01*
X169617000Y-116453026D01*
X169587266Y-116432339D01*
X167350605Y-118669000D01*
X167364748Y-118683143D01*
X167185143Y-118862748D01*
X167171000Y-118848605D01*
X167156858Y-118862748D01*
X166977253Y-118683143D01*
X166991395Y-118669000D01*
X164754734Y-116432339D01*
X164306068Y-116744487D01*
X163787669Y-117987343D01*
X163784352Y-119333976D01*
X164296620Y-120579371D01*
X164306068Y-120593513D01*
X164754732Y-120905660D01*
X164642506Y-121017886D01*
X164727620Y-121103000D01*
X125926380Y-121103000D01*
X126011494Y-121017886D01*
X125899268Y-120905660D01*
X126347932Y-120593513D01*
X126866331Y-119350657D01*
X126869648Y-118004024D01*
X126357380Y-116758629D01*
X126347932Y-116744487D01*
X125899266Y-116432339D01*
X123662605Y-118669000D01*
X123676748Y-118683143D01*
X123497143Y-118862748D01*
X123483000Y-118848605D01*
X123468858Y-118862748D01*
X123289253Y-118683143D01*
X123303395Y-118669000D01*
X121066734Y-116432339D01*
X121037000Y-116453026D01*
X121037000Y-116252734D01*
X121246339Y-116252734D01*
X123483000Y-118489395D01*
X125719661Y-116252734D01*
X164934339Y-116252734D01*
X167171000Y-118489395D01*
X169407661Y-116252734D01*
X169095513Y-115804068D01*
X167852657Y-115285669D01*
X166506024Y-115282352D01*
X165260629Y-115794620D01*
X165246487Y-115804068D01*
X164934339Y-116252734D01*
X125719661Y-116252734D01*
X125407513Y-115804068D01*
X124164657Y-115285669D01*
X122818024Y-115282352D01*
X121572629Y-115794620D01*
X121558487Y-115804068D01*
X121246339Y-116252734D01*
X121037000Y-116252734D01*
X121037000Y-113726400D01*
X132238560Y-113726400D01*
X132238560Y-115453600D01*
X132282838Y-115688917D01*
X132421910Y-115905041D01*
X132634110Y-116050031D01*
X132886000Y-116101040D01*
X134918000Y-116101040D01*
X135153317Y-116056762D01*
X135369441Y-115917690D01*
X135514431Y-115705490D01*
X135565440Y-115453600D01*
X135565440Y-113726400D01*
X155098560Y-113726400D01*
X155098560Y-115453600D01*
X155142838Y-115688917D01*
X155281910Y-115905041D01*
X155494110Y-116050031D01*
X155746000Y-116101040D01*
X157778000Y-116101040D01*
X158013317Y-116056762D01*
X158229441Y-115917690D01*
X158374431Y-115705490D01*
X158425440Y-115453600D01*
X158425440Y-113726400D01*
X158381162Y-113491083D01*
X158242090Y-113274959D01*
X158029890Y-113129969D01*
X157935073Y-113110768D01*
X158112732Y-112952036D01*
X158366709Y-112424791D01*
X158369358Y-112409026D01*
X158248217Y-112177000D01*
X156889000Y-112177000D01*
X156889000Y-112197000D01*
X156635000Y-112197000D01*
X156635000Y-112177000D01*
X155275783Y-112177000D01*
X155154642Y-112409026D01*
X155157291Y-112424791D01*
X155411268Y-112952036D01*
X155586845Y-113108907D01*
X155510683Y-113123238D01*
X155294559Y-113262310D01*
X155149569Y-113474510D01*
X155098560Y-113726400D01*
X135565440Y-113726400D01*
X135521162Y-113491083D01*
X135382090Y-113274959D01*
X135169890Y-113129969D01*
X135075073Y-113110768D01*
X135252732Y-112952036D01*
X135506709Y-112424791D01*
X135509358Y-112409026D01*
X135388217Y-112177000D01*
X134029000Y-112177000D01*
X134029000Y-112197000D01*
X133775000Y-112197000D01*
X133775000Y-112177000D01*
X132415783Y-112177000D01*
X132294642Y-112409026D01*
X132297291Y-112424791D01*
X132551268Y-112952036D01*
X132726845Y-113108907D01*
X132650683Y-113123238D01*
X132434559Y-113262310D01*
X132289569Y-113474510D01*
X132238560Y-113726400D01*
X121037000Y-113726400D01*
X121037000Y-112984188D01*
X122987417Y-112984188D01*
X123049071Y-113219800D01*
X123549480Y-113395927D01*
X124079199Y-113367148D01*
X124434929Y-113219800D01*
X124496583Y-112984188D01*
X123742000Y-112229605D01*
X122987417Y-112984188D01*
X121037000Y-112984188D01*
X121037000Y-111857480D01*
X122396073Y-111857480D01*
X122424852Y-112387199D01*
X122572200Y-112742929D01*
X122807812Y-112804583D01*
X123562395Y-112050000D01*
X123921605Y-112050000D01*
X124676188Y-112804583D01*
X124911800Y-112742929D01*
X125087927Y-112242520D01*
X125059148Y-111712801D01*
X124911800Y-111357071D01*
X124676188Y-111295417D01*
X123921605Y-112050000D01*
X123562395Y-112050000D01*
X122807812Y-111295417D01*
X122572200Y-111357071D01*
X122396073Y-111857480D01*
X121037000Y-111857480D01*
X121037000Y-111115812D01*
X122987417Y-111115812D01*
X123742000Y-111870395D01*
X124496583Y-111115812D01*
X124434929Y-110880200D01*
X123934520Y-110704073D01*
X123404801Y-110732852D01*
X123049071Y-110880200D01*
X122987417Y-111115812D01*
X121037000Y-111115812D01*
X121037000Y-105364188D01*
X122987417Y-105364188D01*
X123049071Y-105599800D01*
X123549480Y-105775927D01*
X124079199Y-105747148D01*
X124434929Y-105599800D01*
X124496583Y-105364188D01*
X123742000Y-104609605D01*
X122987417Y-105364188D01*
X121037000Y-105364188D01*
X121037000Y-104237480D01*
X122396073Y-104237480D01*
X122424852Y-104767199D01*
X122572200Y-105122929D01*
X122807812Y-105184583D01*
X123562395Y-104430000D01*
X123921605Y-104430000D01*
X124676188Y-105184583D01*
X124911800Y-105122929D01*
X125087927Y-104622520D01*
X125059148Y-104092801D01*
X124911800Y-103737071D01*
X124676188Y-103675417D01*
X123921605Y-104430000D01*
X123562395Y-104430000D01*
X122807812Y-103675417D01*
X122572200Y-103737071D01*
X122396073Y-104237480D01*
X121037000Y-104237480D01*
X121037000Y-103495812D01*
X122987417Y-103495812D01*
X123742000Y-104250395D01*
X124496583Y-103495812D01*
X124434929Y-103260200D01*
X123934520Y-103084073D01*
X123404801Y-103112852D01*
X123049071Y-103260200D01*
X122987417Y-103495812D01*
X121037000Y-103495812D01*
X121037000Y-100692626D01*
X121096301Y-100751927D01*
X121329690Y-100848600D01*
X122186250Y-100848600D01*
X122345000Y-100689850D01*
X122345000Y-99477000D01*
X122599000Y-99477000D01*
X122599000Y-100689850D01*
X122757750Y-100848600D01*
X123614310Y-100848600D01*
X123847699Y-100751927D01*
X124026327Y-100573298D01*
X124123000Y-100339909D01*
X124123000Y-99635750D01*
X123964250Y-99477000D01*
X122599000Y-99477000D01*
X122345000Y-99477000D01*
X122325000Y-99477000D01*
X122325000Y-99223000D01*
X122345000Y-99223000D01*
X122345000Y-99203000D01*
X122599000Y-99203000D01*
X122599000Y-99223000D01*
X123964250Y-99223000D01*
X124123000Y-99064250D01*
X124123000Y-98360091D01*
X124026327Y-98126702D01*
X123847699Y-97948073D01*
X123694220Y-97884500D01*
X123716415Y-97869670D01*
X124041271Y-97383489D01*
X124155345Y-96810000D01*
X124041271Y-96236511D01*
X123716415Y-95750330D01*
X123401634Y-95540000D01*
X123716415Y-95329670D01*
X124041271Y-94843489D01*
X124155345Y-94270000D01*
X124041271Y-93696511D01*
X123716415Y-93210330D01*
X123401634Y-93000000D01*
X123716415Y-92789670D01*
X124041271Y-92303489D01*
X124155345Y-91730000D01*
X124041271Y-91156511D01*
X123716415Y-90670330D01*
X123401634Y-90460000D01*
X123716415Y-90249670D01*
X124041271Y-89763489D01*
X124155345Y-89190000D01*
X124041271Y-88616511D01*
X123716415Y-88130330D01*
X123401634Y-87920000D01*
X123716415Y-87709670D01*
X124041271Y-87223489D01*
X124090958Y-86973694D01*
X127187226Y-86973694D01*
X127435538Y-87574655D01*
X127894927Y-88034846D01*
X128495453Y-88284206D01*
X129145694Y-88284774D01*
X129746655Y-88036462D01*
X130206846Y-87577073D01*
X130456206Y-86976547D01*
X130456774Y-86326306D01*
X130208462Y-85725345D01*
X129749073Y-85265154D01*
X129148547Y-85015794D01*
X128498306Y-85015226D01*
X127897345Y-85263538D01*
X127437154Y-85722927D01*
X127187794Y-86323453D01*
X127187226Y-86973694D01*
X124090958Y-86973694D01*
X124155345Y-86650000D01*
X124041271Y-86076511D01*
X123716415Y-85590330D01*
X123230234Y-85265474D01*
X122656745Y-85151400D01*
X122287255Y-85151400D01*
X121713766Y-85265474D01*
X121227585Y-85590330D01*
X121037000Y-85875560D01*
X121037000Y-79315750D01*
X125917000Y-79315750D01*
X125917000Y-80106310D01*
X126013673Y-80339699D01*
X126192302Y-80518327D01*
X126312251Y-80568012D01*
X126209086Y-80670997D01*
X125967276Y-81253341D01*
X125966725Y-81883893D01*
X126207519Y-82466657D01*
X126652997Y-82912914D01*
X127235341Y-83154724D01*
X127865893Y-83155275D01*
X128448657Y-82914481D01*
X128894914Y-82469003D01*
X129136724Y-81886659D01*
X129137275Y-81256107D01*
X128896481Y-80673343D01*
X128791455Y-80568133D01*
X128911698Y-80518327D01*
X129090327Y-80339699D01*
X129187000Y-80106310D01*
X129187000Y-79315750D01*
X129028250Y-79157000D01*
X127679000Y-79157000D01*
X127679000Y-79177000D01*
X127425000Y-79177000D01*
X127425000Y-79157000D01*
X126075750Y-79157000D01*
X125917000Y-79315750D01*
X121037000Y-79315750D01*
X121037000Y-77397266D01*
X121246339Y-77397266D01*
X121558487Y-77845932D01*
X122801343Y-78364331D01*
X124147976Y-78367648D01*
X125154365Y-77953690D01*
X125917000Y-77953690D01*
X125917000Y-78744250D01*
X126075750Y-78903000D01*
X127425000Y-78903000D01*
X127425000Y-77603750D01*
X127679000Y-77603750D01*
X127679000Y-78903000D01*
X129028250Y-78903000D01*
X129187000Y-78744250D01*
X129187000Y-77953690D01*
X129090327Y-77720301D01*
X128911698Y-77541673D01*
X128678309Y-77445000D01*
X127837750Y-77445000D01*
X127679000Y-77603750D01*
X127425000Y-77603750D01*
X127266250Y-77445000D01*
X126425691Y-77445000D01*
X126192302Y-77541673D01*
X126013673Y-77720301D01*
X125917000Y-77953690D01*
X125154365Y-77953690D01*
X125393371Y-77855380D01*
X125407513Y-77845932D01*
X125719661Y-77397266D01*
X123483000Y-75160605D01*
X121246339Y-77397266D01*
X121037000Y-77397266D01*
X121037000Y-77196974D01*
X121066734Y-77217661D01*
X123303395Y-74981000D01*
X123662605Y-74981000D01*
X125899266Y-77217661D01*
X126347932Y-76905513D01*
X126866331Y-75662657D01*
X126869648Y-74316024D01*
X126357380Y-73070629D01*
X126347932Y-73056487D01*
X125899266Y-72744339D01*
X123662605Y-74981000D01*
X123303395Y-74981000D01*
X121066734Y-72744339D01*
X121037000Y-72765026D01*
X121037000Y-72523000D01*
X121275374Y-72523000D01*
X121246339Y-72564734D01*
X121246339Y-72564734D01*
G37*
X121246339Y-72564734D02*
X123483000Y-74801395D01*
X125719661Y-72564734D01*
X125690626Y-72523000D01*
X136260646Y-72523000D01*
X136315012Y-76491740D01*
X136323685Y-76536159D01*
X136350965Y-76578553D01*
X136392590Y-76606994D01*
X136442000Y-76617000D01*
X137526118Y-76617000D01*
X137409153Y-76695153D01*
X137409151Y-76695156D01*
X135861806Y-78242500D01*
X135328273Y-78242500D01*
X135146415Y-77970330D01*
X134660234Y-77645474D01*
X134086745Y-77531400D01*
X133717255Y-77531400D01*
X133143766Y-77645474D01*
X132657585Y-77970330D01*
X132332729Y-78456511D01*
X132218655Y-79030000D01*
X132332729Y-79603489D01*
X132657585Y-80089670D01*
X132972366Y-80300000D01*
X132657585Y-80510330D01*
X132332729Y-80996511D01*
X132218655Y-81570000D01*
X132332729Y-82143489D01*
X132657585Y-82629670D01*
X132972366Y-82840000D01*
X132657585Y-83050330D01*
X132332729Y-83536511D01*
X132218655Y-84110000D01*
X132332729Y-84683489D01*
X132657585Y-85169670D01*
X132972366Y-85380000D01*
X132657585Y-85590330D01*
X132332729Y-86076511D01*
X132218655Y-86650000D01*
X132332729Y-87223489D01*
X132657585Y-87709670D01*
X132972366Y-87920000D01*
X132657585Y-88130330D01*
X132459591Y-88426649D01*
X132324601Y-88453501D01*
X132279637Y-88462445D01*
X132024153Y-88633153D01*
X132024151Y-88633156D01*
X130297153Y-90360153D01*
X130126445Y-90615637D01*
X130066499Y-90917000D01*
X130066500Y-90917005D01*
X130066500Y-95743135D01*
X129749073Y-95425154D01*
X129148547Y-95175794D01*
X128498306Y-95175226D01*
X127897345Y-95423538D01*
X127437154Y-95882927D01*
X127187794Y-96483453D01*
X127187226Y-97133694D01*
X127435538Y-97734655D01*
X127894927Y-98194846D01*
X128495453Y-98444206D01*
X129145694Y-98444774D01*
X129746655Y-98196462D01*
X130066500Y-97877174D01*
X130066500Y-99531806D01*
X128265153Y-101333153D01*
X128094445Y-101588637D01*
X128092316Y-101599340D01*
X128089445Y-101603637D01*
X128029500Y-101905000D01*
X128029500Y-103336908D01*
X127692173Y-103673647D01*
X127488732Y-104163587D01*
X127488269Y-104694086D01*
X127690854Y-105184380D01*
X128029500Y-105523617D01*
X128029500Y-110956908D01*
X127692173Y-111293647D01*
X127488732Y-111783587D01*
X127488269Y-112314086D01*
X127690854Y-112804380D01*
X128065647Y-113179827D01*
X128555587Y-113383268D01*
X129086086Y-113383731D01*
X129576380Y-113181146D01*
X129951827Y-112806353D01*
X130155268Y-112316413D01*
X130155731Y-111785914D01*
X129953146Y-111295620D01*
X129604500Y-110946366D01*
X129604500Y-105533075D01*
X129951827Y-105186353D01*
X130155268Y-104696413D01*
X130155731Y-104165914D01*
X129953146Y-103675620D01*
X129604500Y-103326366D01*
X129604500Y-102221194D01*
X131410847Y-100414847D01*
X131581555Y-100159363D01*
X131641501Y-99858000D01*
X131641500Y-99857995D01*
X131641500Y-96810000D01*
X132218655Y-96810000D01*
X132332729Y-97383489D01*
X132657585Y-97869670D01*
X132972366Y-98080000D01*
X132657585Y-98290330D01*
X132332729Y-98776511D01*
X132218655Y-99350000D01*
X132332729Y-99923489D01*
X132657585Y-100409670D01*
X132972366Y-100620000D01*
X132657585Y-100830330D01*
X132332729Y-101316511D01*
X132218655Y-101890000D01*
X132332729Y-102463489D01*
X132657585Y-102949670D01*
X132972366Y-103160000D01*
X132657585Y-103370330D01*
X132332729Y-103856511D01*
X132218655Y-104430000D01*
X132332729Y-105003489D01*
X132657585Y-105489670D01*
X132972366Y-105700000D01*
X132657585Y-105910330D01*
X132332729Y-106396511D01*
X132218655Y-106970000D01*
X132332729Y-107543489D01*
X132657585Y-108029670D01*
X132972366Y-108240000D01*
X132657585Y-108450330D01*
X132332729Y-108936511D01*
X132218655Y-109510000D01*
X132332729Y-110083489D01*
X132657585Y-110569670D01*
X132967069Y-110776461D01*
X132551268Y-111147964D01*
X132297291Y-111675209D01*
X132294642Y-111690974D01*
X132415783Y-111923000D01*
X133775000Y-111923000D01*
X133775000Y-111903000D01*
X134029000Y-111903000D01*
X134029000Y-111923000D01*
X135388217Y-111923000D01*
X135509358Y-111690974D01*
X135506709Y-111675209D01*
X135252732Y-111147964D01*
X134836931Y-110776461D01*
X135146415Y-110569670D01*
X135471271Y-110083489D01*
X135585345Y-109510000D01*
X135471271Y-108936511D01*
X135146415Y-108450330D01*
X134831634Y-108240000D01*
X135146415Y-108029670D01*
X135471271Y-107543489D01*
X135585345Y-106970000D01*
X135471271Y-106396511D01*
X135146415Y-105910330D01*
X134831634Y-105700000D01*
X135146415Y-105489670D01*
X135471271Y-105003489D01*
X135585345Y-104430000D01*
X155078655Y-104430000D01*
X155192729Y-105003489D01*
X155517585Y-105489670D01*
X155832366Y-105700000D01*
X155517585Y-105910330D01*
X155192729Y-106396511D01*
X155078655Y-106970000D01*
X155192729Y-107543489D01*
X155517585Y-108029670D01*
X155832366Y-108240000D01*
X155517585Y-108450330D01*
X155192729Y-108936511D01*
X155078655Y-109510000D01*
X155192729Y-110083489D01*
X155517585Y-110569670D01*
X155827069Y-110776461D01*
X155411268Y-111147964D01*
X155157291Y-111675209D01*
X155154642Y-111690974D01*
X155275783Y-111923000D01*
X156635000Y-111923000D01*
X156635000Y-111903000D01*
X156889000Y-111903000D01*
X156889000Y-111923000D01*
X158248217Y-111923000D01*
X158369358Y-111690974D01*
X158366709Y-111675209D01*
X158112732Y-111147964D01*
X157696931Y-110776461D01*
X158006415Y-110569670D01*
X158331271Y-110083489D01*
X158445345Y-109510000D01*
X158331271Y-108936511D01*
X158006415Y-108450330D01*
X157691634Y-108240000D01*
X158006415Y-108029670D01*
X158331271Y-107543489D01*
X158445345Y-106970000D01*
X158331271Y-106396511D01*
X158006415Y-105910330D01*
X157691634Y-105700000D01*
X158006415Y-105489670D01*
X158331271Y-105003489D01*
X158445345Y-104430000D01*
X158331271Y-103856511D01*
X158006415Y-103370330D01*
X157696931Y-103163539D01*
X158112732Y-102792036D01*
X158366709Y-102264791D01*
X158369358Y-102249026D01*
X158248217Y-102017000D01*
X156889000Y-102017000D01*
X156889000Y-102037000D01*
X156635000Y-102037000D01*
X156635000Y-102017000D01*
X155275783Y-102017000D01*
X155154642Y-102249026D01*
X155157291Y-102264791D01*
X155411268Y-102792036D01*
X155827069Y-103163539D01*
X155517585Y-103370330D01*
X155192729Y-103856511D01*
X155078655Y-104430000D01*
X135585345Y-104430000D01*
X135471271Y-103856511D01*
X135146415Y-103370330D01*
X134831634Y-103160000D01*
X135146415Y-102949670D01*
X135471271Y-102463489D01*
X135585345Y-101890000D01*
X135471271Y-101316511D01*
X135146415Y-100830330D01*
X134831634Y-100620000D01*
X135146415Y-100409670D01*
X135471271Y-99923489D01*
X135585345Y-99350000D01*
X135471271Y-98776511D01*
X135146415Y-98290330D01*
X134831634Y-98080000D01*
X135146415Y-97869670D01*
X135471271Y-97383489D01*
X135520958Y-97133694D01*
X137982226Y-97133694D01*
X138230538Y-97734655D01*
X138689927Y-98194846D01*
X139290453Y-98444206D01*
X139940694Y-98444774D01*
X140541655Y-98196462D01*
X141001846Y-97737073D01*
X141251206Y-97136547D01*
X141251208Y-97133694D01*
X143697226Y-97133694D01*
X143945538Y-97734655D01*
X144404927Y-98194846D01*
X145005453Y-98444206D01*
X145655694Y-98444774D01*
X146256655Y-98196462D01*
X146716846Y-97737073D01*
X146966206Y-97136547D01*
X146966774Y-96486306D01*
X146718462Y-95885345D01*
X146259073Y-95425154D01*
X145658547Y-95175794D01*
X145008306Y-95175226D01*
X144407345Y-95423538D01*
X143947154Y-95882927D01*
X143697794Y-96483453D01*
X143697226Y-97133694D01*
X141251208Y-97133694D01*
X141251774Y-96486306D01*
X141003462Y-95885345D01*
X140544073Y-95425154D01*
X139943547Y-95175794D01*
X139293306Y-95175226D01*
X138692345Y-95423538D01*
X138232154Y-95882927D01*
X137982794Y-96483453D01*
X137982226Y-97133694D01*
X135520958Y-97133694D01*
X135585345Y-96810000D01*
X135471271Y-96236511D01*
X135146415Y-95750330D01*
X134836931Y-95543539D01*
X135252732Y-95172036D01*
X135506709Y-94644791D01*
X135509358Y-94629026D01*
X135388217Y-94397000D01*
X134029000Y-94397000D01*
X134029000Y-94417000D01*
X133775000Y-94417000D01*
X133775000Y-94397000D01*
X132415783Y-94397000D01*
X132294642Y-94629026D01*
X132297291Y-94644791D01*
X132551268Y-95172036D01*
X132967069Y-95543539D01*
X132657585Y-95750330D01*
X132332729Y-96236511D01*
X132218655Y-96810000D01*
X131641500Y-96810000D01*
X131641500Y-91243194D01*
X132648548Y-90236145D01*
X132657585Y-90249670D01*
X132972366Y-90460000D01*
X132657585Y-90670330D01*
X132332729Y-91156511D01*
X132218655Y-91730000D01*
X132332729Y-92303489D01*
X132657585Y-92789670D01*
X132967069Y-92996461D01*
X132551268Y-93367964D01*
X132297291Y-93895209D01*
X132294642Y-93910974D01*
X132415783Y-94143000D01*
X133775000Y-94143000D01*
X133775000Y-94123000D01*
X134029000Y-94123000D01*
X134029000Y-94143000D01*
X135388217Y-94143000D01*
X135509358Y-93910974D01*
X135506709Y-93895209D01*
X135252732Y-93367964D01*
X134836931Y-92996461D01*
X135146415Y-92789670D01*
X135471271Y-92303489D01*
X135585345Y-91730000D01*
X135471271Y-91156511D01*
X135146415Y-90670330D01*
X134831634Y-90460000D01*
X135146415Y-90249670D01*
X135471271Y-89763489D01*
X135585345Y-89190000D01*
X135471271Y-88616511D01*
X135146415Y-88130330D01*
X134831634Y-87920000D01*
X135146415Y-87709670D01*
X135471271Y-87223489D01*
X135520958Y-86973694D01*
X137982226Y-86973694D01*
X138230538Y-87574655D01*
X138689927Y-88034846D01*
X139290453Y-88284206D01*
X139940694Y-88284774D01*
X140541655Y-88036462D01*
X141001846Y-87577073D01*
X141251206Y-86976547D01*
X141251208Y-86973694D01*
X143697226Y-86973694D01*
X143945538Y-87574655D01*
X144404927Y-88034846D01*
X145005453Y-88284206D01*
X145655694Y-88284774D01*
X146256655Y-88036462D01*
X146716846Y-87577073D01*
X146966206Y-86976547D01*
X146966208Y-86973694D01*
X149412226Y-86973694D01*
X149660538Y-87574655D01*
X150119927Y-88034846D01*
X150720453Y-88284206D01*
X151370694Y-88284774D01*
X151971655Y-88036462D01*
X152431846Y-87577073D01*
X152681206Y-86976547D01*
X152681774Y-86326306D01*
X152433462Y-85725345D01*
X151974073Y-85265154D01*
X151373547Y-85015794D01*
X150723306Y-85015226D01*
X150122345Y-85263538D01*
X149662154Y-85722927D01*
X149412794Y-86323453D01*
X149412226Y-86973694D01*
X146966208Y-86973694D01*
X146966774Y-86326306D01*
X146718462Y-85725345D01*
X146259073Y-85265154D01*
X145658547Y-85015794D01*
X145008306Y-85015226D01*
X144407345Y-85263538D01*
X143947154Y-85722927D01*
X143697794Y-86323453D01*
X143697226Y-86973694D01*
X141251208Y-86973694D01*
X141251774Y-86326306D01*
X141003462Y-85725345D01*
X140544073Y-85265154D01*
X139943547Y-85015794D01*
X139293306Y-85015226D01*
X138692345Y-85263538D01*
X138232154Y-85722927D01*
X137982794Y-86323453D01*
X137982226Y-86973694D01*
X135520958Y-86973694D01*
X135585345Y-86650000D01*
X135471271Y-86076511D01*
X135146415Y-85590330D01*
X134831634Y-85380000D01*
X135146415Y-85169670D01*
X135471271Y-84683489D01*
X135585345Y-84110000D01*
X135471271Y-83536511D01*
X135146415Y-83050330D01*
X134831634Y-82840000D01*
X135146415Y-82629670D01*
X135471271Y-82143489D01*
X135585345Y-81570000D01*
X135471271Y-80996511D01*
X135146415Y-80510330D01*
X134831634Y-80300000D01*
X135146415Y-80089670D01*
X135328273Y-79817500D01*
X136187995Y-79817500D01*
X136188000Y-79817501D01*
X136193540Y-79816399D01*
X142165000Y-79816399D01*
X142165000Y-80783601D01*
X142251397Y-81217947D01*
X142497434Y-81586167D01*
X142865654Y-81832204D01*
X143300000Y-81918601D01*
X143734346Y-81832204D01*
X143763372Y-81812810D01*
X143943690Y-81887500D01*
X144284250Y-81887500D01*
X144443000Y-81728750D01*
X144443000Y-80427000D01*
X144435000Y-80427000D01*
X144435000Y-80173000D01*
X144443000Y-80173000D01*
X144443000Y-78871250D01*
X144697000Y-78871250D01*
X144697000Y-80173000D01*
X144705000Y-80173000D01*
X144705000Y-80427000D01*
X144697000Y-80427000D01*
X144697000Y-81728750D01*
X144855750Y-81887500D01*
X145196310Y-81887500D01*
X145376628Y-81812810D01*
X145405654Y-81832204D01*
X145840000Y-81918601D01*
X146274346Y-81832204D01*
X146475000Y-81698131D01*
X146675654Y-81832204D01*
X147110000Y-81918601D01*
X147544346Y-81832204D01*
X147912566Y-81586167D01*
X148158603Y-81217947D01*
X148245000Y-80783601D01*
X148245000Y-79816399D01*
X148158603Y-79382053D01*
X147912566Y-79013833D01*
X147544346Y-78767796D01*
X147110000Y-78681399D01*
X146675654Y-78767796D01*
X146475000Y-78901869D01*
X146274346Y-78767796D01*
X145840000Y-78681399D01*
X145405654Y-78767796D01*
X145376628Y-78787190D01*
X145196310Y-78712500D01*
X144855750Y-78712500D01*
X144697000Y-78871250D01*
X144443000Y-78871250D01*
X144284250Y-78712500D01*
X143943690Y-78712500D01*
X143763372Y-78787190D01*
X143734346Y-78767796D01*
X143300000Y-78681399D01*
X142865654Y-78767796D01*
X142497434Y-79013833D01*
X142251397Y-79382053D01*
X142165000Y-79816399D01*
X136193540Y-79816399D01*
X136489363Y-79757555D01*
X136744847Y-79586847D01*
X138292193Y-78039500D01*
X155471367Y-78039500D01*
X155192729Y-78456511D01*
X155078655Y-79030000D01*
X155192729Y-79603489D01*
X155517585Y-80089670D01*
X155832366Y-80300000D01*
X155517585Y-80510330D01*
X155192729Y-80996511D01*
X155078655Y-81570000D01*
X155192729Y-82143489D01*
X155517585Y-82629670D01*
X155832366Y-82840000D01*
X155517585Y-83050330D01*
X155192729Y-83536511D01*
X155078655Y-84110000D01*
X155192729Y-84683489D01*
X155517585Y-85169670D01*
X155832366Y-85380000D01*
X155517585Y-85590330D01*
X155335727Y-85862500D01*
X154730005Y-85862500D01*
X154730000Y-85862499D01*
X154428637Y-85922445D01*
X154173153Y-86093153D01*
X153157153Y-87109153D01*
X152986445Y-87364637D01*
X152926499Y-87666000D01*
X152926500Y-87666005D01*
X152926500Y-95230298D01*
X152352528Y-95804270D01*
X151974073Y-95425154D01*
X151373547Y-95175794D01*
X150723306Y-95175226D01*
X150122345Y-95423538D01*
X149662154Y-95882927D01*
X149412794Y-96483453D01*
X149412226Y-97133694D01*
X149660538Y-97734655D01*
X150119927Y-98194846D01*
X150720453Y-98444206D01*
X151370694Y-98444774D01*
X151971655Y-98196462D01*
X152431846Y-97737073D01*
X152492440Y-97591146D01*
X152761855Y-97537555D01*
X153017339Y-97366847D01*
X154270847Y-96113339D01*
X154441555Y-95857855D01*
X154501501Y-95556492D01*
X154501500Y-95556487D01*
X154501500Y-87992194D01*
X155056194Y-87437500D01*
X155335727Y-87437500D01*
X155517585Y-87709670D01*
X155832366Y-87920000D01*
X155517585Y-88130330D01*
X155192729Y-88616511D01*
X155078655Y-89190000D01*
X155192729Y-89763489D01*
X155517585Y-90249670D01*
X155832366Y-90460000D01*
X155517585Y-90670330D01*
X155192729Y-91156511D01*
X155078655Y-91730000D01*
X155192729Y-92303489D01*
X155517585Y-92789670D01*
X155832366Y-93000000D01*
X155517585Y-93210330D01*
X155192729Y-93696511D01*
X155078655Y-94270000D01*
X155192729Y-94843489D01*
X155517585Y-95329670D01*
X155832366Y-95540000D01*
X155517585Y-95750330D01*
X155192729Y-96236511D01*
X155078655Y-96810000D01*
X155192729Y-97383489D01*
X155517585Y-97869670D01*
X155832366Y-98080000D01*
X155517585Y-98290330D01*
X155192729Y-98776511D01*
X155078655Y-99350000D01*
X155192729Y-99923489D01*
X155517585Y-100409670D01*
X155827069Y-100616461D01*
X155411268Y-100987964D01*
X155157291Y-101515209D01*
X155154642Y-101530974D01*
X155275783Y-101763000D01*
X156635000Y-101763000D01*
X156635000Y-101743000D01*
X156889000Y-101743000D01*
X156889000Y-101763000D01*
X158248217Y-101763000D01*
X158369358Y-101530974D01*
X158366709Y-101515209D01*
X158112732Y-100987964D01*
X157696931Y-100616461D01*
X158006415Y-100409670D01*
X158331271Y-99923489D01*
X158445345Y-99350000D01*
X158331271Y-98776511D01*
X158006415Y-98290330D01*
X157691634Y-98080000D01*
X158006415Y-97869670D01*
X158331271Y-97383489D01*
X158380958Y-97133694D01*
X160207226Y-97133694D01*
X160455538Y-97734655D01*
X160914927Y-98194846D01*
X161515453Y-98444206D01*
X162165694Y-98444774D01*
X162766655Y-98196462D01*
X163226846Y-97737073D01*
X163476206Y-97136547D01*
X163476774Y-96486306D01*
X163228462Y-95885345D01*
X162769073Y-95425154D01*
X162168547Y-95175794D01*
X161518306Y-95175226D01*
X160917345Y-95423538D01*
X160457154Y-95882927D01*
X160207794Y-96483453D01*
X160207226Y-97133694D01*
X158380958Y-97133694D01*
X158445345Y-96810000D01*
X158331271Y-96236511D01*
X158006415Y-95750330D01*
X157691634Y-95540000D01*
X158006415Y-95329670D01*
X158331271Y-94843489D01*
X158445345Y-94270000D01*
X158331271Y-93696511D01*
X158006415Y-93210330D01*
X157691634Y-93000000D01*
X158006415Y-92789670D01*
X158331271Y-92303489D01*
X158445345Y-91730000D01*
X158331271Y-91156511D01*
X158006415Y-90670330D01*
X157691634Y-90460000D01*
X158006415Y-90249670D01*
X158331271Y-89763489D01*
X158445345Y-89190000D01*
X158331271Y-88616511D01*
X158006415Y-88130330D01*
X157691634Y-87920000D01*
X158006415Y-87709670D01*
X158331271Y-87223489D01*
X158380958Y-86973694D01*
X160207226Y-86973694D01*
X160455538Y-87574655D01*
X160914927Y-88034846D01*
X161515453Y-88284206D01*
X162165694Y-88284774D01*
X162766655Y-88036462D01*
X163226846Y-87577073D01*
X163476206Y-86976547D01*
X163476774Y-86326306D01*
X163228462Y-85725345D01*
X162769073Y-85265154D01*
X162168547Y-85015794D01*
X161518306Y-85015226D01*
X160917345Y-85263538D01*
X160457154Y-85722927D01*
X160207794Y-86323453D01*
X160207226Y-86973694D01*
X158380958Y-86973694D01*
X158445345Y-86650000D01*
X158331271Y-86076511D01*
X158006415Y-85590330D01*
X157691634Y-85380000D01*
X158006415Y-85169670D01*
X158331271Y-84683489D01*
X158445345Y-84110000D01*
X158331271Y-83536511D01*
X158006415Y-83050330D01*
X157691634Y-82840000D01*
X158006415Y-82629670D01*
X158331271Y-82143489D01*
X158445345Y-81570000D01*
X158331271Y-80996511D01*
X158006415Y-80510330D01*
X157691634Y-80300000D01*
X158006415Y-80089670D01*
X158331271Y-79603489D01*
X158445345Y-79030000D01*
X158383031Y-78716724D01*
X159022500Y-79356193D01*
X159022500Y-80960395D01*
X159022499Y-80960400D01*
X159082445Y-81261763D01*
X159253153Y-81517247D01*
X166141989Y-88406083D01*
X165858636Y-88462445D01*
X165756304Y-88530821D01*
X165603153Y-88633153D01*
X165603151Y-88633156D01*
X164079153Y-90157153D01*
X163908445Y-90412637D01*
X163848499Y-90714000D01*
X163848500Y-90714005D01*
X163848500Y-99277807D01*
X161285153Y-101841153D01*
X161114445Y-102096637D01*
X161054499Y-102398000D01*
X161054500Y-102398005D01*
X161054500Y-103331916D01*
X160712173Y-103673647D01*
X160508732Y-104163587D01*
X160508269Y-104694086D01*
X160710854Y-105184380D01*
X161049500Y-105523617D01*
X161049500Y-110956908D01*
X160712173Y-111293647D01*
X160508732Y-111783587D01*
X160508269Y-112314086D01*
X160710854Y-112804380D01*
X161085647Y-113179827D01*
X161575587Y-113383268D01*
X162106086Y-113383731D01*
X162596380Y-113181146D01*
X162793681Y-112984188D01*
X166167417Y-112984188D01*
X166229071Y-113219800D01*
X166729480Y-113395927D01*
X167259199Y-113367148D01*
X167614929Y-113219800D01*
X167676583Y-112984188D01*
X166922000Y-112229605D01*
X166167417Y-112984188D01*
X162793681Y-112984188D01*
X162971827Y-112806353D01*
X163175268Y-112316413D01*
X163175668Y-111857480D01*
X165576073Y-111857480D01*
X165604852Y-112387199D01*
X165752200Y-112742929D01*
X165987812Y-112804583D01*
X166742395Y-112050000D01*
X167101605Y-112050000D01*
X167856188Y-112804583D01*
X168091800Y-112742929D01*
X168267927Y-112242520D01*
X168239148Y-111712801D01*
X168091800Y-111357071D01*
X167856188Y-111295417D01*
X167101605Y-112050000D01*
X166742395Y-112050000D01*
X165987812Y-111295417D01*
X165752200Y-111357071D01*
X165576073Y-111857480D01*
X163175668Y-111857480D01*
X163175731Y-111785914D01*
X162973146Y-111295620D01*
X162793652Y-111115812D01*
X166167417Y-111115812D01*
X166922000Y-111870395D01*
X167676583Y-111115812D01*
X167614929Y-110880200D01*
X167114520Y-110704073D01*
X166584801Y-110732852D01*
X166229071Y-110880200D01*
X166167417Y-111115812D01*
X162793652Y-111115812D01*
X162624500Y-110946366D01*
X162624500Y-105533075D01*
X162793681Y-105364188D01*
X166167417Y-105364188D01*
X166229071Y-105599800D01*
X166729480Y-105775927D01*
X167259199Y-105747148D01*
X167614929Y-105599800D01*
X167676583Y-105364188D01*
X166922000Y-104609605D01*
X166167417Y-105364188D01*
X162793681Y-105364188D01*
X162971827Y-105186353D01*
X163175268Y-104696413D01*
X163175668Y-104237480D01*
X165576073Y-104237480D01*
X165604852Y-104767199D01*
X165752200Y-105122929D01*
X165987812Y-105184583D01*
X166742395Y-104430000D01*
X167101605Y-104430000D01*
X167856188Y-105184583D01*
X168091800Y-105122929D01*
X168267927Y-104622520D01*
X168239148Y-104092801D01*
X168091800Y-103737071D01*
X167856188Y-103675417D01*
X167101605Y-104430000D01*
X166742395Y-104430000D01*
X165987812Y-103675417D01*
X165752200Y-103737071D01*
X165576073Y-104237480D01*
X163175668Y-104237480D01*
X163175731Y-104165914D01*
X162973146Y-103675620D01*
X162793652Y-103495812D01*
X166167417Y-103495812D01*
X166922000Y-104250395D01*
X167676583Y-103495812D01*
X167614929Y-103260200D01*
X167114520Y-103084073D01*
X166584801Y-103112852D01*
X166229071Y-103260200D01*
X166167417Y-103495812D01*
X162793652Y-103495812D01*
X162629500Y-103331374D01*
X162629500Y-102724194D01*
X165192844Y-100160849D01*
X165192847Y-100160847D01*
X165363555Y-99905363D01*
X165417185Y-99635750D01*
X166541000Y-99635750D01*
X166541000Y-100339909D01*
X166637673Y-100573298D01*
X166816301Y-100751927D01*
X167049690Y-100848600D01*
X167906250Y-100848600D01*
X168065000Y-100689850D01*
X168065000Y-99477000D01*
X166699750Y-99477000D01*
X166541000Y-99635750D01*
X165417185Y-99635750D01*
X165423501Y-99604000D01*
X165423500Y-99603995D01*
X165423500Y-91040194D01*
X166486193Y-89977500D01*
X166765727Y-89977500D01*
X166947585Y-90249670D01*
X167262366Y-90460000D01*
X166947585Y-90670330D01*
X166622729Y-91156511D01*
X166508655Y-91730000D01*
X166622729Y-92303489D01*
X166947585Y-92789670D01*
X167262366Y-93000000D01*
X166947585Y-93210330D01*
X166622729Y-93696511D01*
X166508655Y-94270000D01*
X166622729Y-94843489D01*
X166947585Y-95329670D01*
X167262366Y-95540000D01*
X166947585Y-95750330D01*
X166622729Y-96236511D01*
X166508655Y-96810000D01*
X166622729Y-97383489D01*
X166947585Y-97869670D01*
X166969780Y-97884500D01*
X166816301Y-97948073D01*
X166637673Y-98126702D01*
X166541000Y-98360091D01*
X166541000Y-99064250D01*
X166699750Y-99223000D01*
X168065000Y-99223000D01*
X168065000Y-99203000D01*
X168319000Y-99203000D01*
X168319000Y-99223000D01*
X168339000Y-99223000D01*
X168339000Y-99477000D01*
X168319000Y-99477000D01*
X168319000Y-100689850D01*
X168477750Y-100848600D01*
X169334310Y-100848600D01*
X169567699Y-100751927D01*
X169617000Y-100702626D01*
X169617000Y-116453026D01*
X169587266Y-116432339D01*
X167350605Y-118669000D01*
X167364748Y-118683143D01*
X167185143Y-118862748D01*
X167171000Y-118848605D01*
X167156858Y-118862748D01*
X166977253Y-118683143D01*
X166991395Y-118669000D01*
X164754734Y-116432339D01*
X164306068Y-116744487D01*
X163787669Y-117987343D01*
X163784352Y-119333976D01*
X164296620Y-120579371D01*
X164306068Y-120593513D01*
X164754732Y-120905660D01*
X164642506Y-121017886D01*
X164727620Y-121103000D01*
X125926380Y-121103000D01*
X126011494Y-121017886D01*
X125899268Y-120905660D01*
X126347932Y-120593513D01*
X126866331Y-119350657D01*
X126869648Y-118004024D01*
X126357380Y-116758629D01*
X126347932Y-116744487D01*
X125899266Y-116432339D01*
X123662605Y-118669000D01*
X123676748Y-118683143D01*
X123497143Y-118862748D01*
X123483000Y-118848605D01*
X123468858Y-118862748D01*
X123289253Y-118683143D01*
X123303395Y-118669000D01*
X121066734Y-116432339D01*
X121037000Y-116453026D01*
X121037000Y-116252734D01*
X121246339Y-116252734D01*
X123483000Y-118489395D01*
X125719661Y-116252734D01*
X164934339Y-116252734D01*
X167171000Y-118489395D01*
X169407661Y-116252734D01*
X169095513Y-115804068D01*
X167852657Y-115285669D01*
X166506024Y-115282352D01*
X165260629Y-115794620D01*
X165246487Y-115804068D01*
X164934339Y-116252734D01*
X125719661Y-116252734D01*
X125407513Y-115804068D01*
X124164657Y-115285669D01*
X122818024Y-115282352D01*
X121572629Y-115794620D01*
X121558487Y-115804068D01*
X121246339Y-116252734D01*
X121037000Y-116252734D01*
X121037000Y-113726400D01*
X132238560Y-113726400D01*
X132238560Y-115453600D01*
X132282838Y-115688917D01*
X132421910Y-115905041D01*
X132634110Y-116050031D01*
X132886000Y-116101040D01*
X134918000Y-116101040D01*
X135153317Y-116056762D01*
X135369441Y-115917690D01*
X135514431Y-115705490D01*
X135565440Y-115453600D01*
X135565440Y-113726400D01*
X155098560Y-113726400D01*
X155098560Y-115453600D01*
X155142838Y-115688917D01*
X155281910Y-115905041D01*
X155494110Y-116050031D01*
X155746000Y-116101040D01*
X157778000Y-116101040D01*
X158013317Y-116056762D01*
X158229441Y-115917690D01*
X158374431Y-115705490D01*
X158425440Y-115453600D01*
X158425440Y-113726400D01*
X158381162Y-113491083D01*
X158242090Y-113274959D01*
X158029890Y-113129969D01*
X157935073Y-113110768D01*
X158112732Y-112952036D01*
X158366709Y-112424791D01*
X158369358Y-112409026D01*
X158248217Y-112177000D01*
X156889000Y-112177000D01*
X156889000Y-112197000D01*
X156635000Y-112197000D01*
X156635000Y-112177000D01*
X155275783Y-112177000D01*
X155154642Y-112409026D01*
X155157291Y-112424791D01*
X155411268Y-112952036D01*
X155586845Y-113108907D01*
X155510683Y-113123238D01*
X155294559Y-113262310D01*
X155149569Y-113474510D01*
X155098560Y-113726400D01*
X135565440Y-113726400D01*
X135521162Y-113491083D01*
X135382090Y-113274959D01*
X135169890Y-113129969D01*
X135075073Y-113110768D01*
X135252732Y-112952036D01*
X135506709Y-112424791D01*
X135509358Y-112409026D01*
X135388217Y-112177000D01*
X134029000Y-112177000D01*
X134029000Y-112197000D01*
X133775000Y-112197000D01*
X133775000Y-112177000D01*
X132415783Y-112177000D01*
X132294642Y-112409026D01*
X132297291Y-112424791D01*
X132551268Y-112952036D01*
X132726845Y-113108907D01*
X132650683Y-113123238D01*
X132434559Y-113262310D01*
X132289569Y-113474510D01*
X132238560Y-113726400D01*
X121037000Y-113726400D01*
X121037000Y-112984188D01*
X122987417Y-112984188D01*
X123049071Y-113219800D01*
X123549480Y-113395927D01*
X124079199Y-113367148D01*
X124434929Y-113219800D01*
X124496583Y-112984188D01*
X123742000Y-112229605D01*
X122987417Y-112984188D01*
X121037000Y-112984188D01*
X121037000Y-111857480D01*
X122396073Y-111857480D01*
X122424852Y-112387199D01*
X122572200Y-112742929D01*
X122807812Y-112804583D01*
X123562395Y-112050000D01*
X123921605Y-112050000D01*
X124676188Y-112804583D01*
X124911800Y-112742929D01*
X125087927Y-112242520D01*
X125059148Y-111712801D01*
X124911800Y-111357071D01*
X124676188Y-111295417D01*
X123921605Y-112050000D01*
X123562395Y-112050000D01*
X122807812Y-111295417D01*
X122572200Y-111357071D01*
X122396073Y-111857480D01*
X121037000Y-111857480D01*
X121037000Y-111115812D01*
X122987417Y-111115812D01*
X123742000Y-111870395D01*
X124496583Y-111115812D01*
X124434929Y-110880200D01*
X123934520Y-110704073D01*
X123404801Y-110732852D01*
X123049071Y-110880200D01*
X122987417Y-111115812D01*
X121037000Y-111115812D01*
X121037000Y-105364188D01*
X122987417Y-105364188D01*
X123049071Y-105599800D01*
X123549480Y-105775927D01*
X124079199Y-105747148D01*
X124434929Y-105599800D01*
X124496583Y-105364188D01*
X123742000Y-104609605D01*
X122987417Y-105364188D01*
X121037000Y-105364188D01*
X121037000Y-104237480D01*
X122396073Y-104237480D01*
X122424852Y-104767199D01*
X122572200Y-105122929D01*
X122807812Y-105184583D01*
X123562395Y-104430000D01*
X123921605Y-104430000D01*
X124676188Y-105184583D01*
X124911800Y-105122929D01*
X125087927Y-104622520D01*
X125059148Y-104092801D01*
X124911800Y-103737071D01*
X124676188Y-103675417D01*
X123921605Y-104430000D01*
X123562395Y-104430000D01*
X122807812Y-103675417D01*
X122572200Y-103737071D01*
X122396073Y-104237480D01*
X121037000Y-104237480D01*
X121037000Y-103495812D01*
X122987417Y-103495812D01*
X123742000Y-104250395D01*
X124496583Y-103495812D01*
X124434929Y-103260200D01*
X123934520Y-103084073D01*
X123404801Y-103112852D01*
X123049071Y-103260200D01*
X122987417Y-103495812D01*
X121037000Y-103495812D01*
X121037000Y-100692626D01*
X121096301Y-100751927D01*
X121329690Y-100848600D01*
X122186250Y-100848600D01*
X122345000Y-100689850D01*
X122345000Y-99477000D01*
X122599000Y-99477000D01*
X122599000Y-100689850D01*
X122757750Y-100848600D01*
X123614310Y-100848600D01*
X123847699Y-100751927D01*
X124026327Y-100573298D01*
X124123000Y-100339909D01*
X124123000Y-99635750D01*
X123964250Y-99477000D01*
X122599000Y-99477000D01*
X122345000Y-99477000D01*
X122325000Y-99477000D01*
X122325000Y-99223000D01*
X122345000Y-99223000D01*
X122345000Y-99203000D01*
X122599000Y-99203000D01*
X122599000Y-99223000D01*
X123964250Y-99223000D01*
X124123000Y-99064250D01*
X124123000Y-98360091D01*
X124026327Y-98126702D01*
X123847699Y-97948073D01*
X123694220Y-97884500D01*
X123716415Y-97869670D01*
X124041271Y-97383489D01*
X124155345Y-96810000D01*
X124041271Y-96236511D01*
X123716415Y-95750330D01*
X123401634Y-95540000D01*
X123716415Y-95329670D01*
X124041271Y-94843489D01*
X124155345Y-94270000D01*
X124041271Y-93696511D01*
X123716415Y-93210330D01*
X123401634Y-93000000D01*
X123716415Y-92789670D01*
X124041271Y-92303489D01*
X124155345Y-91730000D01*
X124041271Y-91156511D01*
X123716415Y-90670330D01*
X123401634Y-90460000D01*
X123716415Y-90249670D01*
X124041271Y-89763489D01*
X124155345Y-89190000D01*
X124041271Y-88616511D01*
X123716415Y-88130330D01*
X123401634Y-87920000D01*
X123716415Y-87709670D01*
X124041271Y-87223489D01*
X124090958Y-86973694D01*
X127187226Y-86973694D01*
X127435538Y-87574655D01*
X127894927Y-88034846D01*
X128495453Y-88284206D01*
X129145694Y-88284774D01*
X129746655Y-88036462D01*
X130206846Y-87577073D01*
X130456206Y-86976547D01*
X130456774Y-86326306D01*
X130208462Y-85725345D01*
X129749073Y-85265154D01*
X129148547Y-85015794D01*
X128498306Y-85015226D01*
X127897345Y-85263538D01*
X127437154Y-85722927D01*
X127187794Y-86323453D01*
X127187226Y-86973694D01*
X124090958Y-86973694D01*
X124155345Y-86650000D01*
X124041271Y-86076511D01*
X123716415Y-85590330D01*
X123230234Y-85265474D01*
X122656745Y-85151400D01*
X122287255Y-85151400D01*
X121713766Y-85265474D01*
X121227585Y-85590330D01*
X121037000Y-85875560D01*
X121037000Y-79315750D01*
X125917000Y-79315750D01*
X125917000Y-80106310D01*
X126013673Y-80339699D01*
X126192302Y-80518327D01*
X126312251Y-80568012D01*
X126209086Y-80670997D01*
X125967276Y-81253341D01*
X125966725Y-81883893D01*
X126207519Y-82466657D01*
X126652997Y-82912914D01*
X127235341Y-83154724D01*
X127865893Y-83155275D01*
X128448657Y-82914481D01*
X128894914Y-82469003D01*
X129136724Y-81886659D01*
X129137275Y-81256107D01*
X128896481Y-80673343D01*
X128791455Y-80568133D01*
X128911698Y-80518327D01*
X129090327Y-80339699D01*
X129187000Y-80106310D01*
X129187000Y-79315750D01*
X129028250Y-79157000D01*
X127679000Y-79157000D01*
X127679000Y-79177000D01*
X127425000Y-79177000D01*
X127425000Y-79157000D01*
X126075750Y-79157000D01*
X125917000Y-79315750D01*
X121037000Y-79315750D01*
X121037000Y-77397266D01*
X121246339Y-77397266D01*
X121558487Y-77845932D01*
X122801343Y-78364331D01*
X124147976Y-78367648D01*
X125154365Y-77953690D01*
X125917000Y-77953690D01*
X125917000Y-78744250D01*
X126075750Y-78903000D01*
X127425000Y-78903000D01*
X127425000Y-77603750D01*
X127679000Y-77603750D01*
X127679000Y-78903000D01*
X129028250Y-78903000D01*
X129187000Y-78744250D01*
X129187000Y-77953690D01*
X129090327Y-77720301D01*
X128911698Y-77541673D01*
X128678309Y-77445000D01*
X127837750Y-77445000D01*
X127679000Y-77603750D01*
X127425000Y-77603750D01*
X127266250Y-77445000D01*
X126425691Y-77445000D01*
X126192302Y-77541673D01*
X126013673Y-77720301D01*
X125917000Y-77953690D01*
X125154365Y-77953690D01*
X125393371Y-77855380D01*
X125407513Y-77845932D01*
X125719661Y-77397266D01*
X123483000Y-75160605D01*
X121246339Y-77397266D01*
X121037000Y-77397266D01*
X121037000Y-77196974D01*
X121066734Y-77217661D01*
X123303395Y-74981000D01*
X123662605Y-74981000D01*
X125899266Y-77217661D01*
X126347932Y-76905513D01*
X126866331Y-75662657D01*
X126869648Y-74316024D01*
X126357380Y-73070629D01*
X126347932Y-73056487D01*
X125899266Y-72744339D01*
X123662605Y-74981000D01*
X123303395Y-74981000D01*
X121066734Y-72744339D01*
X121037000Y-72765026D01*
X121037000Y-72523000D01*
X121275374Y-72523000D01*
X121246339Y-72564734D01*
G36*
X164934339Y-72564734D02*
X167171000Y-74801395D01*
X169407661Y-72564734D01*
X169378626Y-72523000D01*
X169617000Y-72523000D01*
X169617000Y-72765026D01*
X169587266Y-72744339D01*
X167350605Y-74981000D01*
X169587266Y-77217661D01*
X169617000Y-77196974D01*
X169617000Y-85860594D01*
X169436415Y-85590330D01*
X168950234Y-85265474D01*
X168376745Y-85151400D01*
X168007255Y-85151400D01*
X167433766Y-85265474D01*
X166947585Y-85590330D01*
X166622729Y-86076511D01*
X166526016Y-86562722D01*
X163118300Y-83155006D01*
X163425893Y-83155275D01*
X164008657Y-82914481D01*
X164454914Y-82469003D01*
X164696724Y-81886659D01*
X164697275Y-81256107D01*
X164456481Y-80673343D01*
X164351455Y-80568133D01*
X164471698Y-80518327D01*
X164650327Y-80339699D01*
X164747000Y-80106310D01*
X164747000Y-79315750D01*
X164588250Y-79157000D01*
X163239000Y-79157000D01*
X163239000Y-79177000D01*
X162985000Y-79177000D01*
X162985000Y-79157000D01*
X161635750Y-79157000D01*
X161477000Y-79315750D01*
X161477000Y-80106310D01*
X161573673Y-80339699D01*
X161752302Y-80518327D01*
X161872251Y-80568012D01*
X161769086Y-80670997D01*
X161527276Y-81253341D01*
X161527005Y-81563711D01*
X160597500Y-80634206D01*
X160597500Y-79030005D01*
X160597501Y-79030000D01*
X160537555Y-78728637D01*
X160505992Y-78681399D01*
X160366847Y-78473153D01*
X160366844Y-78473151D01*
X159847384Y-77953690D01*
X161477000Y-77953690D01*
X161477000Y-78744250D01*
X161635750Y-78903000D01*
X162985000Y-78903000D01*
X162985000Y-77603750D01*
X163239000Y-77603750D01*
X163239000Y-78903000D01*
X164588250Y-78903000D01*
X164747000Y-78744250D01*
X164747000Y-77953690D01*
X164650327Y-77720301D01*
X164471698Y-77541673D01*
X164238309Y-77445000D01*
X163397750Y-77445000D01*
X163239000Y-77603750D01*
X162985000Y-77603750D01*
X162826250Y-77445000D01*
X161985691Y-77445000D01*
X161752302Y-77541673D01*
X161573673Y-77720301D01*
X161477000Y-77953690D01*
X159847384Y-77953690D01*
X159290960Y-77397266D01*
X164934339Y-77397266D01*
X165246487Y-77845932D01*
X166489343Y-78364331D01*
X167835976Y-78367648D01*
X169081371Y-77855380D01*
X169095513Y-77845932D01*
X169407661Y-77397266D01*
X167171000Y-75160605D01*
X164934339Y-77397266D01*
X159290960Y-77397266D01*
X158588847Y-76695153D01*
X158333363Y-76524445D01*
X158032000Y-76464499D01*
X158031995Y-76464500D01*
X154348663Y-76464500D01*
X154337451Y-75645976D01*
X163784352Y-75645976D01*
X164296620Y-76891371D01*
X164306068Y-76905513D01*
X164754734Y-77217661D01*
X166991395Y-74981000D01*
X164754734Y-72744339D01*
X164306068Y-73056487D01*
X163787669Y-74299343D01*
X163784352Y-75645976D01*
X154337451Y-75645976D01*
X154294669Y-72523000D01*
X164963374Y-72523000D01*
X164934339Y-72564734D01*
X164934339Y-72564734D01*
G37*
X164934339Y-72564734D02*
X167171000Y-74801395D01*
X169407661Y-72564734D01*
X169378626Y-72523000D01*
X169617000Y-72523000D01*
X169617000Y-72765026D01*
X169587266Y-72744339D01*
X167350605Y-74981000D01*
X169587266Y-77217661D01*
X169617000Y-77196974D01*
X169617000Y-85860594D01*
X169436415Y-85590330D01*
X168950234Y-85265474D01*
X168376745Y-85151400D01*
X168007255Y-85151400D01*
X167433766Y-85265474D01*
X166947585Y-85590330D01*
X166622729Y-86076511D01*
X166526016Y-86562722D01*
X163118300Y-83155006D01*
X163425893Y-83155275D01*
X164008657Y-82914481D01*
X164454914Y-82469003D01*
X164696724Y-81886659D01*
X164697275Y-81256107D01*
X164456481Y-80673343D01*
X164351455Y-80568133D01*
X164471698Y-80518327D01*
X164650327Y-80339699D01*
X164747000Y-80106310D01*
X164747000Y-79315750D01*
X164588250Y-79157000D01*
X163239000Y-79157000D01*
X163239000Y-79177000D01*
X162985000Y-79177000D01*
X162985000Y-79157000D01*
X161635750Y-79157000D01*
X161477000Y-79315750D01*
X161477000Y-80106310D01*
X161573673Y-80339699D01*
X161752302Y-80518327D01*
X161872251Y-80568012D01*
X161769086Y-80670997D01*
X161527276Y-81253341D01*
X161527005Y-81563711D01*
X160597500Y-80634206D01*
X160597500Y-79030005D01*
X160597501Y-79030000D01*
X160537555Y-78728637D01*
X160505992Y-78681399D01*
X160366847Y-78473153D01*
X160366844Y-78473151D01*
X159847384Y-77953690D01*
X161477000Y-77953690D01*
X161477000Y-78744250D01*
X161635750Y-78903000D01*
X162985000Y-78903000D01*
X162985000Y-77603750D01*
X163239000Y-77603750D01*
X163239000Y-78903000D01*
X164588250Y-78903000D01*
X164747000Y-78744250D01*
X164747000Y-77953690D01*
X164650327Y-77720301D01*
X164471698Y-77541673D01*
X164238309Y-77445000D01*
X163397750Y-77445000D01*
X163239000Y-77603750D01*
X162985000Y-77603750D01*
X162826250Y-77445000D01*
X161985691Y-77445000D01*
X161752302Y-77541673D01*
X161573673Y-77720301D01*
X161477000Y-77953690D01*
X159847384Y-77953690D01*
X159290960Y-77397266D01*
X164934339Y-77397266D01*
X165246487Y-77845932D01*
X166489343Y-78364331D01*
X167835976Y-78367648D01*
X169081371Y-77855380D01*
X169095513Y-77845932D01*
X169407661Y-77397266D01*
X167171000Y-75160605D01*
X164934339Y-77397266D01*
X159290960Y-77397266D01*
X158588847Y-76695153D01*
X158333363Y-76524445D01*
X158032000Y-76464499D01*
X158031995Y-76464500D01*
X154348663Y-76464500D01*
X154337451Y-75645976D01*
X163784352Y-75645976D01*
X164296620Y-76891371D01*
X164306068Y-76905513D01*
X164754734Y-77217661D01*
X166991395Y-74981000D01*
X164754734Y-72744339D01*
X164306068Y-73056487D01*
X163787669Y-74299343D01*
X163784352Y-75645976D01*
X154337451Y-75645976D01*
X154294669Y-72523000D01*
X164963374Y-72523000D01*
X164934339Y-72564734D01*
M02*
