%TF.GenerationSoftware,KiCad,Pcbnew,4.0.1-stable*%
%TF.CreationDate,2016-04-15T23:13:47+01:00*%
%TF.ProjectId,basic,62617369632E6B696361645F70636200,rev?*%
%TF.FileFunction,Soldermask,Bot*%
%FSLAX46Y46*%
G04 Gerber Fmt 4.6, Leading zero omitted, Abs format (unit mm)*
G04 Created by KiCad (PCBNEW 4.0.1-stable) date 15/04/2016 23:13:47*
%MOMM*%
G01*
G04 APERTURE LIST*
%ADD10C,0.100000*%
%ADD11R,2.400000X2.300000*%
%ADD12C,2.300000*%
%ADD13C,5.900000*%
%ADD14C,1.797000*%
%ADD15R,2.432000X2.127200*%
%ADD16O,2.432000X2.127200*%
%ADD17C,2.398980*%
%ADD18O,1.400000X2.305000*%
%ADD19R,1.400000X2.305000*%
G04 APERTURE END LIST*
D10*
D11*
X128817000Y-79045000D03*
D12*
X128817000Y-81585000D03*
D11*
X161837000Y-79045000D03*
D12*
X161837000Y-81585000D03*
D13*
X123483000Y-74981000D03*
X123483000Y-118669000D03*
X167171000Y-74981000D03*
X167171000Y-118669000D03*
D14*
X166917000Y-112065000D03*
X161837000Y-112065000D03*
X166917000Y-104445000D03*
X161837000Y-104445000D03*
X123737000Y-104445000D03*
X128817000Y-104445000D03*
X123737000Y-112065000D03*
X128817000Y-112065000D03*
D15*
X156762000Y-114590000D03*
D16*
X156762000Y-112050000D03*
X156762000Y-109510000D03*
X156762000Y-106970000D03*
X156762000Y-104430000D03*
X156762000Y-101890000D03*
X156762000Y-99350000D03*
X156762000Y-96810000D03*
X156762000Y-94270000D03*
X156762000Y-91730000D03*
X156762000Y-89190000D03*
X156762000Y-86650000D03*
X156762000Y-84110000D03*
X156762000Y-81570000D03*
X156762000Y-79030000D03*
D15*
X133902000Y-114590000D03*
D16*
X133902000Y-112050000D03*
X133902000Y-109510000D03*
X133902000Y-106970000D03*
X133902000Y-104430000D03*
X133902000Y-101890000D03*
X133902000Y-99350000D03*
X133902000Y-96810000D03*
X133902000Y-94270000D03*
X133902000Y-91730000D03*
X133902000Y-89190000D03*
X133902000Y-86650000D03*
X133902000Y-84110000D03*
X133902000Y-81570000D03*
X133902000Y-79030000D03*
D15*
X168192000Y-99350000D03*
D16*
X168192000Y-96810000D03*
X168192000Y-94270000D03*
X168192000Y-91730000D03*
X168192000Y-89190000D03*
X168192000Y-86650000D03*
D15*
X122472000Y-99350000D03*
D16*
X122472000Y-96810000D03*
X122472000Y-94270000D03*
X122472000Y-91730000D03*
X122472000Y-89190000D03*
X122472000Y-86650000D03*
D17*
X151677000Y-101905000D03*
X161837000Y-101905000D03*
X138977000Y-101905000D03*
X128817000Y-101905000D03*
X128822000Y-86650000D03*
X128822000Y-96810000D03*
X161837000Y-86665000D03*
X161837000Y-96825000D03*
X145332000Y-86650000D03*
X145332000Y-96810000D03*
X139617000Y-86650000D03*
X139617000Y-96810000D03*
D18*
X147237000Y-80300000D03*
D19*
X145967000Y-80300000D03*
D18*
X144697000Y-80300000D03*
X143427000Y-80300000D03*
D17*
X151047000Y-86650000D03*
X151047000Y-96810000D03*
M02*
