M48
;DRILL file {KiCad 4.0.1-stable} date 15/04/2016 23:13:53
;FORMAT={-:-/ absolute / metric / decimal}
FMAT,2
METRIC,TZ
T1C0.762
T2C0.813
T3C1.001
T4C1.016
T5C3.200
%
G90
G05
M71
T1
X143.427Y-80.3
X144.697Y-80.3
X145.967Y-80.3
X147.237Y-80.3
T2
X123.737Y-104.445
X123.737Y-112.065
X128.817Y-104.445
X128.817Y-112.065
X161.837Y-104.445
X161.837Y-112.065
X166.917Y-104.445
X166.917Y-112.065
T3
X128.817Y-79.045
X128.817Y-81.585
X128.817Y-101.905
X128.822Y-86.65
X128.822Y-96.81
X138.977Y-101.905
X139.617Y-86.65
X139.617Y-96.81
X145.332Y-86.65
X145.332Y-96.81
X151.047Y-86.65
X151.047Y-96.81
X151.677Y-101.905
X161.837Y-79.045
X161.837Y-81.585
X161.837Y-86.665
X161.837Y-96.825
X161.837Y-101.905
T4
X122.472Y-86.65
X122.472Y-89.19
X122.472Y-91.73
X122.472Y-94.27
X122.472Y-96.81
X122.472Y-99.35
X133.902Y-79.03
X133.902Y-81.57
X133.902Y-84.11
X133.902Y-86.65
X133.902Y-89.19
X133.902Y-91.73
X133.902Y-94.27
X133.902Y-96.81
X133.902Y-99.35
X133.902Y-101.89
X133.902Y-104.43
X133.902Y-106.97
X133.902Y-109.51
X133.902Y-112.05
X133.902Y-114.59
X156.762Y-79.03
X156.762Y-81.57
X156.762Y-84.11
X156.762Y-86.65
X156.762Y-89.19
X156.762Y-91.73
X156.762Y-94.27
X156.762Y-96.81
X156.762Y-99.35
X156.762Y-101.89
X156.762Y-104.43
X156.762Y-106.97
X156.762Y-109.51
X156.762Y-112.05
X156.762Y-114.59
X168.192Y-86.65
X168.192Y-89.19
X168.192Y-91.73
X168.192Y-94.27
X168.192Y-96.81
X168.192Y-99.35
T5
X123.483Y-74.981
X123.483Y-118.669
X167.171Y-74.981
X167.171Y-118.669
T0
M30
