G04 #@! TF.FileFunction,Legend,Top*
%FSLAX46Y46*%
G04 Gerber Fmt 4.6, Leading zero omitted, Abs format (unit mm)*
G04 Created by KiCad (PCBNEW 4.0.1-stable) date 27/04/2016 07:00:42*
%MOMM*%
G01*
G04 APERTURE LIST*
%ADD10C,0.100000*%
%ADD11C,0.150000*%
%ADD12C,0.010000*%
%ADD13C,2.432000*%
%ADD14C,2.398980*%
%ADD15R,2.400000X2.300000*%
%ADD16C,2.300000*%
%ADD17C,5.900000*%
%ADD18C,1.797000*%
%ADD19R,2.432000X2.127200*%
%ADD20O,2.432000X2.127200*%
%ADD21R,2.432000X2.432000*%
%ADD22O,2.432000X2.432000*%
G04 APERTURE END LIST*
D10*
D11*
X139490096Y-116630000D02*
X139394858Y-116582381D01*
X139252001Y-116582381D01*
X139109143Y-116630000D01*
X139013905Y-116725238D01*
X138966286Y-116820476D01*
X138918667Y-117010952D01*
X138918667Y-117153810D01*
X138966286Y-117344286D01*
X139013905Y-117439524D01*
X139109143Y-117534762D01*
X139252001Y-117582381D01*
X139347239Y-117582381D01*
X139490096Y-117534762D01*
X139537715Y-117487143D01*
X139537715Y-117153810D01*
X139347239Y-117153810D01*
X139966286Y-117582381D02*
X139966286Y-116582381D01*
X140537715Y-117582381D01*
X140537715Y-116582381D01*
X141013905Y-117582381D02*
X141013905Y-116582381D01*
X141252000Y-116582381D01*
X141394858Y-116630000D01*
X141490096Y-116725238D01*
X141537715Y-116820476D01*
X141585334Y-117010952D01*
X141585334Y-117153810D01*
X141537715Y-117344286D01*
X141490096Y-117439524D01*
X141394858Y-117534762D01*
X141252000Y-117582381D01*
X141013905Y-117582381D01*
X149158191Y-116915714D02*
X149158191Y-117582381D01*
X148920095Y-116534762D02*
X148682000Y-117249048D01*
X149301048Y-117249048D01*
X149682000Y-117487143D02*
X149729619Y-117534762D01*
X149682000Y-117582381D01*
X149634381Y-117534762D01*
X149682000Y-117487143D01*
X149682000Y-117582381D01*
X150634381Y-116582381D02*
X150158190Y-116582381D01*
X150110571Y-117058571D01*
X150158190Y-117010952D01*
X150253428Y-116963333D01*
X150491524Y-116963333D01*
X150586762Y-117010952D01*
X150634381Y-117058571D01*
X150682000Y-117153810D01*
X150682000Y-117391905D01*
X150634381Y-117487143D01*
X150586762Y-117534762D01*
X150491524Y-117582381D01*
X150253428Y-117582381D01*
X150158190Y-117534762D01*
X150110571Y-117487143D01*
X151110571Y-117201429D02*
X151872476Y-117201429D01*
X152872476Y-117582381D02*
X152301047Y-117582381D01*
X152586761Y-117582381D02*
X152586761Y-116582381D01*
X152491523Y-116725238D01*
X152396285Y-116820476D01*
X152301047Y-116868095D01*
X153491523Y-116582381D02*
X153586762Y-116582381D01*
X153682000Y-116630000D01*
X153729619Y-116677619D01*
X153777238Y-116772857D01*
X153824857Y-116963333D01*
X153824857Y-117201429D01*
X153777238Y-117391905D01*
X153729619Y-117487143D01*
X153682000Y-117534762D01*
X153586762Y-117582381D01*
X153491523Y-117582381D01*
X153396285Y-117534762D01*
X153348666Y-117487143D01*
X153301047Y-117391905D01*
X153253428Y-117201429D01*
X153253428Y-116963333D01*
X153301047Y-116772857D01*
X153348666Y-116677619D01*
X153396285Y-116630000D01*
X153491523Y-116582381D01*
X154110571Y-116582381D02*
X154443904Y-117582381D01*
X154777238Y-116582381D01*
X142355809Y-114756667D02*
X142832000Y-114756667D01*
X142260571Y-115042381D02*
X142593904Y-114042381D01*
X142927238Y-115042381D01*
X143736762Y-115042381D02*
X143260571Y-115042381D01*
X143260571Y-114042381D01*
X143927238Y-114042381D02*
X144498667Y-114042381D01*
X144212952Y-115042381D02*
X144212952Y-114042381D01*
X144593905Y-115137619D02*
X145355810Y-115137619D01*
X145593905Y-115042381D02*
X145593905Y-114042381D01*
X145974858Y-114042381D01*
X146070096Y-114090000D01*
X146117715Y-114137619D01*
X146165334Y-114232857D01*
X146165334Y-114375714D01*
X146117715Y-114470952D01*
X146070096Y-114518571D01*
X145974858Y-114566190D01*
X145593905Y-114566190D01*
X146498667Y-114042381D02*
X146736762Y-115042381D01*
X146927239Y-114328095D01*
X147117715Y-115042381D01*
X147355810Y-114042381D01*
X148308191Y-115042381D02*
X147974857Y-114566190D01*
X147736762Y-115042381D02*
X147736762Y-114042381D01*
X148117715Y-114042381D01*
X148212953Y-114090000D01*
X148260572Y-114137619D01*
X148308191Y-114232857D01*
X148308191Y-114375714D01*
X148260572Y-114470952D01*
X148212953Y-114518571D01*
X148117715Y-114566190D01*
X147736762Y-114566190D01*
X166096477Y-91515714D02*
X166096477Y-92182381D01*
X165858381Y-91134762D02*
X165620286Y-91849048D01*
X166239334Y-91849048D01*
X125075524Y-94722381D02*
X124504095Y-94722381D01*
X124789809Y-94722381D02*
X124789809Y-93722381D01*
X124694571Y-93865238D01*
X124599333Y-93960476D01*
X124504095Y-94008095D01*
X125980286Y-93722381D02*
X125504095Y-93722381D01*
X125456476Y-94198571D01*
X125504095Y-94150952D01*
X125599333Y-94103333D01*
X125837429Y-94103333D01*
X125932667Y-94150952D01*
X125980286Y-94198571D01*
X126027905Y-94293810D01*
X126027905Y-94531905D01*
X125980286Y-94627143D01*
X125932667Y-94674762D01*
X125837429Y-94722381D01*
X125599333Y-94722381D01*
X125504095Y-94674762D01*
X125456476Y-94627143D01*
X125075524Y-92182381D02*
X124504095Y-92182381D01*
X124789809Y-92182381D02*
X124789809Y-91182381D01*
X124694571Y-91325238D01*
X124599333Y-91420476D01*
X124504095Y-91468095D01*
X125408857Y-91182381D02*
X126027905Y-91182381D01*
X125694571Y-91563333D01*
X125837429Y-91563333D01*
X125932667Y-91610952D01*
X125980286Y-91658571D01*
X126027905Y-91753810D01*
X126027905Y-91991905D01*
X125980286Y-92087143D01*
X125932667Y-92134762D01*
X125837429Y-92182381D01*
X125551714Y-92182381D01*
X125456476Y-92134762D01*
X125408857Y-92087143D01*
X125075524Y-89642381D02*
X124504095Y-89642381D01*
X124789809Y-89642381D02*
X124789809Y-88642381D01*
X124694571Y-88785238D01*
X124599333Y-88880476D01*
X124504095Y-88928095D01*
X125456476Y-88737619D02*
X125504095Y-88690000D01*
X125599333Y-88642381D01*
X125837429Y-88642381D01*
X125932667Y-88690000D01*
X125980286Y-88737619D01*
X126027905Y-88832857D01*
X126027905Y-88928095D01*
X125980286Y-89070952D01*
X125408857Y-89642381D01*
X126027905Y-89642381D01*
X125075524Y-87102381D02*
X124504095Y-87102381D01*
X124789809Y-87102381D02*
X124789809Y-86102381D01*
X124694571Y-86245238D01*
X124599333Y-86340476D01*
X124504095Y-86388095D01*
X125932667Y-86435714D02*
X125932667Y-87102381D01*
X125694571Y-86054762D02*
X125456476Y-86769048D01*
X126075524Y-86769048D01*
X144641524Y-76688381D02*
X144308190Y-76212190D01*
X144070095Y-76688381D02*
X144070095Y-75688381D01*
X144451048Y-75688381D01*
X144546286Y-75736000D01*
X144593905Y-75783619D01*
X144641524Y-75878857D01*
X144641524Y-76021714D01*
X144593905Y-76116952D01*
X144546286Y-76164571D01*
X144451048Y-76212190D01*
X144070095Y-76212190D01*
X145593905Y-75736000D02*
X145498667Y-75688381D01*
X145355810Y-75688381D01*
X145212952Y-75736000D01*
X145117714Y-75831238D01*
X145070095Y-75926476D01*
X145022476Y-76116952D01*
X145022476Y-76259810D01*
X145070095Y-76450286D01*
X145117714Y-76545524D01*
X145212952Y-76640762D01*
X145355810Y-76688381D01*
X145451048Y-76688381D01*
X145593905Y-76640762D01*
X145641524Y-76593143D01*
X145641524Y-76259810D01*
X145451048Y-76259810D01*
X146403429Y-76164571D02*
X146546286Y-76212190D01*
X146593905Y-76259810D01*
X146641524Y-76355048D01*
X146641524Y-76497905D01*
X146593905Y-76593143D01*
X146546286Y-76640762D01*
X146451048Y-76688381D01*
X146070095Y-76688381D01*
X146070095Y-75688381D01*
X146403429Y-75688381D01*
X146498667Y-75736000D01*
X146546286Y-75783619D01*
X146593905Y-75878857D01*
X146593905Y-75974095D01*
X146546286Y-76069333D01*
X146498667Y-76116952D01*
X146403429Y-76164571D01*
X146070095Y-76164571D01*
X161651524Y-84816381D02*
X161080095Y-84816381D01*
X161365809Y-84816381D02*
X161365809Y-83816381D01*
X161270571Y-83959238D01*
X161175333Y-84054476D01*
X161080095Y-84102095D01*
X162032476Y-83911619D02*
X162080095Y-83864000D01*
X162175333Y-83816381D01*
X162413429Y-83816381D01*
X162508667Y-83864000D01*
X162556286Y-83911619D01*
X162603905Y-84006857D01*
X162603905Y-84102095D01*
X162556286Y-84244952D01*
X161984857Y-84816381D01*
X162603905Y-84816381D01*
X126250286Y-112867619D02*
X126297905Y-112820000D01*
X126393143Y-112772381D01*
X126631239Y-112772381D01*
X126726477Y-112820000D01*
X126774096Y-112867619D01*
X126821715Y-112962857D01*
X126821715Y-113058095D01*
X126774096Y-113200952D01*
X126202667Y-113772381D01*
X126821715Y-113772381D01*
X164191524Y-113772381D02*
X163620095Y-113772381D01*
X163905809Y-113772381D02*
X163905809Y-112772381D01*
X163810571Y-112915238D01*
X163715333Y-113010476D01*
X163620095Y-113058095D01*
X165048667Y-112772381D02*
X164858190Y-112772381D01*
X164762952Y-112820000D01*
X164715333Y-112867619D01*
X164620095Y-113010476D01*
X164572476Y-113200952D01*
X164572476Y-113581905D01*
X164620095Y-113677143D01*
X164667714Y-113724762D01*
X164762952Y-113772381D01*
X164953429Y-113772381D01*
X165048667Y-113724762D01*
X165096286Y-113677143D01*
X165143905Y-113581905D01*
X165143905Y-113343810D01*
X165096286Y-113248571D01*
X165048667Y-113200952D01*
X164953429Y-113153333D01*
X164762952Y-113153333D01*
X164667714Y-113200952D01*
X164620095Y-113248571D01*
X164572476Y-113343810D01*
X132577714Y-120792381D02*
X132577714Y-119792381D01*
X133006286Y-120792381D02*
X133006286Y-120268571D01*
X132958667Y-120173333D01*
X132863429Y-120125714D01*
X132720571Y-120125714D01*
X132625333Y-120173333D01*
X132577714Y-120220952D01*
X133339619Y-120125714D02*
X133720571Y-120125714D01*
X133482476Y-119792381D02*
X133482476Y-120649524D01*
X133530095Y-120744762D01*
X133625333Y-120792381D01*
X133720571Y-120792381D01*
X133911048Y-120125714D02*
X134292000Y-120125714D01*
X134053905Y-119792381D02*
X134053905Y-120649524D01*
X134101524Y-120744762D01*
X134196762Y-120792381D01*
X134292000Y-120792381D01*
X134625334Y-120125714D02*
X134625334Y-121125714D01*
X134625334Y-120173333D02*
X134720572Y-120125714D01*
X134911049Y-120125714D01*
X135006287Y-120173333D01*
X135053906Y-120220952D01*
X135101525Y-120316190D01*
X135101525Y-120601905D01*
X135053906Y-120697143D01*
X135006287Y-120744762D01*
X134911049Y-120792381D01*
X134720572Y-120792381D01*
X134625334Y-120744762D01*
X135482477Y-120744762D02*
X135577715Y-120792381D01*
X135768191Y-120792381D01*
X135863430Y-120744762D01*
X135911049Y-120649524D01*
X135911049Y-120601905D01*
X135863430Y-120506667D01*
X135768191Y-120459048D01*
X135625334Y-120459048D01*
X135530096Y-120411429D01*
X135482477Y-120316190D01*
X135482477Y-120268571D01*
X135530096Y-120173333D01*
X135625334Y-120125714D01*
X135768191Y-120125714D01*
X135863430Y-120173333D01*
X136339620Y-120697143D02*
X136387239Y-120744762D01*
X136339620Y-120792381D01*
X136292001Y-120744762D01*
X136339620Y-120697143D01*
X136339620Y-120792381D01*
X136339620Y-120173333D02*
X136387239Y-120220952D01*
X136339620Y-120268571D01*
X136292001Y-120220952D01*
X136339620Y-120173333D01*
X136339620Y-120268571D01*
X137530096Y-119744762D02*
X136672953Y-121030476D01*
X138577715Y-119744762D02*
X137720572Y-121030476D01*
X139339620Y-120125714D02*
X139339620Y-120935238D01*
X139292001Y-121030476D01*
X139244382Y-121078095D01*
X139149143Y-121125714D01*
X139006286Y-121125714D01*
X138911048Y-121078095D01*
X139339620Y-120744762D02*
X139244382Y-120792381D01*
X139053905Y-120792381D01*
X138958667Y-120744762D01*
X138911048Y-120697143D01*
X138863429Y-120601905D01*
X138863429Y-120316190D01*
X138911048Y-120220952D01*
X138958667Y-120173333D01*
X139053905Y-120125714D01*
X139244382Y-120125714D01*
X139339620Y-120173333D01*
X139815810Y-120792381D02*
X139815810Y-120125714D01*
X139815810Y-119792381D02*
X139768191Y-119840000D01*
X139815810Y-119887619D01*
X139863429Y-119840000D01*
X139815810Y-119792381D01*
X139815810Y-119887619D01*
X140149143Y-120125714D02*
X140530095Y-120125714D01*
X140292000Y-119792381D02*
X140292000Y-120649524D01*
X140339619Y-120744762D01*
X140434857Y-120792381D01*
X140530095Y-120792381D01*
X140863429Y-120792381D02*
X140863429Y-119792381D01*
X141292001Y-120792381D02*
X141292001Y-120268571D01*
X141244382Y-120173333D01*
X141149144Y-120125714D01*
X141006286Y-120125714D01*
X140911048Y-120173333D01*
X140863429Y-120220952D01*
X142196763Y-120125714D02*
X142196763Y-120792381D01*
X141768191Y-120125714D02*
X141768191Y-120649524D01*
X141815810Y-120744762D01*
X141911048Y-120792381D01*
X142053906Y-120792381D01*
X142149144Y-120744762D01*
X142196763Y-120697143D01*
X142672953Y-120792381D02*
X142672953Y-119792381D01*
X142672953Y-120173333D02*
X142768191Y-120125714D01*
X142958668Y-120125714D01*
X143053906Y-120173333D01*
X143101525Y-120220952D01*
X143149144Y-120316190D01*
X143149144Y-120601905D01*
X143101525Y-120697143D01*
X143053906Y-120744762D01*
X142958668Y-120792381D01*
X142768191Y-120792381D01*
X142672953Y-120744762D01*
X143577715Y-120697143D02*
X143625334Y-120744762D01*
X143577715Y-120792381D01*
X143530096Y-120744762D01*
X143577715Y-120697143D01*
X143577715Y-120792381D01*
X144482477Y-120744762D02*
X144387239Y-120792381D01*
X144196762Y-120792381D01*
X144101524Y-120744762D01*
X144053905Y-120697143D01*
X144006286Y-120601905D01*
X144006286Y-120316190D01*
X144053905Y-120220952D01*
X144101524Y-120173333D01*
X144196762Y-120125714D01*
X144387239Y-120125714D01*
X144482477Y-120173333D01*
X145053905Y-120792381D02*
X144958667Y-120744762D01*
X144911048Y-120697143D01*
X144863429Y-120601905D01*
X144863429Y-120316190D01*
X144911048Y-120220952D01*
X144958667Y-120173333D01*
X145053905Y-120125714D01*
X145196763Y-120125714D01*
X145292001Y-120173333D01*
X145339620Y-120220952D01*
X145387239Y-120316190D01*
X145387239Y-120601905D01*
X145339620Y-120697143D01*
X145292001Y-120744762D01*
X145196763Y-120792381D01*
X145053905Y-120792381D01*
X145815810Y-120792381D02*
X145815810Y-120125714D01*
X145815810Y-120220952D02*
X145863429Y-120173333D01*
X145958667Y-120125714D01*
X146101525Y-120125714D01*
X146196763Y-120173333D01*
X146244382Y-120268571D01*
X146244382Y-120792381D01*
X146244382Y-120268571D02*
X146292001Y-120173333D01*
X146387239Y-120125714D01*
X146530096Y-120125714D01*
X146625334Y-120173333D01*
X146672953Y-120268571D01*
X146672953Y-120792381D01*
X147863429Y-119744762D02*
X147006286Y-121030476D01*
X148053905Y-120125714D02*
X148434857Y-120125714D01*
X148196762Y-119792381D02*
X148196762Y-120649524D01*
X148244381Y-120744762D01*
X148339619Y-120792381D01*
X148434857Y-120792381D01*
X148768191Y-120792381D02*
X148768191Y-119792381D01*
X149196763Y-120792381D02*
X149196763Y-120268571D01*
X149149144Y-120173333D01*
X149053906Y-120125714D01*
X148911048Y-120125714D01*
X148815810Y-120173333D01*
X148768191Y-120220952D01*
X150053906Y-120744762D02*
X149958668Y-120792381D01*
X149768191Y-120792381D01*
X149672953Y-120744762D01*
X149625334Y-120649524D01*
X149625334Y-120268571D01*
X149672953Y-120173333D01*
X149768191Y-120125714D01*
X149958668Y-120125714D01*
X150053906Y-120173333D01*
X150101525Y-120268571D01*
X150101525Y-120363810D01*
X149625334Y-120459048D01*
X150958668Y-120792381D02*
X150958668Y-120268571D01*
X150911049Y-120173333D01*
X150815811Y-120125714D01*
X150625334Y-120125714D01*
X150530096Y-120173333D01*
X150958668Y-120744762D02*
X150863430Y-120792381D01*
X150625334Y-120792381D01*
X150530096Y-120744762D01*
X150482477Y-120649524D01*
X150482477Y-120554286D01*
X150530096Y-120459048D01*
X150625334Y-120411429D01*
X150863430Y-120411429D01*
X150958668Y-120363810D01*
X151434858Y-120125714D02*
X151434858Y-121125714D01*
X151434858Y-120173333D02*
X151530096Y-120125714D01*
X151720573Y-120125714D01*
X151815811Y-120173333D01*
X151863430Y-120220952D01*
X151911049Y-120316190D01*
X151911049Y-120601905D01*
X151863430Y-120697143D01*
X151815811Y-120744762D01*
X151720573Y-120792381D01*
X151530096Y-120792381D01*
X151434858Y-120744762D01*
X152339620Y-120792381D02*
X152339620Y-120125714D01*
X152339620Y-119792381D02*
X152292001Y-119840000D01*
X152339620Y-119887619D01*
X152387239Y-119840000D01*
X152339620Y-119792381D01*
X152339620Y-119887619D01*
X153530096Y-119744762D02*
X152672953Y-121030476D01*
X154292001Y-120792381D02*
X154292001Y-119792381D01*
X154292001Y-120744762D02*
X154196763Y-120792381D01*
X154006286Y-120792381D01*
X153911048Y-120744762D01*
X153863429Y-120697143D01*
X153815810Y-120601905D01*
X153815810Y-120316190D01*
X153863429Y-120220952D01*
X153911048Y-120173333D01*
X154006286Y-120125714D01*
X154196763Y-120125714D01*
X154292001Y-120173333D01*
X155149144Y-120744762D02*
X155053906Y-120792381D01*
X154863429Y-120792381D01*
X154768191Y-120744762D01*
X154720572Y-120649524D01*
X154720572Y-120268571D01*
X154768191Y-120173333D01*
X154863429Y-120125714D01*
X155053906Y-120125714D01*
X155149144Y-120173333D01*
X155196763Y-120268571D01*
X155196763Y-120363810D01*
X154720572Y-120459048D01*
X155625334Y-120125714D02*
X155625334Y-120792381D01*
X155625334Y-120220952D02*
X155672953Y-120173333D01*
X155768191Y-120125714D01*
X155911049Y-120125714D01*
X156006287Y-120173333D01*
X156053906Y-120268571D01*
X156053906Y-120792381D01*
X156530096Y-120792381D02*
X156530096Y-119792381D01*
X156530096Y-120173333D02*
X156625334Y-120125714D01*
X156815811Y-120125714D01*
X156911049Y-120173333D01*
X156958668Y-120220952D01*
X157006287Y-120316190D01*
X157006287Y-120601905D01*
X156958668Y-120697143D01*
X156911049Y-120744762D01*
X156815811Y-120792381D01*
X156625334Y-120792381D01*
X156530096Y-120744762D01*
X157434858Y-120792381D02*
X157434858Y-120125714D01*
X157434858Y-119792381D02*
X157387239Y-119840000D01*
X157434858Y-119887619D01*
X157482477Y-119840000D01*
X157434858Y-119792381D01*
X157434858Y-119887619D01*
X157768191Y-120125714D02*
X158149143Y-120125714D01*
X157911048Y-119792381D02*
X157911048Y-120649524D01*
X157958667Y-120744762D01*
X158053905Y-120792381D01*
X158149143Y-120792381D01*
X141204023Y-109962381D02*
X141329023Y-108962381D01*
X141567118Y-108962381D01*
X141704024Y-109010000D01*
X141787357Y-109105238D01*
X141823072Y-109200476D01*
X141846881Y-109390952D01*
X141829024Y-109533810D01*
X141757595Y-109724286D01*
X141698072Y-109819524D01*
X141590929Y-109914762D01*
X141442118Y-109962381D01*
X141204023Y-109962381D01*
X142590929Y-109914762D02*
X142489738Y-109962381D01*
X142299261Y-109962381D01*
X142209976Y-109914762D01*
X142174262Y-109819524D01*
X142221881Y-109438571D01*
X142281404Y-109343333D01*
X142382595Y-109295714D01*
X142573072Y-109295714D01*
X142662357Y-109343333D01*
X142698072Y-109438571D01*
X142686167Y-109533810D01*
X142198071Y-109629048D01*
X143144500Y-109295714D02*
X143061166Y-109962381D01*
X143132595Y-109390952D02*
X143186166Y-109343333D01*
X143287357Y-109295714D01*
X143430215Y-109295714D01*
X143519500Y-109343333D01*
X143555215Y-109438571D01*
X143489738Y-109962381D01*
X143965928Y-109962381D02*
X144090928Y-108962381D01*
X144043309Y-109343333D02*
X144144500Y-109295714D01*
X144334977Y-109295714D01*
X144424262Y-109343333D01*
X144465929Y-109390952D01*
X144501643Y-109486190D01*
X144465929Y-109771905D01*
X144406405Y-109867143D01*
X144352834Y-109914762D01*
X144251643Y-109962381D01*
X144061166Y-109962381D01*
X143971881Y-109914762D01*
X144870690Y-109962381D02*
X144954024Y-109295714D01*
X144995690Y-108962381D02*
X144942119Y-109010000D01*
X144983786Y-109057619D01*
X145037357Y-109010000D01*
X144995690Y-108962381D01*
X144983786Y-109057619D01*
X145287357Y-109295714D02*
X145668309Y-109295714D01*
X145471880Y-108962381D02*
X145364738Y-109819524D01*
X145400452Y-109914762D01*
X145489737Y-109962381D01*
X145584975Y-109962381D01*
X146668310Y-109295714D02*
X146823071Y-109962381D01*
X147144501Y-109295714D01*
X147965929Y-109962381D02*
X147394500Y-109962381D01*
X147680214Y-109962381D02*
X147805214Y-108962381D01*
X147692119Y-109105238D01*
X147584977Y-109200476D01*
X147483786Y-109248095D01*
X148406405Y-109867143D02*
X148448072Y-109914762D01*
X148394500Y-109962381D01*
X148352834Y-109914762D01*
X148406405Y-109867143D01*
X148394500Y-109962381D01*
X149186166Y-108962381D02*
X149281405Y-108962381D01*
X149370691Y-109010000D01*
X149412358Y-109057619D01*
X149448072Y-109152857D01*
X149471881Y-109343333D01*
X149442119Y-109581429D01*
X149370691Y-109771905D01*
X149311167Y-109867143D01*
X149257596Y-109914762D01*
X149156405Y-109962381D01*
X149061166Y-109962381D01*
X148971881Y-109914762D01*
X148930214Y-109867143D01*
X148894500Y-109771905D01*
X148870690Y-109581429D01*
X148900452Y-109343333D01*
X148971881Y-109152857D01*
X149031405Y-109057619D01*
X149084976Y-109010000D01*
X149186166Y-108962381D01*
X145141524Y-84816381D02*
X144570095Y-84816381D01*
X144855809Y-84816381D02*
X144855809Y-83816381D01*
X144760571Y-83959238D01*
X144665333Y-84054476D01*
X144570095Y-84102095D01*
X145998667Y-84149714D02*
X145998667Y-84816381D01*
X145760571Y-83768762D02*
X145522476Y-84483048D01*
X146141524Y-84483048D01*
X150729524Y-84816381D02*
X150158095Y-84816381D01*
X150443809Y-84816381D02*
X150443809Y-83816381D01*
X150348571Y-83959238D01*
X150253333Y-84054476D01*
X150158095Y-84102095D01*
X151348571Y-83816381D02*
X151443810Y-83816381D01*
X151539048Y-83864000D01*
X151586667Y-83911619D01*
X151634286Y-84006857D01*
X151681905Y-84197333D01*
X151681905Y-84435429D01*
X151634286Y-84625905D01*
X151586667Y-84721143D01*
X151539048Y-84768762D01*
X151443810Y-84816381D01*
X151348571Y-84816381D01*
X151253333Y-84768762D01*
X151205714Y-84721143D01*
X151158095Y-84625905D01*
X151110476Y-84435429D01*
X151110476Y-84197333D01*
X151158095Y-84006857D01*
X151205714Y-83911619D01*
X151253333Y-83864000D01*
X151348571Y-83816381D01*
X139553524Y-84816381D02*
X138982095Y-84816381D01*
X139267809Y-84816381D02*
X139267809Y-83816381D01*
X139172571Y-83959238D01*
X139077333Y-84054476D01*
X138982095Y-84102095D01*
X140458286Y-83816381D02*
X139982095Y-83816381D01*
X139934476Y-84292571D01*
X139982095Y-84244952D01*
X140077333Y-84197333D01*
X140315429Y-84197333D01*
X140410667Y-84244952D01*
X140458286Y-84292571D01*
X140505905Y-84387810D01*
X140505905Y-84625905D01*
X140458286Y-84721143D01*
X140410667Y-84768762D01*
X140315429Y-84816381D01*
X140077333Y-84816381D01*
X139982095Y-84768762D01*
X139934476Y-84721143D01*
X128631524Y-84816381D02*
X128060095Y-84816381D01*
X128345809Y-84816381D02*
X128345809Y-83816381D01*
X128250571Y-83959238D01*
X128155333Y-84054476D01*
X128060095Y-84102095D01*
X128964857Y-83816381D02*
X129583905Y-83816381D01*
X129250571Y-84197333D01*
X129393429Y-84197333D01*
X129488667Y-84244952D01*
X129536286Y-84292571D01*
X129583905Y-84387810D01*
X129583905Y-84625905D01*
X129536286Y-84721143D01*
X129488667Y-84768762D01*
X129393429Y-84816381D01*
X129107714Y-84816381D01*
X129012476Y-84768762D01*
X128964857Y-84721143D01*
X164683714Y-86816667D02*
X165159905Y-86816667D01*
X164588476Y-87102381D02*
X164921809Y-86102381D01*
X165255143Y-87102381D01*
X165778952Y-86102381D02*
X165874191Y-86102381D01*
X165969429Y-86150000D01*
X166017048Y-86197619D01*
X166064667Y-86292857D01*
X166112286Y-86483333D01*
X166112286Y-86721429D01*
X166064667Y-86911905D01*
X166017048Y-87007143D01*
X165969429Y-87054762D01*
X165874191Y-87102381D01*
X165778952Y-87102381D01*
X165683714Y-87054762D01*
X165636095Y-87007143D01*
X165588476Y-86911905D01*
X165540857Y-86721429D01*
X165540857Y-86483333D01*
X165588476Y-86292857D01*
X165636095Y-86197619D01*
X165683714Y-86150000D01*
X165778952Y-86102381D01*
X165207524Y-89642381D02*
X164636095Y-89642381D01*
X164921809Y-89642381D02*
X164921809Y-88642381D01*
X164826571Y-88785238D01*
X164731333Y-88880476D01*
X164636095Y-88928095D01*
X166064667Y-88642381D02*
X165874190Y-88642381D01*
X165778952Y-88690000D01*
X165731333Y-88737619D01*
X165636095Y-88880476D01*
X165588476Y-89070952D01*
X165588476Y-89451905D01*
X165636095Y-89547143D01*
X165683714Y-89594762D01*
X165778952Y-89642381D01*
X165969429Y-89642381D01*
X166064667Y-89594762D01*
X166112286Y-89547143D01*
X166159905Y-89451905D01*
X166159905Y-89213810D01*
X166112286Y-89118571D01*
X166064667Y-89070952D01*
X165969429Y-89023333D01*
X165778952Y-89023333D01*
X165683714Y-89070952D01*
X165636095Y-89118571D01*
X165588476Y-89213810D01*
X166144096Y-93722381D02*
X165667905Y-93722381D01*
X165620286Y-94198571D01*
X165667905Y-94150952D01*
X165763143Y-94103333D01*
X166001239Y-94103333D01*
X166096477Y-94150952D01*
X166144096Y-94198571D01*
X166191715Y-94293810D01*
X166191715Y-94531905D01*
X166144096Y-94627143D01*
X166096477Y-94674762D01*
X166001239Y-94722381D01*
X165763143Y-94722381D01*
X165667905Y-94674762D01*
X165620286Y-94627143D01*
X163651905Y-96262381D02*
X164270953Y-96262381D01*
X163937619Y-96643333D01*
X164080477Y-96643333D01*
X164175715Y-96690952D01*
X164223334Y-96738571D01*
X164270953Y-96833810D01*
X164270953Y-97071905D01*
X164223334Y-97167143D01*
X164175715Y-97214762D01*
X164080477Y-97262381D01*
X163794762Y-97262381D01*
X163699524Y-97214762D01*
X163651905Y-97167143D01*
X164556667Y-96262381D02*
X164890000Y-97262381D01*
X165223334Y-96262381D01*
X165461429Y-96262381D02*
X166080477Y-96262381D01*
X165747143Y-96643333D01*
X165890001Y-96643333D01*
X165985239Y-96690952D01*
X166032858Y-96738571D01*
X166080477Y-96833810D01*
X166080477Y-97071905D01*
X166032858Y-97167143D01*
X165985239Y-97214762D01*
X165890001Y-97262381D01*
X165604286Y-97262381D01*
X165509048Y-97214762D01*
X165461429Y-97167143D01*
X164001096Y-98850000D02*
X163905858Y-98802381D01*
X163763001Y-98802381D01*
X163620143Y-98850000D01*
X163524905Y-98945238D01*
X163477286Y-99040476D01*
X163429667Y-99230952D01*
X163429667Y-99373810D01*
X163477286Y-99564286D01*
X163524905Y-99659524D01*
X163620143Y-99754762D01*
X163763001Y-99802381D01*
X163858239Y-99802381D01*
X164001096Y-99754762D01*
X164048715Y-99707143D01*
X164048715Y-99373810D01*
X163858239Y-99373810D01*
X164477286Y-99802381D02*
X164477286Y-98802381D01*
X165048715Y-99802381D01*
X165048715Y-98802381D01*
X165524905Y-99802381D02*
X165524905Y-98802381D01*
X165763000Y-98802381D01*
X165905858Y-98850000D01*
X166001096Y-98945238D01*
X166048715Y-99040476D01*
X166096334Y-99230952D01*
X166096334Y-99373810D01*
X166048715Y-99564286D01*
X166001096Y-99659524D01*
X165905858Y-99754762D01*
X165763000Y-99802381D01*
X165524905Y-99802381D01*
X124535905Y-96262381D02*
X125154953Y-96262381D01*
X124821619Y-96643333D01*
X124964477Y-96643333D01*
X125059715Y-96690952D01*
X125107334Y-96738571D01*
X125154953Y-96833810D01*
X125154953Y-97071905D01*
X125107334Y-97167143D01*
X125059715Y-97214762D01*
X124964477Y-97262381D01*
X124678762Y-97262381D01*
X124583524Y-97214762D01*
X124535905Y-97167143D01*
X125440667Y-96262381D02*
X125774000Y-97262381D01*
X126107334Y-96262381D01*
X126345429Y-96262381D02*
X126964477Y-96262381D01*
X126631143Y-96643333D01*
X126774001Y-96643333D01*
X126869239Y-96690952D01*
X126916858Y-96738571D01*
X126964477Y-96833810D01*
X126964477Y-97071905D01*
X126916858Y-97167143D01*
X126869239Y-97214762D01*
X126774001Y-97262381D01*
X126488286Y-97262381D01*
X126393048Y-97214762D01*
X126345429Y-97167143D01*
X125134096Y-98992000D02*
X125038858Y-98944381D01*
X124896001Y-98944381D01*
X124753143Y-98992000D01*
X124657905Y-99087238D01*
X124610286Y-99182476D01*
X124562667Y-99372952D01*
X124562667Y-99515810D01*
X124610286Y-99706286D01*
X124657905Y-99801524D01*
X124753143Y-99896762D01*
X124896001Y-99944381D01*
X124991239Y-99944381D01*
X125134096Y-99896762D01*
X125181715Y-99849143D01*
X125181715Y-99515810D01*
X124991239Y-99515810D01*
X125610286Y-99944381D02*
X125610286Y-98944381D01*
X126181715Y-99944381D01*
X126181715Y-98944381D01*
X126657905Y-99944381D02*
X126657905Y-98944381D01*
X126896000Y-98944381D01*
X127038858Y-98992000D01*
X127134096Y-99087238D01*
X127181715Y-99182476D01*
X127229334Y-99372952D01*
X127229334Y-99515810D01*
X127181715Y-99706286D01*
X127134096Y-99801524D01*
X127038858Y-99896762D01*
X126896000Y-99944381D01*
X126657905Y-99944381D01*
X142959000Y-81400000D02*
X142959000Y-81850000D01*
X148409000Y-80300000D02*
G75*
G03X148409000Y-80300000I-2950000J0D01*
G01*
X142959000Y-79200000D02*
X142959000Y-78750000D01*
X152317000Y-89190000D02*
X152317000Y-94270000D01*
X152317000Y-94270000D02*
X149777000Y-94270000D01*
X149777000Y-94270000D02*
X149777000Y-89190000D01*
X149777000Y-89190000D02*
X152317000Y-89190000D01*
X151047000Y-89190000D02*
X151047000Y-87920000D01*
X151047000Y-94270000D02*
X151047000Y-95540000D01*
X127297096Y-77815112D02*
G75*
G03X130322000Y-77800000I1524904J-2484888D01*
G01*
X127322000Y-77800000D02*
X130322000Y-77800000D01*
X131339936Y-80300000D02*
G75*
G03X131339936Y-80300000I-2517936J0D01*
G01*
X160317096Y-77815112D02*
G75*
G03X163342000Y-77800000I1524904J-2484888D01*
G01*
X160342000Y-77800000D02*
X163342000Y-77800000D01*
X164359936Y-80300000D02*
G75*
G03X164359936Y-80300000I-2517936J0D01*
G01*
X166922000Y-108240000D02*
G75*
G03X166922000Y-108240000I-2540000J0D01*
G01*
X168192000Y-104430000D02*
X168192000Y-112050000D01*
X168192000Y-112050000D02*
X160572000Y-112050000D01*
X160572000Y-112050000D02*
X160572000Y-104430000D01*
X168192000Y-104430000D02*
X160572000Y-104430000D01*
X128822000Y-108240000D02*
G75*
G03X128822000Y-108240000I-2540000J0D01*
G01*
X122472000Y-112050000D02*
X122472000Y-104430000D01*
X122472000Y-104430000D02*
X130092000Y-104430000D01*
X130092000Y-104430000D02*
X130092000Y-112050000D01*
X122472000Y-112050000D02*
X130092000Y-112050000D01*
X169462000Y-98080000D02*
X169462000Y-85380000D01*
X169462000Y-85380000D02*
X166922000Y-85380000D01*
X166922000Y-85380000D02*
X166922000Y-98080000D01*
X169742000Y-100900000D02*
X169742000Y-99350000D01*
X169462000Y-98080000D02*
X166922000Y-98080000D01*
X166642000Y-99350000D02*
X166642000Y-100900000D01*
X166642000Y-100900000D02*
X169742000Y-100900000D01*
X123742000Y-98080000D02*
X123742000Y-85380000D01*
X123742000Y-85380000D02*
X121202000Y-85380000D01*
X121202000Y-85380000D02*
X121202000Y-98080000D01*
X124022000Y-100900000D02*
X124022000Y-99350000D01*
X123742000Y-98080000D02*
X121202000Y-98080000D01*
X120922000Y-99350000D02*
X120922000Y-100900000D01*
X120922000Y-100900000D02*
X124022000Y-100900000D01*
X130092000Y-89190000D02*
X130092000Y-94270000D01*
X130092000Y-94270000D02*
X127552000Y-94270000D01*
X127552000Y-94270000D02*
X127552000Y-89190000D01*
X127552000Y-89190000D02*
X130092000Y-89190000D01*
X128822000Y-89190000D02*
X128822000Y-87920000D01*
X128822000Y-94270000D02*
X128822000Y-95540000D01*
X163112000Y-89190000D02*
X163112000Y-94270000D01*
X163112000Y-94270000D02*
X160572000Y-94270000D01*
X160572000Y-94270000D02*
X160572000Y-89190000D01*
X160572000Y-89190000D02*
X163112000Y-89190000D01*
X161842000Y-89190000D02*
X161842000Y-87920000D01*
X161842000Y-94270000D02*
X161842000Y-95540000D01*
X146602000Y-89190000D02*
X146602000Y-94270000D01*
X146602000Y-94270000D02*
X144062000Y-94270000D01*
X144062000Y-94270000D02*
X144062000Y-89190000D01*
X144062000Y-89190000D02*
X146602000Y-89190000D01*
X145332000Y-89190000D02*
X145332000Y-87920000D01*
X145332000Y-94270000D02*
X145332000Y-95540000D01*
X140887000Y-89190000D02*
X140887000Y-94270000D01*
X140887000Y-94270000D02*
X138347000Y-94270000D01*
X138347000Y-94270000D02*
X138347000Y-89190000D01*
X138347000Y-89190000D02*
X140887000Y-89190000D01*
X139617000Y-89190000D02*
X139617000Y-87920000D01*
X139617000Y-94270000D02*
X139617000Y-95540000D01*
D12*
G36*
X150723494Y-104402188D02*
X150730451Y-104597292D01*
X150721366Y-104663913D01*
X150698987Y-104972909D01*
X150711289Y-105315879D01*
X150720528Y-105396859D01*
X150774236Y-105788698D01*
X150981464Y-105652917D01*
X151140124Y-105567360D01*
X151225807Y-105554251D01*
X151216476Y-105646076D01*
X151152201Y-105840860D01*
X151091461Y-105991369D01*
X150989750Y-106276156D01*
X150928290Y-106539888D01*
X150920000Y-106633426D01*
X150920000Y-106875481D01*
X151503404Y-106826570D01*
X151962060Y-106805700D01*
X152284320Y-106836780D01*
X152496712Y-106925616D01*
X152622288Y-107071399D01*
X152671172Y-107215312D01*
X152613843Y-107337601D01*
X152502624Y-107443131D01*
X152150372Y-107641859D01*
X151735961Y-107715103D01*
X151310031Y-107663669D01*
X150923222Y-107488367D01*
X150827896Y-107416415D01*
X150570515Y-107199843D01*
X149750424Y-107338658D01*
X149417292Y-107395573D01*
X148956239Y-107475084D01*
X148406115Y-107570453D01*
X147805773Y-107674940D01*
X147194063Y-107781806D01*
X147025334Y-107811361D01*
X146002803Y-107987415D01*
X145126944Y-108130584D01*
X144378739Y-108242924D01*
X143739171Y-108326494D01*
X143189221Y-108383349D01*
X142709874Y-108415548D01*
X142282110Y-108425146D01*
X141886913Y-108414202D01*
X141623020Y-108395727D01*
X141005639Y-108313086D01*
X140472438Y-108183150D01*
X140058009Y-108015281D01*
X139930687Y-107937825D01*
X139769885Y-107745208D01*
X139744981Y-107519886D01*
X139836412Y-107296285D01*
X140024617Y-107108828D01*
X140290034Y-106991941D01*
X140480651Y-106970000D01*
X140765672Y-107001567D01*
X140970016Y-107084144D01*
X141056922Y-107199542D01*
X141050195Y-107251800D01*
X141074108Y-107402329D01*
X141242549Y-107548735D01*
X141531147Y-107674754D01*
X141781886Y-107740153D01*
X142372687Y-107819162D01*
X143118155Y-107846904D01*
X144011708Y-107823806D01*
X145046762Y-107750295D01*
X146216736Y-107626799D01*
X147515048Y-107453744D01*
X148488312Y-107304696D01*
X149133310Y-107201274D01*
X149480127Y-107144942D01*
X151004667Y-107144942D01*
X151080852Y-107269483D01*
X151276521Y-107370594D01*
X151542344Y-107438112D01*
X151828991Y-107461870D01*
X152087135Y-107431703D01*
X152195566Y-107390354D01*
X152337839Y-107254636D01*
X152330958Y-107111508D01*
X152183984Y-107010423D01*
X152011793Y-106988605D01*
X151761561Y-106992908D01*
X151484657Y-107017473D01*
X151232451Y-107056440D01*
X151056311Y-107103950D01*
X151004667Y-107144942D01*
X149480127Y-107144942D01*
X149630442Y-107120527D01*
X149998892Y-107057400D01*
X150257840Y-107006841D01*
X150426470Y-106963793D01*
X150523963Y-106923205D01*
X150569502Y-106880023D01*
X150582268Y-106829191D01*
X150581445Y-106765658D01*
X150581334Y-106753261D01*
X150612299Y-106519426D01*
X150663905Y-106340511D01*
X150714762Y-106189499D01*
X150696378Y-106137816D01*
X150582694Y-106181575D01*
X150379512Y-106298076D01*
X150078768Y-106419830D01*
X149777364Y-106451446D01*
X149523768Y-106395599D01*
X149366447Y-106254969D01*
X149360184Y-106241770D01*
X149309194Y-106144523D01*
X149242982Y-106118247D01*
X149119481Y-106169154D01*
X148896628Y-106303457D01*
X148882341Y-106312337D01*
X148577491Y-106466935D01*
X148326370Y-106528792D01*
X148156476Y-106496520D01*
X148095308Y-106368735D01*
X148096118Y-106351975D01*
X148082250Y-106238932D01*
X148053784Y-106229337D01*
X147607209Y-106450528D01*
X147288225Y-106561741D01*
X147095918Y-106563270D01*
X147067222Y-106546297D01*
X147000296Y-106411612D01*
X147046108Y-106200576D01*
X147209548Y-105899796D01*
X147407919Y-105613173D01*
X147555915Y-105392574D01*
X147640745Y-105227817D01*
X147647784Y-105165339D01*
X147523730Y-105151698D01*
X147330860Y-105266485D01*
X147088228Y-105493377D01*
X146814882Y-105816050D01*
X146686013Y-105989437D01*
X146461937Y-106294550D01*
X146300667Y-106484743D01*
X146171813Y-106586478D01*
X146044987Y-106626216D01*
X145948807Y-106631333D01*
X145744685Y-106613878D01*
X145683044Y-106542077D01*
X145752376Y-106386780D01*
X145815301Y-106293183D01*
X145959935Y-106086689D01*
X145699359Y-106272236D01*
X145357111Y-106478046D01*
X145062998Y-106581674D01*
X144860770Y-106575149D01*
X144769607Y-106461881D01*
X144802365Y-106247657D01*
X144955783Y-105943316D01*
X145126531Y-105691557D01*
X145322089Y-105399318D01*
X145412731Y-105201918D01*
X145393333Y-105111709D01*
X145368767Y-105107333D01*
X145209052Y-105165589D01*
X144994937Y-105346745D01*
X144716434Y-105660377D01*
X144484123Y-105955590D01*
X144236374Y-106271951D01*
X144056543Y-106472973D01*
X143916974Y-106583098D01*
X143790009Y-106626771D01*
X143719529Y-106631333D01*
X143528365Y-106617637D01*
X143480669Y-106548713D01*
X143551108Y-106382805D01*
X143559365Y-106367309D01*
X143607253Y-106267591D01*
X143583483Y-106244164D01*
X143458034Y-106297435D01*
X143313134Y-106370632D01*
X142878549Y-106541806D01*
X142490287Y-106598173D01*
X142171723Y-106542650D01*
X141946232Y-106378154D01*
X141853154Y-106188436D01*
X141835316Y-106042279D01*
X141884830Y-105902796D01*
X142024726Y-105725225D01*
X142169269Y-105574019D01*
X142307558Y-105454749D01*
X142965426Y-105454749D01*
X142996888Y-105511660D01*
X143109500Y-105500756D01*
X143313978Y-105443025D01*
X143448167Y-105404679D01*
X143596556Y-105316576D01*
X143638667Y-105228627D01*
X143596856Y-105125583D01*
X143459418Y-105128580D01*
X143211129Y-105236507D01*
X143041192Y-105351714D01*
X142965426Y-105454749D01*
X142307558Y-105454749D01*
X142599300Y-105203133D01*
X143024791Y-104959415D01*
X143419897Y-104856972D01*
X143487127Y-104854629D01*
X143785293Y-104891764D01*
X143939811Y-105005081D01*
X143963575Y-105193080D01*
X143848638Y-105428646D01*
X143602705Y-105608860D01*
X143260725Y-105712074D01*
X143101544Y-105727081D01*
X142838024Y-105754719D01*
X142699634Y-105822492D01*
X142654931Y-105901070D01*
X142664092Y-106068067D01*
X142719440Y-106132607D01*
X142991521Y-106206342D01*
X143328904Y-106125477D01*
X143729738Y-105890858D01*
X144192172Y-105503334D01*
X144282164Y-105417059D01*
X144841571Y-104871238D01*
X145361952Y-104873665D01*
X145758056Y-104896614D01*
X145996319Y-104968018D01*
X146083929Y-105098392D01*
X146028072Y-105298249D01*
X145840000Y-105573000D01*
X145690834Y-105774713D01*
X145599484Y-105925250D01*
X145586000Y-105965642D01*
X145638043Y-106045545D01*
X145788176Y-105999615D01*
X146027403Y-105833190D01*
X146346729Y-105551611D01*
X146448463Y-105453648D01*
X147046375Y-104868630D01*
X147598224Y-104882148D01*
X147977260Y-104910910D01*
X148199232Y-104984280D01*
X148273709Y-105116742D01*
X148210259Y-105322782D01*
X148052597Y-105569976D01*
X147905082Y-105797549D01*
X147817032Y-105977313D01*
X147804970Y-106049242D01*
X147881103Y-106062719D01*
X148041377Y-105976578D01*
X148255196Y-105815735D01*
X148491964Y-105605109D01*
X148721085Y-105369617D01*
X148887843Y-105167340D01*
X149090862Y-104923082D01*
X149258600Y-104800285D01*
X149418793Y-104768666D01*
X149653567Y-104768666D01*
X149270288Y-105340001D01*
X149104089Y-105605813D01*
X148997018Y-105813511D01*
X148965927Y-105928808D01*
X148975035Y-105940678D01*
X149080512Y-105906290D01*
X149275466Y-105790098D01*
X149372965Y-105722493D01*
X149738814Y-105722493D01*
X149746597Y-105800966D01*
X149789634Y-105842351D01*
X149957913Y-105909227D01*
X150116611Y-105828005D01*
X150268314Y-105620781D01*
X150399096Y-105360819D01*
X150415931Y-105225038D01*
X150323753Y-105217714D01*
X150127494Y-105343122D01*
X150035404Y-105418926D01*
X149828892Y-105605813D01*
X149738814Y-105722493D01*
X149372965Y-105722493D01*
X149520530Y-105620174D01*
X149776335Y-105424591D01*
X150003516Y-105231423D01*
X150099967Y-105138478D01*
X150242262Y-104953467D01*
X150384027Y-104713568D01*
X150396300Y-104689041D01*
X150539795Y-104449348D01*
X150654401Y-104353302D01*
X150723494Y-104402188D01*
X150723494Y-104402188D01*
G37*
X150723494Y-104402188D02*
X150730451Y-104597292D01*
X150721366Y-104663913D01*
X150698987Y-104972909D01*
X150711289Y-105315879D01*
X150720528Y-105396859D01*
X150774236Y-105788698D01*
X150981464Y-105652917D01*
X151140124Y-105567360D01*
X151225807Y-105554251D01*
X151216476Y-105646076D01*
X151152201Y-105840860D01*
X151091461Y-105991369D01*
X150989750Y-106276156D01*
X150928290Y-106539888D01*
X150920000Y-106633426D01*
X150920000Y-106875481D01*
X151503404Y-106826570D01*
X151962060Y-106805700D01*
X152284320Y-106836780D01*
X152496712Y-106925616D01*
X152622288Y-107071399D01*
X152671172Y-107215312D01*
X152613843Y-107337601D01*
X152502624Y-107443131D01*
X152150372Y-107641859D01*
X151735961Y-107715103D01*
X151310031Y-107663669D01*
X150923222Y-107488367D01*
X150827896Y-107416415D01*
X150570515Y-107199843D01*
X149750424Y-107338658D01*
X149417292Y-107395573D01*
X148956239Y-107475084D01*
X148406115Y-107570453D01*
X147805773Y-107674940D01*
X147194063Y-107781806D01*
X147025334Y-107811361D01*
X146002803Y-107987415D01*
X145126944Y-108130584D01*
X144378739Y-108242924D01*
X143739171Y-108326494D01*
X143189221Y-108383349D01*
X142709874Y-108415548D01*
X142282110Y-108425146D01*
X141886913Y-108414202D01*
X141623020Y-108395727D01*
X141005639Y-108313086D01*
X140472438Y-108183150D01*
X140058009Y-108015281D01*
X139930687Y-107937825D01*
X139769885Y-107745208D01*
X139744981Y-107519886D01*
X139836412Y-107296285D01*
X140024617Y-107108828D01*
X140290034Y-106991941D01*
X140480651Y-106970000D01*
X140765672Y-107001567D01*
X140970016Y-107084144D01*
X141056922Y-107199542D01*
X141050195Y-107251800D01*
X141074108Y-107402329D01*
X141242549Y-107548735D01*
X141531147Y-107674754D01*
X141781886Y-107740153D01*
X142372687Y-107819162D01*
X143118155Y-107846904D01*
X144011708Y-107823806D01*
X145046762Y-107750295D01*
X146216736Y-107626799D01*
X147515048Y-107453744D01*
X148488312Y-107304696D01*
X149133310Y-107201274D01*
X149480127Y-107144942D01*
X151004667Y-107144942D01*
X151080852Y-107269483D01*
X151276521Y-107370594D01*
X151542344Y-107438112D01*
X151828991Y-107461870D01*
X152087135Y-107431703D01*
X152195566Y-107390354D01*
X152337839Y-107254636D01*
X152330958Y-107111508D01*
X152183984Y-107010423D01*
X152011793Y-106988605D01*
X151761561Y-106992908D01*
X151484657Y-107017473D01*
X151232451Y-107056440D01*
X151056311Y-107103950D01*
X151004667Y-107144942D01*
X149480127Y-107144942D01*
X149630442Y-107120527D01*
X149998892Y-107057400D01*
X150257840Y-107006841D01*
X150426470Y-106963793D01*
X150523963Y-106923205D01*
X150569502Y-106880023D01*
X150582268Y-106829191D01*
X150581445Y-106765658D01*
X150581334Y-106753261D01*
X150612299Y-106519426D01*
X150663905Y-106340511D01*
X150714762Y-106189499D01*
X150696378Y-106137816D01*
X150582694Y-106181575D01*
X150379512Y-106298076D01*
X150078768Y-106419830D01*
X149777364Y-106451446D01*
X149523768Y-106395599D01*
X149366447Y-106254969D01*
X149360184Y-106241770D01*
X149309194Y-106144523D01*
X149242982Y-106118247D01*
X149119481Y-106169154D01*
X148896628Y-106303457D01*
X148882341Y-106312337D01*
X148577491Y-106466935D01*
X148326370Y-106528792D01*
X148156476Y-106496520D01*
X148095308Y-106368735D01*
X148096118Y-106351975D01*
X148082250Y-106238932D01*
X148053784Y-106229337D01*
X147607209Y-106450528D01*
X147288225Y-106561741D01*
X147095918Y-106563270D01*
X147067222Y-106546297D01*
X147000296Y-106411612D01*
X147046108Y-106200576D01*
X147209548Y-105899796D01*
X147407919Y-105613173D01*
X147555915Y-105392574D01*
X147640745Y-105227817D01*
X147647784Y-105165339D01*
X147523730Y-105151698D01*
X147330860Y-105266485D01*
X147088228Y-105493377D01*
X146814882Y-105816050D01*
X146686013Y-105989437D01*
X146461937Y-106294550D01*
X146300667Y-106484743D01*
X146171813Y-106586478D01*
X146044987Y-106626216D01*
X145948807Y-106631333D01*
X145744685Y-106613878D01*
X145683044Y-106542077D01*
X145752376Y-106386780D01*
X145815301Y-106293183D01*
X145959935Y-106086689D01*
X145699359Y-106272236D01*
X145357111Y-106478046D01*
X145062998Y-106581674D01*
X144860770Y-106575149D01*
X144769607Y-106461881D01*
X144802365Y-106247657D01*
X144955783Y-105943316D01*
X145126531Y-105691557D01*
X145322089Y-105399318D01*
X145412731Y-105201918D01*
X145393333Y-105111709D01*
X145368767Y-105107333D01*
X145209052Y-105165589D01*
X144994937Y-105346745D01*
X144716434Y-105660377D01*
X144484123Y-105955590D01*
X144236374Y-106271951D01*
X144056543Y-106472973D01*
X143916974Y-106583098D01*
X143790009Y-106626771D01*
X143719529Y-106631333D01*
X143528365Y-106617637D01*
X143480669Y-106548713D01*
X143551108Y-106382805D01*
X143559365Y-106367309D01*
X143607253Y-106267591D01*
X143583483Y-106244164D01*
X143458034Y-106297435D01*
X143313134Y-106370632D01*
X142878549Y-106541806D01*
X142490287Y-106598173D01*
X142171723Y-106542650D01*
X141946232Y-106378154D01*
X141853154Y-106188436D01*
X141835316Y-106042279D01*
X141884830Y-105902796D01*
X142024726Y-105725225D01*
X142169269Y-105574019D01*
X142307558Y-105454749D01*
X142965426Y-105454749D01*
X142996888Y-105511660D01*
X143109500Y-105500756D01*
X143313978Y-105443025D01*
X143448167Y-105404679D01*
X143596556Y-105316576D01*
X143638667Y-105228627D01*
X143596856Y-105125583D01*
X143459418Y-105128580D01*
X143211129Y-105236507D01*
X143041192Y-105351714D01*
X142965426Y-105454749D01*
X142307558Y-105454749D01*
X142599300Y-105203133D01*
X143024791Y-104959415D01*
X143419897Y-104856972D01*
X143487127Y-104854629D01*
X143785293Y-104891764D01*
X143939811Y-105005081D01*
X143963575Y-105193080D01*
X143848638Y-105428646D01*
X143602705Y-105608860D01*
X143260725Y-105712074D01*
X143101544Y-105727081D01*
X142838024Y-105754719D01*
X142699634Y-105822492D01*
X142654931Y-105901070D01*
X142664092Y-106068067D01*
X142719440Y-106132607D01*
X142991521Y-106206342D01*
X143328904Y-106125477D01*
X143729738Y-105890858D01*
X144192172Y-105503334D01*
X144282164Y-105417059D01*
X144841571Y-104871238D01*
X145361952Y-104873665D01*
X145758056Y-104896614D01*
X145996319Y-104968018D01*
X146083929Y-105098392D01*
X146028072Y-105298249D01*
X145840000Y-105573000D01*
X145690834Y-105774713D01*
X145599484Y-105925250D01*
X145586000Y-105965642D01*
X145638043Y-106045545D01*
X145788176Y-105999615D01*
X146027403Y-105833190D01*
X146346729Y-105551611D01*
X146448463Y-105453648D01*
X147046375Y-104868630D01*
X147598224Y-104882148D01*
X147977260Y-104910910D01*
X148199232Y-104984280D01*
X148273709Y-105116742D01*
X148210259Y-105322782D01*
X148052597Y-105569976D01*
X147905082Y-105797549D01*
X147817032Y-105977313D01*
X147804970Y-106049242D01*
X147881103Y-106062719D01*
X148041377Y-105976578D01*
X148255196Y-105815735D01*
X148491964Y-105605109D01*
X148721085Y-105369617D01*
X148887843Y-105167340D01*
X149090862Y-104923082D01*
X149258600Y-104800285D01*
X149418793Y-104768666D01*
X149653567Y-104768666D01*
X149270288Y-105340001D01*
X149104089Y-105605813D01*
X148997018Y-105813511D01*
X148965927Y-105928808D01*
X148975035Y-105940678D01*
X149080512Y-105906290D01*
X149275466Y-105790098D01*
X149372965Y-105722493D01*
X149738814Y-105722493D01*
X149746597Y-105800966D01*
X149789634Y-105842351D01*
X149957913Y-105909227D01*
X150116611Y-105828005D01*
X150268314Y-105620781D01*
X150399096Y-105360819D01*
X150415931Y-105225038D01*
X150323753Y-105217714D01*
X150127494Y-105343122D01*
X150035404Y-105418926D01*
X149828892Y-105605813D01*
X149738814Y-105722493D01*
X149372965Y-105722493D01*
X149520530Y-105620174D01*
X149776335Y-105424591D01*
X150003516Y-105231423D01*
X150099967Y-105138478D01*
X150242262Y-104953467D01*
X150384027Y-104713568D01*
X150396300Y-104689041D01*
X150539795Y-104449348D01*
X150654401Y-104353302D01*
X150723494Y-104402188D01*
G36*
X141367302Y-102949246D02*
X141717321Y-103066999D01*
X141956682Y-103159303D01*
X142161215Y-103189630D01*
X142200890Y-103184125D01*
X142339422Y-103196348D01*
X142363031Y-103287567D01*
X142283771Y-103371808D01*
X142244933Y-103484255D01*
X142283771Y-103582905D01*
X142354562Y-103840048D01*
X142366964Y-104189418D01*
X142324940Y-104565804D01*
X142232455Y-104903999D01*
X142198751Y-104981536D01*
X141986524Y-105313937D01*
X141674771Y-105675857D01*
X141313632Y-106017608D01*
X140953246Y-106289502D01*
X140778703Y-106388772D01*
X140574715Y-106474305D01*
X140363568Y-106525947D01*
X140103110Y-106547715D01*
X139751191Y-106543626D01*
X139363000Y-106523687D01*
X139094999Y-106532670D01*
X138892751Y-106567308D01*
X138608748Y-106563541D01*
X138384751Y-106480617D01*
X138190350Y-106361136D01*
X138108614Y-106218018D01*
X138101659Y-106123333D01*
X138474000Y-106123333D01*
X138547685Y-106182335D01*
X138725704Y-106207966D01*
X138732997Y-106208000D01*
X138902254Y-106185069D01*
X138941337Y-106126238D01*
X138939667Y-106123333D01*
X138822960Y-106057794D01*
X138680670Y-106038666D01*
X138523962Y-106068286D01*
X138474000Y-106123333D01*
X138101659Y-106123333D01*
X138093000Y-106005470D01*
X138125242Y-105745125D01*
X138145906Y-105714579D01*
X140314215Y-105714579D01*
X140318070Y-105737847D01*
X140454300Y-105765198D01*
X140684625Y-105706470D01*
X140966211Y-105575205D01*
X141112983Y-105486511D01*
X141435204Y-105220606D01*
X141715690Y-104888150D01*
X141930583Y-104529446D01*
X142056027Y-104184793D01*
X142068167Y-103894492D01*
X142064589Y-103878953D01*
X142005169Y-103720975D01*
X141953338Y-103668000D01*
X141853411Y-103730155D01*
X141681933Y-103898179D01*
X141460760Y-104144402D01*
X141211752Y-104441158D01*
X140956767Y-104760780D01*
X140717662Y-105075600D01*
X140516296Y-105357951D01*
X140374528Y-105580167D01*
X140314215Y-105714579D01*
X138145906Y-105714579D01*
X138245417Y-105567482D01*
X138316161Y-105509327D01*
X138627775Y-105360283D01*
X139006719Y-105294918D01*
X139375741Y-105321005D01*
X139560904Y-105384110D01*
X139693185Y-105442144D01*
X139802293Y-105451731D01*
X139913428Y-105393983D01*
X140051792Y-105250014D01*
X140242585Y-105000934D01*
X140442942Y-104723029D01*
X140668668Y-104438286D01*
X140956446Y-104116292D01*
X141218158Y-103851922D01*
X141429215Y-103636935D01*
X141561333Y-103470990D01*
X141592822Y-103382317D01*
X141583894Y-103375920D01*
X141242596Y-103301378D01*
X140924809Y-103311144D01*
X140668190Y-103365903D01*
X140387649Y-103459887D01*
X140154267Y-103574195D01*
X140081552Y-103626675D01*
X139947814Y-103819205D01*
X139917089Y-104023876D01*
X139989274Y-104184334D01*
X140082667Y-104236134D01*
X140220207Y-104299425D01*
X140230290Y-104403914D01*
X140111361Y-104579018D01*
X140061500Y-104637035D01*
X139785465Y-104849092D01*
X139483739Y-104908936D01*
X139189251Y-104811903D01*
X139128831Y-104769138D01*
X138944942Y-104529924D01*
X138900386Y-104234243D01*
X138988548Y-103911500D01*
X139202815Y-103591100D01*
X139443760Y-103368906D01*
X139868626Y-103126457D01*
X140365008Y-102971161D01*
X140881652Y-102909821D01*
X141367302Y-102949246D01*
X141367302Y-102949246D01*
G37*
X141367302Y-102949246D02*
X141717321Y-103066999D01*
X141956682Y-103159303D01*
X142161215Y-103189630D01*
X142200890Y-103184125D01*
X142339422Y-103196348D01*
X142363031Y-103287567D01*
X142283771Y-103371808D01*
X142244933Y-103484255D01*
X142283771Y-103582905D01*
X142354562Y-103840048D01*
X142366964Y-104189418D01*
X142324940Y-104565804D01*
X142232455Y-104903999D01*
X142198751Y-104981536D01*
X141986524Y-105313937D01*
X141674771Y-105675857D01*
X141313632Y-106017608D01*
X140953246Y-106289502D01*
X140778703Y-106388772D01*
X140574715Y-106474305D01*
X140363568Y-106525947D01*
X140103110Y-106547715D01*
X139751191Y-106543626D01*
X139363000Y-106523687D01*
X139094999Y-106532670D01*
X138892751Y-106567308D01*
X138608748Y-106563541D01*
X138384751Y-106480617D01*
X138190350Y-106361136D01*
X138108614Y-106218018D01*
X138101659Y-106123333D01*
X138474000Y-106123333D01*
X138547685Y-106182335D01*
X138725704Y-106207966D01*
X138732997Y-106208000D01*
X138902254Y-106185069D01*
X138941337Y-106126238D01*
X138939667Y-106123333D01*
X138822960Y-106057794D01*
X138680670Y-106038666D01*
X138523962Y-106068286D01*
X138474000Y-106123333D01*
X138101659Y-106123333D01*
X138093000Y-106005470D01*
X138125242Y-105745125D01*
X138145906Y-105714579D01*
X140314215Y-105714579D01*
X140318070Y-105737847D01*
X140454300Y-105765198D01*
X140684625Y-105706470D01*
X140966211Y-105575205D01*
X141112983Y-105486511D01*
X141435204Y-105220606D01*
X141715690Y-104888150D01*
X141930583Y-104529446D01*
X142056027Y-104184793D01*
X142068167Y-103894492D01*
X142064589Y-103878953D01*
X142005169Y-103720975D01*
X141953338Y-103668000D01*
X141853411Y-103730155D01*
X141681933Y-103898179D01*
X141460760Y-104144402D01*
X141211752Y-104441158D01*
X140956767Y-104760780D01*
X140717662Y-105075600D01*
X140516296Y-105357951D01*
X140374528Y-105580167D01*
X140314215Y-105714579D01*
X138145906Y-105714579D01*
X138245417Y-105567482D01*
X138316161Y-105509327D01*
X138627775Y-105360283D01*
X139006719Y-105294918D01*
X139375741Y-105321005D01*
X139560904Y-105384110D01*
X139693185Y-105442144D01*
X139802293Y-105451731D01*
X139913428Y-105393983D01*
X140051792Y-105250014D01*
X140242585Y-105000934D01*
X140442942Y-104723029D01*
X140668668Y-104438286D01*
X140956446Y-104116292D01*
X141218158Y-103851922D01*
X141429215Y-103636935D01*
X141561333Y-103470990D01*
X141592822Y-103382317D01*
X141583894Y-103375920D01*
X141242596Y-103301378D01*
X140924809Y-103311144D01*
X140668190Y-103365903D01*
X140387649Y-103459887D01*
X140154267Y-103574195D01*
X140081552Y-103626675D01*
X139947814Y-103819205D01*
X139917089Y-104023876D01*
X139989274Y-104184334D01*
X140082667Y-104236134D01*
X140220207Y-104299425D01*
X140230290Y-104403914D01*
X140111361Y-104579018D01*
X140061500Y-104637035D01*
X139785465Y-104849092D01*
X139483739Y-104908936D01*
X139189251Y-104811903D01*
X139128831Y-104769138D01*
X138944942Y-104529924D01*
X138900386Y-104234243D01*
X138988548Y-103911500D01*
X139202815Y-103591100D01*
X139443760Y-103368906D01*
X139868626Y-103126457D01*
X140365008Y-102971161D01*
X140881652Y-102909821D01*
X141367302Y-102949246D01*
G36*
X149968344Y-103953832D02*
X150043130Y-104050078D01*
X150034190Y-104204776D01*
X149943185Y-104359452D01*
X149819659Y-104429999D01*
X149819334Y-104430000D01*
X149718196Y-104372519D01*
X149650000Y-104303000D01*
X149587281Y-104167487D01*
X149650000Y-104049000D01*
X149813568Y-103935381D01*
X149968344Y-103953832D01*
X149968344Y-103953832D01*
G37*
X149968344Y-103953832D02*
X150043130Y-104050078D01*
X150034190Y-104204776D01*
X149943185Y-104359452D01*
X149819659Y-104429999D01*
X149819334Y-104430000D01*
X149718196Y-104372519D01*
X149650000Y-104303000D01*
X149587281Y-104167487D01*
X149650000Y-104049000D01*
X149813568Y-103935381D01*
X149968344Y-103953832D01*
D11*
X145332000Y-115860000D02*
X147872000Y-115860000D01*
X142512000Y-115580000D02*
X144062000Y-115580000D01*
X145332000Y-115860000D02*
X145332000Y-118400000D01*
X144062000Y-118680000D02*
X142512000Y-118680000D01*
X142512000Y-118680000D02*
X142512000Y-115580000D01*
X145332000Y-118400000D02*
X147872000Y-118400000D01*
X147872000Y-118400000D02*
X147872000Y-115860000D01*
X144443048Y-78085429D02*
X145204953Y-78085429D01*
X149753334Y-99548381D02*
X149181905Y-99548381D01*
X149467619Y-99548381D02*
X149467619Y-98548381D01*
X149372381Y-98691238D01*
X149277143Y-98786476D01*
X149181905Y-98834095D01*
X150372381Y-98548381D02*
X150467620Y-98548381D01*
X150562858Y-98596000D01*
X150610477Y-98643619D01*
X150658096Y-98738857D01*
X150705715Y-98929333D01*
X150705715Y-99167429D01*
X150658096Y-99357905D01*
X150610477Y-99453143D01*
X150562858Y-99500762D01*
X150467620Y-99548381D01*
X150372381Y-99548381D01*
X150277143Y-99500762D01*
X150229524Y-99453143D01*
X150181905Y-99357905D01*
X150134286Y-99167429D01*
X150134286Y-98929333D01*
X150181905Y-98738857D01*
X150229524Y-98643619D01*
X150277143Y-98596000D01*
X150372381Y-98548381D01*
X151324762Y-98548381D02*
X151420001Y-98548381D01*
X151515239Y-98596000D01*
X151562858Y-98643619D01*
X151610477Y-98738857D01*
X151658096Y-98929333D01*
X151658096Y-99167429D01*
X151610477Y-99357905D01*
X151562858Y-99453143D01*
X151515239Y-99500762D01*
X151420001Y-99548381D01*
X151324762Y-99548381D01*
X151229524Y-99500762D01*
X151181905Y-99453143D01*
X151134286Y-99357905D01*
X151086667Y-99167429D01*
X151086667Y-98929333D01*
X151134286Y-98738857D01*
X151181905Y-98643619D01*
X151229524Y-98596000D01*
X151324762Y-98548381D01*
X152658096Y-99548381D02*
X152324762Y-99072190D01*
X152086667Y-99548381D02*
X152086667Y-98548381D01*
X152467620Y-98548381D01*
X152562858Y-98596000D01*
X152610477Y-98643619D01*
X152658096Y-98738857D01*
X152658096Y-98881714D01*
X152610477Y-98976952D01*
X152562858Y-99024571D01*
X152467620Y-99072190D01*
X152086667Y-99072190D01*
X163053667Y-108629762D02*
X163196524Y-108677381D01*
X163434620Y-108677381D01*
X163529858Y-108629762D01*
X163577477Y-108582143D01*
X163625096Y-108486905D01*
X163625096Y-108391667D01*
X163577477Y-108296429D01*
X163529858Y-108248810D01*
X163434620Y-108201190D01*
X163244143Y-108153571D01*
X163148905Y-108105952D01*
X163101286Y-108058333D01*
X163053667Y-107963095D01*
X163053667Y-107867857D01*
X163101286Y-107772619D01*
X163148905Y-107725000D01*
X163244143Y-107677381D01*
X163482239Y-107677381D01*
X163625096Y-107725000D01*
X163958429Y-107677381D02*
X164196524Y-108677381D01*
X164387001Y-107963095D01*
X164577477Y-108677381D01*
X164815572Y-107677381D01*
X165720334Y-108677381D02*
X165148905Y-108677381D01*
X165434619Y-108677381D02*
X165434619Y-107677381D01*
X165339381Y-107820238D01*
X165244143Y-107915476D01*
X165148905Y-107963095D01*
X124953667Y-108629762D02*
X125096524Y-108677381D01*
X125334620Y-108677381D01*
X125429858Y-108629762D01*
X125477477Y-108582143D01*
X125525096Y-108486905D01*
X125525096Y-108391667D01*
X125477477Y-108296429D01*
X125429858Y-108248810D01*
X125334620Y-108201190D01*
X125144143Y-108153571D01*
X125048905Y-108105952D01*
X125001286Y-108058333D01*
X124953667Y-107963095D01*
X124953667Y-107867857D01*
X125001286Y-107772619D01*
X125048905Y-107725000D01*
X125144143Y-107677381D01*
X125382239Y-107677381D01*
X125525096Y-107725000D01*
X125858429Y-107677381D02*
X126096524Y-108677381D01*
X126287001Y-107963095D01*
X126477477Y-108677381D01*
X126715572Y-107677381D01*
X127048905Y-107772619D02*
X127096524Y-107725000D01*
X127191762Y-107677381D01*
X127429858Y-107677381D01*
X127525096Y-107725000D01*
X127572715Y-107772619D01*
X127620334Y-107867857D01*
X127620334Y-107963095D01*
X127572715Y-108105952D01*
X127001286Y-108677381D01*
X127620334Y-108677381D01*
X131687381Y-93023666D02*
X131687381Y-93595095D01*
X131687381Y-93309381D02*
X130687381Y-93309381D01*
X130830238Y-93404619D01*
X130925476Y-93499857D01*
X130973095Y-93595095D01*
X130687381Y-92118904D02*
X130687381Y-92595095D01*
X131163571Y-92642714D01*
X131115952Y-92595095D01*
X131068333Y-92499857D01*
X131068333Y-92261761D01*
X131115952Y-92166523D01*
X131163571Y-92118904D01*
X131258810Y-92071285D01*
X131496905Y-92071285D01*
X131592143Y-92118904D01*
X131639762Y-92166523D01*
X131687381Y-92261761D01*
X131687381Y-92499857D01*
X131639762Y-92595095D01*
X131592143Y-92642714D01*
X130687381Y-91452238D02*
X130687381Y-91356999D01*
X130735000Y-91261761D01*
X130782619Y-91214142D01*
X130877857Y-91166523D01*
X131068333Y-91118904D01*
X131306429Y-91118904D01*
X131496905Y-91166523D01*
X131592143Y-91214142D01*
X131639762Y-91261761D01*
X131687381Y-91356999D01*
X131687381Y-91452238D01*
X131639762Y-91547476D01*
X131592143Y-91595095D01*
X131496905Y-91642714D01*
X131306429Y-91690333D01*
X131068333Y-91690333D01*
X130877857Y-91642714D01*
X130782619Y-91595095D01*
X130735000Y-91547476D01*
X130687381Y-91452238D01*
X131687381Y-90118904D02*
X131211190Y-90452238D01*
X131687381Y-90690333D02*
X130687381Y-90690333D01*
X130687381Y-90309380D01*
X130735000Y-90214142D01*
X130782619Y-90166523D01*
X130877857Y-90118904D01*
X131020714Y-90118904D01*
X131115952Y-90166523D01*
X131163571Y-90214142D01*
X131211190Y-90309380D01*
X131211190Y-90690333D01*
X159881381Y-92769666D02*
X159881381Y-93341095D01*
X159881381Y-93055381D02*
X158881381Y-93055381D01*
X159024238Y-93150619D01*
X159119476Y-93245857D01*
X159167095Y-93341095D01*
X158881381Y-91864904D02*
X158881381Y-92341095D01*
X159357571Y-92388714D01*
X159309952Y-92341095D01*
X159262333Y-92245857D01*
X159262333Y-92007761D01*
X159309952Y-91912523D01*
X159357571Y-91864904D01*
X159452810Y-91817285D01*
X159690905Y-91817285D01*
X159786143Y-91864904D01*
X159833762Y-91912523D01*
X159881381Y-92007761D01*
X159881381Y-92245857D01*
X159833762Y-92341095D01*
X159786143Y-92388714D01*
X158881381Y-91198238D02*
X158881381Y-91102999D01*
X158929000Y-91007761D01*
X158976619Y-90960142D01*
X159071857Y-90912523D01*
X159262333Y-90864904D01*
X159500429Y-90864904D01*
X159690905Y-90912523D01*
X159786143Y-90960142D01*
X159833762Y-91007761D01*
X159881381Y-91102999D01*
X159881381Y-91198238D01*
X159833762Y-91293476D01*
X159786143Y-91341095D01*
X159690905Y-91388714D01*
X159500429Y-91436333D01*
X159262333Y-91436333D01*
X159071857Y-91388714D01*
X158976619Y-91341095D01*
X158929000Y-91293476D01*
X158881381Y-91198238D01*
X159881381Y-89864904D02*
X159405190Y-90198238D01*
X159881381Y-90436333D02*
X158881381Y-90436333D01*
X158881381Y-90055380D01*
X158929000Y-89960142D01*
X158976619Y-89912523D01*
X159071857Y-89864904D01*
X159214714Y-89864904D01*
X159309952Y-89912523D01*
X159357571Y-89960142D01*
X159405190Y-90055380D01*
X159405190Y-90436333D01*
X144165334Y-99548381D02*
X143593905Y-99548381D01*
X143879619Y-99548381D02*
X143879619Y-98548381D01*
X143784381Y-98691238D01*
X143689143Y-98786476D01*
X143593905Y-98834095D01*
X144784381Y-98548381D02*
X144879620Y-98548381D01*
X144974858Y-98596000D01*
X145022477Y-98643619D01*
X145070096Y-98738857D01*
X145117715Y-98929333D01*
X145117715Y-99167429D01*
X145070096Y-99357905D01*
X145022477Y-99453143D01*
X144974858Y-99500762D01*
X144879620Y-99548381D01*
X144784381Y-99548381D01*
X144689143Y-99500762D01*
X144641524Y-99453143D01*
X144593905Y-99357905D01*
X144546286Y-99167429D01*
X144546286Y-98929333D01*
X144593905Y-98738857D01*
X144641524Y-98643619D01*
X144689143Y-98596000D01*
X144784381Y-98548381D01*
X145736762Y-98548381D02*
X145832001Y-98548381D01*
X145927239Y-98596000D01*
X145974858Y-98643619D01*
X146022477Y-98738857D01*
X146070096Y-98929333D01*
X146070096Y-99167429D01*
X146022477Y-99357905D01*
X145974858Y-99453143D01*
X145927239Y-99500762D01*
X145832001Y-99548381D01*
X145736762Y-99548381D01*
X145641524Y-99500762D01*
X145593905Y-99453143D01*
X145546286Y-99357905D01*
X145498667Y-99167429D01*
X145498667Y-98929333D01*
X145546286Y-98738857D01*
X145593905Y-98643619D01*
X145641524Y-98596000D01*
X145736762Y-98548381D01*
X147070096Y-99548381D02*
X146736762Y-99072190D01*
X146498667Y-99548381D02*
X146498667Y-98548381D01*
X146879620Y-98548381D01*
X146974858Y-98596000D01*
X147022477Y-98643619D01*
X147070096Y-98738857D01*
X147070096Y-98881714D01*
X147022477Y-98976952D01*
X146974858Y-99024571D01*
X146879620Y-99072190D01*
X146498667Y-99072190D01*
X138323334Y-99548381D02*
X137751905Y-99548381D01*
X138037619Y-99548381D02*
X138037619Y-98548381D01*
X137942381Y-98691238D01*
X137847143Y-98786476D01*
X137751905Y-98834095D01*
X139228096Y-98548381D02*
X138751905Y-98548381D01*
X138704286Y-99024571D01*
X138751905Y-98976952D01*
X138847143Y-98929333D01*
X139085239Y-98929333D01*
X139180477Y-98976952D01*
X139228096Y-99024571D01*
X139275715Y-99119810D01*
X139275715Y-99357905D01*
X139228096Y-99453143D01*
X139180477Y-99500762D01*
X139085239Y-99548381D01*
X138847143Y-99548381D01*
X138751905Y-99500762D01*
X138704286Y-99453143D01*
X139894762Y-98548381D02*
X139990001Y-98548381D01*
X140085239Y-98596000D01*
X140132858Y-98643619D01*
X140180477Y-98738857D01*
X140228096Y-98929333D01*
X140228096Y-99167429D01*
X140180477Y-99357905D01*
X140132858Y-99453143D01*
X140085239Y-99500762D01*
X139990001Y-99548381D01*
X139894762Y-99548381D01*
X139799524Y-99500762D01*
X139751905Y-99453143D01*
X139704286Y-99357905D01*
X139656667Y-99167429D01*
X139656667Y-98929333D01*
X139704286Y-98738857D01*
X139751905Y-98643619D01*
X139799524Y-98596000D01*
X139894762Y-98548381D01*
X141228096Y-99548381D02*
X140894762Y-99072190D01*
X140656667Y-99548381D02*
X140656667Y-98548381D01*
X141037620Y-98548381D01*
X141132858Y-98596000D01*
X141180477Y-98643619D01*
X141228096Y-98738857D01*
X141228096Y-98881714D01*
X141180477Y-98976952D01*
X141132858Y-99024571D01*
X141037620Y-99072190D01*
X140656667Y-99072190D01*
%LPC*%
D13*
X143554000Y-81316000D03*
X144824000Y-79284000D03*
X146094000Y-81316000D03*
X147364000Y-79284000D03*
D14*
X151047000Y-86650000D03*
X151047000Y-96810000D03*
D15*
X128822000Y-79030000D03*
D16*
X128822000Y-81570000D03*
D15*
X161842000Y-79030000D03*
D16*
X161842000Y-81570000D03*
D17*
X123483000Y-74981000D03*
X123483000Y-118669000D03*
X167171000Y-74981000D03*
X167171000Y-118669000D03*
D18*
X166922000Y-112050000D03*
X161842000Y-112050000D03*
X166922000Y-104430000D03*
X161842000Y-104430000D03*
X123742000Y-104430000D03*
X128822000Y-104430000D03*
X123742000Y-112050000D03*
X128822000Y-112050000D03*
D19*
X156762000Y-114590000D03*
D20*
X156762000Y-112050000D03*
X156762000Y-109510000D03*
X156762000Y-106970000D03*
X156762000Y-104430000D03*
X156762000Y-101890000D03*
X156762000Y-99350000D03*
X156762000Y-96810000D03*
X156762000Y-94270000D03*
X156762000Y-91730000D03*
X156762000Y-89190000D03*
X156762000Y-86650000D03*
X156762000Y-84110000D03*
X156762000Y-81570000D03*
X156762000Y-79030000D03*
D19*
X133902000Y-114590000D03*
D20*
X133902000Y-112050000D03*
X133902000Y-109510000D03*
X133902000Y-106970000D03*
X133902000Y-104430000D03*
X133902000Y-101890000D03*
X133902000Y-99350000D03*
X133902000Y-96810000D03*
X133902000Y-94270000D03*
X133902000Y-91730000D03*
X133902000Y-89190000D03*
X133902000Y-86650000D03*
X133902000Y-84110000D03*
X133902000Y-81570000D03*
X133902000Y-79030000D03*
D19*
X168192000Y-99350000D03*
D20*
X168192000Y-96810000D03*
X168192000Y-94270000D03*
X168192000Y-91730000D03*
X168192000Y-89190000D03*
X168192000Y-86650000D03*
D19*
X122472000Y-99350000D03*
D20*
X122472000Y-96810000D03*
X122472000Y-94270000D03*
X122472000Y-91730000D03*
X122472000Y-89190000D03*
X122472000Y-86650000D03*
D14*
X128822000Y-86650000D03*
X128822000Y-96810000D03*
X161842000Y-86650000D03*
X161842000Y-96810000D03*
X145332000Y-86650000D03*
X145332000Y-96810000D03*
X139617000Y-86650000D03*
X139617000Y-96810000D03*
D21*
X144062000Y-117130000D03*
D22*
X146602000Y-117130000D03*
M02*
