%TF.GenerationSoftware,KiCad,Pcbnew,4.0.2-4+6225~38~ubuntu14.04.1-stable*%
%TF.CreationDate,2016-04-19T20:26:28+01:00*%
%TF.ProjectId,basic,62617369632E6B696361645F70636200,rev?*%
%TF.FileFunction,Legend,Bot*%
%FSLAX46Y46*%
G04 Gerber Fmt 4.6, Leading zero omitted, Abs format (unit mm)*
G04 Created by KiCad (PCBNEW 4.0.2-4+6225~38~ubuntu14.04.1-stable) date Tue 19 Apr 2016 20:26:28 BST*
%MOMM*%
G01*
G04 APERTURE LIST*
%ADD10C,0.100000*%
%ADD11C,0.150000*%
%ADD12C,0.300000*%
%ADD13C,0.200000*%
%ADD14C,0.010000*%
%ADD15C,2.398980*%
%ADD16R,2.400000X2.300000*%
%ADD17C,2.300000*%
%ADD18C,5.900000*%
%ADD19C,1.797000*%
%ADD20R,2.432000X2.127200*%
%ADD21O,2.432000X2.127200*%
%ADD22O,1.400000X2.305000*%
%ADD23R,1.400000X2.305000*%
G04 APERTURE END LIST*
D10*
D11*
X165524904Y-98850000D02*
X165620142Y-98802381D01*
X165762999Y-98802381D01*
X165905857Y-98850000D01*
X166001095Y-98945238D01*
X166048714Y-99040476D01*
X166096333Y-99230952D01*
X166096333Y-99373810D01*
X166048714Y-99564286D01*
X166001095Y-99659524D01*
X165905857Y-99754762D01*
X165762999Y-99802381D01*
X165667761Y-99802381D01*
X165524904Y-99754762D01*
X165477285Y-99707143D01*
X165477285Y-99373810D01*
X165667761Y-99373810D01*
X165048714Y-99802381D02*
X165048714Y-98802381D01*
X164477285Y-99802381D01*
X164477285Y-98802381D01*
X164001095Y-99802381D02*
X164001095Y-98802381D01*
X163763000Y-98802381D01*
X163620142Y-98850000D01*
X163524904Y-98945238D01*
X163477285Y-99040476D01*
X163429666Y-99230952D01*
X163429666Y-99373810D01*
X163477285Y-99564286D01*
X163524904Y-99659524D01*
X163620142Y-99754762D01*
X163763000Y-99802381D01*
X164001095Y-99802381D01*
X166128095Y-96262381D02*
X165509047Y-96262381D01*
X165842381Y-96643333D01*
X165699523Y-96643333D01*
X165604285Y-96690952D01*
X165556666Y-96738571D01*
X165509047Y-96833810D01*
X165509047Y-97071905D01*
X165556666Y-97167143D01*
X165604285Y-97214762D01*
X165699523Y-97262381D01*
X165985238Y-97262381D01*
X166080476Y-97214762D01*
X166128095Y-97167143D01*
X165223333Y-96262381D02*
X164890000Y-97262381D01*
X164556666Y-96262381D01*
X164318571Y-96262381D02*
X163699523Y-96262381D01*
X164032857Y-96643333D01*
X163889999Y-96643333D01*
X163794761Y-96690952D01*
X163747142Y-96738571D01*
X163699523Y-96833810D01*
X163699523Y-97071905D01*
X163747142Y-97167143D01*
X163794761Y-97214762D01*
X163889999Y-97262381D01*
X164175714Y-97262381D01*
X164270952Y-97214762D01*
X164318571Y-97167143D01*
X165746952Y-95103333D02*
X165794572Y-95055714D01*
X165889810Y-94912857D01*
X165937429Y-94817619D01*
X165985048Y-94674762D01*
X166032667Y-94436667D01*
X166032667Y-94246190D01*
X165985048Y-94008095D01*
X165937429Y-93865238D01*
X165889810Y-93770000D01*
X165794572Y-93627143D01*
X165746952Y-93579524D01*
X165413619Y-94674762D02*
X165270762Y-94722381D01*
X165032666Y-94722381D01*
X164937428Y-94674762D01*
X164889809Y-94627143D01*
X164842190Y-94531905D01*
X164842190Y-94436667D01*
X164889809Y-94341429D01*
X164937428Y-94293810D01*
X165032666Y-94246190D01*
X165223143Y-94198571D01*
X165318381Y-94150952D01*
X165366000Y-94103333D01*
X165413619Y-94008095D01*
X165413619Y-93912857D01*
X165366000Y-93817619D01*
X165318381Y-93770000D01*
X165223143Y-93722381D01*
X164985047Y-93722381D01*
X164842190Y-93770000D01*
X163842190Y-94627143D02*
X163889809Y-94674762D01*
X164032666Y-94722381D01*
X164127904Y-94722381D01*
X164270762Y-94674762D01*
X164366000Y-94579524D01*
X164413619Y-94484286D01*
X164461238Y-94293810D01*
X164461238Y-94150952D01*
X164413619Y-93960476D01*
X164366000Y-93865238D01*
X164270762Y-93770000D01*
X164127904Y-93722381D01*
X164032666Y-93722381D01*
X163889809Y-93770000D01*
X163842190Y-93817619D01*
X162937428Y-94722381D02*
X163413619Y-94722381D01*
X163413619Y-93722381D01*
X162699333Y-95103333D02*
X162651714Y-95055714D01*
X162556476Y-94912857D01*
X162508857Y-94817619D01*
X162461238Y-94674762D01*
X162413619Y-94436667D01*
X162413619Y-94246190D01*
X162461238Y-94008095D01*
X162508857Y-93865238D01*
X162556476Y-93770000D01*
X162651714Y-93627143D01*
X162699333Y-93579524D01*
X160699332Y-93722381D02*
X161175523Y-93722381D01*
X161223142Y-94198571D01*
X161175523Y-94150952D01*
X161080285Y-94103333D01*
X160842189Y-94103333D01*
X160746951Y-94150952D01*
X160699332Y-94198571D01*
X160651713Y-94293810D01*
X160651713Y-94531905D01*
X160699332Y-94627143D01*
X160746951Y-94674762D01*
X160842189Y-94722381D01*
X161080285Y-94722381D01*
X161175523Y-94674762D01*
X161223142Y-94627143D01*
X165699619Y-88642381D02*
X165604380Y-88642381D01*
X165509142Y-88690000D01*
X165461523Y-88737619D01*
X165413904Y-88832857D01*
X165366285Y-89023333D01*
X165366285Y-89261429D01*
X165413904Y-89451905D01*
X165461523Y-89547143D01*
X165509142Y-89594762D01*
X165604380Y-89642381D01*
X165699619Y-89642381D01*
X165794857Y-89594762D01*
X165842476Y-89547143D01*
X165890095Y-89451905D01*
X165937714Y-89261429D01*
X165937714Y-89023333D01*
X165890095Y-88832857D01*
X165842476Y-88737619D01*
X165794857Y-88690000D01*
X165699619Y-88642381D01*
X166112286Y-86816667D02*
X165636095Y-86816667D01*
X166207524Y-87102381D02*
X165874191Y-86102381D01*
X165540857Y-87102381D01*
X165017048Y-86102381D02*
X164921809Y-86102381D01*
X164826571Y-86150000D01*
X164778952Y-86197619D01*
X164731333Y-86292857D01*
X164683714Y-86483333D01*
X164683714Y-86721429D01*
X164731333Y-86911905D01*
X164778952Y-87007143D01*
X164826571Y-87054762D01*
X164921809Y-87102381D01*
X165017048Y-87102381D01*
X165112286Y-87054762D01*
X165159905Y-87007143D01*
X165207524Y-86911905D01*
X165255143Y-86721429D01*
X165255143Y-86483333D01*
X165207524Y-86292857D01*
X165159905Y-86197619D01*
X165112286Y-86150000D01*
X165017048Y-86102381D01*
X126657904Y-98992000D02*
X126753142Y-98944381D01*
X126895999Y-98944381D01*
X127038857Y-98992000D01*
X127134095Y-99087238D01*
X127181714Y-99182476D01*
X127229333Y-99372952D01*
X127229333Y-99515810D01*
X127181714Y-99706286D01*
X127134095Y-99801524D01*
X127038857Y-99896762D01*
X126895999Y-99944381D01*
X126800761Y-99944381D01*
X126657904Y-99896762D01*
X126610285Y-99849143D01*
X126610285Y-99515810D01*
X126800761Y-99515810D01*
X126181714Y-99944381D02*
X126181714Y-98944381D01*
X125610285Y-99944381D01*
X125610285Y-98944381D01*
X125134095Y-99944381D02*
X125134095Y-98944381D01*
X124896000Y-98944381D01*
X124753142Y-98992000D01*
X124657904Y-99087238D01*
X124610285Y-99182476D01*
X124562666Y-99372952D01*
X124562666Y-99515810D01*
X124610285Y-99706286D01*
X124657904Y-99801524D01*
X124753142Y-99896762D01*
X124896000Y-99944381D01*
X125134095Y-99944381D01*
X126657904Y-98992000D02*
X126753142Y-98944381D01*
X126895999Y-98944381D01*
X127038857Y-98992000D01*
X127134095Y-99087238D01*
X127181714Y-99182476D01*
X127229333Y-99372952D01*
X127229333Y-99515810D01*
X127181714Y-99706286D01*
X127134095Y-99801524D01*
X127038857Y-99896762D01*
X126895999Y-99944381D01*
X126800761Y-99944381D01*
X126657904Y-99896762D01*
X126610285Y-99849143D01*
X126610285Y-99515810D01*
X126800761Y-99515810D01*
X126181714Y-99944381D02*
X126181714Y-98944381D01*
X125610285Y-99944381D01*
X125610285Y-98944381D01*
X125134095Y-99944381D02*
X125134095Y-98944381D01*
X124896000Y-98944381D01*
X124753142Y-98992000D01*
X124657904Y-99087238D01*
X124610285Y-99182476D01*
X124562666Y-99372952D01*
X124562666Y-99515810D01*
X124610285Y-99706286D01*
X124657904Y-99801524D01*
X124753142Y-99896762D01*
X124896000Y-99944381D01*
X125134095Y-99944381D01*
X127012095Y-96262381D02*
X126393047Y-96262381D01*
X126726381Y-96643333D01*
X126583523Y-96643333D01*
X126488285Y-96690952D01*
X126440666Y-96738571D01*
X126393047Y-96833810D01*
X126393047Y-97071905D01*
X126440666Y-97167143D01*
X126488285Y-97214762D01*
X126583523Y-97262381D01*
X126869238Y-97262381D01*
X126964476Y-97214762D01*
X127012095Y-97167143D01*
X126107333Y-96262381D02*
X125774000Y-97262381D01*
X125440666Y-96262381D01*
X125202571Y-96262381D02*
X124583523Y-96262381D01*
X124916857Y-96643333D01*
X124773999Y-96643333D01*
X124678761Y-96690952D01*
X124631142Y-96738571D01*
X124583523Y-96833810D01*
X124583523Y-97071905D01*
X124631142Y-97167143D01*
X124678761Y-97214762D01*
X124773999Y-97262381D01*
X125059714Y-97262381D01*
X125154952Y-97214762D01*
X125202571Y-97167143D01*
X154951049Y-113613714D02*
X154951049Y-114613714D01*
X154951049Y-113661333D02*
X154855811Y-113613714D01*
X154665334Y-113613714D01*
X154570096Y-113661333D01*
X154522477Y-113708952D01*
X154474858Y-113804190D01*
X154474858Y-114089905D01*
X154522477Y-114185143D01*
X154570096Y-114232762D01*
X154665334Y-114280381D01*
X154855811Y-114280381D01*
X154951049Y-114232762D01*
X153665334Y-114232762D02*
X153760572Y-114280381D01*
X153951049Y-114280381D01*
X154046287Y-114232762D01*
X154093906Y-114137524D01*
X154093906Y-113756571D01*
X154046287Y-113661333D01*
X153951049Y-113613714D01*
X153760572Y-113613714D01*
X153665334Y-113661333D01*
X153617715Y-113756571D01*
X153617715Y-113851810D01*
X154093906Y-113947048D01*
X153332001Y-113613714D02*
X152951049Y-113613714D01*
X153189144Y-113280381D02*
X153189144Y-114137524D01*
X153141525Y-114232762D01*
X153046287Y-114280381D01*
X152951049Y-114280381D01*
X152236762Y-114232762D02*
X152332000Y-114280381D01*
X152522477Y-114280381D01*
X152617715Y-114232762D01*
X152665334Y-114137524D01*
X152665334Y-113756571D01*
X152617715Y-113661333D01*
X152522477Y-113613714D01*
X152332000Y-113613714D01*
X152236762Y-113661333D01*
X152189143Y-113756571D01*
X152189143Y-113851810D01*
X152665334Y-113947048D01*
X151760572Y-114280381D02*
X151760572Y-113613714D01*
X151760572Y-113804190D02*
X151712953Y-113708952D01*
X151665334Y-113661333D01*
X151570096Y-113613714D01*
X151474857Y-113613714D01*
X151379619Y-114375619D02*
X150617714Y-114375619D01*
X149951047Y-114232762D02*
X150046285Y-114280381D01*
X150236762Y-114280381D01*
X150332000Y-114232762D01*
X150379619Y-114185143D01*
X150427238Y-114089905D01*
X150427238Y-113804190D01*
X150379619Y-113708952D01*
X150332000Y-113661333D01*
X150236762Y-113613714D01*
X150046285Y-113613714D01*
X149951047Y-113661333D01*
X149379619Y-114280381D02*
X149474857Y-114232762D01*
X149522476Y-114137524D01*
X149522476Y-113280381D01*
X148570094Y-114280381D02*
X148570094Y-113756571D01*
X148617713Y-113661333D01*
X148712951Y-113613714D01*
X148903428Y-113613714D01*
X148998666Y-113661333D01*
X148570094Y-114232762D02*
X148665332Y-114280381D01*
X148903428Y-114280381D01*
X148998666Y-114232762D01*
X149046285Y-114137524D01*
X149046285Y-114042286D01*
X148998666Y-113947048D01*
X148903428Y-113899429D01*
X148665332Y-113899429D01*
X148570094Y-113851810D01*
X148093904Y-114280381D02*
X148093904Y-113613714D01*
X148093904Y-113804190D02*
X148046285Y-113708952D01*
X147998666Y-113661333D01*
X147903428Y-113613714D01*
X147808189Y-113613714D01*
X147474856Y-114280381D02*
X147474856Y-113280381D01*
X147379618Y-113899429D02*
X147093903Y-114280381D01*
X147093903Y-113613714D02*
X147474856Y-113994667D01*
X146284379Y-114232762D02*
X146379617Y-114280381D01*
X146570094Y-114280381D01*
X146665332Y-114232762D01*
X146712951Y-114137524D01*
X146712951Y-113756571D01*
X146665332Y-113661333D01*
X146570094Y-113613714D01*
X146379617Y-113613714D01*
X146284379Y-113661333D01*
X146236760Y-113756571D01*
X146236760Y-113851810D01*
X146712951Y-113947048D01*
X145189141Y-113804190D02*
X145236760Y-113756571D01*
X145331998Y-113708952D01*
X145427236Y-113708952D01*
X145522474Y-113756571D01*
X145570094Y-113804190D01*
X145617713Y-113899429D01*
X145617713Y-113994667D01*
X145570094Y-114089905D01*
X145522474Y-114137524D01*
X145427236Y-114185143D01*
X145331998Y-114185143D01*
X145236760Y-114137524D01*
X145189141Y-114089905D01*
X145189141Y-113708952D02*
X145189141Y-114089905D01*
X145141522Y-114137524D01*
X145093903Y-114137524D01*
X144998665Y-114089905D01*
X144951046Y-113994667D01*
X144951046Y-113756571D01*
X145046284Y-113613714D01*
X145189141Y-113518476D01*
X145379617Y-113470857D01*
X145570094Y-113518476D01*
X145712951Y-113613714D01*
X145808189Y-113756571D01*
X145855808Y-113947048D01*
X145808189Y-114137524D01*
X145712951Y-114280381D01*
X145570094Y-114375619D01*
X145379617Y-114423238D01*
X145189141Y-114375619D01*
X145046284Y-114280381D01*
X144093903Y-114280381D02*
X144093903Y-113280381D01*
X144093903Y-114232762D02*
X144189141Y-114280381D01*
X144379618Y-114280381D01*
X144474856Y-114232762D01*
X144522475Y-114185143D01*
X144570094Y-114089905D01*
X144570094Y-113804190D01*
X144522475Y-113708952D01*
X144474856Y-113661333D01*
X144379618Y-113613714D01*
X144189141Y-113613714D01*
X144093903Y-113661333D01*
X143236760Y-114232762D02*
X143331998Y-114280381D01*
X143522475Y-114280381D01*
X143617713Y-114232762D01*
X143665332Y-114137524D01*
X143665332Y-113756571D01*
X143617713Y-113661333D01*
X143522475Y-113613714D01*
X143331998Y-113613714D01*
X143236760Y-113661333D01*
X143189141Y-113756571D01*
X143189141Y-113851810D01*
X143665332Y-113947048D01*
X142760570Y-113613714D02*
X142760570Y-114280381D01*
X142760570Y-113708952D02*
X142712951Y-113661333D01*
X142617713Y-113613714D01*
X142474855Y-113613714D01*
X142379617Y-113661333D01*
X142331998Y-113756571D01*
X142331998Y-114280381D01*
X141855808Y-113613714D02*
X141855808Y-114280381D01*
X141855808Y-113708952D02*
X141808189Y-113661333D01*
X141712951Y-113613714D01*
X141570093Y-113613714D01*
X141474855Y-113661333D01*
X141427236Y-113756571D01*
X141427236Y-114280381D01*
X140951046Y-114280381D02*
X140951046Y-113613714D01*
X140951046Y-113280381D02*
X140998665Y-113328000D01*
X140951046Y-113375619D01*
X140903427Y-113328000D01*
X140951046Y-113280381D01*
X140951046Y-113375619D01*
X140522475Y-114232762D02*
X140427237Y-114280381D01*
X140236761Y-114280381D01*
X140141522Y-114232762D01*
X140093903Y-114137524D01*
X140093903Y-114089905D01*
X140141522Y-113994667D01*
X140236761Y-113947048D01*
X140379618Y-113947048D01*
X140474856Y-113899429D01*
X140522475Y-113804190D01*
X140522475Y-113756571D01*
X140474856Y-113661333D01*
X140379618Y-113613714D01*
X140236761Y-113613714D01*
X140141522Y-113661333D01*
X139665332Y-114185143D02*
X139617713Y-114232762D01*
X139665332Y-114280381D01*
X139712951Y-114232762D01*
X139665332Y-114185143D01*
X139665332Y-114280381D01*
X138760570Y-114232762D02*
X138855808Y-114280381D01*
X139046285Y-114280381D01*
X139141523Y-114232762D01*
X139189142Y-114185143D01*
X139236761Y-114089905D01*
X139236761Y-113804190D01*
X139189142Y-113708952D01*
X139141523Y-113661333D01*
X139046285Y-113613714D01*
X138855808Y-113613714D01*
X138760570Y-113661333D01*
X138189142Y-114280381D02*
X138284380Y-114232762D01*
X138331999Y-114185143D01*
X138379618Y-114089905D01*
X138379618Y-113804190D01*
X138331999Y-113708952D01*
X138284380Y-113661333D01*
X138189142Y-113613714D01*
X138046284Y-113613714D01*
X137951046Y-113661333D01*
X137903427Y-113708952D01*
X137855808Y-113804190D01*
X137855808Y-114089905D01*
X137903427Y-114185143D01*
X137951046Y-114232762D01*
X138046284Y-114280381D01*
X138189142Y-114280381D01*
X137427237Y-114185143D02*
X137379618Y-114232762D01*
X137427237Y-114280381D01*
X137474856Y-114232762D01*
X137427237Y-114185143D01*
X137427237Y-114280381D01*
X136522475Y-113613714D02*
X136522475Y-114280381D01*
X136951047Y-113613714D02*
X136951047Y-114137524D01*
X136903428Y-114232762D01*
X136808190Y-114280381D01*
X136665332Y-114280381D01*
X136570094Y-114232762D01*
X136522475Y-114185143D01*
X136046285Y-114280381D02*
X136046285Y-113280381D01*
X135951047Y-113899429D02*
X135665332Y-114280381D01*
X135665332Y-113613714D02*
X136046285Y-113994667D01*
X125456476Y-94722381D02*
X126027905Y-94722381D01*
X125742191Y-94722381D02*
X125742191Y-93722381D01*
X125837429Y-93865238D01*
X125932667Y-93960476D01*
X126027905Y-94008095D01*
X124551714Y-93722381D02*
X125027905Y-93722381D01*
X125075524Y-94198571D01*
X125027905Y-94150952D01*
X124932667Y-94103333D01*
X124694571Y-94103333D01*
X124599333Y-94150952D01*
X124551714Y-94198571D01*
X124504095Y-94293810D01*
X124504095Y-94531905D01*
X124551714Y-94627143D01*
X124599333Y-94674762D01*
X124694571Y-94722381D01*
X124932667Y-94722381D01*
X125027905Y-94674762D01*
X125075524Y-94627143D01*
X149713977Y-111232381D02*
X149588977Y-110232381D01*
X149350882Y-110232381D01*
X149213976Y-110280000D01*
X149130643Y-110375238D01*
X149094928Y-110470476D01*
X149071119Y-110660952D01*
X149088976Y-110803810D01*
X149160405Y-110994286D01*
X149219928Y-111089524D01*
X149327071Y-111184762D01*
X149475882Y-111232381D01*
X149713977Y-111232381D01*
X148327071Y-111184762D02*
X148428262Y-111232381D01*
X148618739Y-111232381D01*
X148708024Y-111184762D01*
X148743738Y-111089524D01*
X148696119Y-110708571D01*
X148636596Y-110613333D01*
X148535405Y-110565714D01*
X148344928Y-110565714D01*
X148255643Y-110613333D01*
X148219928Y-110708571D01*
X148231833Y-110803810D01*
X148719929Y-110899048D01*
X147773500Y-110565714D02*
X147856834Y-111232381D01*
X147785405Y-110660952D02*
X147731834Y-110613333D01*
X147630643Y-110565714D01*
X147487785Y-110565714D01*
X147398500Y-110613333D01*
X147362785Y-110708571D01*
X147428262Y-111232381D01*
X146952072Y-111232381D02*
X146827072Y-110232381D01*
X146874691Y-110613333D02*
X146773500Y-110565714D01*
X146583023Y-110565714D01*
X146493738Y-110613333D01*
X146452071Y-110660952D01*
X146416357Y-110756190D01*
X146452071Y-111041905D01*
X146511595Y-111137143D01*
X146565166Y-111184762D01*
X146666357Y-111232381D01*
X146856834Y-111232381D01*
X146946119Y-111184762D01*
X146047310Y-111232381D02*
X145963976Y-110565714D01*
X145922310Y-110232381D02*
X145975881Y-110280000D01*
X145934214Y-110327619D01*
X145880643Y-110280000D01*
X145922310Y-110232381D01*
X145934214Y-110327619D01*
X145630643Y-110565714D02*
X145249691Y-110565714D01*
X145446120Y-110232381D02*
X145553262Y-111089524D01*
X145517548Y-111184762D01*
X145428263Y-111232381D01*
X145333025Y-111232381D01*
X144249690Y-110565714D02*
X144094929Y-111232381D01*
X143773499Y-110565714D01*
X142952071Y-111232381D02*
X143523500Y-111232381D01*
X143237786Y-111232381D02*
X143112786Y-110232381D01*
X143225881Y-110375238D01*
X143333023Y-110470476D01*
X143434214Y-110518095D01*
X142511595Y-111137143D02*
X142469928Y-111184762D01*
X142523500Y-111232381D01*
X142565166Y-111184762D01*
X142511595Y-111137143D01*
X142523500Y-111232381D01*
X141731834Y-110232381D02*
X141636595Y-110232381D01*
X141547309Y-110280000D01*
X141505642Y-110327619D01*
X141469928Y-110422857D01*
X141446119Y-110613333D01*
X141475881Y-110851429D01*
X141547309Y-111041905D01*
X141606833Y-111137143D01*
X141660404Y-111184762D01*
X141761595Y-111232381D01*
X141856834Y-111232381D01*
X141946119Y-111184762D01*
X141987786Y-111137143D01*
X142023500Y-111041905D01*
X142047310Y-110851429D01*
X142017548Y-110613333D01*
X141946119Y-110422857D01*
X141886595Y-110327619D01*
X141833024Y-110280000D01*
X141731834Y-110232381D01*
D12*
X149899429Y-91462571D02*
X149899429Y-89962571D01*
X149042286Y-91462571D01*
X149042286Y-89962571D01*
X148113714Y-91462571D02*
X148256572Y-91391143D01*
X148328000Y-91319714D01*
X148399429Y-91176857D01*
X148399429Y-90748286D01*
X148328000Y-90605429D01*
X148256572Y-90534000D01*
X148113714Y-90462571D01*
X147899429Y-90462571D01*
X147756572Y-90534000D01*
X147685143Y-90605429D01*
X147613714Y-90748286D01*
X147613714Y-91176857D01*
X147685143Y-91319714D01*
X147756572Y-91391143D01*
X147899429Y-91462571D01*
X148113714Y-91462571D01*
X146328000Y-91462571D02*
X146328000Y-89962571D01*
X146328000Y-91391143D02*
X146470857Y-91462571D01*
X146756571Y-91462571D01*
X146899429Y-91391143D01*
X146970857Y-91319714D01*
X147042286Y-91176857D01*
X147042286Y-90748286D01*
X146970857Y-90605429D01*
X146899429Y-90534000D01*
X146756571Y-90462571D01*
X146470857Y-90462571D01*
X146328000Y-90534000D01*
X145042286Y-91391143D02*
X145185143Y-91462571D01*
X145470857Y-91462571D01*
X145613714Y-91391143D01*
X145685143Y-91248286D01*
X145685143Y-90676857D01*
X145613714Y-90534000D01*
X145470857Y-90462571D01*
X145185143Y-90462571D01*
X145042286Y-90534000D01*
X144970857Y-90676857D01*
X144970857Y-90819714D01*
X145685143Y-90962571D01*
X144328000Y-91462571D02*
X144328000Y-89962571D01*
X143828000Y-91034000D01*
X143328000Y-89962571D01*
X143328000Y-91462571D01*
X141756571Y-91319714D02*
X141828000Y-91391143D01*
X142042286Y-91462571D01*
X142185143Y-91462571D01*
X142399428Y-91391143D01*
X142542286Y-91248286D01*
X142613714Y-91105429D01*
X142685143Y-90819714D01*
X142685143Y-90605429D01*
X142613714Y-90319714D01*
X142542286Y-90176857D01*
X142399428Y-90034000D01*
X142185143Y-89962571D01*
X142042286Y-89962571D01*
X141828000Y-90034000D01*
X141756571Y-90105429D01*
X141113714Y-89962571D02*
X141113714Y-91176857D01*
X141042286Y-91319714D01*
X140970857Y-91391143D01*
X140828000Y-91462571D01*
X140542286Y-91462571D01*
X140399428Y-91391143D01*
X140328000Y-91319714D01*
X140256571Y-91176857D01*
X140256571Y-89962571D01*
X149685142Y-92862571D02*
X149685142Y-94076857D01*
X149756571Y-94219714D01*
X149827999Y-94291143D01*
X149970856Y-94362571D01*
X150185142Y-94362571D01*
X150327999Y-94291143D01*
X149685142Y-93791143D02*
X149827999Y-93862571D01*
X150113713Y-93862571D01*
X150256571Y-93791143D01*
X150327999Y-93719714D01*
X150399428Y-93576857D01*
X150399428Y-93148286D01*
X150327999Y-93005429D01*
X150256571Y-92934000D01*
X150113713Y-92862571D01*
X149827999Y-92862571D01*
X149685142Y-92934000D01*
X148756570Y-93862571D02*
X148899428Y-93791143D01*
X148970856Y-93719714D01*
X149042285Y-93576857D01*
X149042285Y-93148286D01*
X148970856Y-93005429D01*
X148899428Y-92934000D01*
X148756570Y-92862571D01*
X148542285Y-92862571D01*
X148399428Y-92934000D01*
X148327999Y-93005429D01*
X148256570Y-93148286D01*
X148256570Y-93576857D01*
X148327999Y-93719714D01*
X148399428Y-93791143D01*
X148542285Y-93862571D01*
X148756570Y-93862571D01*
X147042285Y-93791143D02*
X147185142Y-93862571D01*
X147470856Y-93862571D01*
X147613713Y-93791143D01*
X147685142Y-93648286D01*
X147685142Y-93076857D01*
X147613713Y-92934000D01*
X147470856Y-92862571D01*
X147185142Y-92862571D01*
X147042285Y-92934000D01*
X146970856Y-93076857D01*
X146970856Y-93219714D01*
X147685142Y-93362571D01*
X146399428Y-93791143D02*
X146256571Y-93862571D01*
X145970856Y-93862571D01*
X145827999Y-93791143D01*
X145756571Y-93648286D01*
X145756571Y-93576857D01*
X145827999Y-93434000D01*
X145970856Y-93362571D01*
X146185142Y-93362571D01*
X146327999Y-93291143D01*
X146399428Y-93148286D01*
X146399428Y-93076857D01*
X146327999Y-92934000D01*
X146185142Y-92862571D01*
X145970856Y-92862571D01*
X145827999Y-92934000D01*
X143970856Y-93862571D02*
X143970856Y-92362571D01*
X143327999Y-93862571D02*
X143327999Y-93076857D01*
X143399428Y-92934000D01*
X143542285Y-92862571D01*
X143756570Y-92862571D01*
X143899428Y-92934000D01*
X143970856Y-93005429D01*
X142042285Y-93791143D02*
X142185142Y-93862571D01*
X142470856Y-93862571D01*
X142613713Y-93791143D01*
X142685142Y-93648286D01*
X142685142Y-93076857D01*
X142613713Y-92934000D01*
X142470856Y-92862571D01*
X142185142Y-92862571D01*
X142042285Y-92934000D01*
X141970856Y-93076857D01*
X141970856Y-93219714D01*
X142685142Y-93362571D01*
X141327999Y-93862571D02*
X141327999Y-92862571D01*
X141327999Y-93148286D02*
X141256571Y-93005429D01*
X141185142Y-92934000D01*
X141042285Y-92862571D01*
X140899428Y-92862571D01*
X139828000Y-93791143D02*
X139970857Y-93862571D01*
X140256571Y-93862571D01*
X140399428Y-93791143D01*
X140470857Y-93648286D01*
X140470857Y-93076857D01*
X140399428Y-92934000D01*
X140256571Y-92862571D01*
X139970857Y-92862571D01*
X139828000Y-92934000D01*
X139756571Y-93076857D01*
X139756571Y-93219714D01*
X140470857Y-93362571D01*
D13*
X153775631Y-119670000D02*
G75*
G03X153775631Y-119670000I-1077631J0D01*
G01*
X138789631Y-119670000D02*
G75*
G03X138789631Y-119670000I-1077631J0D01*
G01*
X142792000Y-72426000D02*
X140252000Y-72426000D01*
X142792000Y-72680000D02*
X142792000Y-72426000D01*
X142792000Y-74712000D02*
X142792000Y-72680000D01*
X143808000Y-74712000D02*
X142792000Y-74712000D01*
X143808000Y-72426000D02*
X143808000Y-74712000D01*
X144824000Y-72426000D02*
X143808000Y-72426000D01*
X144824000Y-72680000D02*
X144824000Y-72426000D01*
X144824000Y-74712000D02*
X144824000Y-72680000D01*
X145840000Y-74712000D02*
X144824000Y-74712000D01*
X145840000Y-72426000D02*
X145840000Y-74712000D01*
X146856000Y-72426000D02*
X145840000Y-72426000D01*
X146856000Y-72680000D02*
X146856000Y-72426000D01*
X146856000Y-74712000D02*
X146856000Y-72680000D01*
X147872000Y-74712000D02*
X146856000Y-74712000D01*
X147872000Y-72426000D02*
X147872000Y-74712000D01*
X148888000Y-72426000D02*
X147872000Y-72426000D01*
X148888000Y-76998000D02*
X148888000Y-72426000D01*
D11*
X146593905Y-118868381D02*
X146593905Y-119677905D01*
X146546286Y-119773143D01*
X146498667Y-119820762D01*
X146403429Y-119868381D01*
X146212952Y-119868381D01*
X146117714Y-119820762D01*
X146070095Y-119773143D01*
X146022476Y-119677905D01*
X146022476Y-118868381D01*
X145593905Y-119820762D02*
X145451048Y-119868381D01*
X145212952Y-119868381D01*
X145117714Y-119820762D01*
X145070095Y-119773143D01*
X145022476Y-119677905D01*
X145022476Y-119582667D01*
X145070095Y-119487429D01*
X145117714Y-119439810D01*
X145212952Y-119392190D01*
X145403429Y-119344571D01*
X145498667Y-119296952D01*
X145546286Y-119249333D01*
X145593905Y-119154095D01*
X145593905Y-119058857D01*
X145546286Y-118963619D01*
X145498667Y-118916000D01*
X145403429Y-118868381D01*
X145165333Y-118868381D01*
X145022476Y-118916000D01*
X144260571Y-119344571D02*
X144117714Y-119392190D01*
X144070095Y-119439810D01*
X144022476Y-119535048D01*
X144022476Y-119677905D01*
X144070095Y-119773143D01*
X144117714Y-119820762D01*
X144212952Y-119868381D01*
X144593905Y-119868381D01*
X144593905Y-118868381D01*
X144260571Y-118868381D01*
X144165333Y-118916000D01*
X144117714Y-118963619D01*
X144070095Y-119058857D01*
X144070095Y-119154095D01*
X144117714Y-119249333D01*
X144165333Y-119296952D01*
X144260571Y-119344571D01*
X144593905Y-119344571D01*
D13*
X150158000Y-117892000D02*
X150158000Y-121956000D01*
X149142000Y-116876000D02*
X150158000Y-117892000D01*
X141522000Y-116876000D02*
X149142000Y-116876000D01*
X140506000Y-117892000D02*
X141522000Y-116876000D01*
X140506000Y-121702000D02*
X140506000Y-117892000D01*
D11*
X165770762Y-92563333D02*
X165818382Y-92515714D01*
X165913620Y-92372857D01*
X165961239Y-92277619D01*
X166008858Y-92134762D01*
X166056477Y-91896667D01*
X166056477Y-91706190D01*
X166008858Y-91468095D01*
X165961239Y-91325238D01*
X165913620Y-91230000D01*
X165818382Y-91087143D01*
X165770762Y-91039524D01*
X165437429Y-92134762D02*
X165294572Y-92182381D01*
X165056476Y-92182381D01*
X164961238Y-92134762D01*
X164913619Y-92087143D01*
X164866000Y-91991905D01*
X164866000Y-91896667D01*
X164913619Y-91801429D01*
X164961238Y-91753810D01*
X165056476Y-91706190D01*
X165246953Y-91658571D01*
X165342191Y-91610952D01*
X165389810Y-91563333D01*
X165437429Y-91468095D01*
X165437429Y-91372857D01*
X165389810Y-91277619D01*
X165342191Y-91230000D01*
X165246953Y-91182381D01*
X165008857Y-91182381D01*
X164866000Y-91230000D01*
X164437429Y-92182381D02*
X164437429Y-91182381D01*
X164199334Y-91182381D01*
X164056476Y-91230000D01*
X163961238Y-91325238D01*
X163913619Y-91420476D01*
X163866000Y-91610952D01*
X163866000Y-91753810D01*
X163913619Y-91944286D01*
X163961238Y-92039524D01*
X164056476Y-92134762D01*
X164199334Y-92182381D01*
X164437429Y-92182381D01*
X163485048Y-91896667D02*
X163008857Y-91896667D01*
X163580286Y-92182381D02*
X163246953Y-91182381D01*
X162913619Y-92182381D01*
X162675524Y-92563333D02*
X162627905Y-92515714D01*
X162532667Y-92372857D01*
X162485048Y-92277619D01*
X162437429Y-92134762D01*
X162389810Y-91896667D01*
X162389810Y-91706190D01*
X162437429Y-91468095D01*
X162485048Y-91325238D01*
X162532667Y-91230000D01*
X162627905Y-91087143D01*
X162675524Y-91039524D01*
X160723142Y-91515714D02*
X160723142Y-92182381D01*
X160961238Y-91134762D02*
X161199333Y-91849048D01*
X160580285Y-91849048D01*
X125456476Y-87102381D02*
X126027905Y-87102381D01*
X125742191Y-87102381D02*
X125742191Y-86102381D01*
X125837429Y-86245238D01*
X125932667Y-86340476D01*
X126027905Y-86388095D01*
X124599333Y-86435714D02*
X124599333Y-87102381D01*
X124837429Y-86054762D02*
X125075524Y-86769048D01*
X124456476Y-86769048D01*
X125456476Y-89642381D02*
X126027905Y-89642381D01*
X125742191Y-89642381D02*
X125742191Y-88642381D01*
X125837429Y-88785238D01*
X125932667Y-88880476D01*
X126027905Y-88928095D01*
X125075524Y-88737619D02*
X125027905Y-88690000D01*
X124932667Y-88642381D01*
X124694571Y-88642381D01*
X124599333Y-88690000D01*
X124551714Y-88737619D01*
X124504095Y-88832857D01*
X124504095Y-88928095D01*
X124551714Y-89070952D01*
X125123143Y-89642381D01*
X124504095Y-89642381D01*
X125456476Y-92182381D02*
X126027905Y-92182381D01*
X125742191Y-92182381D02*
X125742191Y-91182381D01*
X125837429Y-91325238D01*
X125932667Y-91420476D01*
X126027905Y-91468095D01*
X125123143Y-91182381D02*
X124504095Y-91182381D01*
X124837429Y-91563333D01*
X124694571Y-91563333D01*
X124599333Y-91610952D01*
X124551714Y-91658571D01*
X124504095Y-91753810D01*
X124504095Y-91991905D01*
X124551714Y-92087143D01*
X124599333Y-92134762D01*
X124694571Y-92182381D01*
X124980286Y-92182381D01*
X125075524Y-92134762D01*
X125123143Y-92087143D01*
D14*
G36*
X139940506Y-105418188D02*
X139933549Y-105613292D01*
X139942634Y-105679913D01*
X139965013Y-105988909D01*
X139952711Y-106331879D01*
X139943472Y-106412859D01*
X139889764Y-106804698D01*
X139682536Y-106668917D01*
X139523876Y-106583360D01*
X139438193Y-106570251D01*
X139447524Y-106662076D01*
X139511799Y-106856860D01*
X139572539Y-107007369D01*
X139674250Y-107292156D01*
X139735710Y-107555888D01*
X139744000Y-107649426D01*
X139744000Y-107891481D01*
X139160596Y-107842570D01*
X138701940Y-107821700D01*
X138379680Y-107852780D01*
X138167288Y-107941616D01*
X138041712Y-108087399D01*
X137992828Y-108231312D01*
X138050157Y-108353601D01*
X138161376Y-108459131D01*
X138513628Y-108657859D01*
X138928039Y-108731103D01*
X139353969Y-108679669D01*
X139740778Y-108504367D01*
X139836104Y-108432415D01*
X140093485Y-108215843D01*
X140913576Y-108354658D01*
X141246708Y-108411573D01*
X141707761Y-108491084D01*
X142257885Y-108586453D01*
X142858227Y-108690940D01*
X143469937Y-108797806D01*
X143638666Y-108827361D01*
X144661197Y-109003415D01*
X145537056Y-109146584D01*
X146285261Y-109258924D01*
X146924829Y-109342494D01*
X147474779Y-109399349D01*
X147954126Y-109431548D01*
X148381890Y-109441146D01*
X148777087Y-109430202D01*
X149040980Y-109411727D01*
X149658361Y-109329086D01*
X150191562Y-109199150D01*
X150605991Y-109031281D01*
X150733313Y-108953825D01*
X150894115Y-108761208D01*
X150919019Y-108535886D01*
X150827588Y-108312285D01*
X150639383Y-108124828D01*
X150373966Y-108007941D01*
X150183349Y-107986000D01*
X149898328Y-108017567D01*
X149693984Y-108100144D01*
X149607078Y-108215542D01*
X149613805Y-108267800D01*
X149589892Y-108418329D01*
X149421451Y-108564735D01*
X149132853Y-108690754D01*
X148882114Y-108756153D01*
X148291313Y-108835162D01*
X147545845Y-108862904D01*
X146652292Y-108839806D01*
X145617238Y-108766295D01*
X144447264Y-108642799D01*
X143148952Y-108469744D01*
X142175688Y-108320696D01*
X141530690Y-108217274D01*
X141183873Y-108160942D01*
X139659333Y-108160942D01*
X139583148Y-108285483D01*
X139387479Y-108386594D01*
X139121656Y-108454112D01*
X138835009Y-108477870D01*
X138576865Y-108447703D01*
X138468434Y-108406354D01*
X138326161Y-108270636D01*
X138333042Y-108127508D01*
X138480016Y-108026423D01*
X138652207Y-108004605D01*
X138902439Y-108008908D01*
X139179343Y-108033473D01*
X139431549Y-108072440D01*
X139607689Y-108119950D01*
X139659333Y-108160942D01*
X141183873Y-108160942D01*
X141033558Y-108136527D01*
X140665108Y-108073400D01*
X140406160Y-108022841D01*
X140237530Y-107979793D01*
X140140037Y-107939205D01*
X140094498Y-107896023D01*
X140081732Y-107845191D01*
X140082555Y-107781658D01*
X140082666Y-107769261D01*
X140051701Y-107535426D01*
X140000095Y-107356511D01*
X139949238Y-107205499D01*
X139967622Y-107153816D01*
X140081306Y-107197575D01*
X140284488Y-107314076D01*
X140585232Y-107435830D01*
X140886636Y-107467446D01*
X141140232Y-107411599D01*
X141297553Y-107270969D01*
X141303816Y-107257770D01*
X141354806Y-107160523D01*
X141421018Y-107134247D01*
X141544519Y-107185154D01*
X141767372Y-107319457D01*
X141781659Y-107328337D01*
X142086509Y-107482935D01*
X142337630Y-107544792D01*
X142507524Y-107512520D01*
X142568692Y-107384735D01*
X142567882Y-107367975D01*
X142581750Y-107254932D01*
X142610216Y-107245337D01*
X143056791Y-107466528D01*
X143375775Y-107577741D01*
X143568082Y-107579270D01*
X143596778Y-107562297D01*
X143663704Y-107427612D01*
X143617892Y-107216576D01*
X143454452Y-106915796D01*
X143256081Y-106629173D01*
X143108085Y-106408574D01*
X143023255Y-106243817D01*
X143016216Y-106181339D01*
X143140270Y-106167698D01*
X143333140Y-106282485D01*
X143575772Y-106509377D01*
X143849118Y-106832050D01*
X143977987Y-107005437D01*
X144202063Y-107310550D01*
X144363333Y-107500743D01*
X144492187Y-107602478D01*
X144619013Y-107642216D01*
X144715193Y-107647333D01*
X144919315Y-107629878D01*
X144980956Y-107558077D01*
X144911624Y-107402780D01*
X144848699Y-107309183D01*
X144704065Y-107102689D01*
X144964641Y-107288236D01*
X145306889Y-107494046D01*
X145601002Y-107597674D01*
X145803230Y-107591149D01*
X145894393Y-107477881D01*
X145861635Y-107263657D01*
X145708217Y-106959316D01*
X145537469Y-106707557D01*
X145341911Y-106415318D01*
X145251269Y-106217918D01*
X145270667Y-106127709D01*
X145295233Y-106123333D01*
X145454948Y-106181589D01*
X145669063Y-106362745D01*
X145947566Y-106676377D01*
X146179877Y-106971590D01*
X146427626Y-107287951D01*
X146607457Y-107488973D01*
X146747026Y-107599098D01*
X146873991Y-107642771D01*
X146944471Y-107647333D01*
X147135635Y-107633637D01*
X147183331Y-107564713D01*
X147112892Y-107398805D01*
X147104635Y-107383309D01*
X147056747Y-107283591D01*
X147080517Y-107260164D01*
X147205966Y-107313435D01*
X147350866Y-107386632D01*
X147785451Y-107557806D01*
X148173713Y-107614173D01*
X148492277Y-107558650D01*
X148717768Y-107394154D01*
X148810846Y-107204436D01*
X148828684Y-107058279D01*
X148779170Y-106918796D01*
X148639274Y-106741225D01*
X148494731Y-106590019D01*
X148356442Y-106470749D01*
X147698574Y-106470749D01*
X147667112Y-106527660D01*
X147554500Y-106516756D01*
X147350022Y-106459025D01*
X147215833Y-106420679D01*
X147067444Y-106332576D01*
X147025333Y-106244627D01*
X147067144Y-106141583D01*
X147204582Y-106144580D01*
X147452871Y-106252507D01*
X147622808Y-106367714D01*
X147698574Y-106470749D01*
X148356442Y-106470749D01*
X148064700Y-106219133D01*
X147639209Y-105975415D01*
X147244103Y-105872972D01*
X147176873Y-105870629D01*
X146878707Y-105907764D01*
X146724189Y-106021081D01*
X146700425Y-106209080D01*
X146815362Y-106444646D01*
X147061295Y-106624860D01*
X147403275Y-106728074D01*
X147562456Y-106743081D01*
X147825976Y-106770719D01*
X147964366Y-106838492D01*
X148009069Y-106917070D01*
X147999908Y-107084067D01*
X147944560Y-107148607D01*
X147672479Y-107222342D01*
X147335096Y-107141477D01*
X146934262Y-106906858D01*
X146471828Y-106519334D01*
X146381836Y-106433059D01*
X145822429Y-105887238D01*
X145302048Y-105889665D01*
X144905944Y-105912614D01*
X144667681Y-105984018D01*
X144580071Y-106114392D01*
X144635928Y-106314249D01*
X144824000Y-106589000D01*
X144973166Y-106790713D01*
X145064516Y-106941250D01*
X145078000Y-106981642D01*
X145025957Y-107061545D01*
X144875824Y-107015615D01*
X144636597Y-106849190D01*
X144317271Y-106567611D01*
X144215537Y-106469648D01*
X143617625Y-105884630D01*
X143065776Y-105898148D01*
X142686740Y-105926910D01*
X142464768Y-106000280D01*
X142390291Y-106132742D01*
X142453741Y-106338782D01*
X142611403Y-106585976D01*
X142758918Y-106813549D01*
X142846968Y-106993313D01*
X142859030Y-107065242D01*
X142782897Y-107078719D01*
X142622623Y-106992578D01*
X142408804Y-106831735D01*
X142172036Y-106621109D01*
X141942915Y-106385617D01*
X141776157Y-106183340D01*
X141573138Y-105939082D01*
X141405400Y-105816285D01*
X141245207Y-105784666D01*
X141010433Y-105784666D01*
X141393712Y-106356001D01*
X141559911Y-106621813D01*
X141666982Y-106829511D01*
X141698073Y-106944808D01*
X141688965Y-106956678D01*
X141583488Y-106922290D01*
X141388534Y-106806098D01*
X141291035Y-106738493D01*
X140925186Y-106738493D01*
X140917403Y-106816966D01*
X140874366Y-106858351D01*
X140706087Y-106925227D01*
X140547389Y-106844005D01*
X140395686Y-106636781D01*
X140264904Y-106376819D01*
X140248069Y-106241038D01*
X140340247Y-106233714D01*
X140536506Y-106359122D01*
X140628596Y-106434926D01*
X140835108Y-106621813D01*
X140925186Y-106738493D01*
X141291035Y-106738493D01*
X141143470Y-106636174D01*
X140887665Y-106440591D01*
X140660484Y-106247423D01*
X140564033Y-106154478D01*
X140421738Y-105969467D01*
X140279973Y-105729568D01*
X140267700Y-105705041D01*
X140124205Y-105465348D01*
X140009599Y-105369302D01*
X139940506Y-105418188D01*
X139940506Y-105418188D01*
G37*
X139940506Y-105418188D02*
X139933549Y-105613292D01*
X139942634Y-105679913D01*
X139965013Y-105988909D01*
X139952711Y-106331879D01*
X139943472Y-106412859D01*
X139889764Y-106804698D01*
X139682536Y-106668917D01*
X139523876Y-106583360D01*
X139438193Y-106570251D01*
X139447524Y-106662076D01*
X139511799Y-106856860D01*
X139572539Y-107007369D01*
X139674250Y-107292156D01*
X139735710Y-107555888D01*
X139744000Y-107649426D01*
X139744000Y-107891481D01*
X139160596Y-107842570D01*
X138701940Y-107821700D01*
X138379680Y-107852780D01*
X138167288Y-107941616D01*
X138041712Y-108087399D01*
X137992828Y-108231312D01*
X138050157Y-108353601D01*
X138161376Y-108459131D01*
X138513628Y-108657859D01*
X138928039Y-108731103D01*
X139353969Y-108679669D01*
X139740778Y-108504367D01*
X139836104Y-108432415D01*
X140093485Y-108215843D01*
X140913576Y-108354658D01*
X141246708Y-108411573D01*
X141707761Y-108491084D01*
X142257885Y-108586453D01*
X142858227Y-108690940D01*
X143469937Y-108797806D01*
X143638666Y-108827361D01*
X144661197Y-109003415D01*
X145537056Y-109146584D01*
X146285261Y-109258924D01*
X146924829Y-109342494D01*
X147474779Y-109399349D01*
X147954126Y-109431548D01*
X148381890Y-109441146D01*
X148777087Y-109430202D01*
X149040980Y-109411727D01*
X149658361Y-109329086D01*
X150191562Y-109199150D01*
X150605991Y-109031281D01*
X150733313Y-108953825D01*
X150894115Y-108761208D01*
X150919019Y-108535886D01*
X150827588Y-108312285D01*
X150639383Y-108124828D01*
X150373966Y-108007941D01*
X150183349Y-107986000D01*
X149898328Y-108017567D01*
X149693984Y-108100144D01*
X149607078Y-108215542D01*
X149613805Y-108267800D01*
X149589892Y-108418329D01*
X149421451Y-108564735D01*
X149132853Y-108690754D01*
X148882114Y-108756153D01*
X148291313Y-108835162D01*
X147545845Y-108862904D01*
X146652292Y-108839806D01*
X145617238Y-108766295D01*
X144447264Y-108642799D01*
X143148952Y-108469744D01*
X142175688Y-108320696D01*
X141530690Y-108217274D01*
X141183873Y-108160942D01*
X139659333Y-108160942D01*
X139583148Y-108285483D01*
X139387479Y-108386594D01*
X139121656Y-108454112D01*
X138835009Y-108477870D01*
X138576865Y-108447703D01*
X138468434Y-108406354D01*
X138326161Y-108270636D01*
X138333042Y-108127508D01*
X138480016Y-108026423D01*
X138652207Y-108004605D01*
X138902439Y-108008908D01*
X139179343Y-108033473D01*
X139431549Y-108072440D01*
X139607689Y-108119950D01*
X139659333Y-108160942D01*
X141183873Y-108160942D01*
X141033558Y-108136527D01*
X140665108Y-108073400D01*
X140406160Y-108022841D01*
X140237530Y-107979793D01*
X140140037Y-107939205D01*
X140094498Y-107896023D01*
X140081732Y-107845191D01*
X140082555Y-107781658D01*
X140082666Y-107769261D01*
X140051701Y-107535426D01*
X140000095Y-107356511D01*
X139949238Y-107205499D01*
X139967622Y-107153816D01*
X140081306Y-107197575D01*
X140284488Y-107314076D01*
X140585232Y-107435830D01*
X140886636Y-107467446D01*
X141140232Y-107411599D01*
X141297553Y-107270969D01*
X141303816Y-107257770D01*
X141354806Y-107160523D01*
X141421018Y-107134247D01*
X141544519Y-107185154D01*
X141767372Y-107319457D01*
X141781659Y-107328337D01*
X142086509Y-107482935D01*
X142337630Y-107544792D01*
X142507524Y-107512520D01*
X142568692Y-107384735D01*
X142567882Y-107367975D01*
X142581750Y-107254932D01*
X142610216Y-107245337D01*
X143056791Y-107466528D01*
X143375775Y-107577741D01*
X143568082Y-107579270D01*
X143596778Y-107562297D01*
X143663704Y-107427612D01*
X143617892Y-107216576D01*
X143454452Y-106915796D01*
X143256081Y-106629173D01*
X143108085Y-106408574D01*
X143023255Y-106243817D01*
X143016216Y-106181339D01*
X143140270Y-106167698D01*
X143333140Y-106282485D01*
X143575772Y-106509377D01*
X143849118Y-106832050D01*
X143977987Y-107005437D01*
X144202063Y-107310550D01*
X144363333Y-107500743D01*
X144492187Y-107602478D01*
X144619013Y-107642216D01*
X144715193Y-107647333D01*
X144919315Y-107629878D01*
X144980956Y-107558077D01*
X144911624Y-107402780D01*
X144848699Y-107309183D01*
X144704065Y-107102689D01*
X144964641Y-107288236D01*
X145306889Y-107494046D01*
X145601002Y-107597674D01*
X145803230Y-107591149D01*
X145894393Y-107477881D01*
X145861635Y-107263657D01*
X145708217Y-106959316D01*
X145537469Y-106707557D01*
X145341911Y-106415318D01*
X145251269Y-106217918D01*
X145270667Y-106127709D01*
X145295233Y-106123333D01*
X145454948Y-106181589D01*
X145669063Y-106362745D01*
X145947566Y-106676377D01*
X146179877Y-106971590D01*
X146427626Y-107287951D01*
X146607457Y-107488973D01*
X146747026Y-107599098D01*
X146873991Y-107642771D01*
X146944471Y-107647333D01*
X147135635Y-107633637D01*
X147183331Y-107564713D01*
X147112892Y-107398805D01*
X147104635Y-107383309D01*
X147056747Y-107283591D01*
X147080517Y-107260164D01*
X147205966Y-107313435D01*
X147350866Y-107386632D01*
X147785451Y-107557806D01*
X148173713Y-107614173D01*
X148492277Y-107558650D01*
X148717768Y-107394154D01*
X148810846Y-107204436D01*
X148828684Y-107058279D01*
X148779170Y-106918796D01*
X148639274Y-106741225D01*
X148494731Y-106590019D01*
X148356442Y-106470749D01*
X147698574Y-106470749D01*
X147667112Y-106527660D01*
X147554500Y-106516756D01*
X147350022Y-106459025D01*
X147215833Y-106420679D01*
X147067444Y-106332576D01*
X147025333Y-106244627D01*
X147067144Y-106141583D01*
X147204582Y-106144580D01*
X147452871Y-106252507D01*
X147622808Y-106367714D01*
X147698574Y-106470749D01*
X148356442Y-106470749D01*
X148064700Y-106219133D01*
X147639209Y-105975415D01*
X147244103Y-105872972D01*
X147176873Y-105870629D01*
X146878707Y-105907764D01*
X146724189Y-106021081D01*
X146700425Y-106209080D01*
X146815362Y-106444646D01*
X147061295Y-106624860D01*
X147403275Y-106728074D01*
X147562456Y-106743081D01*
X147825976Y-106770719D01*
X147964366Y-106838492D01*
X148009069Y-106917070D01*
X147999908Y-107084067D01*
X147944560Y-107148607D01*
X147672479Y-107222342D01*
X147335096Y-107141477D01*
X146934262Y-106906858D01*
X146471828Y-106519334D01*
X146381836Y-106433059D01*
X145822429Y-105887238D01*
X145302048Y-105889665D01*
X144905944Y-105912614D01*
X144667681Y-105984018D01*
X144580071Y-106114392D01*
X144635928Y-106314249D01*
X144824000Y-106589000D01*
X144973166Y-106790713D01*
X145064516Y-106941250D01*
X145078000Y-106981642D01*
X145025957Y-107061545D01*
X144875824Y-107015615D01*
X144636597Y-106849190D01*
X144317271Y-106567611D01*
X144215537Y-106469648D01*
X143617625Y-105884630D01*
X143065776Y-105898148D01*
X142686740Y-105926910D01*
X142464768Y-106000280D01*
X142390291Y-106132742D01*
X142453741Y-106338782D01*
X142611403Y-106585976D01*
X142758918Y-106813549D01*
X142846968Y-106993313D01*
X142859030Y-107065242D01*
X142782897Y-107078719D01*
X142622623Y-106992578D01*
X142408804Y-106831735D01*
X142172036Y-106621109D01*
X141942915Y-106385617D01*
X141776157Y-106183340D01*
X141573138Y-105939082D01*
X141405400Y-105816285D01*
X141245207Y-105784666D01*
X141010433Y-105784666D01*
X141393712Y-106356001D01*
X141559911Y-106621813D01*
X141666982Y-106829511D01*
X141698073Y-106944808D01*
X141688965Y-106956678D01*
X141583488Y-106922290D01*
X141388534Y-106806098D01*
X141291035Y-106738493D01*
X140925186Y-106738493D01*
X140917403Y-106816966D01*
X140874366Y-106858351D01*
X140706087Y-106925227D01*
X140547389Y-106844005D01*
X140395686Y-106636781D01*
X140264904Y-106376819D01*
X140248069Y-106241038D01*
X140340247Y-106233714D01*
X140536506Y-106359122D01*
X140628596Y-106434926D01*
X140835108Y-106621813D01*
X140925186Y-106738493D01*
X141291035Y-106738493D01*
X141143470Y-106636174D01*
X140887665Y-106440591D01*
X140660484Y-106247423D01*
X140564033Y-106154478D01*
X140421738Y-105969467D01*
X140279973Y-105729568D01*
X140267700Y-105705041D01*
X140124205Y-105465348D01*
X140009599Y-105369302D01*
X139940506Y-105418188D01*
G36*
X149296698Y-103965246D02*
X148946679Y-104082999D01*
X148707318Y-104175303D01*
X148502785Y-104205630D01*
X148463110Y-104200125D01*
X148324578Y-104212348D01*
X148300969Y-104303567D01*
X148380229Y-104387808D01*
X148419067Y-104500255D01*
X148380229Y-104598905D01*
X148309438Y-104856048D01*
X148297036Y-105205418D01*
X148339060Y-105581804D01*
X148431545Y-105919999D01*
X148465249Y-105997536D01*
X148677476Y-106329937D01*
X148989229Y-106691857D01*
X149350368Y-107033608D01*
X149710754Y-107305502D01*
X149885297Y-107404772D01*
X150089285Y-107490305D01*
X150300432Y-107541947D01*
X150560890Y-107563715D01*
X150912809Y-107559626D01*
X151301000Y-107539687D01*
X151569001Y-107548670D01*
X151771249Y-107583308D01*
X152055252Y-107579541D01*
X152279249Y-107496617D01*
X152473650Y-107377136D01*
X152555386Y-107234018D01*
X152562341Y-107139333D01*
X152190000Y-107139333D01*
X152116315Y-107198335D01*
X151938296Y-107223966D01*
X151931003Y-107224000D01*
X151761746Y-107201069D01*
X151722663Y-107142238D01*
X151724333Y-107139333D01*
X151841040Y-107073794D01*
X151983330Y-107054666D01*
X152140038Y-107084286D01*
X152190000Y-107139333D01*
X152562341Y-107139333D01*
X152571000Y-107021470D01*
X152538758Y-106761125D01*
X152518094Y-106730579D01*
X150349785Y-106730579D01*
X150345930Y-106753847D01*
X150209700Y-106781198D01*
X149979375Y-106722470D01*
X149697789Y-106591205D01*
X149551017Y-106502511D01*
X149228796Y-106236606D01*
X148948310Y-105904150D01*
X148733417Y-105545446D01*
X148607973Y-105200793D01*
X148595833Y-104910492D01*
X148599411Y-104894953D01*
X148658831Y-104736975D01*
X148710662Y-104684000D01*
X148810589Y-104746155D01*
X148982067Y-104914179D01*
X149203240Y-105160402D01*
X149452248Y-105457158D01*
X149707233Y-105776780D01*
X149946338Y-106091600D01*
X150147704Y-106373951D01*
X150289472Y-106596167D01*
X150349785Y-106730579D01*
X152518094Y-106730579D01*
X152418583Y-106583482D01*
X152347839Y-106525327D01*
X152036225Y-106376283D01*
X151657281Y-106310918D01*
X151288259Y-106337005D01*
X151103096Y-106400110D01*
X150970815Y-106458144D01*
X150861707Y-106467731D01*
X150750572Y-106409983D01*
X150612208Y-106266014D01*
X150421415Y-106016934D01*
X150221058Y-105739029D01*
X149995332Y-105454286D01*
X149707554Y-105132292D01*
X149445842Y-104867922D01*
X149234785Y-104652935D01*
X149102667Y-104486990D01*
X149071178Y-104398317D01*
X149080106Y-104391920D01*
X149421404Y-104317378D01*
X149739191Y-104327144D01*
X149995810Y-104381903D01*
X150276351Y-104475887D01*
X150509733Y-104590195D01*
X150582448Y-104642675D01*
X150716186Y-104835205D01*
X150746911Y-105039876D01*
X150674726Y-105200334D01*
X150581333Y-105252134D01*
X150443793Y-105315425D01*
X150433710Y-105419914D01*
X150552639Y-105595018D01*
X150602500Y-105653035D01*
X150878535Y-105865092D01*
X151180261Y-105924936D01*
X151474749Y-105827903D01*
X151535169Y-105785138D01*
X151719058Y-105545924D01*
X151763614Y-105250243D01*
X151675452Y-104927500D01*
X151461185Y-104607100D01*
X151220240Y-104384906D01*
X150795374Y-104142457D01*
X150298992Y-103987161D01*
X149782348Y-103925821D01*
X149296698Y-103965246D01*
X149296698Y-103965246D01*
G37*
X149296698Y-103965246D02*
X148946679Y-104082999D01*
X148707318Y-104175303D01*
X148502785Y-104205630D01*
X148463110Y-104200125D01*
X148324578Y-104212348D01*
X148300969Y-104303567D01*
X148380229Y-104387808D01*
X148419067Y-104500255D01*
X148380229Y-104598905D01*
X148309438Y-104856048D01*
X148297036Y-105205418D01*
X148339060Y-105581804D01*
X148431545Y-105919999D01*
X148465249Y-105997536D01*
X148677476Y-106329937D01*
X148989229Y-106691857D01*
X149350368Y-107033608D01*
X149710754Y-107305502D01*
X149885297Y-107404772D01*
X150089285Y-107490305D01*
X150300432Y-107541947D01*
X150560890Y-107563715D01*
X150912809Y-107559626D01*
X151301000Y-107539687D01*
X151569001Y-107548670D01*
X151771249Y-107583308D01*
X152055252Y-107579541D01*
X152279249Y-107496617D01*
X152473650Y-107377136D01*
X152555386Y-107234018D01*
X152562341Y-107139333D01*
X152190000Y-107139333D01*
X152116315Y-107198335D01*
X151938296Y-107223966D01*
X151931003Y-107224000D01*
X151761746Y-107201069D01*
X151722663Y-107142238D01*
X151724333Y-107139333D01*
X151841040Y-107073794D01*
X151983330Y-107054666D01*
X152140038Y-107084286D01*
X152190000Y-107139333D01*
X152562341Y-107139333D01*
X152571000Y-107021470D01*
X152538758Y-106761125D01*
X152518094Y-106730579D01*
X150349785Y-106730579D01*
X150345930Y-106753847D01*
X150209700Y-106781198D01*
X149979375Y-106722470D01*
X149697789Y-106591205D01*
X149551017Y-106502511D01*
X149228796Y-106236606D01*
X148948310Y-105904150D01*
X148733417Y-105545446D01*
X148607973Y-105200793D01*
X148595833Y-104910492D01*
X148599411Y-104894953D01*
X148658831Y-104736975D01*
X148710662Y-104684000D01*
X148810589Y-104746155D01*
X148982067Y-104914179D01*
X149203240Y-105160402D01*
X149452248Y-105457158D01*
X149707233Y-105776780D01*
X149946338Y-106091600D01*
X150147704Y-106373951D01*
X150289472Y-106596167D01*
X150349785Y-106730579D01*
X152518094Y-106730579D01*
X152418583Y-106583482D01*
X152347839Y-106525327D01*
X152036225Y-106376283D01*
X151657281Y-106310918D01*
X151288259Y-106337005D01*
X151103096Y-106400110D01*
X150970815Y-106458144D01*
X150861707Y-106467731D01*
X150750572Y-106409983D01*
X150612208Y-106266014D01*
X150421415Y-106016934D01*
X150221058Y-105739029D01*
X149995332Y-105454286D01*
X149707554Y-105132292D01*
X149445842Y-104867922D01*
X149234785Y-104652935D01*
X149102667Y-104486990D01*
X149071178Y-104398317D01*
X149080106Y-104391920D01*
X149421404Y-104317378D01*
X149739191Y-104327144D01*
X149995810Y-104381903D01*
X150276351Y-104475887D01*
X150509733Y-104590195D01*
X150582448Y-104642675D01*
X150716186Y-104835205D01*
X150746911Y-105039876D01*
X150674726Y-105200334D01*
X150581333Y-105252134D01*
X150443793Y-105315425D01*
X150433710Y-105419914D01*
X150552639Y-105595018D01*
X150602500Y-105653035D01*
X150878535Y-105865092D01*
X151180261Y-105924936D01*
X151474749Y-105827903D01*
X151535169Y-105785138D01*
X151719058Y-105545924D01*
X151763614Y-105250243D01*
X151675452Y-104927500D01*
X151461185Y-104607100D01*
X151220240Y-104384906D01*
X150795374Y-104142457D01*
X150298992Y-103987161D01*
X149782348Y-103925821D01*
X149296698Y-103965246D01*
G36*
X140695656Y-104969832D02*
X140620870Y-105066078D01*
X140629810Y-105220776D01*
X140720815Y-105375452D01*
X140844341Y-105445999D01*
X140844666Y-105446000D01*
X140945804Y-105388519D01*
X141014000Y-105319000D01*
X141076719Y-105183487D01*
X141014000Y-105065000D01*
X140850432Y-104951381D01*
X140695656Y-104969832D01*
X140695656Y-104969832D01*
G37*
X140695656Y-104969832D02*
X140620870Y-105066078D01*
X140629810Y-105220776D01*
X140720815Y-105375452D01*
X140844341Y-105445999D01*
X140844666Y-105446000D01*
X140945804Y-105388519D01*
X141014000Y-105319000D01*
X141076719Y-105183487D01*
X141014000Y-105065000D01*
X140850432Y-104951381D01*
X140695656Y-104969832D01*
D11*
X158032000Y-113320000D02*
X158032000Y-77760000D01*
X158032000Y-77760000D02*
X155492000Y-77760000D01*
X155492000Y-77760000D02*
X155492000Y-113320000D01*
X155212000Y-116140000D02*
X155212000Y-114590000D01*
X155492000Y-113320000D02*
X158032000Y-113320000D01*
X158312000Y-114590000D02*
X158312000Y-116140000D01*
X158312000Y-116140000D02*
X155212000Y-116140000D01*
X135172000Y-113320000D02*
X135172000Y-77760000D01*
X135172000Y-77760000D02*
X132632000Y-77760000D01*
X132632000Y-77760000D02*
X132632000Y-113320000D01*
X132352000Y-116140000D02*
X132352000Y-114590000D01*
X132632000Y-113320000D02*
X135172000Y-113320000D01*
X135452000Y-114590000D02*
X135452000Y-116140000D01*
X135452000Y-116140000D02*
X132352000Y-116140000D01*
%LPC*%
D15*
X151047000Y-86650000D03*
X151047000Y-96810000D03*
D16*
X127552000Y-79030000D03*
D17*
X127552000Y-81570000D03*
D16*
X163112000Y-79030000D03*
D17*
X163112000Y-81570000D03*
D18*
X123483000Y-74981000D03*
X123483000Y-118669000D03*
X167171000Y-74981000D03*
X167171000Y-118669000D03*
D19*
X166922000Y-112050000D03*
X161842000Y-112050000D03*
X166922000Y-104430000D03*
X161842000Y-104430000D03*
X123742000Y-104430000D03*
X128822000Y-104430000D03*
X123742000Y-112050000D03*
X128822000Y-112050000D03*
D20*
X156762000Y-114590000D03*
D21*
X156762000Y-112050000D03*
X156762000Y-109510000D03*
X156762000Y-106970000D03*
X156762000Y-104430000D03*
X156762000Y-101890000D03*
X156762000Y-99350000D03*
X156762000Y-96810000D03*
X156762000Y-94270000D03*
X156762000Y-91730000D03*
X156762000Y-89190000D03*
X156762000Y-86650000D03*
X156762000Y-84110000D03*
X156762000Y-81570000D03*
X156762000Y-79030000D03*
D20*
X133902000Y-114590000D03*
D21*
X133902000Y-112050000D03*
X133902000Y-109510000D03*
X133902000Y-106970000D03*
X133902000Y-104430000D03*
X133902000Y-101890000D03*
X133902000Y-99350000D03*
X133902000Y-96810000D03*
X133902000Y-94270000D03*
X133902000Y-91730000D03*
X133902000Y-89190000D03*
X133902000Y-86650000D03*
X133902000Y-84110000D03*
X133902000Y-81570000D03*
X133902000Y-79030000D03*
D20*
X168192000Y-99350000D03*
D21*
X168192000Y-96810000D03*
X168192000Y-94270000D03*
X168192000Y-91730000D03*
X168192000Y-89190000D03*
X168192000Y-86650000D03*
D20*
X122472000Y-99350000D03*
D21*
X122472000Y-96810000D03*
X122472000Y-94270000D03*
X122472000Y-91730000D03*
X122472000Y-89190000D03*
X122472000Y-86650000D03*
D15*
X128822000Y-86650000D03*
X128822000Y-96810000D03*
X161842000Y-86650000D03*
X161842000Y-96810000D03*
X145332000Y-86650000D03*
X145332000Y-96810000D03*
X139617000Y-86650000D03*
X139617000Y-96810000D03*
D22*
X143300000Y-80300000D03*
D23*
X144570000Y-80300000D03*
D22*
X145840000Y-80300000D03*
X147110000Y-80300000D03*
M02*
