M48
;DRILL file {KiCad 4.0.2-4+6225~38~ubuntu14.04.1-stable} date Sun 17 Apr 2016 18:05:55 BST
;FORMAT={-:-/ absolute / inch / decimal}
FMAT,2
INCH,TZ
T1C0.030
T2C0.032
T3C0.039
T4C0.040
T5C0.126
%
G90
G05
M72
T1
X5.6417Y-3.1614
X5.6917Y-3.1614
X5.7417Y-3.1614
X5.7917Y-3.1614
T2
X4.8717Y-4.1114
X4.8717Y-4.4114
X5.0717Y-4.1114
X5.0717Y-4.4114
X6.3717Y-4.1114
X6.3717Y-4.4114
X6.5717Y-4.1114
X6.5717Y-4.4114
T3
X5.0217Y-3.1114
X5.0217Y-3.2114
X5.0717Y-3.4114
X5.0717Y-3.8114
X5.4967Y-3.4114
X5.4967Y-3.8114
X5.7217Y-3.4114
X5.7217Y-3.8114
X5.9467Y-3.4114
X5.9467Y-3.8114
X6.3717Y-3.4114
X6.3717Y-3.8114
X6.4217Y-3.1114
X6.4217Y-3.2114
T4
X4.8217Y-3.4114
X4.8217Y-3.5114
X4.8217Y-3.6114
X4.8217Y-3.7114
X4.8217Y-3.8114
X4.8217Y-3.9114
X5.2717Y-3.1114
X5.2717Y-3.2114
X5.2717Y-3.3114
X5.2717Y-3.4114
X5.2717Y-3.5114
X5.2717Y-3.6114
X5.2717Y-3.7114
X5.2717Y-3.8114
X5.2717Y-3.9114
X5.2717Y-4.0114
X5.2717Y-4.1114
X5.2717Y-4.2114
X5.2717Y-4.3114
X5.2717Y-4.4114
X5.2717Y-4.5114
X6.1717Y-3.1114
X6.1717Y-3.2114
X6.1717Y-3.3114
X6.1717Y-3.4114
X6.1717Y-3.5114
X6.1717Y-3.6114
X6.1717Y-3.7114
X6.1717Y-3.8114
X6.1717Y-3.9114
X6.1717Y-4.0114
X6.1717Y-4.1114
X6.1717Y-4.2114
X6.1717Y-4.3114
X6.1717Y-4.4114
X6.1717Y-4.5114
X6.6217Y-3.4114
X6.6217Y-3.5114
X6.6217Y-3.6114
X6.6217Y-3.7114
X6.6217Y-3.8114
X6.6217Y-3.9114
T5
X4.8615Y-2.952
X4.8615Y-4.672
X6.5815Y-2.952
X6.5815Y-4.672
T0
M30
