G04 #@! TF.FileFunction,Soldermask,Bot*
%FSLAX46Y46*%
G04 Gerber Fmt 4.6, Leading zero omitted, Abs format (unit mm)*
G04 Created by KiCad (PCBNEW 4.0.1-stable) date 27/04/2016 07:00:42*
%MOMM*%
G01*
G04 APERTURE LIST*
%ADD10C,0.100000*%
%ADD11C,2.432000*%
%ADD12C,2.398980*%
%ADD13R,2.400000X2.300000*%
%ADD14C,2.300000*%
%ADD15C,5.900000*%
%ADD16C,1.797000*%
%ADD17R,2.432000X2.127200*%
%ADD18O,2.432000X2.127200*%
%ADD19R,2.432000X2.432000*%
%ADD20O,2.432000X2.432000*%
G04 APERTURE END LIST*
D10*
D11*
X143554000Y-81316000D03*
X144824000Y-79284000D03*
X146094000Y-81316000D03*
X147364000Y-79284000D03*
D12*
X151047000Y-86650000D03*
X151047000Y-96810000D03*
D13*
X128822000Y-79030000D03*
D14*
X128822000Y-81570000D03*
D13*
X161842000Y-79030000D03*
D14*
X161842000Y-81570000D03*
D15*
X123483000Y-74981000D03*
X123483000Y-118669000D03*
X167171000Y-74981000D03*
X167171000Y-118669000D03*
D16*
X166922000Y-112050000D03*
X161842000Y-112050000D03*
X166922000Y-104430000D03*
X161842000Y-104430000D03*
X123742000Y-104430000D03*
X128822000Y-104430000D03*
X123742000Y-112050000D03*
X128822000Y-112050000D03*
D17*
X156762000Y-114590000D03*
D18*
X156762000Y-112050000D03*
X156762000Y-109510000D03*
X156762000Y-106970000D03*
X156762000Y-104430000D03*
X156762000Y-101890000D03*
X156762000Y-99350000D03*
X156762000Y-96810000D03*
X156762000Y-94270000D03*
X156762000Y-91730000D03*
X156762000Y-89190000D03*
X156762000Y-86650000D03*
X156762000Y-84110000D03*
X156762000Y-81570000D03*
X156762000Y-79030000D03*
D17*
X133902000Y-114590000D03*
D18*
X133902000Y-112050000D03*
X133902000Y-109510000D03*
X133902000Y-106970000D03*
X133902000Y-104430000D03*
X133902000Y-101890000D03*
X133902000Y-99350000D03*
X133902000Y-96810000D03*
X133902000Y-94270000D03*
X133902000Y-91730000D03*
X133902000Y-89190000D03*
X133902000Y-86650000D03*
X133902000Y-84110000D03*
X133902000Y-81570000D03*
X133902000Y-79030000D03*
D17*
X168192000Y-99350000D03*
D18*
X168192000Y-96810000D03*
X168192000Y-94270000D03*
X168192000Y-91730000D03*
X168192000Y-89190000D03*
X168192000Y-86650000D03*
D17*
X122472000Y-99350000D03*
D18*
X122472000Y-96810000D03*
X122472000Y-94270000D03*
X122472000Y-91730000D03*
X122472000Y-89190000D03*
X122472000Y-86650000D03*
D12*
X128822000Y-86650000D03*
X128822000Y-96810000D03*
X161842000Y-86650000D03*
X161842000Y-96810000D03*
X145332000Y-86650000D03*
X145332000Y-96810000D03*
X139617000Y-86650000D03*
X139617000Y-96810000D03*
D19*
X144062000Y-117130000D03*
D20*
X146602000Y-117130000D03*
M02*
