%TF.GenerationSoftware,KiCad,Pcbnew,4.0.1-stable*%
%TF.CreationDate,2016-04-17T11:04:22+01:00*%
%TF.ProjectId,basic,62617369632E6B696361645F70636200,rev?*%
%TF.FileFunction,Legend,Top*%
%FSLAX46Y46*%
G04 Gerber Fmt 4.6, Leading zero omitted, Abs format (unit mm)*
G04 Created by KiCad (PCBNEW 4.0.1-stable) date 17/04/2016 11:04:22*
%MOMM*%
G01*
G04 APERTURE LIST*
%ADD10C,0.100000*%
%ADD11C,0.150000*%
%ADD12C,0.010000*%
%ADD13C,2.398980*%
%ADD14R,2.400000X2.300000*%
%ADD15C,2.300000*%
%ADD16C,5.900000*%
%ADD17C,1.797000*%
%ADD18R,2.432000X2.127200*%
%ADD19O,2.432000X2.127200*%
%ADD20O,1.400000X2.305000*%
%ADD21R,1.400000X2.305000*%
G04 APERTURE END LIST*
D10*
D11*
X125075524Y-94722381D02*
X124504095Y-94722381D01*
X124789809Y-94722381D02*
X124789809Y-93722381D01*
X124694571Y-93865238D01*
X124599333Y-93960476D01*
X124504095Y-94008095D01*
X125980286Y-93722381D02*
X125504095Y-93722381D01*
X125456476Y-94198571D01*
X125504095Y-94150952D01*
X125599333Y-94103333D01*
X125837429Y-94103333D01*
X125932667Y-94150952D01*
X125980286Y-94198571D01*
X126027905Y-94293810D01*
X126027905Y-94531905D01*
X125980286Y-94627143D01*
X125932667Y-94674762D01*
X125837429Y-94722381D01*
X125599333Y-94722381D01*
X125504095Y-94674762D01*
X125456476Y-94627143D01*
X125075524Y-92182381D02*
X124504095Y-92182381D01*
X124789809Y-92182381D02*
X124789809Y-91182381D01*
X124694571Y-91325238D01*
X124599333Y-91420476D01*
X124504095Y-91468095D01*
X125408857Y-91182381D02*
X126027905Y-91182381D01*
X125694571Y-91563333D01*
X125837429Y-91563333D01*
X125932667Y-91610952D01*
X125980286Y-91658571D01*
X126027905Y-91753810D01*
X126027905Y-91991905D01*
X125980286Y-92087143D01*
X125932667Y-92134762D01*
X125837429Y-92182381D01*
X125551714Y-92182381D01*
X125456476Y-92134762D01*
X125408857Y-92087143D01*
X125075524Y-89642381D02*
X124504095Y-89642381D01*
X124789809Y-89642381D02*
X124789809Y-88642381D01*
X124694571Y-88785238D01*
X124599333Y-88880476D01*
X124504095Y-88928095D01*
X125456476Y-88737619D02*
X125504095Y-88690000D01*
X125599333Y-88642381D01*
X125837429Y-88642381D01*
X125932667Y-88690000D01*
X125980286Y-88737619D01*
X126027905Y-88832857D01*
X126027905Y-88928095D01*
X125980286Y-89070952D01*
X125408857Y-89642381D01*
X126027905Y-89642381D01*
X125075524Y-87102381D02*
X124504095Y-87102381D01*
X124789809Y-87102381D02*
X124789809Y-86102381D01*
X124694571Y-86245238D01*
X124599333Y-86340476D01*
X124504095Y-86388095D01*
X125932667Y-86435714D02*
X125932667Y-87102381D01*
X125694571Y-86054762D02*
X125456476Y-86769048D01*
X126075524Y-86769048D01*
X144641524Y-76688381D02*
X144308190Y-76212190D01*
X144070095Y-76688381D02*
X144070095Y-75688381D01*
X144451048Y-75688381D01*
X144546286Y-75736000D01*
X144593905Y-75783619D01*
X144641524Y-75878857D01*
X144641524Y-76021714D01*
X144593905Y-76116952D01*
X144546286Y-76164571D01*
X144451048Y-76212190D01*
X144070095Y-76212190D01*
X145593905Y-75736000D02*
X145498667Y-75688381D01*
X145355810Y-75688381D01*
X145212952Y-75736000D01*
X145117714Y-75831238D01*
X145070095Y-75926476D01*
X145022476Y-76116952D01*
X145022476Y-76259810D01*
X145070095Y-76450286D01*
X145117714Y-76545524D01*
X145212952Y-76640762D01*
X145355810Y-76688381D01*
X145451048Y-76688381D01*
X145593905Y-76640762D01*
X145641524Y-76593143D01*
X145641524Y-76259810D01*
X145451048Y-76259810D01*
X146403429Y-76164571D02*
X146546286Y-76212190D01*
X146593905Y-76259810D01*
X146641524Y-76355048D01*
X146641524Y-76497905D01*
X146593905Y-76593143D01*
X146546286Y-76640762D01*
X146451048Y-76688381D01*
X146070095Y-76688381D01*
X146070095Y-75688381D01*
X146403429Y-75688381D01*
X146498667Y-75736000D01*
X146546286Y-75783619D01*
X146593905Y-75878857D01*
X146593905Y-75974095D01*
X146546286Y-76069333D01*
X146498667Y-76116952D01*
X146403429Y-76164571D01*
X146070095Y-76164571D01*
X162921524Y-76688381D02*
X162350095Y-76688381D01*
X162635809Y-76688381D02*
X162635809Y-75688381D01*
X162540571Y-75831238D01*
X162445333Y-75926476D01*
X162350095Y-75974095D01*
X163302476Y-75783619D02*
X163350095Y-75736000D01*
X163445333Y-75688381D01*
X163683429Y-75688381D01*
X163778667Y-75736000D01*
X163826286Y-75783619D01*
X163873905Y-75878857D01*
X163873905Y-75974095D01*
X163826286Y-76116952D01*
X163254857Y-76688381D01*
X163873905Y-76688381D01*
X125797905Y-113772381D02*
X125797905Y-112772381D01*
X126036000Y-112772381D01*
X126178858Y-112820000D01*
X126274096Y-112915238D01*
X126321715Y-113010476D01*
X126369334Y-113200952D01*
X126369334Y-113343810D01*
X126321715Y-113534286D01*
X126274096Y-113629524D01*
X126178858Y-113724762D01*
X126036000Y-113772381D01*
X125797905Y-113772381D01*
X126750286Y-112867619D02*
X126797905Y-112820000D01*
X126893143Y-112772381D01*
X127131239Y-112772381D01*
X127226477Y-112820000D01*
X127274096Y-112867619D01*
X127321715Y-112962857D01*
X127321715Y-113058095D01*
X127274096Y-113200952D01*
X126702667Y-113772381D01*
X127321715Y-113772381D01*
X163643905Y-113772381D02*
X163643905Y-112772381D01*
X163882000Y-112772381D01*
X164024858Y-112820000D01*
X164120096Y-112915238D01*
X164167715Y-113010476D01*
X164215334Y-113200952D01*
X164215334Y-113343810D01*
X164167715Y-113534286D01*
X164120096Y-113629524D01*
X164024858Y-113724762D01*
X163882000Y-113772381D01*
X163643905Y-113772381D01*
X165167715Y-113772381D02*
X164596286Y-113772381D01*
X164882000Y-113772381D02*
X164882000Y-112772381D01*
X164786762Y-112915238D01*
X164691524Y-113010476D01*
X164596286Y-113058095D01*
X132577714Y-120792381D02*
X132577714Y-119792381D01*
X133006286Y-120792381D02*
X133006286Y-120268571D01*
X132958667Y-120173333D01*
X132863429Y-120125714D01*
X132720571Y-120125714D01*
X132625333Y-120173333D01*
X132577714Y-120220952D01*
X133339619Y-120125714D02*
X133720571Y-120125714D01*
X133482476Y-119792381D02*
X133482476Y-120649524D01*
X133530095Y-120744762D01*
X133625333Y-120792381D01*
X133720571Y-120792381D01*
X133911048Y-120125714D02*
X134292000Y-120125714D01*
X134053905Y-119792381D02*
X134053905Y-120649524D01*
X134101524Y-120744762D01*
X134196762Y-120792381D01*
X134292000Y-120792381D01*
X134625334Y-120125714D02*
X134625334Y-121125714D01*
X134625334Y-120173333D02*
X134720572Y-120125714D01*
X134911049Y-120125714D01*
X135006287Y-120173333D01*
X135053906Y-120220952D01*
X135101525Y-120316190D01*
X135101525Y-120601905D01*
X135053906Y-120697143D01*
X135006287Y-120744762D01*
X134911049Y-120792381D01*
X134720572Y-120792381D01*
X134625334Y-120744762D01*
X135482477Y-120744762D02*
X135577715Y-120792381D01*
X135768191Y-120792381D01*
X135863430Y-120744762D01*
X135911049Y-120649524D01*
X135911049Y-120601905D01*
X135863430Y-120506667D01*
X135768191Y-120459048D01*
X135625334Y-120459048D01*
X135530096Y-120411429D01*
X135482477Y-120316190D01*
X135482477Y-120268571D01*
X135530096Y-120173333D01*
X135625334Y-120125714D01*
X135768191Y-120125714D01*
X135863430Y-120173333D01*
X136339620Y-120697143D02*
X136387239Y-120744762D01*
X136339620Y-120792381D01*
X136292001Y-120744762D01*
X136339620Y-120697143D01*
X136339620Y-120792381D01*
X136339620Y-120173333D02*
X136387239Y-120220952D01*
X136339620Y-120268571D01*
X136292001Y-120220952D01*
X136339620Y-120173333D01*
X136339620Y-120268571D01*
X137530096Y-119744762D02*
X136672953Y-121030476D01*
X138577715Y-119744762D02*
X137720572Y-121030476D01*
X139339620Y-120125714D02*
X139339620Y-120935238D01*
X139292001Y-121030476D01*
X139244382Y-121078095D01*
X139149143Y-121125714D01*
X139006286Y-121125714D01*
X138911048Y-121078095D01*
X139339620Y-120744762D02*
X139244382Y-120792381D01*
X139053905Y-120792381D01*
X138958667Y-120744762D01*
X138911048Y-120697143D01*
X138863429Y-120601905D01*
X138863429Y-120316190D01*
X138911048Y-120220952D01*
X138958667Y-120173333D01*
X139053905Y-120125714D01*
X139244382Y-120125714D01*
X139339620Y-120173333D01*
X139815810Y-120792381D02*
X139815810Y-120125714D01*
X139815810Y-119792381D02*
X139768191Y-119840000D01*
X139815810Y-119887619D01*
X139863429Y-119840000D01*
X139815810Y-119792381D01*
X139815810Y-119887619D01*
X140149143Y-120125714D02*
X140530095Y-120125714D01*
X140292000Y-119792381D02*
X140292000Y-120649524D01*
X140339619Y-120744762D01*
X140434857Y-120792381D01*
X140530095Y-120792381D01*
X140863429Y-120792381D02*
X140863429Y-119792381D01*
X141292001Y-120792381D02*
X141292001Y-120268571D01*
X141244382Y-120173333D01*
X141149144Y-120125714D01*
X141006286Y-120125714D01*
X140911048Y-120173333D01*
X140863429Y-120220952D01*
X142196763Y-120125714D02*
X142196763Y-120792381D01*
X141768191Y-120125714D02*
X141768191Y-120649524D01*
X141815810Y-120744762D01*
X141911048Y-120792381D01*
X142053906Y-120792381D01*
X142149144Y-120744762D01*
X142196763Y-120697143D01*
X142672953Y-120792381D02*
X142672953Y-119792381D01*
X142672953Y-120173333D02*
X142768191Y-120125714D01*
X142958668Y-120125714D01*
X143053906Y-120173333D01*
X143101525Y-120220952D01*
X143149144Y-120316190D01*
X143149144Y-120601905D01*
X143101525Y-120697143D01*
X143053906Y-120744762D01*
X142958668Y-120792381D01*
X142768191Y-120792381D01*
X142672953Y-120744762D01*
X143577715Y-120697143D02*
X143625334Y-120744762D01*
X143577715Y-120792381D01*
X143530096Y-120744762D01*
X143577715Y-120697143D01*
X143577715Y-120792381D01*
X144482477Y-120744762D02*
X144387239Y-120792381D01*
X144196762Y-120792381D01*
X144101524Y-120744762D01*
X144053905Y-120697143D01*
X144006286Y-120601905D01*
X144006286Y-120316190D01*
X144053905Y-120220952D01*
X144101524Y-120173333D01*
X144196762Y-120125714D01*
X144387239Y-120125714D01*
X144482477Y-120173333D01*
X145053905Y-120792381D02*
X144958667Y-120744762D01*
X144911048Y-120697143D01*
X144863429Y-120601905D01*
X144863429Y-120316190D01*
X144911048Y-120220952D01*
X144958667Y-120173333D01*
X145053905Y-120125714D01*
X145196763Y-120125714D01*
X145292001Y-120173333D01*
X145339620Y-120220952D01*
X145387239Y-120316190D01*
X145387239Y-120601905D01*
X145339620Y-120697143D01*
X145292001Y-120744762D01*
X145196763Y-120792381D01*
X145053905Y-120792381D01*
X145815810Y-120792381D02*
X145815810Y-120125714D01*
X145815810Y-120220952D02*
X145863429Y-120173333D01*
X145958667Y-120125714D01*
X146101525Y-120125714D01*
X146196763Y-120173333D01*
X146244382Y-120268571D01*
X146244382Y-120792381D01*
X146244382Y-120268571D02*
X146292001Y-120173333D01*
X146387239Y-120125714D01*
X146530096Y-120125714D01*
X146625334Y-120173333D01*
X146672953Y-120268571D01*
X146672953Y-120792381D01*
X147863429Y-119744762D02*
X147006286Y-121030476D01*
X148053905Y-120125714D02*
X148434857Y-120125714D01*
X148196762Y-119792381D02*
X148196762Y-120649524D01*
X148244381Y-120744762D01*
X148339619Y-120792381D01*
X148434857Y-120792381D01*
X148768191Y-120792381D02*
X148768191Y-119792381D01*
X149196763Y-120792381D02*
X149196763Y-120268571D01*
X149149144Y-120173333D01*
X149053906Y-120125714D01*
X148911048Y-120125714D01*
X148815810Y-120173333D01*
X148768191Y-120220952D01*
X150053906Y-120744762D02*
X149958668Y-120792381D01*
X149768191Y-120792381D01*
X149672953Y-120744762D01*
X149625334Y-120649524D01*
X149625334Y-120268571D01*
X149672953Y-120173333D01*
X149768191Y-120125714D01*
X149958668Y-120125714D01*
X150053906Y-120173333D01*
X150101525Y-120268571D01*
X150101525Y-120363810D01*
X149625334Y-120459048D01*
X150958668Y-120792381D02*
X150958668Y-120268571D01*
X150911049Y-120173333D01*
X150815811Y-120125714D01*
X150625334Y-120125714D01*
X150530096Y-120173333D01*
X150958668Y-120744762D02*
X150863430Y-120792381D01*
X150625334Y-120792381D01*
X150530096Y-120744762D01*
X150482477Y-120649524D01*
X150482477Y-120554286D01*
X150530096Y-120459048D01*
X150625334Y-120411429D01*
X150863430Y-120411429D01*
X150958668Y-120363810D01*
X151434858Y-120125714D02*
X151434858Y-121125714D01*
X151434858Y-120173333D02*
X151530096Y-120125714D01*
X151720573Y-120125714D01*
X151815811Y-120173333D01*
X151863430Y-120220952D01*
X151911049Y-120316190D01*
X151911049Y-120601905D01*
X151863430Y-120697143D01*
X151815811Y-120744762D01*
X151720573Y-120792381D01*
X151530096Y-120792381D01*
X151434858Y-120744762D01*
X152339620Y-120792381D02*
X152339620Y-120125714D01*
X152339620Y-119792381D02*
X152292001Y-119840000D01*
X152339620Y-119887619D01*
X152387239Y-119840000D01*
X152339620Y-119792381D01*
X152339620Y-119887619D01*
X153530096Y-119744762D02*
X152672953Y-121030476D01*
X154292001Y-120792381D02*
X154292001Y-119792381D01*
X154292001Y-120744762D02*
X154196763Y-120792381D01*
X154006286Y-120792381D01*
X153911048Y-120744762D01*
X153863429Y-120697143D01*
X153815810Y-120601905D01*
X153815810Y-120316190D01*
X153863429Y-120220952D01*
X153911048Y-120173333D01*
X154006286Y-120125714D01*
X154196763Y-120125714D01*
X154292001Y-120173333D01*
X155149144Y-120744762D02*
X155053906Y-120792381D01*
X154863429Y-120792381D01*
X154768191Y-120744762D01*
X154720572Y-120649524D01*
X154720572Y-120268571D01*
X154768191Y-120173333D01*
X154863429Y-120125714D01*
X155053906Y-120125714D01*
X155149144Y-120173333D01*
X155196763Y-120268571D01*
X155196763Y-120363810D01*
X154720572Y-120459048D01*
X155625334Y-120125714D02*
X155625334Y-120792381D01*
X155625334Y-120220952D02*
X155672953Y-120173333D01*
X155768191Y-120125714D01*
X155911049Y-120125714D01*
X156006287Y-120173333D01*
X156053906Y-120268571D01*
X156053906Y-120792381D01*
X156530096Y-120792381D02*
X156530096Y-119792381D01*
X156530096Y-120173333D02*
X156625334Y-120125714D01*
X156815811Y-120125714D01*
X156911049Y-120173333D01*
X156958668Y-120220952D01*
X157006287Y-120316190D01*
X157006287Y-120601905D01*
X156958668Y-120697143D01*
X156911049Y-120744762D01*
X156815811Y-120792381D01*
X156625334Y-120792381D01*
X156530096Y-120744762D01*
X157434858Y-120792381D02*
X157434858Y-120125714D01*
X157434858Y-119792381D02*
X157387239Y-119840000D01*
X157434858Y-119887619D01*
X157482477Y-119840000D01*
X157434858Y-119792381D01*
X157434858Y-119887619D01*
X157768191Y-120125714D02*
X158149143Y-120125714D01*
X157911048Y-119792381D02*
X157911048Y-120649524D01*
X157958667Y-120744762D01*
X158053905Y-120792381D01*
X158149143Y-120792381D01*
X141214023Y-118582381D02*
X141339023Y-117582381D01*
X141577118Y-117582381D01*
X141714024Y-117630000D01*
X141797357Y-117725238D01*
X141833072Y-117820476D01*
X141856881Y-118010952D01*
X141839024Y-118153810D01*
X141767595Y-118344286D01*
X141708072Y-118439524D01*
X141600929Y-118534762D01*
X141452118Y-118582381D01*
X141214023Y-118582381D01*
X142600929Y-118534762D02*
X142499738Y-118582381D01*
X142309261Y-118582381D01*
X142219976Y-118534762D01*
X142184262Y-118439524D01*
X142231881Y-118058571D01*
X142291404Y-117963333D01*
X142392595Y-117915714D01*
X142583072Y-117915714D01*
X142672357Y-117963333D01*
X142708072Y-118058571D01*
X142696167Y-118153810D01*
X142208071Y-118249048D01*
X143154500Y-117915714D02*
X143071166Y-118582381D01*
X143142595Y-118010952D02*
X143196166Y-117963333D01*
X143297357Y-117915714D01*
X143440215Y-117915714D01*
X143529500Y-117963333D01*
X143565215Y-118058571D01*
X143499738Y-118582381D01*
X143975928Y-118582381D02*
X144100928Y-117582381D01*
X144053309Y-117963333D02*
X144154500Y-117915714D01*
X144344977Y-117915714D01*
X144434262Y-117963333D01*
X144475929Y-118010952D01*
X144511643Y-118106190D01*
X144475929Y-118391905D01*
X144416405Y-118487143D01*
X144362834Y-118534762D01*
X144261643Y-118582381D01*
X144071166Y-118582381D01*
X143981881Y-118534762D01*
X144880690Y-118582381D02*
X144964024Y-117915714D01*
X145005690Y-117582381D02*
X144952119Y-117630000D01*
X144993786Y-117677619D01*
X145047357Y-117630000D01*
X145005690Y-117582381D01*
X144993786Y-117677619D01*
X145297357Y-117915714D02*
X145678309Y-117915714D01*
X145481880Y-117582381D02*
X145374738Y-118439524D01*
X145410452Y-118534762D01*
X145499737Y-118582381D01*
X145594975Y-118582381D01*
X146678310Y-117915714D02*
X146833071Y-118582381D01*
X147154501Y-117915714D01*
X147975929Y-118582381D02*
X147404500Y-118582381D01*
X147690214Y-118582381D02*
X147815214Y-117582381D01*
X147702119Y-117725238D01*
X147594977Y-117820476D01*
X147493786Y-117868095D01*
X148416405Y-118487143D02*
X148458072Y-118534762D01*
X148404500Y-118582381D01*
X148362834Y-118534762D01*
X148416405Y-118487143D01*
X148404500Y-118582381D01*
X149196166Y-117582381D02*
X149291405Y-117582381D01*
X149380691Y-117630000D01*
X149422358Y-117677619D01*
X149458072Y-117772857D01*
X149481881Y-117963333D01*
X149452119Y-118201429D01*
X149380691Y-118391905D01*
X149321167Y-118487143D01*
X149267596Y-118534762D01*
X149166405Y-118582381D01*
X149071166Y-118582381D01*
X148981881Y-118534762D01*
X148940214Y-118487143D01*
X148904500Y-118391905D01*
X148880690Y-118201429D01*
X148910452Y-117963333D01*
X148981881Y-117772857D01*
X149041405Y-117677619D01*
X149094976Y-117630000D01*
X149196166Y-117582381D01*
X150729524Y-84816381D02*
X150158095Y-84816381D01*
X150443809Y-84816381D02*
X150443809Y-83816381D01*
X150348571Y-83959238D01*
X150253333Y-84054476D01*
X150158095Y-84102095D01*
X151586667Y-84149714D02*
X151586667Y-84816381D01*
X151348571Y-83768762D02*
X151110476Y-84483048D01*
X151729524Y-84483048D01*
X145141524Y-84816381D02*
X144570095Y-84816381D01*
X144855809Y-84816381D02*
X144855809Y-83816381D01*
X144760571Y-83959238D01*
X144665333Y-84054476D01*
X144570095Y-84102095D01*
X145760571Y-83816381D02*
X145855810Y-83816381D01*
X145951048Y-83864000D01*
X145998667Y-83911619D01*
X146046286Y-84006857D01*
X146093905Y-84197333D01*
X146093905Y-84435429D01*
X146046286Y-84625905D01*
X145998667Y-84721143D01*
X145951048Y-84768762D01*
X145855810Y-84816381D01*
X145760571Y-84816381D01*
X145665333Y-84768762D01*
X145617714Y-84721143D01*
X145570095Y-84625905D01*
X145522476Y-84435429D01*
X145522476Y-84197333D01*
X145570095Y-84006857D01*
X145617714Y-83911619D01*
X145665333Y-83864000D01*
X145760571Y-83816381D01*
X139553524Y-84816381D02*
X138982095Y-84816381D01*
X139267809Y-84816381D02*
X139267809Y-83816381D01*
X139172571Y-83959238D01*
X139077333Y-84054476D01*
X138982095Y-84102095D01*
X140458286Y-83816381D02*
X139982095Y-83816381D01*
X139934476Y-84292571D01*
X139982095Y-84244952D01*
X140077333Y-84197333D01*
X140315429Y-84197333D01*
X140410667Y-84244952D01*
X140458286Y-84292571D01*
X140505905Y-84387810D01*
X140505905Y-84625905D01*
X140458286Y-84721143D01*
X140410667Y-84768762D01*
X140315429Y-84816381D01*
X140077333Y-84816381D01*
X139982095Y-84768762D01*
X139934476Y-84721143D01*
X127361524Y-76688381D02*
X126790095Y-76688381D01*
X127075809Y-76688381D02*
X127075809Y-75688381D01*
X126980571Y-75831238D01*
X126885333Y-75926476D01*
X126790095Y-75974095D01*
X127694857Y-75688381D02*
X128313905Y-75688381D01*
X127980571Y-76069333D01*
X128123429Y-76069333D01*
X128218667Y-76116952D01*
X128266286Y-76164571D01*
X128313905Y-76259810D01*
X128313905Y-76497905D01*
X128266286Y-76593143D01*
X128218667Y-76640762D01*
X128123429Y-76688381D01*
X127837714Y-76688381D01*
X127742476Y-76640762D01*
X127694857Y-76593143D01*
X164683714Y-86816667D02*
X165159905Y-86816667D01*
X164588476Y-87102381D02*
X164921809Y-86102381D01*
X165255143Y-87102381D01*
X165778952Y-86102381D02*
X165874191Y-86102381D01*
X165969429Y-86150000D01*
X166017048Y-86197619D01*
X166064667Y-86292857D01*
X166112286Y-86483333D01*
X166112286Y-86721429D01*
X166064667Y-86911905D01*
X166017048Y-87007143D01*
X165969429Y-87054762D01*
X165874191Y-87102381D01*
X165778952Y-87102381D01*
X165683714Y-87054762D01*
X165636095Y-87007143D01*
X165588476Y-86911905D01*
X165540857Y-86721429D01*
X165540857Y-86483333D01*
X165588476Y-86292857D01*
X165636095Y-86197619D01*
X165683714Y-86150000D01*
X165778952Y-86102381D01*
X165075524Y-89784381D02*
X164504095Y-89784381D01*
X164789809Y-89784381D02*
X164789809Y-88784381D01*
X164694571Y-88927238D01*
X164599333Y-89022476D01*
X164504095Y-89070095D01*
X165932667Y-88784381D02*
X165742190Y-88784381D01*
X165646952Y-88832000D01*
X165599333Y-88879619D01*
X165504095Y-89022476D01*
X165456476Y-89212952D01*
X165456476Y-89593905D01*
X165504095Y-89689143D01*
X165551714Y-89736762D01*
X165646952Y-89784381D01*
X165837429Y-89784381D01*
X165932667Y-89736762D01*
X165980286Y-89689143D01*
X166027905Y-89593905D01*
X166027905Y-89355810D01*
X165980286Y-89260571D01*
X165932667Y-89212952D01*
X165837429Y-89165333D01*
X165646952Y-89165333D01*
X165551714Y-89212952D01*
X165504095Y-89260571D01*
X165456476Y-89355810D01*
X165890096Y-91182381D02*
X165413905Y-91182381D01*
X165366286Y-91658571D01*
X165413905Y-91610952D01*
X165509143Y-91563333D01*
X165747239Y-91563333D01*
X165842477Y-91610952D01*
X165890096Y-91658571D01*
X165937715Y-91753810D01*
X165937715Y-91991905D01*
X165890096Y-92087143D01*
X165842477Y-92134762D01*
X165747239Y-92182381D01*
X165509143Y-92182381D01*
X165413905Y-92134762D01*
X165366286Y-92087143D01*
X165842477Y-94055714D02*
X165842477Y-94722381D01*
X165604381Y-93674762D02*
X165366286Y-94389048D01*
X165985334Y-94389048D01*
X163651905Y-96262381D02*
X164270953Y-96262381D01*
X163937619Y-96643333D01*
X164080477Y-96643333D01*
X164175715Y-96690952D01*
X164223334Y-96738571D01*
X164270953Y-96833810D01*
X164270953Y-97071905D01*
X164223334Y-97167143D01*
X164175715Y-97214762D01*
X164080477Y-97262381D01*
X163794762Y-97262381D01*
X163699524Y-97214762D01*
X163651905Y-97167143D01*
X164556667Y-96262381D02*
X164890000Y-97262381D01*
X165223334Y-96262381D01*
X165461429Y-96262381D02*
X166080477Y-96262381D01*
X165747143Y-96643333D01*
X165890001Y-96643333D01*
X165985239Y-96690952D01*
X166032858Y-96738571D01*
X166080477Y-96833810D01*
X166080477Y-97071905D01*
X166032858Y-97167143D01*
X165985239Y-97214762D01*
X165890001Y-97262381D01*
X165604286Y-97262381D01*
X165509048Y-97214762D01*
X165461429Y-97167143D01*
X164001096Y-98850000D02*
X163905858Y-98802381D01*
X163763001Y-98802381D01*
X163620143Y-98850000D01*
X163524905Y-98945238D01*
X163477286Y-99040476D01*
X163429667Y-99230952D01*
X163429667Y-99373810D01*
X163477286Y-99564286D01*
X163524905Y-99659524D01*
X163620143Y-99754762D01*
X163763001Y-99802381D01*
X163858239Y-99802381D01*
X164001096Y-99754762D01*
X164048715Y-99707143D01*
X164048715Y-99373810D01*
X163858239Y-99373810D01*
X164477286Y-99802381D02*
X164477286Y-98802381D01*
X165048715Y-99802381D01*
X165048715Y-98802381D01*
X165524905Y-99802381D02*
X165524905Y-98802381D01*
X165763000Y-98802381D01*
X165905858Y-98850000D01*
X166001096Y-98945238D01*
X166048715Y-99040476D01*
X166096334Y-99230952D01*
X166096334Y-99373810D01*
X166048715Y-99564286D01*
X166001096Y-99659524D01*
X165905858Y-99754762D01*
X165763000Y-99802381D01*
X165524905Y-99802381D01*
X124535905Y-96262381D02*
X125154953Y-96262381D01*
X124821619Y-96643333D01*
X124964477Y-96643333D01*
X125059715Y-96690952D01*
X125107334Y-96738571D01*
X125154953Y-96833810D01*
X125154953Y-97071905D01*
X125107334Y-97167143D01*
X125059715Y-97214762D01*
X124964477Y-97262381D01*
X124678762Y-97262381D01*
X124583524Y-97214762D01*
X124535905Y-97167143D01*
X125440667Y-96262381D02*
X125774000Y-97262381D01*
X126107334Y-96262381D01*
X126345429Y-96262381D02*
X126964477Y-96262381D01*
X126631143Y-96643333D01*
X126774001Y-96643333D01*
X126869239Y-96690952D01*
X126916858Y-96738571D01*
X126964477Y-96833810D01*
X126964477Y-97071905D01*
X126916858Y-97167143D01*
X126869239Y-97214762D01*
X126774001Y-97262381D01*
X126488286Y-97262381D01*
X126393048Y-97214762D01*
X126345429Y-97167143D01*
X125134096Y-98992000D02*
X125038858Y-98944381D01*
X124896001Y-98944381D01*
X124753143Y-98992000D01*
X124657905Y-99087238D01*
X124610286Y-99182476D01*
X124562667Y-99372952D01*
X124562667Y-99515810D01*
X124610286Y-99706286D01*
X124657905Y-99801524D01*
X124753143Y-99896762D01*
X124896001Y-99944381D01*
X124991239Y-99944381D01*
X125134096Y-99896762D01*
X125181715Y-99849143D01*
X125181715Y-99515810D01*
X124991239Y-99515810D01*
X125610286Y-99944381D02*
X125610286Y-98944381D01*
X126181715Y-99944381D01*
X126181715Y-98944381D01*
X126657905Y-99944381D02*
X126657905Y-98944381D01*
X126896000Y-98944381D01*
X127038858Y-98992000D01*
X127134096Y-99087238D01*
X127181715Y-99182476D01*
X127229334Y-99372952D01*
X127229334Y-99515810D01*
X127181715Y-99706286D01*
X127134096Y-99801524D01*
X127038858Y-99896762D01*
X126896000Y-99944381D01*
X126657905Y-99944381D01*
X152317000Y-89190000D02*
X152317000Y-94270000D01*
X152317000Y-94270000D02*
X149777000Y-94270000D01*
X149777000Y-94270000D02*
X149777000Y-89190000D01*
X149777000Y-89190000D02*
X152317000Y-89190000D01*
X151047000Y-89190000D02*
X151047000Y-87920000D01*
X151047000Y-94270000D02*
X151047000Y-95540000D01*
X126027096Y-77815112D02*
G75*
G03X129052000Y-77800000I1524904J-2484888D01*
G01*
X126052000Y-77800000D02*
X129052000Y-77800000D01*
X130069936Y-80300000D02*
G75*
G03X130069936Y-80300000I-2517936J0D01*
G01*
X161587096Y-77815112D02*
G75*
G03X164612000Y-77800000I1524904J-2484888D01*
G01*
X161612000Y-77800000D02*
X164612000Y-77800000D01*
X165629936Y-80300000D02*
G75*
G03X165629936Y-80300000I-2517936J0D01*
G01*
X166922000Y-108240000D02*
G75*
G03X166922000Y-108240000I-2540000J0D01*
G01*
X168192000Y-104430000D02*
X168192000Y-112050000D01*
X168192000Y-112050000D02*
X160572000Y-112050000D01*
X160572000Y-112050000D02*
X160572000Y-104430000D01*
X168192000Y-104430000D02*
X160572000Y-104430000D01*
X128822000Y-108240000D02*
G75*
G03X128822000Y-108240000I-2540000J0D01*
G01*
X122472000Y-112050000D02*
X122472000Y-104430000D01*
X122472000Y-104430000D02*
X130092000Y-104430000D01*
X130092000Y-104430000D02*
X130092000Y-112050000D01*
X122472000Y-112050000D02*
X130092000Y-112050000D01*
X169462000Y-98080000D02*
X169462000Y-85380000D01*
X169462000Y-85380000D02*
X166922000Y-85380000D01*
X166922000Y-85380000D02*
X166922000Y-98080000D01*
X169742000Y-100900000D02*
X169742000Y-99350000D01*
X169462000Y-98080000D02*
X166922000Y-98080000D01*
X166642000Y-99350000D02*
X166642000Y-100900000D01*
X166642000Y-100900000D02*
X169742000Y-100900000D01*
X123742000Y-98080000D02*
X123742000Y-85380000D01*
X123742000Y-85380000D02*
X121202000Y-85380000D01*
X121202000Y-85380000D02*
X121202000Y-98080000D01*
X124022000Y-100900000D02*
X124022000Y-99350000D01*
X123742000Y-98080000D02*
X121202000Y-98080000D01*
X120922000Y-99350000D02*
X120922000Y-100900000D01*
X120922000Y-100900000D02*
X124022000Y-100900000D01*
X154222000Y-100620000D02*
X159302000Y-100620000D01*
X159302000Y-100620000D02*
X159302000Y-103160000D01*
X159302000Y-103160000D02*
X154222000Y-103160000D01*
X154222000Y-103160000D02*
X154222000Y-100620000D01*
X154222000Y-101890000D02*
X152952000Y-101890000D01*
X159302000Y-101890000D02*
X160572000Y-101890000D01*
X136442000Y-103160000D02*
X131362000Y-103160000D01*
X131362000Y-103160000D02*
X131362000Y-100620000D01*
X131362000Y-100620000D02*
X136442000Y-100620000D01*
X136442000Y-100620000D02*
X136442000Y-103160000D01*
X136442000Y-101890000D02*
X137712000Y-101890000D01*
X131362000Y-101890000D02*
X130092000Y-101890000D01*
X130092000Y-89190000D02*
X130092000Y-94270000D01*
X130092000Y-94270000D02*
X127552000Y-94270000D01*
X127552000Y-94270000D02*
X127552000Y-89190000D01*
X127552000Y-89190000D02*
X130092000Y-89190000D01*
X128822000Y-89190000D02*
X128822000Y-87920000D01*
X128822000Y-94270000D02*
X128822000Y-95540000D01*
X163112000Y-89190000D02*
X163112000Y-94270000D01*
X163112000Y-94270000D02*
X160572000Y-94270000D01*
X160572000Y-94270000D02*
X160572000Y-89190000D01*
X160572000Y-89190000D02*
X163112000Y-89190000D01*
X161842000Y-89190000D02*
X161842000Y-87920000D01*
X161842000Y-94270000D02*
X161842000Y-95540000D01*
X146602000Y-89190000D02*
X146602000Y-94270000D01*
X146602000Y-94270000D02*
X144062000Y-94270000D01*
X144062000Y-94270000D02*
X144062000Y-89190000D01*
X144062000Y-89190000D02*
X146602000Y-89190000D01*
X145332000Y-89190000D02*
X145332000Y-87920000D01*
X145332000Y-94270000D02*
X145332000Y-95540000D01*
X140887000Y-89190000D02*
X140887000Y-94270000D01*
X140887000Y-94270000D02*
X138347000Y-94270000D01*
X138347000Y-94270000D02*
X138347000Y-89190000D01*
X138347000Y-89190000D02*
X140887000Y-89190000D01*
X139617000Y-89190000D02*
X139617000Y-87920000D01*
X139617000Y-94270000D02*
X139617000Y-95540000D01*
X142705000Y-81400000D02*
X142705000Y-81850000D01*
X148155000Y-80300000D02*
G75*
G03X148155000Y-80300000I-2950000J0D01*
G01*
X142705000Y-79200000D02*
X142705000Y-78750000D01*
D12*
G36*
X150596494Y-112403188D02*
X150603451Y-112598292D01*
X150594366Y-112664913D01*
X150571987Y-112973909D01*
X150584289Y-113316879D01*
X150593528Y-113397859D01*
X150647236Y-113789698D01*
X150854464Y-113653917D01*
X151013124Y-113568360D01*
X151098807Y-113555251D01*
X151089476Y-113647076D01*
X151025201Y-113841860D01*
X150964461Y-113992369D01*
X150862750Y-114277156D01*
X150801290Y-114540888D01*
X150793000Y-114634426D01*
X150793000Y-114876481D01*
X151376404Y-114827570D01*
X151835060Y-114806700D01*
X152157320Y-114837780D01*
X152369712Y-114926616D01*
X152495288Y-115072399D01*
X152544172Y-115216312D01*
X152486843Y-115338601D01*
X152375624Y-115444131D01*
X152023372Y-115642859D01*
X151608961Y-115716103D01*
X151183031Y-115664669D01*
X150796222Y-115489367D01*
X150700896Y-115417415D01*
X150443515Y-115200843D01*
X149623424Y-115339658D01*
X149290292Y-115396573D01*
X148829239Y-115476084D01*
X148279115Y-115571453D01*
X147678773Y-115675940D01*
X147067063Y-115782806D01*
X146898334Y-115812361D01*
X145875803Y-115988415D01*
X144999944Y-116131584D01*
X144251739Y-116243924D01*
X143612171Y-116327494D01*
X143062221Y-116384349D01*
X142582874Y-116416548D01*
X142155110Y-116426146D01*
X141759913Y-116415202D01*
X141496020Y-116396727D01*
X140878639Y-116314086D01*
X140345438Y-116184150D01*
X139931009Y-116016281D01*
X139803687Y-115938825D01*
X139642885Y-115746208D01*
X139617981Y-115520886D01*
X139709412Y-115297285D01*
X139897617Y-115109828D01*
X140163034Y-114992941D01*
X140353651Y-114971000D01*
X140638672Y-115002567D01*
X140843016Y-115085144D01*
X140929922Y-115200542D01*
X140923195Y-115252800D01*
X140947108Y-115403329D01*
X141115549Y-115549735D01*
X141404147Y-115675754D01*
X141654886Y-115741153D01*
X142245687Y-115820162D01*
X142991155Y-115847904D01*
X143884708Y-115824806D01*
X144919762Y-115751295D01*
X146089736Y-115627799D01*
X147388048Y-115454744D01*
X148361312Y-115305696D01*
X149006310Y-115202274D01*
X149353127Y-115145942D01*
X150877667Y-115145942D01*
X150953852Y-115270483D01*
X151149521Y-115371594D01*
X151415344Y-115439112D01*
X151701991Y-115462870D01*
X151960135Y-115432703D01*
X152068566Y-115391354D01*
X152210839Y-115255636D01*
X152203958Y-115112508D01*
X152056984Y-115011423D01*
X151884793Y-114989605D01*
X151634561Y-114993908D01*
X151357657Y-115018473D01*
X151105451Y-115057440D01*
X150929311Y-115104950D01*
X150877667Y-115145942D01*
X149353127Y-115145942D01*
X149503442Y-115121527D01*
X149871892Y-115058400D01*
X150130840Y-115007841D01*
X150299470Y-114964793D01*
X150396963Y-114924205D01*
X150442502Y-114881023D01*
X150455268Y-114830191D01*
X150454445Y-114766658D01*
X150454334Y-114754261D01*
X150485299Y-114520426D01*
X150536905Y-114341511D01*
X150587762Y-114190499D01*
X150569378Y-114138816D01*
X150455694Y-114182575D01*
X150252512Y-114299076D01*
X149951768Y-114420830D01*
X149650364Y-114452446D01*
X149396768Y-114396599D01*
X149239447Y-114255969D01*
X149233184Y-114242770D01*
X149182194Y-114145523D01*
X149115982Y-114119247D01*
X148992481Y-114170154D01*
X148769628Y-114304457D01*
X148755341Y-114313337D01*
X148450491Y-114467935D01*
X148199370Y-114529792D01*
X148029476Y-114497520D01*
X147968308Y-114369735D01*
X147969118Y-114352975D01*
X147955250Y-114239932D01*
X147926784Y-114230337D01*
X147480209Y-114451528D01*
X147161225Y-114562741D01*
X146968918Y-114564270D01*
X146940222Y-114547297D01*
X146873296Y-114412612D01*
X146919108Y-114201576D01*
X147082548Y-113900796D01*
X147280919Y-113614173D01*
X147428915Y-113393574D01*
X147513745Y-113228817D01*
X147520784Y-113166339D01*
X147396730Y-113152698D01*
X147203860Y-113267485D01*
X146961228Y-113494377D01*
X146687882Y-113817050D01*
X146559013Y-113990437D01*
X146334937Y-114295550D01*
X146173667Y-114485743D01*
X146044813Y-114587478D01*
X145917987Y-114627216D01*
X145821807Y-114632333D01*
X145617685Y-114614878D01*
X145556044Y-114543077D01*
X145625376Y-114387780D01*
X145688301Y-114294183D01*
X145832935Y-114087689D01*
X145572359Y-114273236D01*
X145230111Y-114479046D01*
X144935998Y-114582674D01*
X144733770Y-114576149D01*
X144642607Y-114462881D01*
X144675365Y-114248657D01*
X144828783Y-113944316D01*
X144999531Y-113692557D01*
X145195089Y-113400318D01*
X145285731Y-113202918D01*
X145266333Y-113112709D01*
X145241767Y-113108333D01*
X145082052Y-113166589D01*
X144867937Y-113347745D01*
X144589434Y-113661377D01*
X144357123Y-113956590D01*
X144109374Y-114272951D01*
X143929543Y-114473973D01*
X143789974Y-114584098D01*
X143663009Y-114627771D01*
X143592529Y-114632333D01*
X143401365Y-114618637D01*
X143353669Y-114549713D01*
X143424108Y-114383805D01*
X143432365Y-114368309D01*
X143480253Y-114268591D01*
X143456483Y-114245164D01*
X143331034Y-114298435D01*
X143186134Y-114371632D01*
X142751549Y-114542806D01*
X142363287Y-114599173D01*
X142044723Y-114543650D01*
X141819232Y-114379154D01*
X141726154Y-114189436D01*
X141708316Y-114043279D01*
X141757830Y-113903796D01*
X141897726Y-113726225D01*
X142042269Y-113575019D01*
X142180558Y-113455749D01*
X142838426Y-113455749D01*
X142869888Y-113512660D01*
X142982500Y-113501756D01*
X143186978Y-113444025D01*
X143321167Y-113405679D01*
X143469556Y-113317576D01*
X143511667Y-113229627D01*
X143469856Y-113126583D01*
X143332418Y-113129580D01*
X143084129Y-113237507D01*
X142914192Y-113352714D01*
X142838426Y-113455749D01*
X142180558Y-113455749D01*
X142472300Y-113204133D01*
X142897791Y-112960415D01*
X143292897Y-112857972D01*
X143360127Y-112855629D01*
X143658293Y-112892764D01*
X143812811Y-113006081D01*
X143836575Y-113194080D01*
X143721638Y-113429646D01*
X143475705Y-113609860D01*
X143133725Y-113713074D01*
X142974544Y-113728081D01*
X142711024Y-113755719D01*
X142572634Y-113823492D01*
X142527931Y-113902070D01*
X142537092Y-114069067D01*
X142592440Y-114133607D01*
X142864521Y-114207342D01*
X143201904Y-114126477D01*
X143602738Y-113891858D01*
X144065172Y-113504334D01*
X144155164Y-113418059D01*
X144714571Y-112872238D01*
X145234952Y-112874665D01*
X145631056Y-112897614D01*
X145869319Y-112969018D01*
X145956929Y-113099392D01*
X145901072Y-113299249D01*
X145713000Y-113574000D01*
X145563834Y-113775713D01*
X145472484Y-113926250D01*
X145459000Y-113966642D01*
X145511043Y-114046545D01*
X145661176Y-114000615D01*
X145900403Y-113834190D01*
X146219729Y-113552611D01*
X146321463Y-113454648D01*
X146919375Y-112869630D01*
X147471224Y-112883148D01*
X147850260Y-112911910D01*
X148072232Y-112985280D01*
X148146709Y-113117742D01*
X148083259Y-113323782D01*
X147925597Y-113570976D01*
X147778082Y-113798549D01*
X147690032Y-113978313D01*
X147677970Y-114050242D01*
X147754103Y-114063719D01*
X147914377Y-113977578D01*
X148128196Y-113816735D01*
X148364964Y-113606109D01*
X148594085Y-113370617D01*
X148760843Y-113168340D01*
X148963862Y-112924082D01*
X149131600Y-112801285D01*
X149291793Y-112769666D01*
X149526567Y-112769666D01*
X149143288Y-113341001D01*
X148977089Y-113606813D01*
X148870018Y-113814511D01*
X148838927Y-113929808D01*
X148848035Y-113941678D01*
X148953512Y-113907290D01*
X149148466Y-113791098D01*
X149245965Y-113723493D01*
X149611814Y-113723493D01*
X149619597Y-113801966D01*
X149662634Y-113843351D01*
X149830913Y-113910227D01*
X149989611Y-113829005D01*
X150141314Y-113621781D01*
X150272096Y-113361819D01*
X150288931Y-113226038D01*
X150196753Y-113218714D01*
X150000494Y-113344122D01*
X149908404Y-113419926D01*
X149701892Y-113606813D01*
X149611814Y-113723493D01*
X149245965Y-113723493D01*
X149393530Y-113621174D01*
X149649335Y-113425591D01*
X149876516Y-113232423D01*
X149972967Y-113139478D01*
X150115262Y-112954467D01*
X150257027Y-112714568D01*
X150269300Y-112690041D01*
X150412795Y-112450348D01*
X150527401Y-112354302D01*
X150596494Y-112403188D01*
X150596494Y-112403188D01*
G37*
X150596494Y-112403188D02*
X150603451Y-112598292D01*
X150594366Y-112664913D01*
X150571987Y-112973909D01*
X150584289Y-113316879D01*
X150593528Y-113397859D01*
X150647236Y-113789698D01*
X150854464Y-113653917D01*
X151013124Y-113568360D01*
X151098807Y-113555251D01*
X151089476Y-113647076D01*
X151025201Y-113841860D01*
X150964461Y-113992369D01*
X150862750Y-114277156D01*
X150801290Y-114540888D01*
X150793000Y-114634426D01*
X150793000Y-114876481D01*
X151376404Y-114827570D01*
X151835060Y-114806700D01*
X152157320Y-114837780D01*
X152369712Y-114926616D01*
X152495288Y-115072399D01*
X152544172Y-115216312D01*
X152486843Y-115338601D01*
X152375624Y-115444131D01*
X152023372Y-115642859D01*
X151608961Y-115716103D01*
X151183031Y-115664669D01*
X150796222Y-115489367D01*
X150700896Y-115417415D01*
X150443515Y-115200843D01*
X149623424Y-115339658D01*
X149290292Y-115396573D01*
X148829239Y-115476084D01*
X148279115Y-115571453D01*
X147678773Y-115675940D01*
X147067063Y-115782806D01*
X146898334Y-115812361D01*
X145875803Y-115988415D01*
X144999944Y-116131584D01*
X144251739Y-116243924D01*
X143612171Y-116327494D01*
X143062221Y-116384349D01*
X142582874Y-116416548D01*
X142155110Y-116426146D01*
X141759913Y-116415202D01*
X141496020Y-116396727D01*
X140878639Y-116314086D01*
X140345438Y-116184150D01*
X139931009Y-116016281D01*
X139803687Y-115938825D01*
X139642885Y-115746208D01*
X139617981Y-115520886D01*
X139709412Y-115297285D01*
X139897617Y-115109828D01*
X140163034Y-114992941D01*
X140353651Y-114971000D01*
X140638672Y-115002567D01*
X140843016Y-115085144D01*
X140929922Y-115200542D01*
X140923195Y-115252800D01*
X140947108Y-115403329D01*
X141115549Y-115549735D01*
X141404147Y-115675754D01*
X141654886Y-115741153D01*
X142245687Y-115820162D01*
X142991155Y-115847904D01*
X143884708Y-115824806D01*
X144919762Y-115751295D01*
X146089736Y-115627799D01*
X147388048Y-115454744D01*
X148361312Y-115305696D01*
X149006310Y-115202274D01*
X149353127Y-115145942D01*
X150877667Y-115145942D01*
X150953852Y-115270483D01*
X151149521Y-115371594D01*
X151415344Y-115439112D01*
X151701991Y-115462870D01*
X151960135Y-115432703D01*
X152068566Y-115391354D01*
X152210839Y-115255636D01*
X152203958Y-115112508D01*
X152056984Y-115011423D01*
X151884793Y-114989605D01*
X151634561Y-114993908D01*
X151357657Y-115018473D01*
X151105451Y-115057440D01*
X150929311Y-115104950D01*
X150877667Y-115145942D01*
X149353127Y-115145942D01*
X149503442Y-115121527D01*
X149871892Y-115058400D01*
X150130840Y-115007841D01*
X150299470Y-114964793D01*
X150396963Y-114924205D01*
X150442502Y-114881023D01*
X150455268Y-114830191D01*
X150454445Y-114766658D01*
X150454334Y-114754261D01*
X150485299Y-114520426D01*
X150536905Y-114341511D01*
X150587762Y-114190499D01*
X150569378Y-114138816D01*
X150455694Y-114182575D01*
X150252512Y-114299076D01*
X149951768Y-114420830D01*
X149650364Y-114452446D01*
X149396768Y-114396599D01*
X149239447Y-114255969D01*
X149233184Y-114242770D01*
X149182194Y-114145523D01*
X149115982Y-114119247D01*
X148992481Y-114170154D01*
X148769628Y-114304457D01*
X148755341Y-114313337D01*
X148450491Y-114467935D01*
X148199370Y-114529792D01*
X148029476Y-114497520D01*
X147968308Y-114369735D01*
X147969118Y-114352975D01*
X147955250Y-114239932D01*
X147926784Y-114230337D01*
X147480209Y-114451528D01*
X147161225Y-114562741D01*
X146968918Y-114564270D01*
X146940222Y-114547297D01*
X146873296Y-114412612D01*
X146919108Y-114201576D01*
X147082548Y-113900796D01*
X147280919Y-113614173D01*
X147428915Y-113393574D01*
X147513745Y-113228817D01*
X147520784Y-113166339D01*
X147396730Y-113152698D01*
X147203860Y-113267485D01*
X146961228Y-113494377D01*
X146687882Y-113817050D01*
X146559013Y-113990437D01*
X146334937Y-114295550D01*
X146173667Y-114485743D01*
X146044813Y-114587478D01*
X145917987Y-114627216D01*
X145821807Y-114632333D01*
X145617685Y-114614878D01*
X145556044Y-114543077D01*
X145625376Y-114387780D01*
X145688301Y-114294183D01*
X145832935Y-114087689D01*
X145572359Y-114273236D01*
X145230111Y-114479046D01*
X144935998Y-114582674D01*
X144733770Y-114576149D01*
X144642607Y-114462881D01*
X144675365Y-114248657D01*
X144828783Y-113944316D01*
X144999531Y-113692557D01*
X145195089Y-113400318D01*
X145285731Y-113202918D01*
X145266333Y-113112709D01*
X145241767Y-113108333D01*
X145082052Y-113166589D01*
X144867937Y-113347745D01*
X144589434Y-113661377D01*
X144357123Y-113956590D01*
X144109374Y-114272951D01*
X143929543Y-114473973D01*
X143789974Y-114584098D01*
X143663009Y-114627771D01*
X143592529Y-114632333D01*
X143401365Y-114618637D01*
X143353669Y-114549713D01*
X143424108Y-114383805D01*
X143432365Y-114368309D01*
X143480253Y-114268591D01*
X143456483Y-114245164D01*
X143331034Y-114298435D01*
X143186134Y-114371632D01*
X142751549Y-114542806D01*
X142363287Y-114599173D01*
X142044723Y-114543650D01*
X141819232Y-114379154D01*
X141726154Y-114189436D01*
X141708316Y-114043279D01*
X141757830Y-113903796D01*
X141897726Y-113726225D01*
X142042269Y-113575019D01*
X142180558Y-113455749D01*
X142838426Y-113455749D01*
X142869888Y-113512660D01*
X142982500Y-113501756D01*
X143186978Y-113444025D01*
X143321167Y-113405679D01*
X143469556Y-113317576D01*
X143511667Y-113229627D01*
X143469856Y-113126583D01*
X143332418Y-113129580D01*
X143084129Y-113237507D01*
X142914192Y-113352714D01*
X142838426Y-113455749D01*
X142180558Y-113455749D01*
X142472300Y-113204133D01*
X142897791Y-112960415D01*
X143292897Y-112857972D01*
X143360127Y-112855629D01*
X143658293Y-112892764D01*
X143812811Y-113006081D01*
X143836575Y-113194080D01*
X143721638Y-113429646D01*
X143475705Y-113609860D01*
X143133725Y-113713074D01*
X142974544Y-113728081D01*
X142711024Y-113755719D01*
X142572634Y-113823492D01*
X142527931Y-113902070D01*
X142537092Y-114069067D01*
X142592440Y-114133607D01*
X142864521Y-114207342D01*
X143201904Y-114126477D01*
X143602738Y-113891858D01*
X144065172Y-113504334D01*
X144155164Y-113418059D01*
X144714571Y-112872238D01*
X145234952Y-112874665D01*
X145631056Y-112897614D01*
X145869319Y-112969018D01*
X145956929Y-113099392D01*
X145901072Y-113299249D01*
X145713000Y-113574000D01*
X145563834Y-113775713D01*
X145472484Y-113926250D01*
X145459000Y-113966642D01*
X145511043Y-114046545D01*
X145661176Y-114000615D01*
X145900403Y-113834190D01*
X146219729Y-113552611D01*
X146321463Y-113454648D01*
X146919375Y-112869630D01*
X147471224Y-112883148D01*
X147850260Y-112911910D01*
X148072232Y-112985280D01*
X148146709Y-113117742D01*
X148083259Y-113323782D01*
X147925597Y-113570976D01*
X147778082Y-113798549D01*
X147690032Y-113978313D01*
X147677970Y-114050242D01*
X147754103Y-114063719D01*
X147914377Y-113977578D01*
X148128196Y-113816735D01*
X148364964Y-113606109D01*
X148594085Y-113370617D01*
X148760843Y-113168340D01*
X148963862Y-112924082D01*
X149131600Y-112801285D01*
X149291793Y-112769666D01*
X149526567Y-112769666D01*
X149143288Y-113341001D01*
X148977089Y-113606813D01*
X148870018Y-113814511D01*
X148838927Y-113929808D01*
X148848035Y-113941678D01*
X148953512Y-113907290D01*
X149148466Y-113791098D01*
X149245965Y-113723493D01*
X149611814Y-113723493D01*
X149619597Y-113801966D01*
X149662634Y-113843351D01*
X149830913Y-113910227D01*
X149989611Y-113829005D01*
X150141314Y-113621781D01*
X150272096Y-113361819D01*
X150288931Y-113226038D01*
X150196753Y-113218714D01*
X150000494Y-113344122D01*
X149908404Y-113419926D01*
X149701892Y-113606813D01*
X149611814Y-113723493D01*
X149245965Y-113723493D01*
X149393530Y-113621174D01*
X149649335Y-113425591D01*
X149876516Y-113232423D01*
X149972967Y-113139478D01*
X150115262Y-112954467D01*
X150257027Y-112714568D01*
X150269300Y-112690041D01*
X150412795Y-112450348D01*
X150527401Y-112354302D01*
X150596494Y-112403188D01*
G36*
X141240302Y-110950246D02*
X141590321Y-111067999D01*
X141829682Y-111160303D01*
X142034215Y-111190630D01*
X142073890Y-111185125D01*
X142212422Y-111197348D01*
X142236031Y-111288567D01*
X142156771Y-111372808D01*
X142117933Y-111485255D01*
X142156771Y-111583905D01*
X142227562Y-111841048D01*
X142239964Y-112190418D01*
X142197940Y-112566804D01*
X142105455Y-112904999D01*
X142071751Y-112982536D01*
X141859524Y-113314937D01*
X141547771Y-113676857D01*
X141186632Y-114018608D01*
X140826246Y-114290502D01*
X140651703Y-114389772D01*
X140447715Y-114475305D01*
X140236568Y-114526947D01*
X139976110Y-114548715D01*
X139624191Y-114544626D01*
X139236000Y-114524687D01*
X138967999Y-114533670D01*
X138765751Y-114568308D01*
X138481748Y-114564541D01*
X138257751Y-114481617D01*
X138063350Y-114362136D01*
X137981614Y-114219018D01*
X137974659Y-114124333D01*
X138347000Y-114124333D01*
X138420685Y-114183335D01*
X138598704Y-114208966D01*
X138605997Y-114209000D01*
X138775254Y-114186069D01*
X138814337Y-114127238D01*
X138812667Y-114124333D01*
X138695960Y-114058794D01*
X138553670Y-114039666D01*
X138396962Y-114069286D01*
X138347000Y-114124333D01*
X137974659Y-114124333D01*
X137966000Y-114006470D01*
X137998242Y-113746125D01*
X138018906Y-113715579D01*
X140187215Y-113715579D01*
X140191070Y-113738847D01*
X140327300Y-113766198D01*
X140557625Y-113707470D01*
X140839211Y-113576205D01*
X140985983Y-113487511D01*
X141308204Y-113221606D01*
X141588690Y-112889150D01*
X141803583Y-112530446D01*
X141929027Y-112185793D01*
X141941167Y-111895492D01*
X141937589Y-111879953D01*
X141878169Y-111721975D01*
X141826338Y-111669000D01*
X141726411Y-111731155D01*
X141554933Y-111899179D01*
X141333760Y-112145402D01*
X141084752Y-112442158D01*
X140829767Y-112761780D01*
X140590662Y-113076600D01*
X140389296Y-113358951D01*
X140247528Y-113581167D01*
X140187215Y-113715579D01*
X138018906Y-113715579D01*
X138118417Y-113568482D01*
X138189161Y-113510327D01*
X138500775Y-113361283D01*
X138879719Y-113295918D01*
X139248741Y-113322005D01*
X139433904Y-113385110D01*
X139566185Y-113443144D01*
X139675293Y-113452731D01*
X139786428Y-113394983D01*
X139924792Y-113251014D01*
X140115585Y-113001934D01*
X140315942Y-112724029D01*
X140541668Y-112439286D01*
X140829446Y-112117292D01*
X141091158Y-111852922D01*
X141302215Y-111637935D01*
X141434333Y-111471990D01*
X141465822Y-111383317D01*
X141456894Y-111376920D01*
X141115596Y-111302378D01*
X140797809Y-111312144D01*
X140541190Y-111366903D01*
X140260649Y-111460887D01*
X140027267Y-111575195D01*
X139954552Y-111627675D01*
X139820814Y-111820205D01*
X139790089Y-112024876D01*
X139862274Y-112185334D01*
X139955667Y-112237134D01*
X140093207Y-112300425D01*
X140103290Y-112404914D01*
X139984361Y-112580018D01*
X139934500Y-112638035D01*
X139658465Y-112850092D01*
X139356739Y-112909936D01*
X139062251Y-112812903D01*
X139001831Y-112770138D01*
X138817942Y-112530924D01*
X138773386Y-112235243D01*
X138861548Y-111912500D01*
X139075815Y-111592100D01*
X139316760Y-111369906D01*
X139741626Y-111127457D01*
X140238008Y-110972161D01*
X140754652Y-110910821D01*
X141240302Y-110950246D01*
X141240302Y-110950246D01*
G37*
X141240302Y-110950246D02*
X141590321Y-111067999D01*
X141829682Y-111160303D01*
X142034215Y-111190630D01*
X142073890Y-111185125D01*
X142212422Y-111197348D01*
X142236031Y-111288567D01*
X142156771Y-111372808D01*
X142117933Y-111485255D01*
X142156771Y-111583905D01*
X142227562Y-111841048D01*
X142239964Y-112190418D01*
X142197940Y-112566804D01*
X142105455Y-112904999D01*
X142071751Y-112982536D01*
X141859524Y-113314937D01*
X141547771Y-113676857D01*
X141186632Y-114018608D01*
X140826246Y-114290502D01*
X140651703Y-114389772D01*
X140447715Y-114475305D01*
X140236568Y-114526947D01*
X139976110Y-114548715D01*
X139624191Y-114544626D01*
X139236000Y-114524687D01*
X138967999Y-114533670D01*
X138765751Y-114568308D01*
X138481748Y-114564541D01*
X138257751Y-114481617D01*
X138063350Y-114362136D01*
X137981614Y-114219018D01*
X137974659Y-114124333D01*
X138347000Y-114124333D01*
X138420685Y-114183335D01*
X138598704Y-114208966D01*
X138605997Y-114209000D01*
X138775254Y-114186069D01*
X138814337Y-114127238D01*
X138812667Y-114124333D01*
X138695960Y-114058794D01*
X138553670Y-114039666D01*
X138396962Y-114069286D01*
X138347000Y-114124333D01*
X137974659Y-114124333D01*
X137966000Y-114006470D01*
X137998242Y-113746125D01*
X138018906Y-113715579D01*
X140187215Y-113715579D01*
X140191070Y-113738847D01*
X140327300Y-113766198D01*
X140557625Y-113707470D01*
X140839211Y-113576205D01*
X140985983Y-113487511D01*
X141308204Y-113221606D01*
X141588690Y-112889150D01*
X141803583Y-112530446D01*
X141929027Y-112185793D01*
X141941167Y-111895492D01*
X141937589Y-111879953D01*
X141878169Y-111721975D01*
X141826338Y-111669000D01*
X141726411Y-111731155D01*
X141554933Y-111899179D01*
X141333760Y-112145402D01*
X141084752Y-112442158D01*
X140829767Y-112761780D01*
X140590662Y-113076600D01*
X140389296Y-113358951D01*
X140247528Y-113581167D01*
X140187215Y-113715579D01*
X138018906Y-113715579D01*
X138118417Y-113568482D01*
X138189161Y-113510327D01*
X138500775Y-113361283D01*
X138879719Y-113295918D01*
X139248741Y-113322005D01*
X139433904Y-113385110D01*
X139566185Y-113443144D01*
X139675293Y-113452731D01*
X139786428Y-113394983D01*
X139924792Y-113251014D01*
X140115585Y-113001934D01*
X140315942Y-112724029D01*
X140541668Y-112439286D01*
X140829446Y-112117292D01*
X141091158Y-111852922D01*
X141302215Y-111637935D01*
X141434333Y-111471990D01*
X141465822Y-111383317D01*
X141456894Y-111376920D01*
X141115596Y-111302378D01*
X140797809Y-111312144D01*
X140541190Y-111366903D01*
X140260649Y-111460887D01*
X140027267Y-111575195D01*
X139954552Y-111627675D01*
X139820814Y-111820205D01*
X139790089Y-112024876D01*
X139862274Y-112185334D01*
X139955667Y-112237134D01*
X140093207Y-112300425D01*
X140103290Y-112404914D01*
X139984361Y-112580018D01*
X139934500Y-112638035D01*
X139658465Y-112850092D01*
X139356739Y-112909936D01*
X139062251Y-112812903D01*
X139001831Y-112770138D01*
X138817942Y-112530924D01*
X138773386Y-112235243D01*
X138861548Y-111912500D01*
X139075815Y-111592100D01*
X139316760Y-111369906D01*
X139741626Y-111127457D01*
X140238008Y-110972161D01*
X140754652Y-110910821D01*
X141240302Y-110950246D01*
G36*
X149841344Y-111954832D02*
X149916130Y-112051078D01*
X149907190Y-112205776D01*
X149816185Y-112360452D01*
X149692659Y-112430999D01*
X149692334Y-112431000D01*
X149591196Y-112373519D01*
X149523000Y-112304000D01*
X149460281Y-112168487D01*
X149523000Y-112050000D01*
X149686568Y-111936381D01*
X149841344Y-111954832D01*
X149841344Y-111954832D01*
G37*
X149841344Y-111954832D02*
X149916130Y-112051078D01*
X149907190Y-112205776D01*
X149816185Y-112360452D01*
X149692659Y-112430999D01*
X149692334Y-112431000D01*
X149591196Y-112373519D01*
X149523000Y-112304000D01*
X149460281Y-112168487D01*
X149523000Y-112050000D01*
X149686568Y-111936381D01*
X149841344Y-111954832D01*
D11*
X149753334Y-99548381D02*
X149181905Y-99548381D01*
X149467619Y-99548381D02*
X149467619Y-98548381D01*
X149372381Y-98691238D01*
X149277143Y-98786476D01*
X149181905Y-98834095D01*
X150372381Y-98548381D02*
X150467620Y-98548381D01*
X150562858Y-98596000D01*
X150610477Y-98643619D01*
X150658096Y-98738857D01*
X150705715Y-98929333D01*
X150705715Y-99167429D01*
X150658096Y-99357905D01*
X150610477Y-99453143D01*
X150562858Y-99500762D01*
X150467620Y-99548381D01*
X150372381Y-99548381D01*
X150277143Y-99500762D01*
X150229524Y-99453143D01*
X150181905Y-99357905D01*
X150134286Y-99167429D01*
X150134286Y-98929333D01*
X150181905Y-98738857D01*
X150229524Y-98643619D01*
X150277143Y-98596000D01*
X150372381Y-98548381D01*
X151324762Y-98548381D02*
X151420001Y-98548381D01*
X151515239Y-98596000D01*
X151562858Y-98643619D01*
X151610477Y-98738857D01*
X151658096Y-98929333D01*
X151658096Y-99167429D01*
X151610477Y-99357905D01*
X151562858Y-99453143D01*
X151515239Y-99500762D01*
X151420001Y-99548381D01*
X151324762Y-99548381D01*
X151229524Y-99500762D01*
X151181905Y-99453143D01*
X151134286Y-99357905D01*
X151086667Y-99167429D01*
X151086667Y-98929333D01*
X151134286Y-98738857D01*
X151181905Y-98643619D01*
X151229524Y-98596000D01*
X151324762Y-98548381D01*
X152658096Y-99548381D02*
X152324762Y-99072190D01*
X152086667Y-99548381D02*
X152086667Y-98548381D01*
X152467620Y-98548381D01*
X152562858Y-98596000D01*
X152610477Y-98643619D01*
X152658096Y-98738857D01*
X152658096Y-98881714D01*
X152610477Y-98976952D01*
X152562858Y-99024571D01*
X152467620Y-99072190D01*
X152086667Y-99072190D01*
X163053667Y-108629762D02*
X163196524Y-108677381D01*
X163434620Y-108677381D01*
X163529858Y-108629762D01*
X163577477Y-108582143D01*
X163625096Y-108486905D01*
X163625096Y-108391667D01*
X163577477Y-108296429D01*
X163529858Y-108248810D01*
X163434620Y-108201190D01*
X163244143Y-108153571D01*
X163148905Y-108105952D01*
X163101286Y-108058333D01*
X163053667Y-107963095D01*
X163053667Y-107867857D01*
X163101286Y-107772619D01*
X163148905Y-107725000D01*
X163244143Y-107677381D01*
X163482239Y-107677381D01*
X163625096Y-107725000D01*
X163958429Y-107677381D02*
X164196524Y-108677381D01*
X164387001Y-107963095D01*
X164577477Y-108677381D01*
X164815572Y-107677381D01*
X165720334Y-108677381D02*
X165148905Y-108677381D01*
X165434619Y-108677381D02*
X165434619Y-107677381D01*
X165339381Y-107820238D01*
X165244143Y-107915476D01*
X165148905Y-107963095D01*
X124953667Y-108629762D02*
X125096524Y-108677381D01*
X125334620Y-108677381D01*
X125429858Y-108629762D01*
X125477477Y-108582143D01*
X125525096Y-108486905D01*
X125525096Y-108391667D01*
X125477477Y-108296429D01*
X125429858Y-108248810D01*
X125334620Y-108201190D01*
X125144143Y-108153571D01*
X125048905Y-108105952D01*
X125001286Y-108058333D01*
X124953667Y-107963095D01*
X124953667Y-107867857D01*
X125001286Y-107772619D01*
X125048905Y-107725000D01*
X125144143Y-107677381D01*
X125382239Y-107677381D01*
X125525096Y-107725000D01*
X125858429Y-107677381D02*
X126096524Y-108677381D01*
X126287001Y-107963095D01*
X126477477Y-108677381D01*
X126715572Y-107677381D01*
X127048905Y-107772619D02*
X127096524Y-107725000D01*
X127191762Y-107677381D01*
X127429858Y-107677381D01*
X127525096Y-107725000D01*
X127572715Y-107772619D01*
X127620334Y-107867857D01*
X127620334Y-107963095D01*
X127572715Y-108105952D01*
X127001286Y-108677381D01*
X127620334Y-108677381D01*
X152520524Y-104613381D02*
X151949095Y-104613381D01*
X152234809Y-104613381D02*
X152234809Y-103613381D01*
X152139571Y-103756238D01*
X152044333Y-103851476D01*
X151949095Y-103899095D01*
X153139571Y-103613381D02*
X153234810Y-103613381D01*
X153330048Y-103661000D01*
X153377667Y-103708619D01*
X153425286Y-103803857D01*
X153472905Y-103994333D01*
X153472905Y-104232429D01*
X153425286Y-104422905D01*
X153377667Y-104518143D01*
X153330048Y-104565762D01*
X153234810Y-104613381D01*
X153139571Y-104613381D01*
X153044333Y-104565762D01*
X152996714Y-104518143D01*
X152949095Y-104422905D01*
X152901476Y-104232429D01*
X152901476Y-103994333D01*
X152949095Y-103803857D01*
X152996714Y-103708619D01*
X153044333Y-103661000D01*
X153139571Y-103613381D01*
X153901476Y-104613381D02*
X153901476Y-103613381D01*
X154472905Y-104613381D02*
X154044333Y-104041952D01*
X154472905Y-103613381D02*
X153901476Y-104184810D01*
X136772524Y-104613381D02*
X136201095Y-104613381D01*
X136486809Y-104613381D02*
X136486809Y-103613381D01*
X136391571Y-103756238D01*
X136296333Y-103851476D01*
X136201095Y-103899095D01*
X137391571Y-103613381D02*
X137486810Y-103613381D01*
X137582048Y-103661000D01*
X137629667Y-103708619D01*
X137677286Y-103803857D01*
X137724905Y-103994333D01*
X137724905Y-104232429D01*
X137677286Y-104422905D01*
X137629667Y-104518143D01*
X137582048Y-104565762D01*
X137486810Y-104613381D01*
X137391571Y-104613381D01*
X137296333Y-104565762D01*
X137248714Y-104518143D01*
X137201095Y-104422905D01*
X137153476Y-104232429D01*
X137153476Y-103994333D01*
X137201095Y-103803857D01*
X137248714Y-103708619D01*
X137296333Y-103661000D01*
X137391571Y-103613381D01*
X138153476Y-104613381D02*
X138153476Y-103613381D01*
X138724905Y-104613381D02*
X138296333Y-104041952D01*
X138724905Y-103613381D02*
X138153476Y-104184810D01*
X131687381Y-93023666D02*
X131687381Y-93595095D01*
X131687381Y-93309381D02*
X130687381Y-93309381D01*
X130830238Y-93404619D01*
X130925476Y-93499857D01*
X130973095Y-93595095D01*
X130687381Y-92118904D02*
X130687381Y-92595095D01*
X131163571Y-92642714D01*
X131115952Y-92595095D01*
X131068333Y-92499857D01*
X131068333Y-92261761D01*
X131115952Y-92166523D01*
X131163571Y-92118904D01*
X131258810Y-92071285D01*
X131496905Y-92071285D01*
X131592143Y-92118904D01*
X131639762Y-92166523D01*
X131687381Y-92261761D01*
X131687381Y-92499857D01*
X131639762Y-92595095D01*
X131592143Y-92642714D01*
X130687381Y-91452238D02*
X130687381Y-91356999D01*
X130735000Y-91261761D01*
X130782619Y-91214142D01*
X130877857Y-91166523D01*
X131068333Y-91118904D01*
X131306429Y-91118904D01*
X131496905Y-91166523D01*
X131592143Y-91214142D01*
X131639762Y-91261761D01*
X131687381Y-91356999D01*
X131687381Y-91452238D01*
X131639762Y-91547476D01*
X131592143Y-91595095D01*
X131496905Y-91642714D01*
X131306429Y-91690333D01*
X131068333Y-91690333D01*
X130877857Y-91642714D01*
X130782619Y-91595095D01*
X130735000Y-91547476D01*
X130687381Y-91452238D01*
X131687381Y-90118904D02*
X131211190Y-90452238D01*
X131687381Y-90690333D02*
X130687381Y-90690333D01*
X130687381Y-90309380D01*
X130735000Y-90214142D01*
X130782619Y-90166523D01*
X130877857Y-90118904D01*
X131020714Y-90118904D01*
X131115952Y-90166523D01*
X131163571Y-90214142D01*
X131211190Y-90309380D01*
X131211190Y-90690333D01*
X159881381Y-92769666D02*
X159881381Y-93341095D01*
X159881381Y-93055381D02*
X158881381Y-93055381D01*
X159024238Y-93150619D01*
X159119476Y-93245857D01*
X159167095Y-93341095D01*
X158881381Y-91864904D02*
X158881381Y-92341095D01*
X159357571Y-92388714D01*
X159309952Y-92341095D01*
X159262333Y-92245857D01*
X159262333Y-92007761D01*
X159309952Y-91912523D01*
X159357571Y-91864904D01*
X159452810Y-91817285D01*
X159690905Y-91817285D01*
X159786143Y-91864904D01*
X159833762Y-91912523D01*
X159881381Y-92007761D01*
X159881381Y-92245857D01*
X159833762Y-92341095D01*
X159786143Y-92388714D01*
X158881381Y-91198238D02*
X158881381Y-91102999D01*
X158929000Y-91007761D01*
X158976619Y-90960142D01*
X159071857Y-90912523D01*
X159262333Y-90864904D01*
X159500429Y-90864904D01*
X159690905Y-90912523D01*
X159786143Y-90960142D01*
X159833762Y-91007761D01*
X159881381Y-91102999D01*
X159881381Y-91198238D01*
X159833762Y-91293476D01*
X159786143Y-91341095D01*
X159690905Y-91388714D01*
X159500429Y-91436333D01*
X159262333Y-91436333D01*
X159071857Y-91388714D01*
X158976619Y-91341095D01*
X158929000Y-91293476D01*
X158881381Y-91198238D01*
X159881381Y-89864904D02*
X159405190Y-90198238D01*
X159881381Y-90436333D02*
X158881381Y-90436333D01*
X158881381Y-90055380D01*
X158929000Y-89960142D01*
X158976619Y-89912523D01*
X159071857Y-89864904D01*
X159214714Y-89864904D01*
X159309952Y-89912523D01*
X159357571Y-89960142D01*
X159405190Y-90055380D01*
X159405190Y-90436333D01*
X144165334Y-99548381D02*
X143593905Y-99548381D01*
X143879619Y-99548381D02*
X143879619Y-98548381D01*
X143784381Y-98691238D01*
X143689143Y-98786476D01*
X143593905Y-98834095D01*
X144784381Y-98548381D02*
X144879620Y-98548381D01*
X144974858Y-98596000D01*
X145022477Y-98643619D01*
X145070096Y-98738857D01*
X145117715Y-98929333D01*
X145117715Y-99167429D01*
X145070096Y-99357905D01*
X145022477Y-99453143D01*
X144974858Y-99500762D01*
X144879620Y-99548381D01*
X144784381Y-99548381D01*
X144689143Y-99500762D01*
X144641524Y-99453143D01*
X144593905Y-99357905D01*
X144546286Y-99167429D01*
X144546286Y-98929333D01*
X144593905Y-98738857D01*
X144641524Y-98643619D01*
X144689143Y-98596000D01*
X144784381Y-98548381D01*
X145736762Y-98548381D02*
X145832001Y-98548381D01*
X145927239Y-98596000D01*
X145974858Y-98643619D01*
X146022477Y-98738857D01*
X146070096Y-98929333D01*
X146070096Y-99167429D01*
X146022477Y-99357905D01*
X145974858Y-99453143D01*
X145927239Y-99500762D01*
X145832001Y-99548381D01*
X145736762Y-99548381D01*
X145641524Y-99500762D01*
X145593905Y-99453143D01*
X145546286Y-99357905D01*
X145498667Y-99167429D01*
X145498667Y-98929333D01*
X145546286Y-98738857D01*
X145593905Y-98643619D01*
X145641524Y-98596000D01*
X145736762Y-98548381D01*
X147070096Y-99548381D02*
X146736762Y-99072190D01*
X146498667Y-99548381D02*
X146498667Y-98548381D01*
X146879620Y-98548381D01*
X146974858Y-98596000D01*
X147022477Y-98643619D01*
X147070096Y-98738857D01*
X147070096Y-98881714D01*
X147022477Y-98976952D01*
X146974858Y-99024571D01*
X146879620Y-99072190D01*
X146498667Y-99072190D01*
X138323334Y-99548381D02*
X137751905Y-99548381D01*
X138037619Y-99548381D02*
X138037619Y-98548381D01*
X137942381Y-98691238D01*
X137847143Y-98786476D01*
X137751905Y-98834095D01*
X139228096Y-98548381D02*
X138751905Y-98548381D01*
X138704286Y-99024571D01*
X138751905Y-98976952D01*
X138847143Y-98929333D01*
X139085239Y-98929333D01*
X139180477Y-98976952D01*
X139228096Y-99024571D01*
X139275715Y-99119810D01*
X139275715Y-99357905D01*
X139228096Y-99453143D01*
X139180477Y-99500762D01*
X139085239Y-99548381D01*
X138847143Y-99548381D01*
X138751905Y-99500762D01*
X138704286Y-99453143D01*
X139894762Y-98548381D02*
X139990001Y-98548381D01*
X140085239Y-98596000D01*
X140132858Y-98643619D01*
X140180477Y-98738857D01*
X140228096Y-98929333D01*
X140228096Y-99167429D01*
X140180477Y-99357905D01*
X140132858Y-99453143D01*
X140085239Y-99500762D01*
X139990001Y-99548381D01*
X139894762Y-99548381D01*
X139799524Y-99500762D01*
X139751905Y-99453143D01*
X139704286Y-99357905D01*
X139656667Y-99167429D01*
X139656667Y-98929333D01*
X139704286Y-98738857D01*
X139751905Y-98643619D01*
X139799524Y-98596000D01*
X139894762Y-98548381D01*
X141228096Y-99548381D02*
X140894762Y-99072190D01*
X140656667Y-99548381D02*
X140656667Y-98548381D01*
X141037620Y-98548381D01*
X141132858Y-98596000D01*
X141180477Y-98643619D01*
X141228096Y-98738857D01*
X141228096Y-98881714D01*
X141180477Y-98976952D01*
X141132858Y-99024571D01*
X141037620Y-99072190D01*
X140656667Y-99072190D01*
%LPC*%
D13*
X151047000Y-86650000D03*
X151047000Y-96810000D03*
D14*
X127552000Y-79030000D03*
D15*
X127552000Y-81570000D03*
D14*
X163112000Y-79030000D03*
D15*
X163112000Y-81570000D03*
D16*
X123483000Y-74981000D03*
X123483000Y-118669000D03*
X167171000Y-74981000D03*
X167171000Y-118669000D03*
D17*
X166922000Y-112050000D03*
X161842000Y-112050000D03*
X166922000Y-104430000D03*
X161842000Y-104430000D03*
X123742000Y-104430000D03*
X128822000Y-104430000D03*
X123742000Y-112050000D03*
X128822000Y-112050000D03*
D18*
X156762000Y-114590000D03*
D19*
X156762000Y-112050000D03*
X156762000Y-109510000D03*
X156762000Y-106970000D03*
X156762000Y-104430000D03*
X156762000Y-101890000D03*
X156762000Y-99350000D03*
X156762000Y-96810000D03*
X156762000Y-94270000D03*
X156762000Y-91730000D03*
X156762000Y-89190000D03*
X156762000Y-86650000D03*
X156762000Y-84110000D03*
X156762000Y-81570000D03*
X156762000Y-79030000D03*
D18*
X133902000Y-114590000D03*
D19*
X133902000Y-112050000D03*
X133902000Y-109510000D03*
X133902000Y-106970000D03*
X133902000Y-104430000D03*
X133902000Y-101890000D03*
X133902000Y-99350000D03*
X133902000Y-96810000D03*
X133902000Y-94270000D03*
X133902000Y-91730000D03*
X133902000Y-89190000D03*
X133902000Y-86650000D03*
X133902000Y-84110000D03*
X133902000Y-81570000D03*
X133902000Y-79030000D03*
D18*
X168192000Y-99350000D03*
D19*
X168192000Y-96810000D03*
X168192000Y-94270000D03*
X168192000Y-91730000D03*
X168192000Y-89190000D03*
X168192000Y-86650000D03*
D18*
X122472000Y-99350000D03*
D19*
X122472000Y-96810000D03*
X122472000Y-94270000D03*
X122472000Y-91730000D03*
X122472000Y-89190000D03*
X122472000Y-86650000D03*
D13*
X151682000Y-101890000D03*
X161842000Y-101890000D03*
X138982000Y-101890000D03*
X128822000Y-101890000D03*
X128822000Y-86650000D03*
X128822000Y-96810000D03*
X161842000Y-86650000D03*
X161842000Y-96810000D03*
X145332000Y-86650000D03*
X145332000Y-96810000D03*
X139617000Y-86650000D03*
X139617000Y-96810000D03*
D20*
X143300000Y-80300000D03*
D21*
X144570000Y-80300000D03*
D20*
X145840000Y-80300000D03*
X147110000Y-80300000D03*
M02*
