<?xml version='1.0' encoding='UTF-8' standalone='no'?>
<!-- Created with Fritzing (http://www.fritzing.org/) -->
<svg xmlns:svg='http://www.w3.org/2000/svg' xmlns='http://www.w3.org/2000/svg' version='1.2' baseProfile='tiny' x='0in' y='0in' width='0.6in' height='0.1in' viewBox='0 0 43.2 7.2' >
<g partID='58930'><g id="breadboard" xmlns="http://www.w3.org/2000/svg">
<rect height="7.2" width="43.2" xmlns="http://www.w3.org/2000/svg" fill="#404040"/>
<rect id="connector0pin" x="2.20843" y="2.20843" height="2.78312" width="2.78312" xmlns="http://www.w3.org/2000/svg" fill="none"/>
<g id="connector0terminal" x="2.51834" y="2.47054" height="2.25658" width="2.15829" xmlns="http://www.w3.org/2000/svg" fill="none"/>
<rect x="2.20843" y="2.20843" height="2.78312" width="2.78312" xmlns="http://www.w3.org/2000/svg"/>
<polygon points="1.18445,1.18445,2.20843,2.20843,4.99156,2.20843,6.01654,1.18445" xmlns="http://www.w3.org/2000/svg" fill="#2A2A29"/>
<polygon points="6.01654,1.18445,4.99156,2.20843,4.99156,4.99156,6.01654,6.01654" xmlns="http://www.w3.org/2000/svg" fill="#474747"/>
<polygon points="6.01654,6.01654,4.99156,4.99156,2.20843,4.99156,1.18445,6.01654" xmlns="http://www.w3.org/2000/svg" fill="#595959"/>
<polygon points="1.18445,6.01654,2.20843,4.99156,2.20843,2.20843,1.18445,1.18445" xmlns="http://www.w3.org/2000/svg" fill="#373737"/>
<rect id="connector1pin" x="9.40846" y="2.20843" height="2.78312" width="2.78312" xmlns="http://www.w3.org/2000/svg" fill="none"/>
<g id="connector1terminal" x="9.71834" y="2.47054" height="2.25658" width="2.15829" xmlns="http://www.w3.org/2000/svg" fill="none"/>
<rect x="9.40846" y="2.20843" height="2.78312" width="2.78312" xmlns="http://www.w3.org/2000/svg"/>
<polygon points="8.38447,1.18445,9.40846,2.20843,12.1915,2.20843,13.2165,1.18445" xmlns="http://www.w3.org/2000/svg" fill="#2A2A29"/>
<polygon points="13.2165,1.18445,12.1915,2.20843,12.1915,4.99156,13.2165,6.01654" xmlns="http://www.w3.org/2000/svg" fill="#474747"/>
<polygon points="13.2165,6.01654,12.1915,4.99156,9.40846,4.99156,8.38447,6.01654" xmlns="http://www.w3.org/2000/svg" fill="#595959"/>
<polygon points="8.38447,6.01654,9.40846,4.99156,9.40846,2.20843,8.38447,1.18445" xmlns="http://www.w3.org/2000/svg" fill="#373737"/>
<rect id="connector2pin" x="16.6085" y="2.20843" height="2.78312" width="2.78312" xmlns="http://www.w3.org/2000/svg" fill="none"/>
<g id="connector2terminal" x="16.9183" y="2.47054" height="2.25658" width="2.15829" xmlns="http://www.w3.org/2000/svg" fill="none"/>
<rect x="16.6085" y="2.20843" height="2.78312" width="2.78312" xmlns="http://www.w3.org/2000/svg"/>
<polygon points="15.5845,1.18445,16.6085,2.20843,19.3915,2.20843,20.4165,1.18445" xmlns="http://www.w3.org/2000/svg" fill="#2A2A29"/>
<polygon points="20.4165,1.18445,19.3915,2.20843,19.3915,4.99156,20.4165,6.01654" xmlns="http://www.w3.org/2000/svg" fill="#474747"/>
<polygon points="20.4165,6.01654,19.3915,4.99156,16.6085,4.99156,15.5845,6.01654" xmlns="http://www.w3.org/2000/svg" fill="#595959"/>
<polygon points="15.5845,6.01654,16.6085,4.99156,16.6085,2.20843,15.5845,1.18445" xmlns="http://www.w3.org/2000/svg" fill="#373737"/>
<rect id="connector3pin" x="23.8085" y="2.20843" height="2.78312" width="2.78312" xmlns="http://www.w3.org/2000/svg" fill="none"/>
<g id="connector3terminal" x="24.1183" y="2.47054" height="2.25658" width="2.15829" xmlns="http://www.w3.org/2000/svg" fill="none"/>
<rect x="23.8085" y="2.20843" height="2.78312" width="2.78312" xmlns="http://www.w3.org/2000/svg"/>
<polygon points="22.7845,1.18445,23.8085,2.20843,26.5915,2.20843,27.6165,1.18445" xmlns="http://www.w3.org/2000/svg" fill="#2A2A29"/>
<polygon points="27.6165,1.18445,26.5915,2.20843,26.5915,4.99156,27.6165,6.01654" xmlns="http://www.w3.org/2000/svg" fill="#474747"/>
<polygon points="27.6165,6.01654,26.5915,4.99156,23.8085,4.99156,22.7845,6.01654" xmlns="http://www.w3.org/2000/svg" fill="#595959"/>
<polygon points="22.7845,6.01654,23.8085,4.99156,23.8085,2.20843,22.7845,1.18445" xmlns="http://www.w3.org/2000/svg" fill="#373737"/>
<rect id="connector4pin" x="31.0085" y="2.20843" height="2.78312" width="2.78312" xmlns="http://www.w3.org/2000/svg" fill="none"/>
<g id="connector4terminal" x="31.3183" y="2.47054" height="2.25658" width="2.15829" xmlns="http://www.w3.org/2000/svg" fill="none"/>
<rect x="31.0085" y="2.20843" height="2.78312" width="2.78312" xmlns="http://www.w3.org/2000/svg"/>
<polygon points="29.9845,1.18445,31.0085,2.20843,33.7915,2.20843,34.8165,1.18445" xmlns="http://www.w3.org/2000/svg" fill="#2A2A29"/>
<polygon points="34.8165,1.18445,33.7915,2.20843,33.7915,4.99156,34.8165,6.01654" xmlns="http://www.w3.org/2000/svg" fill="#474747"/>
<polygon points="34.8165,6.01654,33.7915,4.99156,31.0085,4.99156,29.9845,6.01654" xmlns="http://www.w3.org/2000/svg" fill="#595959"/>
<polygon points="29.9845,6.01654,31.0085,4.99156,31.0085,2.20843,29.9845,1.18445" xmlns="http://www.w3.org/2000/svg" fill="#373737"/>
<rect id="connector5pin" x="38.2085" y="2.20843" height="2.78312" width="2.78312" xmlns="http://www.w3.org/2000/svg" fill="none"/>
<g id="connector5terminal" x="38.5183" y="2.47054" height="2.25658" width="2.15829" xmlns="http://www.w3.org/2000/svg" fill="none"/>
<rect x="38.2085" y="2.20843" height="2.78312" width="2.78312" xmlns="http://www.w3.org/2000/svg"/>
<polygon points="37.1845,1.18445,38.2085,2.20843,40.9915,2.20843,42.0165,1.18445" xmlns="http://www.w3.org/2000/svg" fill="#2A2A29"/>
<polygon points="42.0165,1.18445,40.9915,2.20843,40.9915,4.99156,42.0165,6.01654" xmlns="http://www.w3.org/2000/svg" fill="#474747"/>
<polygon points="42.0165,6.01654,40.9915,4.99156,38.2085,4.99156,37.1845,6.01654" xmlns="http://www.w3.org/2000/svg" fill="#595959"/>
<polygon points="37.1845,6.01654,38.2085,4.99156,38.2085,2.20843,37.1845,1.18445" xmlns="http://www.w3.org/2000/svg" fill="#373737"/>
</g>
</g></svg>