<?xml version="1.0" encoding="UTF-8" standalone="no"?>
<!-- Created with Inkscape (http://www.inkscape.org/) -->

<svg
   xmlns:dc="http://purl.org/dc/elements/1.1/"
   xmlns:cc="http://creativecommons.org/ns#"
   xmlns:rdf="http://www.w3.org/1999/02/22-rdf-syntax-ns#"
   xmlns:svg="http://www.w3.org/2000/svg"
   xmlns="http://www.w3.org/2000/svg"
   xmlns:sodipodi="http://sodipodi.sourceforge.net/DTD/sodipodi-0.dtd"
   xmlns:inkscape="http://www.inkscape.org/namespaces/inkscape"
   width="27.778694mm"
   height="27.774679mm"
   viewBox="0 0 98.428444 98.414217"
   id="svg2"
   version="1.1"
   inkscape:version="0.91 r13725"
   sodipodi:docname="piezo2.svg">
  <defs
     id="defs4" />
  <sodipodi:namedview
     id="base"
     pagecolor="#ffffff"
     bordercolor="#666666"
     borderopacity="1.0"
     inkscape:pageopacity="0.0"
     inkscape:pageshadow="2"
     inkscape:zoom="3.959798"
     inkscape:cx="51.052941"
     inkscape:cy="36.006608"
     inkscape:document-units="px"
     inkscape:current-layer="layer2"
     showgrid="false"
     inkscape:window-width="1366"
     inkscape:window-height="705"
     inkscape:window-x="-8"
     inkscape:window-y="-8"
     inkscape:window-maximized="1"
     fit-margin-top="0"
     fit-margin-left="0"
     fit-margin-right="0"
     fit-margin-bottom="0" />
  <metadata
     id="metadata7">
    <rdf:RDF>
      <cc:Work
         rdf:about="">
        <dc:format>image/svg+xml</dc:format>
        <dc:type
           rdf:resource="http://purl.org/dc/dcmitype/StillImage" />
        <dc:title></dc:title>
      </cc:Work>
    </rdf:RDF>
  </metadata>
  <g
     inkscape:label="Layer 1"
     inkscape:groupmode="layer"
     id="layer1"
     transform="translate(-310.62192,-430.9065)">
    <g
       id="g3395"
       transform="matrix(1.2499936,0,0,1.2499937,310.94964,432.54404)"
       style="fill:#d4aa00">
      <path
         id="path3338"
         d="m 35.6393,67.6584 0,8.244"
         inkscape:connector-curvature="0"
         style="fill:#d4aa00;stroke:#000000;stroke-width:2.99599004;stroke-linecap:round;stroke-linejoin:round" />
      <path
         id="path3340"
         d="m 42.8706,67.6584 0,8.244"
         inkscape:connector-curvature="0"
         style="fill:#d4aa00;stroke:#ff0000;stroke-width:2.99599004;stroke-linecap:round;stroke-linejoin:round" />
      <g
         id="g3342"
         partID="63090"
         style="fill:#d4aa00">
        <g
           id="breadboard"
           style="fill:#d4aa00">
          <rect
             x="34.1483"
             width="0.99866402"
             height="0.99866301"
             id="connector0pin"
             y="65.911697"
             style="fill:#d4aa00" />
          <rect
             x="41.3367"
             width="0.99866402"
             height="0.99866301"
             id="connector1pin"
             y="65.911697"
             style="fill:#d4aa00" />
          <g
             y1="67.749"
             x1="35.687"
             id="connector0leg"
             y2="76.004"
             x2="35.687"
             style="fill:#d4aa00;stroke:#000000;stroke-width:2.99599004;stroke-linecap:round" />
          <g
             y1="67.749"
             x1="42.928"
             id="connector1leg"
             y2="76.004"
             x2="42.928"
             style="fill:#d4aa00;stroke:#ff0000;stroke-width:2.99599004;stroke-linecap:round" />
          <path
             id="path3349"
             d="m 35.6393,53.0609 0,14.5975"
             inkscape:connector-curvature="0"
             style="fill:#d4aa00;stroke:#000000;stroke-width:2.99599004" />
          <path
             id="path3351"
             d="m 42.8706,53.0609 0,14.5975"
             inkscape:connector-curvature="0"
             style="fill:#d4aa00;stroke:#ff0000;stroke-width:2.99599004" />
          <g
             id="g3353"
             style="fill:#d4aa00">
            <path
               id="path3355"
               d="M 3.67908,22.9872 C 1.90445,23.4087 0,25.7755 0,28.3301 c 0,2.55458 1.77662,4.86049 3.67908,5.34285 1.90345,0.479358 10.2902,2.59852 10.2902,2.59852 l 2e-5,-15.88277 -10.29022,2.5985 z m 1.80758,7.3951 c -1.13448,0 -2.05325,-0.919768 -2.05325,-2.05325 0,-1.13448 0.918771,-2.05525 2.05325,-2.05525 1.13448,0 2.05325,0.919768 2.05325,2.05525 0,1.13445 -0.91877,2.05325 -2.05325,2.05325 z"
               inkscape:connector-curvature="0"
               style="fill:#d4aa00" />
          </g>
          <g
             id="g3357"
             style="fill:#d4aa00">
            <path
               id="path3359"
               d="M 74.8009,22.9852 C 72.89845,22.506841 64.5107,20.38668 64.5107,20.38668 l 0,15.8817 10.2902,-2.59852 c 1.77363,-0.422434 3.68008,-2.78827 3.68008,-5.34285 C 78.48,25.7725 76.7044,23.4666 74.8009,22.9852 Z m -1.8076,7.3981 c -1.13348,0 -2.05425,-0.919768 -2.05425,-2.05325 0,-1.13448 0.920768,-2.05425 2.05425,-2.05425 1.13448,0 2.05425,0.919768 2.05425,2.05425 5e-5,1.13345 -0.91975,2.05325 -2.05425,2.05325 z"
               inkscape:connector-curvature="0"
               style="fill:#d4aa00" />
          </g>
          <circle
             id="circle3361"
             cy="28.3291"
             cx="39.239498"
             r="28.327101"
             style="fill:#d4aa00" />
          <g
             id="g3363"
             style="fill:#d4aa00">
            <circle
               id="circle3365"
               cy="28.330099"
               cx="39.239498"
               r="28.3281"
               style="fill:#d4aa00" />
          </g>
          <circle
             id="circle3367"
             cy="28.330099"
             cx="39.240501"
             r="4.80757"
             style="fill:#d4aa00" />
          <path
             id="path3369"
             d="M 12.5123,33.3244 C 11.22602,26.44761 12.580209,19.0815 16.87047,12.8748 25.404,0.519305 42.3404,-2.57855 54.6968,5.96002"
             inkscape:connector-curvature="0"
             style="fill:#d4aa00;stroke:#58595b;stroke-width:1.85492003;stroke-linecap:round;stroke-linejoin:round" />
          <g
             id="g3371"
             style="fill:#d4aa00">
            <g
               id="g3373"
               style="fill:#d4aa00">
              <path
                 id="path3375"
                 d="m 54.0946,43.1832 c 8.21201,-8.212 8.21201,-21.4972 0,-29.7082 -8.21201,-8.212 -21.4972,-8.212 -29.7103,0 -8.21101,8.211 -8.21002,21.4962 0,29.7082 8.2131,8.211 21.5003,8.211 29.7103,0 z"
                 inkscape:connector-curvature="0"
                 style="fill:#d4aa00;stroke:#3f3f41;stroke-width:0.208221;stroke-linecap:round;stroke-linejoin:round" />
              <path
                 id="path3377"
                 d="m 26.0402,41.5314 c -7.29624,-7.29723 -7.29624,-19.1054 0,-26.4026 7.29624,-7.29723 19.1034,-7.29623 26.4017,0 7.29624,7.29823 7.29524,19.1034 -9.99e-4,26.4016 C 45.1446,48.8266 33.3364,48.8286 26.0402,41.5314 Z"
                 inkscape:connector-curvature="0"
                 style="fill:#d4aa00;stroke:#3f3f41;stroke-width:0.208221;stroke-linecap:round;stroke-linejoin:round" />
              <path
                 id="path3379"
                 d="m 50.795,39.8836 c 6.38446,-6.38245 6.37647,-16.7186 -0.007,-23.1001 -6.38346,-6.38345 -16.7186,-6.38944 -23.1011,-0.007 -6.38346,6.38245 -6.37447,16.7176 0.008,23.1021 6.3825,6.3785 16.7187,6.3884 23.1001,0.005 z"
                 inkscape:connector-curvature="0"
                 style="fill:#d4aa00;stroke:#3f3f41;stroke-width:0.208221;stroke-linecap:round;stroke-linejoin:round" />
              <path
                 id="path3381"
                 d="m 29.3348,38.2378 c -5.47667,-5.47667 -5.46269,-14.3398 0.007,-19.8085 5.46868,-5.46968 14.3318,-5.48266 19.8065,-0.007 5.47368,5.47467 5.46269,14.3378 -0.006,19.8065 -5.4697,5.4707 -14.3329,5.4837 -19.8075,0.009 z"
                 inkscape:connector-curvature="0"
                 style="fill:#d4aa00;stroke:#3f3f41;stroke-width:0.208221;stroke-linecap:round;stroke-linejoin:round" />
              <path
                 id="path3383"
                 d="m 47.4955,36.583 c 4.5559,-4.5559 4.5609,-11.945 0,-16.5079 -4.5609,-4.56189 -11.953,-4.5549 -16.5069,0 -4.55491,4.5559 -4.5629,11.945 0,16.5079 4.5608,4.5629 11.9519,4.5539 16.5069,0 z"
                 inkscape:connector-curvature="0"
                 style="fill:#d4aa00;stroke:#3f3f41;stroke-width:0.208221;stroke-linecap:round;stroke-linejoin:round" />
              <path
                 id="path3385"
                 d="m 32.6413,34.9292 c -3.64812,-3.64712 -3.65611,-9.54422 0,-13.2003 3.65511,-3.65511 9.55122,-3.64811 13.2003,9.99e-4 3.64812,3.64811 3.65511,9.54422 0,13.1993 -3.656,3.657101 -9.5522,3.648101 -13.2003,1e-6 z"
                 inkscape:connector-curvature="0"
                 style="fill:#d4aa00;stroke:#3f3f41;stroke-width:0.208221;stroke-linecap:round;stroke-linejoin:round" />
            </g>
          </g>
          <path
             id="path3387"
             d="m 27.8877,53.037 c 13.6487,6.26661 29.7931,0.288614 36.0598,-13.3591 3.41743,-7.43904 3.19373,-15.6241 0.07091,-22.5438"
             inkscape:connector-curvature="0"
             style="fill:#d4aa00;stroke:#303032;stroke-width:1.85492003;stroke-linecap:round;stroke-linejoin:round" />
        </g>
      </g>
    </g>
    <path
       style="fill:#d4aa00"
       d="m 354.64064,502.56074 c -2.69987,-0.41958 -4.35854,-0.86405 -7.13589,-1.9122 -2.42099,-0.91367 -3.02884,-1.42893 -2.60967,-2.21215 0.36747,-0.68662 1.01669,-0.66366 2.93498,0.10377 15.76965,6.30886 33.85331,-0.56568 41.51536,-15.78215 2.25158,-4.47152 3.24132,-8.27574 3.46588,-13.32168 0.21961,-4.93477 -0.45249,-8.98571 -2.28715,-13.78519 -0.74559,-1.95049 -0.60967,-2.69263 0.49317,-2.69263 0.52494,0 0.73912,0.23238 1.22331,1.32721 1.78573,4.03785 2.72084,8.82149 2.70255,13.82508 -0.0197,5.38999 -1.04876,10.01343 -3.28294,14.74989 -6.62315,14.04107 -21.72408,22.07705 -37.0196,19.70005 z"
       id="path3425"
       inkscape:connector-curvature="0" />
    <path
       style="fill:#d4aa00"
       d="m 325.73161,474.71076 c -0.86358,-1.6136 -0.94552,-9.21063 -0.14423,-13.37205 2.75207,-14.2927 14.26836,-25.52256 28.64423,-27.93177 3.00104,-0.50294 8.61747,-0.51733 11.4163,-0.0293 4.59104,0.80061 9.52109,2.67976 13.19307,5.0287 1.23659,0.79104 1.44106,1.0279 1.37364,1.59123 -0.14552,1.21577 -0.76282,1.28702 -2.39926,0.27695 -6.71626,-4.1455 -14.38859,-5.92329 -21.62953,-5.01187 -14.31217,1.80148 -25.49849,12.14883 -28.48133,26.34522 -0.59979,2.85462 -0.74036,8.68695 -0.27238,11.30112 0.15452,0.8631 0.15971,1.55627 0.0137,1.8309 -0.3109,0.58482 -1.39551,0.56636 -1.71423,-0.0292 z"
       id="path3427"
       inkscape:connector-curvature="0" />
  </g>
  <g
     inkscape:groupmode="layer"
     id="layer3"
     inkscape:label="Layer 3"
     transform="translate(-310.62192,-430.9065)">
    <rect
       style="fill:#ffffff"
       id="rect3483"
       width="98.237335"
       height="23.991123"
       x="310.62192"
       y="456.37219" />
  </g>
  <g
     inkscape:groupmode="layer"
     id="layer2"
     inkscape:label="Layer 2"
     style="display:inline"
     transform="translate(-310.62192,-430.9065)">
    <circle
       style="fill:#d4aa00"
       id="path3480"
       cx="360.26599"
       cy="467.14572"
       r="36.239223" />
  </g>
</svg>
